M48
; DRILL file {KiCad (5.1.2)-1} date 28-06-2019 17:44:23
; FORMAT={-:-/ absolute / inch / decimal}
; #@! TF.CreationDate,2019-06-28T17:44:23+01:00
; #@! TF.GenerationSoftware,Kicad,Pcbnew,(5.1.2)-1
FMAT,2
INCH
T1C0.0157
T2C0.0394
T3C0.0433
%
G90
G05
T1
X4.9173Y-4.5512
X5.0157Y-5.1024
X5.0433Y-5.3543
X5.0512Y-3.6142
X5.1142Y-4.1102
X5.1339Y-3.8976
X5.1378Y-4.5669
X5.1417Y-5.8228
X5.1614Y-5.2087
X5.1654Y-5.3425
X5.1654Y-5.4882
X5.3583Y-5.0984
X5.4173Y-5.1535
X5.5472Y-5.437
X5.5512Y-5.5197
X5.5827Y-5.6417
X5.5896Y-5.563
X5.6535Y-5.1496
X5.6772Y-4.6417
X5.7205Y-4.7835
X5.7677Y-4.7795
X5.8307Y-5.0157
X6.1654Y-4.748
X6.1811Y-4.3504
X6.189Y-5.9331
X6.6535Y-3.1693
X6.7913Y-4.1142
X6.7913Y-4.311
X6.8307Y-4.2126
X6.8504Y-4.0157
X6.8701Y-3.8189
X6.8701Y-4.0945
X6.9291Y-3.622
X6.9291Y-3.69
X7.0276Y-3.9764
X7.0472Y-3.6614
X7.0472Y-3.8189
T2
X7.7559Y-3.522
X7.7559Y-3.622
X7.7559Y-3.722
X7.7559Y-3.822
X7.7421Y-5.7087
X7.7421Y-5.8087
X7.7421Y-5.9087
X7.7421Y-6.0087
X7.7421Y-6.1087
X7.7421Y-6.2087
X7.7421Y-6.3087
X7.7421Y-6.4087
X5.7087Y-3.7795
X5.7087Y-3.8795
X5.7087Y-3.9795
X5.7087Y-4.0795
X5.7087Y-4.1795
X5.7087Y-4.2795
X6.7913Y-3.5433
X6.8913Y-3.5433
X6.9913Y-3.5433
X7.0913Y-3.5433
X7.1913Y-3.5433
X7.2913Y-3.5433
X7.7559Y-4.0945
X7.7559Y-4.1945
X7.7559Y-4.2945
X7.7421Y-4.5276
X7.7421Y-4.6276
X7.7421Y-4.7276
X7.7421Y-4.8276
X7.7421Y-4.9276
X7.7421Y-5.0276
X7.7421Y-5.1276
X7.7421Y-5.2276
X7.7421Y-5.3276
X7.7421Y-5.4276
X8.189Y-4.0913
X8.189Y-4.1913
X8.189Y-4.2913
X8.2677Y-5.7087
X8.2677Y-5.8087
X8.2677Y-5.9087
X8.2677Y-6.0087
X8.2677Y-6.1087
X8.2677Y-6.2087
X8.2677Y-6.3087
X8.2677Y-6.4087
X8.2677Y-4.5331
X8.2677Y-4.6331
X8.2677Y-4.7331
X8.2677Y-4.8331
X8.2677Y-4.9331
X8.2677Y-5.0331
X8.2677Y-5.1331
X8.2677Y-5.2331
X8.2677Y-5.3331
X8.2677Y-5.4331
X5.7087Y-5.4331
X5.7087Y-5.5331
X5.7087Y-5.6331
X6.9488Y-4.3504
X7.0488Y-4.3504
X7.1488Y-4.3504
X8.2283Y-3.5189
X8.2283Y-3.6189
X8.2283Y-3.7189
X8.2283Y-3.8189
X5.2362Y-3.7795
X5.2362Y-3.8795
X5.2362Y-3.9795
X5.2362Y-4.0795
X5.2362Y-4.1795
X5.2362Y-4.2795
X6.7913Y-3.3465
X6.8913Y-3.3465
X6.9913Y-3.3465
X7.0913Y-3.3465
X7.1913Y-3.3465
X7.2913Y-3.3465
X7.0472Y-5.4724
X7.0472Y-5.5724
X7.0472Y-5.6724
X7.7559Y-3.1102
X7.7559Y-3.2102
X7.7559Y-3.3102
T3
X5.0787Y-6.6142
X5.0787Y-6.7913
X5.3346Y-6.6142
X5.3346Y-6.7913
X7.874Y-6.6142
X7.874Y-6.7913
X8.1299Y-6.6142
X8.1299Y-6.7913
X6.6535Y-6.6142
X6.6535Y-6.7913
X6.9094Y-6.6142
X6.9094Y-6.7913
X5.5906Y-6.6142
X5.5906Y-6.7913
X5.8465Y-6.6142
X5.8465Y-6.7913
X4.5669Y-6.6142
X4.5669Y-6.7913
X4.8228Y-6.6142
X4.8228Y-6.7913
X6.1024Y-6.6142
X6.1024Y-6.7913
X6.3583Y-6.6142
X6.3583Y-6.7913
X7.1654Y-6.6142
X7.1654Y-6.7913
X7.4213Y-6.6142
X7.4213Y-6.7913
T0
M30
