G04 #@! TF.GenerationSoftware,KiCad,Pcbnew,(5.1.2)-1*
G04 #@! TF.CreationDate,2019-06-28T17:44:25+01:00*
G04 #@! TF.ProjectId,Clock_7_Segment,436c6f63-6b5f-4375-9f53-65676d656e74,rev?*
G04 #@! TF.SameCoordinates,Original*
G04 #@! TF.FileFunction,Legend,Bot*
G04 #@! TF.FilePolarity,Positive*
%FSLAX46Y46*%
G04 Gerber Fmt 4.6, Leading zero omitted, Abs format (unit mm)*
G04 Created by KiCad (PCBNEW (5.1.2)-1) date 2019-06-28 17:44:25*
%MOMM*%
%LPD*%
G04 APERTURE LIST*
%ADD10C,0.150000*%
%ADD11C,0.120000*%
G04 APERTURE END LIST*
D10*
X188261904Y-138452380D02*
X188261904Y-137452380D01*
X187690476Y-138452380D01*
X187690476Y-137452380D01*
X187071428Y-138452380D02*
X187166666Y-138404761D01*
X187214285Y-138357142D01*
X187261904Y-138261904D01*
X187261904Y-137976190D01*
X187214285Y-137880952D01*
X187166666Y-137833333D01*
X187071428Y-137785714D01*
X186928571Y-137785714D01*
X186833333Y-137833333D01*
X186785714Y-137880952D01*
X186738095Y-137976190D01*
X186738095Y-138261904D01*
X186785714Y-138357142D01*
X186833333Y-138404761D01*
X186928571Y-138452380D01*
X187071428Y-138452380D01*
X186452380Y-137785714D02*
X186071428Y-137785714D01*
X186309523Y-137452380D02*
X186309523Y-138309523D01*
X186261904Y-138404761D01*
X186166666Y-138452380D01*
X186071428Y-138452380D01*
X184404761Y-138357142D02*
X184452380Y-138404761D01*
X184595238Y-138452380D01*
X184690476Y-138452380D01*
X184833333Y-138404761D01*
X184928571Y-138309523D01*
X184976190Y-138214285D01*
X185023809Y-138023809D01*
X185023809Y-137880952D01*
X184976190Y-137690476D01*
X184928571Y-137595238D01*
X184833333Y-137500000D01*
X184690476Y-137452380D01*
X184595238Y-137452380D01*
X184452380Y-137500000D01*
X184404761Y-137547619D01*
X183833333Y-138452380D02*
X183928571Y-138404761D01*
X183976190Y-138357142D01*
X184023809Y-138261904D01*
X184023809Y-137976190D01*
X183976190Y-137880952D01*
X183928571Y-137833333D01*
X183833333Y-137785714D01*
X183690476Y-137785714D01*
X183595238Y-137833333D01*
X183547619Y-137880952D01*
X183500000Y-137976190D01*
X183500000Y-138261904D01*
X183547619Y-138357142D01*
X183595238Y-138404761D01*
X183690476Y-138452380D01*
X183833333Y-138452380D01*
X183071428Y-137785714D02*
X183071428Y-138452380D01*
X183071428Y-137880952D02*
X183023809Y-137833333D01*
X182928571Y-137785714D01*
X182785714Y-137785714D01*
X182690476Y-137833333D01*
X182642857Y-137928571D01*
X182642857Y-138452380D01*
X182166666Y-137785714D02*
X182166666Y-138452380D01*
X182166666Y-137880952D02*
X182119047Y-137833333D01*
X182023809Y-137785714D01*
X181880952Y-137785714D01*
X181785714Y-137833333D01*
X181738095Y-137928571D01*
X181738095Y-138452380D01*
X187547619Y-144452380D02*
X187547619Y-143452380D01*
X187547619Y-143928571D02*
X186976190Y-143928571D01*
X186976190Y-144452380D02*
X186976190Y-143452380D01*
X185738095Y-144452380D02*
X185738095Y-143785714D01*
X185738095Y-143452380D02*
X185785714Y-143500000D01*
X185738095Y-143547619D01*
X185690476Y-143500000D01*
X185738095Y-143452380D01*
X185738095Y-143547619D01*
X185261904Y-143785714D02*
X185261904Y-144452380D01*
X185261904Y-143880952D02*
X185214285Y-143833333D01*
X185119047Y-143785714D01*
X184976190Y-143785714D01*
X184880952Y-143833333D01*
X184833333Y-143928571D01*
X184833333Y-144452380D01*
X184357142Y-143785714D02*
X184357142Y-144785714D01*
X184357142Y-143833333D02*
X184261904Y-143785714D01*
X184071428Y-143785714D01*
X183976190Y-143833333D01*
X183928571Y-143880952D01*
X183880952Y-143976190D01*
X183880952Y-144261904D01*
X183928571Y-144357142D01*
X183976190Y-144404761D01*
X184071428Y-144452380D01*
X184261904Y-144452380D01*
X184357142Y-144404761D01*
X183023809Y-143785714D02*
X183023809Y-144452380D01*
X183452380Y-143785714D02*
X183452380Y-144309523D01*
X183404761Y-144404761D01*
X183309523Y-144452380D01*
X183166666Y-144452380D01*
X183071428Y-144404761D01*
X183023809Y-144357142D01*
X182690476Y-143785714D02*
X182309523Y-143785714D01*
X182547619Y-143452380D02*
X182547619Y-144309523D01*
X182500000Y-144404761D01*
X182404761Y-144452380D01*
X182309523Y-144452380D01*
X184761904Y-140500000D02*
X184857142Y-140452380D01*
X185000000Y-140452380D01*
X185142857Y-140500000D01*
X185238095Y-140595238D01*
X185285714Y-140690476D01*
X185333333Y-140880952D01*
X185333333Y-141023809D01*
X185285714Y-141214285D01*
X185238095Y-141309523D01*
X185142857Y-141404761D01*
X185000000Y-141452380D01*
X184904761Y-141452380D01*
X184761904Y-141404761D01*
X184714285Y-141357142D01*
X184714285Y-141023809D01*
X184904761Y-141023809D01*
X184285714Y-141452380D02*
X184285714Y-140452380D01*
X183714285Y-141452380D01*
X183714285Y-140452380D01*
X183238095Y-141452380D02*
X183238095Y-140452380D01*
X183000000Y-140452380D01*
X182857142Y-140500000D01*
X182761904Y-140595238D01*
X182714285Y-140690476D01*
X182666666Y-140880952D01*
X182666666Y-141023809D01*
X182714285Y-141214285D01*
X182761904Y-141309523D01*
X182857142Y-141404761D01*
X183000000Y-141452380D01*
X183238095Y-141452380D01*
D11*
X164000000Y-122000000D02*
X194000000Y-122000000D01*
X194000000Y-166000000D02*
X164000000Y-166000000D01*
X194000000Y-76000000D02*
X194000000Y-166000000D01*
X114000000Y-76000000D02*
X194000000Y-76000000D01*
X114000000Y-166000000D02*
X114000000Y-76000000D01*
X164000000Y-166000000D02*
X114000000Y-166000000D01*
X164000000Y-76000000D02*
X164000000Y-166000000D01*
X114000000Y-76000000D02*
X164000000Y-76000000D01*
X177600000Y-87200000D02*
X177600000Y-86700000D01*
X180100000Y-87200000D02*
X180100000Y-86700000D01*
X185100000Y-86700000D02*
X185100000Y-88200000D01*
X183100000Y-86700000D02*
X183100000Y-88200000D01*
X180100000Y-87200000D02*
X180100000Y-88200000D01*
X177600000Y-87200000D02*
X177600000Y-88200000D01*
X175100000Y-86700000D02*
X175100000Y-88200000D01*
X172600000Y-86700000D02*
X172600000Y-88200000D01*
D10*
X173535714Y-79107142D02*
X173607142Y-79035714D01*
X173678571Y-78821428D01*
X173678571Y-78678571D01*
X173607142Y-78464285D01*
X173464285Y-78321428D01*
X173321428Y-78250000D01*
X173035714Y-78178571D01*
X172821428Y-78178571D01*
X172535714Y-78250000D01*
X172392857Y-78321428D01*
X172250000Y-78464285D01*
X172178571Y-78678571D01*
X172178571Y-78821428D01*
X172250000Y-79035714D01*
X172321428Y-79107142D01*
X173678571Y-80464285D02*
X173678571Y-79750000D01*
X172178571Y-79750000D01*
X173678571Y-81821428D02*
X172964285Y-81321428D01*
X173678571Y-80964285D02*
X172178571Y-80964285D01*
X172178571Y-81535714D01*
X172250000Y-81678571D01*
X172321428Y-81750000D01*
X172464285Y-81821428D01*
X172678571Y-81821428D01*
X172821428Y-81750000D01*
X172892857Y-81678571D01*
X172964285Y-81535714D01*
X172964285Y-80964285D01*
X174578571Y-79178571D02*
X174578571Y-79464285D01*
X174650000Y-79607142D01*
X174792857Y-79750000D01*
X175078571Y-79821428D01*
X175578571Y-79821428D01*
X175864285Y-79750000D01*
X176007142Y-79607142D01*
X176078571Y-79464285D01*
X176078571Y-79178571D01*
X176007142Y-79035714D01*
X175864285Y-78892857D01*
X175578571Y-78821428D01*
X175078571Y-78821428D01*
X174792857Y-78892857D01*
X174650000Y-79035714D01*
X174578571Y-79178571D01*
X175292857Y-80464285D02*
X175292857Y-80964285D01*
X176078571Y-81178571D02*
X176078571Y-80464285D01*
X174578571Y-80464285D01*
X174578571Y-81178571D01*
X178335714Y-79107142D02*
X178407142Y-79035714D01*
X178478571Y-78821428D01*
X178478571Y-78678571D01*
X178407142Y-78464285D01*
X178264285Y-78321428D01*
X178121428Y-78250000D01*
X177835714Y-78178571D01*
X177621428Y-78178571D01*
X177335714Y-78250000D01*
X177192857Y-78321428D01*
X177050000Y-78464285D01*
X176978571Y-78678571D01*
X176978571Y-78821428D01*
X177050000Y-79035714D01*
X177121428Y-79107142D01*
X178478571Y-80464285D02*
X178478571Y-79750000D01*
X176978571Y-79750000D01*
X178478571Y-80964285D02*
X176978571Y-80964285D01*
X178478571Y-81821428D02*
X177621428Y-81178571D01*
X176978571Y-81821428D02*
X177835714Y-80964285D01*
X180807142Y-76785714D02*
X180878571Y-77000000D01*
X180878571Y-77357142D01*
X180807142Y-77500000D01*
X180735714Y-77571428D01*
X180592857Y-77642857D01*
X180450000Y-77642857D01*
X180307142Y-77571428D01*
X180235714Y-77500000D01*
X180164285Y-77357142D01*
X180092857Y-77071428D01*
X180021428Y-76928571D01*
X179950000Y-76857142D01*
X179807142Y-76785714D01*
X179664285Y-76785714D01*
X179521428Y-76857142D01*
X179450000Y-76928571D01*
X179378571Y-77071428D01*
X179378571Y-77428571D01*
X179450000Y-77642857D01*
X180092857Y-78285714D02*
X180092857Y-78785714D01*
X180878571Y-79000000D02*
X180878571Y-78285714D01*
X179378571Y-78285714D01*
X179378571Y-79000000D01*
X180878571Y-80500000D02*
X180164285Y-80000000D01*
X180878571Y-79642857D02*
X179378571Y-79642857D01*
X179378571Y-80214285D01*
X179450000Y-80357142D01*
X179521428Y-80428571D01*
X179664285Y-80500000D01*
X179878571Y-80500000D01*
X180021428Y-80428571D01*
X180092857Y-80357142D01*
X180164285Y-80214285D01*
X180164285Y-79642857D01*
X179378571Y-82571428D02*
X179378571Y-82857142D01*
X179450000Y-83000000D01*
X179592857Y-83142857D01*
X179878571Y-83214285D01*
X180378571Y-83214285D01*
X180664285Y-83142857D01*
X180807142Y-83000000D01*
X180878571Y-82857142D01*
X180878571Y-82571428D01*
X180807142Y-82428571D01*
X180664285Y-82285714D01*
X180378571Y-82214285D01*
X179878571Y-82214285D01*
X179592857Y-82285714D01*
X179450000Y-82428571D01*
X179378571Y-82571428D01*
X181850000Y-78857142D02*
X181778571Y-78714285D01*
X181778571Y-78500000D01*
X181850000Y-78285714D01*
X181992857Y-78142857D01*
X182135714Y-78071428D01*
X182421428Y-78000000D01*
X182635714Y-78000000D01*
X182921428Y-78071428D01*
X183064285Y-78142857D01*
X183207142Y-78285714D01*
X183278571Y-78500000D01*
X183278571Y-78642857D01*
X183207142Y-78857142D01*
X183135714Y-78928571D01*
X182635714Y-78928571D01*
X182635714Y-78642857D01*
X183278571Y-79571428D02*
X181778571Y-79571428D01*
X183278571Y-80428571D01*
X181778571Y-80428571D01*
X183278571Y-81142857D02*
X181778571Y-81142857D01*
X181778571Y-81500000D01*
X181850000Y-81714285D01*
X181992857Y-81857142D01*
X182135714Y-81928571D01*
X182421428Y-82000000D01*
X182635714Y-82000000D01*
X182921428Y-81928571D01*
X183064285Y-81857142D01*
X183207142Y-81714285D01*
X183278571Y-81500000D01*
X183278571Y-81142857D01*
X184178571Y-78000000D02*
X185678571Y-78500000D01*
X184178571Y-79000000D01*
X185535714Y-80357142D02*
X185607142Y-80285714D01*
X185678571Y-80071428D01*
X185678571Y-79928571D01*
X185607142Y-79714285D01*
X185464285Y-79571428D01*
X185321428Y-79500000D01*
X185035714Y-79428571D01*
X184821428Y-79428571D01*
X184535714Y-79500000D01*
X184392857Y-79571428D01*
X184250000Y-79714285D01*
X184178571Y-79928571D01*
X184178571Y-80071428D01*
X184250000Y-80285714D01*
X184321428Y-80357142D01*
X185535714Y-81857142D02*
X185607142Y-81785714D01*
X185678571Y-81571428D01*
X185678571Y-81428571D01*
X185607142Y-81214285D01*
X185464285Y-81071428D01*
X185321428Y-81000000D01*
X185035714Y-80928571D01*
X184821428Y-80928571D01*
X184535714Y-81000000D01*
X184392857Y-81071428D01*
X184250000Y-81214285D01*
X184178571Y-81428571D01*
X184178571Y-81571428D01*
X184250000Y-81785714D01*
X184321428Y-81857142D01*
X152000000Y-137778571D02*
X151500000Y-139278571D01*
X151000000Y-137778571D01*
X149642857Y-139135714D02*
X149714285Y-139207142D01*
X149928571Y-139278571D01*
X150071428Y-139278571D01*
X150285714Y-139207142D01*
X150428571Y-139064285D01*
X150500000Y-138921428D01*
X150571428Y-138635714D01*
X150571428Y-138421428D01*
X150500000Y-138135714D01*
X150428571Y-137992857D01*
X150285714Y-137850000D01*
X150071428Y-137778571D01*
X149928571Y-137778571D01*
X149714285Y-137850000D01*
X149642857Y-137921428D01*
X148142857Y-139135714D02*
X148214285Y-139207142D01*
X148428571Y-139278571D01*
X148571428Y-139278571D01*
X148785714Y-139207142D01*
X148928571Y-139064285D01*
X149000000Y-138921428D01*
X149071428Y-138635714D01*
X149071428Y-138421428D01*
X149000000Y-138135714D01*
X148928571Y-137992857D01*
X148785714Y-137850000D01*
X148571428Y-137778571D01*
X148428571Y-137778571D01*
X148214285Y-137850000D01*
X148142857Y-137921428D01*
X151142857Y-140250000D02*
X151285714Y-140178571D01*
X151500000Y-140178571D01*
X151714285Y-140250000D01*
X151857142Y-140392857D01*
X151928571Y-140535714D01*
X152000000Y-140821428D01*
X152000000Y-141035714D01*
X151928571Y-141321428D01*
X151857142Y-141464285D01*
X151714285Y-141607142D01*
X151500000Y-141678571D01*
X151357142Y-141678571D01*
X151142857Y-141607142D01*
X151071428Y-141535714D01*
X151071428Y-141035714D01*
X151357142Y-141035714D01*
X150428571Y-141678571D02*
X150428571Y-140178571D01*
X149571428Y-141678571D01*
X149571428Y-140178571D01*
X148857142Y-141678571D02*
X148857142Y-140178571D01*
X148500000Y-140178571D01*
X148285714Y-140250000D01*
X148142857Y-140392857D01*
X148071428Y-140535714D01*
X148000000Y-140821428D01*
X148000000Y-141035714D01*
X148071428Y-141321428D01*
X148142857Y-141464285D01*
X148285714Y-141607142D01*
X148500000Y-141678571D01*
X148857142Y-141678571D01*
X150428571Y-144078571D02*
X150428571Y-142578571D01*
X150428571Y-143292857D02*
X149571428Y-143292857D01*
X149571428Y-144078571D02*
X149571428Y-142578571D01*
X122892857Y-96535714D02*
X122964285Y-96607142D01*
X123178571Y-96678571D01*
X123321428Y-96678571D01*
X123535714Y-96607142D01*
X123678571Y-96464285D01*
X123750000Y-96321428D01*
X123821428Y-96035714D01*
X123821428Y-95821428D01*
X123750000Y-95535714D01*
X123678571Y-95392857D01*
X123535714Y-95250000D01*
X123321428Y-95178571D01*
X123178571Y-95178571D01*
X122964285Y-95250000D01*
X122892857Y-95321428D01*
X121535714Y-96678571D02*
X122250000Y-96678571D01*
X122250000Y-95178571D01*
X120178571Y-96678571D02*
X120678571Y-95964285D01*
X121035714Y-96678571D02*
X121035714Y-95178571D01*
X120464285Y-95178571D01*
X120321428Y-95250000D01*
X120250000Y-95321428D01*
X120178571Y-95464285D01*
X120178571Y-95678571D01*
X120250000Y-95821428D01*
X120321428Y-95892857D01*
X120464285Y-95964285D01*
X121035714Y-95964285D01*
X122821428Y-97578571D02*
X122535714Y-97578571D01*
X122392857Y-97650000D01*
X122250000Y-97792857D01*
X122178571Y-98078571D01*
X122178571Y-98578571D01*
X122250000Y-98864285D01*
X122392857Y-99007142D01*
X122535714Y-99078571D01*
X122821428Y-99078571D01*
X122964285Y-99007142D01*
X123107142Y-98864285D01*
X123178571Y-98578571D01*
X123178571Y-98078571D01*
X123107142Y-97792857D01*
X122964285Y-97650000D01*
X122821428Y-97578571D01*
X121535714Y-98292857D02*
X121035714Y-98292857D01*
X120821428Y-99078571D02*
X121535714Y-99078571D01*
X121535714Y-97578571D01*
X120821428Y-97578571D01*
X122892857Y-101335714D02*
X122964285Y-101407142D01*
X123178571Y-101478571D01*
X123321428Y-101478571D01*
X123535714Y-101407142D01*
X123678571Y-101264285D01*
X123750000Y-101121428D01*
X123821428Y-100835714D01*
X123821428Y-100621428D01*
X123750000Y-100335714D01*
X123678571Y-100192857D01*
X123535714Y-100050000D01*
X123321428Y-99978571D01*
X123178571Y-99978571D01*
X122964285Y-100050000D01*
X122892857Y-100121428D01*
X121535714Y-101478571D02*
X122250000Y-101478571D01*
X122250000Y-99978571D01*
X121035714Y-101478571D02*
X121035714Y-99978571D01*
X120178571Y-101478571D02*
X120821428Y-100621428D01*
X120178571Y-99978571D02*
X121035714Y-100835714D01*
X125571428Y-103807142D02*
X125357142Y-103878571D01*
X125000000Y-103878571D01*
X124857142Y-103807142D01*
X124785714Y-103735714D01*
X124714285Y-103592857D01*
X124714285Y-103450000D01*
X124785714Y-103307142D01*
X124857142Y-103235714D01*
X125000000Y-103164285D01*
X125285714Y-103092857D01*
X125428571Y-103021428D01*
X125500000Y-102950000D01*
X125571428Y-102807142D01*
X125571428Y-102664285D01*
X125500000Y-102521428D01*
X125428571Y-102450000D01*
X125285714Y-102378571D01*
X124928571Y-102378571D01*
X124714285Y-102450000D01*
X124071428Y-103092857D02*
X123571428Y-103092857D01*
X123357142Y-103878571D02*
X124071428Y-103878571D01*
X124071428Y-102378571D01*
X123357142Y-102378571D01*
X121857142Y-103878571D02*
X122357142Y-103164285D01*
X122714285Y-103878571D02*
X122714285Y-102378571D01*
X122142857Y-102378571D01*
X122000000Y-102450000D01*
X121928571Y-102521428D01*
X121857142Y-102664285D01*
X121857142Y-102878571D01*
X121928571Y-103021428D01*
X122000000Y-103092857D01*
X122142857Y-103164285D01*
X122714285Y-103164285D01*
X120071428Y-103878571D02*
X120071428Y-102378571D01*
X119357142Y-103878571D02*
X119357142Y-102378571D01*
X118500000Y-103878571D01*
X118500000Y-102378571D01*
X123142857Y-104850000D02*
X123285714Y-104778571D01*
X123500000Y-104778571D01*
X123714285Y-104850000D01*
X123857142Y-104992857D01*
X123928571Y-105135714D01*
X124000000Y-105421428D01*
X124000000Y-105635714D01*
X123928571Y-105921428D01*
X123857142Y-106064285D01*
X123714285Y-106207142D01*
X123500000Y-106278571D01*
X123357142Y-106278571D01*
X123142857Y-106207142D01*
X123071428Y-106135714D01*
X123071428Y-105635714D01*
X123357142Y-105635714D01*
X122428571Y-106278571D02*
X122428571Y-104778571D01*
X121571428Y-106278571D01*
X121571428Y-104778571D01*
X120857142Y-106278571D02*
X120857142Y-104778571D01*
X120500000Y-104778571D01*
X120285714Y-104850000D01*
X120142857Y-104992857D01*
X120071428Y-105135714D01*
X120000000Y-105421428D01*
X120000000Y-105635714D01*
X120071428Y-105921428D01*
X120142857Y-106064285D01*
X120285714Y-106207142D01*
X120500000Y-106278571D01*
X120857142Y-106278571D01*
X124000000Y-107178571D02*
X123500000Y-108678571D01*
X123000000Y-107178571D01*
X121642857Y-108535714D02*
X121714285Y-108607142D01*
X121928571Y-108678571D01*
X122071428Y-108678571D01*
X122285714Y-108607142D01*
X122428571Y-108464285D01*
X122500000Y-108321428D01*
X122571428Y-108035714D01*
X122571428Y-107821428D01*
X122500000Y-107535714D01*
X122428571Y-107392857D01*
X122285714Y-107250000D01*
X122071428Y-107178571D01*
X121928571Y-107178571D01*
X121714285Y-107250000D01*
X121642857Y-107321428D01*
X120142857Y-108535714D02*
X120214285Y-108607142D01*
X120428571Y-108678571D01*
X120571428Y-108678571D01*
X120785714Y-108607142D01*
X120928571Y-108464285D01*
X121000000Y-108321428D01*
X121071428Y-108035714D01*
X121071428Y-107821428D01*
X121000000Y-107535714D01*
X120928571Y-107392857D01*
X120785714Y-107250000D01*
X120571428Y-107178571D01*
X120428571Y-107178571D01*
X120214285Y-107250000D01*
X120142857Y-107321428D01*
X153892857Y-96535714D02*
X153964285Y-96607142D01*
X154178571Y-96678571D01*
X154321428Y-96678571D01*
X154535714Y-96607142D01*
X154678571Y-96464285D01*
X154750000Y-96321428D01*
X154821428Y-96035714D01*
X154821428Y-95821428D01*
X154750000Y-95535714D01*
X154678571Y-95392857D01*
X154535714Y-95250000D01*
X154321428Y-95178571D01*
X154178571Y-95178571D01*
X153964285Y-95250000D01*
X153892857Y-95321428D01*
X152535714Y-96678571D02*
X153250000Y-96678571D01*
X153250000Y-95178571D01*
X151178571Y-96678571D02*
X151678571Y-95964285D01*
X152035714Y-96678571D02*
X152035714Y-95178571D01*
X151464285Y-95178571D01*
X151321428Y-95250000D01*
X151250000Y-95321428D01*
X151178571Y-95464285D01*
X151178571Y-95678571D01*
X151250000Y-95821428D01*
X151321428Y-95892857D01*
X151464285Y-95964285D01*
X152035714Y-95964285D01*
X153821428Y-97578571D02*
X153535714Y-97578571D01*
X153392857Y-97650000D01*
X153250000Y-97792857D01*
X153178571Y-98078571D01*
X153178571Y-98578571D01*
X153250000Y-98864285D01*
X153392857Y-99007142D01*
X153535714Y-99078571D01*
X153821428Y-99078571D01*
X153964285Y-99007142D01*
X154107142Y-98864285D01*
X154178571Y-98578571D01*
X154178571Y-98078571D01*
X154107142Y-97792857D01*
X153964285Y-97650000D01*
X153821428Y-97578571D01*
X152535714Y-98292857D02*
X152035714Y-98292857D01*
X151821428Y-99078571D02*
X152535714Y-99078571D01*
X152535714Y-97578571D01*
X151821428Y-97578571D01*
X153892857Y-101335714D02*
X153964285Y-101407142D01*
X154178571Y-101478571D01*
X154321428Y-101478571D01*
X154535714Y-101407142D01*
X154678571Y-101264285D01*
X154750000Y-101121428D01*
X154821428Y-100835714D01*
X154821428Y-100621428D01*
X154750000Y-100335714D01*
X154678571Y-100192857D01*
X154535714Y-100050000D01*
X154321428Y-99978571D01*
X154178571Y-99978571D01*
X153964285Y-100050000D01*
X153892857Y-100121428D01*
X152535714Y-101478571D02*
X153250000Y-101478571D01*
X153250000Y-99978571D01*
X152035714Y-101478571D02*
X152035714Y-99978571D01*
X151178571Y-101478571D02*
X151821428Y-100621428D01*
X151178571Y-99978571D02*
X152035714Y-100835714D01*
X157571428Y-103807142D02*
X157357142Y-103878571D01*
X157000000Y-103878571D01*
X156857142Y-103807142D01*
X156785714Y-103735714D01*
X156714285Y-103592857D01*
X156714285Y-103450000D01*
X156785714Y-103307142D01*
X156857142Y-103235714D01*
X157000000Y-103164285D01*
X157285714Y-103092857D01*
X157428571Y-103021428D01*
X157500000Y-102950000D01*
X157571428Y-102807142D01*
X157571428Y-102664285D01*
X157500000Y-102521428D01*
X157428571Y-102450000D01*
X157285714Y-102378571D01*
X156928571Y-102378571D01*
X156714285Y-102450000D01*
X156071428Y-103092857D02*
X155571428Y-103092857D01*
X155357142Y-103878571D02*
X156071428Y-103878571D01*
X156071428Y-102378571D01*
X155357142Y-102378571D01*
X153857142Y-103878571D02*
X154357142Y-103164285D01*
X154714285Y-103878571D02*
X154714285Y-102378571D01*
X154142857Y-102378571D01*
X154000000Y-102450000D01*
X153928571Y-102521428D01*
X153857142Y-102664285D01*
X153857142Y-102878571D01*
X153928571Y-103021428D01*
X154000000Y-103092857D01*
X154142857Y-103164285D01*
X154714285Y-103164285D01*
X151785714Y-102378571D02*
X151500000Y-102378571D01*
X151357142Y-102450000D01*
X151214285Y-102592857D01*
X151142857Y-102878571D01*
X151142857Y-103378571D01*
X151214285Y-103664285D01*
X151357142Y-103807142D01*
X151500000Y-103878571D01*
X151785714Y-103878571D01*
X151928571Y-103807142D01*
X152071428Y-103664285D01*
X152142857Y-103378571D01*
X152142857Y-102878571D01*
X152071428Y-102592857D01*
X151928571Y-102450000D01*
X151785714Y-102378571D01*
X150500000Y-102378571D02*
X150500000Y-103592857D01*
X150428571Y-103735714D01*
X150357142Y-103807142D01*
X150214285Y-103878571D01*
X149928571Y-103878571D01*
X149785714Y-103807142D01*
X149714285Y-103735714D01*
X149642857Y-103592857D01*
X149642857Y-102378571D01*
X149142857Y-102378571D02*
X148285714Y-102378571D01*
X148714285Y-103878571D02*
X148714285Y-102378571D01*
X154142857Y-104850000D02*
X154285714Y-104778571D01*
X154500000Y-104778571D01*
X154714285Y-104850000D01*
X154857142Y-104992857D01*
X154928571Y-105135714D01*
X155000000Y-105421428D01*
X155000000Y-105635714D01*
X154928571Y-105921428D01*
X154857142Y-106064285D01*
X154714285Y-106207142D01*
X154500000Y-106278571D01*
X154357142Y-106278571D01*
X154142857Y-106207142D01*
X154071428Y-106135714D01*
X154071428Y-105635714D01*
X154357142Y-105635714D01*
X153428571Y-106278571D02*
X153428571Y-104778571D01*
X152571428Y-106278571D01*
X152571428Y-104778571D01*
X151857142Y-106278571D02*
X151857142Y-104778571D01*
X151500000Y-104778571D01*
X151285714Y-104850000D01*
X151142857Y-104992857D01*
X151071428Y-105135714D01*
X151000000Y-105421428D01*
X151000000Y-105635714D01*
X151071428Y-105921428D01*
X151142857Y-106064285D01*
X151285714Y-106207142D01*
X151500000Y-106278571D01*
X151857142Y-106278571D01*
X155000000Y-107178571D02*
X154500000Y-108678571D01*
X154000000Y-107178571D01*
X152642857Y-108535714D02*
X152714285Y-108607142D01*
X152928571Y-108678571D01*
X153071428Y-108678571D01*
X153285714Y-108607142D01*
X153428571Y-108464285D01*
X153500000Y-108321428D01*
X153571428Y-108035714D01*
X153571428Y-107821428D01*
X153500000Y-107535714D01*
X153428571Y-107392857D01*
X153285714Y-107250000D01*
X153071428Y-107178571D01*
X152928571Y-107178571D01*
X152714285Y-107250000D01*
X152642857Y-107321428D01*
X151142857Y-108535714D02*
X151214285Y-108607142D01*
X151428571Y-108678571D01*
X151571428Y-108678571D01*
X151785714Y-108607142D01*
X151928571Y-108464285D01*
X152000000Y-108321428D01*
X152071428Y-108035714D01*
X152071428Y-107821428D01*
X152000000Y-107535714D01*
X151928571Y-107392857D01*
X151785714Y-107250000D01*
X151571428Y-107178571D01*
X151428571Y-107178571D01*
X151214285Y-107250000D01*
X151142857Y-107321428D01*
D11*
X179000000Y-104560000D02*
X175550000Y-104560000D01*
X179000000Y-104560000D02*
X180950000Y-104560000D01*
X179000000Y-94440000D02*
X177050000Y-94440000D01*
X179000000Y-94440000D02*
X180950000Y-94440000D01*
X171170000Y-83670000D02*
X171170000Y-85000000D01*
X172500000Y-83670000D02*
X171170000Y-83670000D01*
X173770000Y-83670000D02*
X173770000Y-86330000D01*
X173770000Y-86330000D02*
X186530000Y-86330000D01*
X173770000Y-83670000D02*
X186530000Y-83670000D01*
X186530000Y-83670000D02*
X186530000Y-86330000D01*
X171170000Y-88670000D02*
X171170000Y-90000000D01*
X172500000Y-88670000D02*
X171170000Y-88670000D01*
X173770000Y-88670000D02*
X173770000Y-91330000D01*
X173770000Y-91330000D02*
X186530000Y-91330000D01*
X173770000Y-88670000D02*
X186530000Y-88670000D01*
X186530000Y-88670000D02*
X186530000Y-91330000D01*
D10*
X179761904Y-104852380D02*
X179761904Y-105661904D01*
X179714285Y-105757142D01*
X179666666Y-105804761D01*
X179571428Y-105852380D01*
X179380952Y-105852380D01*
X179285714Y-105804761D01*
X179238095Y-105757142D01*
X179190476Y-105661904D01*
X179190476Y-104852380D01*
X178761904Y-104947619D02*
X178714285Y-104900000D01*
X178619047Y-104852380D01*
X178380952Y-104852380D01*
X178285714Y-104900000D01*
X178238095Y-104947619D01*
X178190476Y-105042857D01*
X178190476Y-105138095D01*
X178238095Y-105280952D01*
X178809523Y-105852380D01*
X178190476Y-105852380D01*
X169622380Y-84666666D02*
X170336666Y-84666666D01*
X170479523Y-84619047D01*
X170574761Y-84523809D01*
X170622380Y-84380952D01*
X170622380Y-84285714D01*
X169955714Y-85571428D02*
X170622380Y-85571428D01*
X169574761Y-85333333D02*
X170289047Y-85095238D01*
X170289047Y-85714285D01*
X169622380Y-89666666D02*
X170336666Y-89666666D01*
X170479523Y-89619047D01*
X170574761Y-89523809D01*
X170622380Y-89380952D01*
X170622380Y-89285714D01*
X169622380Y-90047619D02*
X169622380Y-90666666D01*
X170003333Y-90333333D01*
X170003333Y-90476190D01*
X170050952Y-90571428D01*
X170098571Y-90619047D01*
X170193809Y-90666666D01*
X170431904Y-90666666D01*
X170527142Y-90619047D01*
X170574761Y-90571428D01*
X170622380Y-90476190D01*
X170622380Y-90190476D01*
X170574761Y-90095238D01*
X170527142Y-90047619D01*
M02*
