G04 #@! TF.GenerationSoftware,KiCad,Pcbnew,(5.1.2)-1*
G04 #@! TF.CreationDate,2019-06-28T17:44:25+01:00*
G04 #@! TF.ProjectId,Clock_7_Segment,436c6f63-6b5f-4375-9f53-65676d656e74,rev?*
G04 #@! TF.SameCoordinates,Original*
G04 #@! TF.FileFunction,Soldermask,Bot*
G04 #@! TF.FilePolarity,Negative*
%FSLAX46Y46*%
G04 Gerber Fmt 4.6, Leading zero omitted, Abs format (unit mm)*
G04 Created by KiCad (PCBNEW (5.1.2)-1) date 2019-06-28 17:44:25*
%MOMM*%
%LPD*%
G04 APERTURE LIST*
%ADD10C,0.100000*%
G04 APERTURE END LIST*
D10*
G36*
X116306564Y-171489389D02*
G01*
X116497833Y-171568615D01*
X116497835Y-171568616D01*
X116669973Y-171683635D01*
X116816365Y-171830027D01*
X116931385Y-172002167D01*
X117010611Y-172193436D01*
X117051000Y-172396484D01*
X117051000Y-172603516D01*
X117010611Y-172806564D01*
X116931385Y-172997833D01*
X116931384Y-172997835D01*
X116816365Y-173169973D01*
X116669973Y-173316365D01*
X116497835Y-173431384D01*
X116497834Y-173431385D01*
X116497833Y-173431385D01*
X116306564Y-173510611D01*
X116103516Y-173551000D01*
X115896484Y-173551000D01*
X115693436Y-173510611D01*
X115502167Y-173431385D01*
X115502166Y-173431385D01*
X115502165Y-173431384D01*
X115330027Y-173316365D01*
X115183635Y-173169973D01*
X115068616Y-172997835D01*
X115068615Y-172997833D01*
X114989389Y-172806564D01*
X114949000Y-172603516D01*
X114949000Y-172396484D01*
X114989389Y-172193436D01*
X115068615Y-172002167D01*
X115183635Y-171830027D01*
X115330027Y-171683635D01*
X115502165Y-171568616D01*
X115502167Y-171568615D01*
X115693436Y-171489389D01*
X115896484Y-171449000D01*
X116103516Y-171449000D01*
X116306564Y-171489389D01*
X116306564Y-171489389D01*
G37*
G36*
X200306564Y-171489389D02*
G01*
X200497833Y-171568615D01*
X200497835Y-171568616D01*
X200669973Y-171683635D01*
X200816365Y-171830027D01*
X200931385Y-172002167D01*
X201010611Y-172193436D01*
X201051000Y-172396484D01*
X201051000Y-172603516D01*
X201010611Y-172806564D01*
X200931385Y-172997833D01*
X200931384Y-172997835D01*
X200816365Y-173169973D01*
X200669973Y-173316365D01*
X200497835Y-173431384D01*
X200497834Y-173431385D01*
X200497833Y-173431385D01*
X200306564Y-173510611D01*
X200103516Y-173551000D01*
X199896484Y-173551000D01*
X199693436Y-173510611D01*
X199502167Y-173431385D01*
X199502166Y-173431385D01*
X199502165Y-173431384D01*
X199330027Y-173316365D01*
X199183635Y-173169973D01*
X199068616Y-172997835D01*
X199068615Y-172997833D01*
X198989389Y-172806564D01*
X198949000Y-172603516D01*
X198949000Y-172396484D01*
X198989389Y-172193436D01*
X199068615Y-172002167D01*
X199183635Y-171830027D01*
X199330027Y-171683635D01*
X199502165Y-171568616D01*
X199502167Y-171568615D01*
X199693436Y-171489389D01*
X199896484Y-171449000D01*
X200103516Y-171449000D01*
X200306564Y-171489389D01*
X200306564Y-171489389D01*
G37*
G36*
X206806564Y-171489389D02*
G01*
X206997833Y-171568615D01*
X206997835Y-171568616D01*
X207169973Y-171683635D01*
X207316365Y-171830027D01*
X207431385Y-172002167D01*
X207510611Y-172193436D01*
X207551000Y-172396484D01*
X207551000Y-172603516D01*
X207510611Y-172806564D01*
X207431385Y-172997833D01*
X207431384Y-172997835D01*
X207316365Y-173169973D01*
X207169973Y-173316365D01*
X206997835Y-173431384D01*
X206997834Y-173431385D01*
X206997833Y-173431385D01*
X206806564Y-173510611D01*
X206603516Y-173551000D01*
X206396484Y-173551000D01*
X206193436Y-173510611D01*
X206002167Y-173431385D01*
X206002166Y-173431385D01*
X206002165Y-173431384D01*
X205830027Y-173316365D01*
X205683635Y-173169973D01*
X205568616Y-172997835D01*
X205568615Y-172997833D01*
X205489389Y-172806564D01*
X205449000Y-172603516D01*
X205449000Y-172396484D01*
X205489389Y-172193436D01*
X205568615Y-172002167D01*
X205683635Y-171830027D01*
X205830027Y-171683635D01*
X206002165Y-171568616D01*
X206002167Y-171568615D01*
X206193436Y-171489389D01*
X206396484Y-171449000D01*
X206603516Y-171449000D01*
X206806564Y-171489389D01*
X206806564Y-171489389D01*
G37*
G36*
X188806564Y-171489389D02*
G01*
X188997833Y-171568615D01*
X188997835Y-171568616D01*
X189169973Y-171683635D01*
X189316365Y-171830027D01*
X189431385Y-172002167D01*
X189510611Y-172193436D01*
X189551000Y-172396484D01*
X189551000Y-172603516D01*
X189510611Y-172806564D01*
X189431385Y-172997833D01*
X189431384Y-172997835D01*
X189316365Y-173169973D01*
X189169973Y-173316365D01*
X188997835Y-173431384D01*
X188997834Y-173431385D01*
X188997833Y-173431385D01*
X188806564Y-173510611D01*
X188603516Y-173551000D01*
X188396484Y-173551000D01*
X188193436Y-173510611D01*
X188002167Y-173431385D01*
X188002166Y-173431385D01*
X188002165Y-173431384D01*
X187830027Y-173316365D01*
X187683635Y-173169973D01*
X187568616Y-172997835D01*
X187568615Y-172997833D01*
X187489389Y-172806564D01*
X187449000Y-172603516D01*
X187449000Y-172396484D01*
X187489389Y-172193436D01*
X187568615Y-172002167D01*
X187683635Y-171830027D01*
X187830027Y-171683635D01*
X188002165Y-171568616D01*
X188002167Y-171568615D01*
X188193436Y-171489389D01*
X188396484Y-171449000D01*
X188603516Y-171449000D01*
X188806564Y-171489389D01*
X188806564Y-171489389D01*
G37*
G36*
X182306564Y-171489389D02*
G01*
X182497833Y-171568615D01*
X182497835Y-171568616D01*
X182669973Y-171683635D01*
X182816365Y-171830027D01*
X182931385Y-172002167D01*
X183010611Y-172193436D01*
X183051000Y-172396484D01*
X183051000Y-172603516D01*
X183010611Y-172806564D01*
X182931385Y-172997833D01*
X182931384Y-172997835D01*
X182816365Y-173169973D01*
X182669973Y-173316365D01*
X182497835Y-173431384D01*
X182497834Y-173431385D01*
X182497833Y-173431385D01*
X182306564Y-173510611D01*
X182103516Y-173551000D01*
X181896484Y-173551000D01*
X181693436Y-173510611D01*
X181502167Y-173431385D01*
X181502166Y-173431385D01*
X181502165Y-173431384D01*
X181330027Y-173316365D01*
X181183635Y-173169973D01*
X181068616Y-172997835D01*
X181068615Y-172997833D01*
X180989389Y-172806564D01*
X180949000Y-172603516D01*
X180949000Y-172396484D01*
X180989389Y-172193436D01*
X181068615Y-172002167D01*
X181183635Y-171830027D01*
X181330027Y-171683635D01*
X181502165Y-171568616D01*
X181502167Y-171568615D01*
X181693436Y-171489389D01*
X181896484Y-171449000D01*
X182103516Y-171449000D01*
X182306564Y-171489389D01*
X182306564Y-171489389D01*
G37*
G36*
X175806564Y-171489389D02*
G01*
X175997833Y-171568615D01*
X175997835Y-171568616D01*
X176169973Y-171683635D01*
X176316365Y-171830027D01*
X176431385Y-172002167D01*
X176510611Y-172193436D01*
X176551000Y-172396484D01*
X176551000Y-172603516D01*
X176510611Y-172806564D01*
X176431385Y-172997833D01*
X176431384Y-172997835D01*
X176316365Y-173169973D01*
X176169973Y-173316365D01*
X175997835Y-173431384D01*
X175997834Y-173431385D01*
X175997833Y-173431385D01*
X175806564Y-173510611D01*
X175603516Y-173551000D01*
X175396484Y-173551000D01*
X175193436Y-173510611D01*
X175002167Y-173431385D01*
X175002166Y-173431385D01*
X175002165Y-173431384D01*
X174830027Y-173316365D01*
X174683635Y-173169973D01*
X174568616Y-172997835D01*
X174568615Y-172997833D01*
X174489389Y-172806564D01*
X174449000Y-172603516D01*
X174449000Y-172396484D01*
X174489389Y-172193436D01*
X174568615Y-172002167D01*
X174683635Y-171830027D01*
X174830027Y-171683635D01*
X175002165Y-171568616D01*
X175002167Y-171568615D01*
X175193436Y-171489389D01*
X175396484Y-171449000D01*
X175603516Y-171449000D01*
X175806564Y-171489389D01*
X175806564Y-171489389D01*
G37*
G36*
X169306564Y-171489389D02*
G01*
X169497833Y-171568615D01*
X169497835Y-171568616D01*
X169669973Y-171683635D01*
X169816365Y-171830027D01*
X169931385Y-172002167D01*
X170010611Y-172193436D01*
X170051000Y-172396484D01*
X170051000Y-172603516D01*
X170010611Y-172806564D01*
X169931385Y-172997833D01*
X169931384Y-172997835D01*
X169816365Y-173169973D01*
X169669973Y-173316365D01*
X169497835Y-173431384D01*
X169497834Y-173431385D01*
X169497833Y-173431385D01*
X169306564Y-173510611D01*
X169103516Y-173551000D01*
X168896484Y-173551000D01*
X168693436Y-173510611D01*
X168502167Y-173431385D01*
X168502166Y-173431385D01*
X168502165Y-173431384D01*
X168330027Y-173316365D01*
X168183635Y-173169973D01*
X168068616Y-172997835D01*
X168068615Y-172997833D01*
X167989389Y-172806564D01*
X167949000Y-172603516D01*
X167949000Y-172396484D01*
X167989389Y-172193436D01*
X168068615Y-172002167D01*
X168183635Y-171830027D01*
X168330027Y-171683635D01*
X168502165Y-171568616D01*
X168502167Y-171568615D01*
X168693436Y-171489389D01*
X168896484Y-171449000D01*
X169103516Y-171449000D01*
X169306564Y-171489389D01*
X169306564Y-171489389D01*
G37*
G36*
X161806564Y-171489389D02*
G01*
X161997833Y-171568615D01*
X161997835Y-171568616D01*
X162169973Y-171683635D01*
X162316365Y-171830027D01*
X162431385Y-172002167D01*
X162510611Y-172193436D01*
X162551000Y-172396484D01*
X162551000Y-172603516D01*
X162510611Y-172806564D01*
X162431385Y-172997833D01*
X162431384Y-172997835D01*
X162316365Y-173169973D01*
X162169973Y-173316365D01*
X161997835Y-173431384D01*
X161997834Y-173431385D01*
X161997833Y-173431385D01*
X161806564Y-173510611D01*
X161603516Y-173551000D01*
X161396484Y-173551000D01*
X161193436Y-173510611D01*
X161002167Y-173431385D01*
X161002166Y-173431385D01*
X161002165Y-173431384D01*
X160830027Y-173316365D01*
X160683635Y-173169973D01*
X160568616Y-172997835D01*
X160568615Y-172997833D01*
X160489389Y-172806564D01*
X160449000Y-172603516D01*
X160449000Y-172396484D01*
X160489389Y-172193436D01*
X160568615Y-172002167D01*
X160683635Y-171830027D01*
X160830027Y-171683635D01*
X161002165Y-171568616D01*
X161002167Y-171568615D01*
X161193436Y-171489389D01*
X161396484Y-171449000D01*
X161603516Y-171449000D01*
X161806564Y-171489389D01*
X161806564Y-171489389D01*
G37*
G36*
X148806564Y-171489389D02*
G01*
X148997833Y-171568615D01*
X148997835Y-171568616D01*
X149169973Y-171683635D01*
X149316365Y-171830027D01*
X149431385Y-172002167D01*
X149510611Y-172193436D01*
X149551000Y-172396484D01*
X149551000Y-172603516D01*
X149510611Y-172806564D01*
X149431385Y-172997833D01*
X149431384Y-172997835D01*
X149316365Y-173169973D01*
X149169973Y-173316365D01*
X148997835Y-173431384D01*
X148997834Y-173431385D01*
X148997833Y-173431385D01*
X148806564Y-173510611D01*
X148603516Y-173551000D01*
X148396484Y-173551000D01*
X148193436Y-173510611D01*
X148002167Y-173431385D01*
X148002166Y-173431385D01*
X148002165Y-173431384D01*
X147830027Y-173316365D01*
X147683635Y-173169973D01*
X147568616Y-172997835D01*
X147568615Y-172997833D01*
X147489389Y-172806564D01*
X147449000Y-172603516D01*
X147449000Y-172396484D01*
X147489389Y-172193436D01*
X147568615Y-172002167D01*
X147683635Y-171830027D01*
X147830027Y-171683635D01*
X148002165Y-171568616D01*
X148002167Y-171568615D01*
X148193436Y-171489389D01*
X148396484Y-171449000D01*
X148603516Y-171449000D01*
X148806564Y-171489389D01*
X148806564Y-171489389D01*
G37*
G36*
X155306564Y-171489389D02*
G01*
X155497833Y-171568615D01*
X155497835Y-171568616D01*
X155669973Y-171683635D01*
X155816365Y-171830027D01*
X155931385Y-172002167D01*
X156010611Y-172193436D01*
X156051000Y-172396484D01*
X156051000Y-172603516D01*
X156010611Y-172806564D01*
X155931385Y-172997833D01*
X155931384Y-172997835D01*
X155816365Y-173169973D01*
X155669973Y-173316365D01*
X155497835Y-173431384D01*
X155497834Y-173431385D01*
X155497833Y-173431385D01*
X155306564Y-173510611D01*
X155103516Y-173551000D01*
X154896484Y-173551000D01*
X154693436Y-173510611D01*
X154502167Y-173431385D01*
X154502166Y-173431385D01*
X154502165Y-173431384D01*
X154330027Y-173316365D01*
X154183635Y-173169973D01*
X154068616Y-172997835D01*
X154068615Y-172997833D01*
X153989389Y-172806564D01*
X153949000Y-172603516D01*
X153949000Y-172396484D01*
X153989389Y-172193436D01*
X154068615Y-172002167D01*
X154183635Y-171830027D01*
X154330027Y-171683635D01*
X154502165Y-171568616D01*
X154502167Y-171568615D01*
X154693436Y-171489389D01*
X154896484Y-171449000D01*
X155103516Y-171449000D01*
X155306564Y-171489389D01*
X155306564Y-171489389D01*
G37*
G36*
X122806564Y-171489389D02*
G01*
X122997833Y-171568615D01*
X122997835Y-171568616D01*
X123169973Y-171683635D01*
X123316365Y-171830027D01*
X123431385Y-172002167D01*
X123510611Y-172193436D01*
X123551000Y-172396484D01*
X123551000Y-172603516D01*
X123510611Y-172806564D01*
X123431385Y-172997833D01*
X123431384Y-172997835D01*
X123316365Y-173169973D01*
X123169973Y-173316365D01*
X122997835Y-173431384D01*
X122997834Y-173431385D01*
X122997833Y-173431385D01*
X122806564Y-173510611D01*
X122603516Y-173551000D01*
X122396484Y-173551000D01*
X122193436Y-173510611D01*
X122002167Y-173431385D01*
X122002166Y-173431385D01*
X122002165Y-173431384D01*
X121830027Y-173316365D01*
X121683635Y-173169973D01*
X121568616Y-172997835D01*
X121568615Y-172997833D01*
X121489389Y-172806564D01*
X121449000Y-172603516D01*
X121449000Y-172396484D01*
X121489389Y-172193436D01*
X121568615Y-172002167D01*
X121683635Y-171830027D01*
X121830027Y-171683635D01*
X122002165Y-171568616D01*
X122002167Y-171568615D01*
X122193436Y-171489389D01*
X122396484Y-171449000D01*
X122603516Y-171449000D01*
X122806564Y-171489389D01*
X122806564Y-171489389D01*
G37*
G36*
X129306564Y-171489389D02*
G01*
X129497833Y-171568615D01*
X129497835Y-171568616D01*
X129669973Y-171683635D01*
X129816365Y-171830027D01*
X129931385Y-172002167D01*
X130010611Y-172193436D01*
X130051000Y-172396484D01*
X130051000Y-172603516D01*
X130010611Y-172806564D01*
X129931385Y-172997833D01*
X129931384Y-172997835D01*
X129816365Y-173169973D01*
X129669973Y-173316365D01*
X129497835Y-173431384D01*
X129497834Y-173431385D01*
X129497833Y-173431385D01*
X129306564Y-173510611D01*
X129103516Y-173551000D01*
X128896484Y-173551000D01*
X128693436Y-173510611D01*
X128502167Y-173431385D01*
X128502166Y-173431385D01*
X128502165Y-173431384D01*
X128330027Y-173316365D01*
X128183635Y-173169973D01*
X128068616Y-172997835D01*
X128068615Y-172997833D01*
X127989389Y-172806564D01*
X127949000Y-172603516D01*
X127949000Y-172396484D01*
X127989389Y-172193436D01*
X128068615Y-172002167D01*
X128183635Y-171830027D01*
X128330027Y-171683635D01*
X128502165Y-171568616D01*
X128502167Y-171568615D01*
X128693436Y-171489389D01*
X128896484Y-171449000D01*
X129103516Y-171449000D01*
X129306564Y-171489389D01*
X129306564Y-171489389D01*
G37*
G36*
X142306564Y-171489389D02*
G01*
X142497833Y-171568615D01*
X142497835Y-171568616D01*
X142669973Y-171683635D01*
X142816365Y-171830027D01*
X142931385Y-172002167D01*
X143010611Y-172193436D01*
X143051000Y-172396484D01*
X143051000Y-172603516D01*
X143010611Y-172806564D01*
X142931385Y-172997833D01*
X142931384Y-172997835D01*
X142816365Y-173169973D01*
X142669973Y-173316365D01*
X142497835Y-173431384D01*
X142497834Y-173431385D01*
X142497833Y-173431385D01*
X142306564Y-173510611D01*
X142103516Y-173551000D01*
X141896484Y-173551000D01*
X141693436Y-173510611D01*
X141502167Y-173431385D01*
X141502166Y-173431385D01*
X141502165Y-173431384D01*
X141330027Y-173316365D01*
X141183635Y-173169973D01*
X141068616Y-172997835D01*
X141068615Y-172997833D01*
X140989389Y-172806564D01*
X140949000Y-172603516D01*
X140949000Y-172396484D01*
X140989389Y-172193436D01*
X141068615Y-172002167D01*
X141183635Y-171830027D01*
X141330027Y-171683635D01*
X141502165Y-171568616D01*
X141502167Y-171568615D01*
X141693436Y-171489389D01*
X141896484Y-171449000D01*
X142103516Y-171449000D01*
X142306564Y-171489389D01*
X142306564Y-171489389D01*
G37*
G36*
X135806564Y-171489389D02*
G01*
X135997833Y-171568615D01*
X135997835Y-171568616D01*
X136169973Y-171683635D01*
X136316365Y-171830027D01*
X136431385Y-172002167D01*
X136510611Y-172193436D01*
X136551000Y-172396484D01*
X136551000Y-172603516D01*
X136510611Y-172806564D01*
X136431385Y-172997833D01*
X136431384Y-172997835D01*
X136316365Y-173169973D01*
X136169973Y-173316365D01*
X135997835Y-173431384D01*
X135997834Y-173431385D01*
X135997833Y-173431385D01*
X135806564Y-173510611D01*
X135603516Y-173551000D01*
X135396484Y-173551000D01*
X135193436Y-173510611D01*
X135002167Y-173431385D01*
X135002166Y-173431385D01*
X135002165Y-173431384D01*
X134830027Y-173316365D01*
X134683635Y-173169973D01*
X134568616Y-172997835D01*
X134568615Y-172997833D01*
X134489389Y-172806564D01*
X134449000Y-172603516D01*
X134449000Y-172396484D01*
X134489389Y-172193436D01*
X134568615Y-172002167D01*
X134683635Y-171830027D01*
X134830027Y-171683635D01*
X135002165Y-171568616D01*
X135002167Y-171568615D01*
X135193436Y-171489389D01*
X135396484Y-171449000D01*
X135603516Y-171449000D01*
X135806564Y-171489389D01*
X135806564Y-171489389D01*
G37*
G36*
X135806564Y-166989389D02*
G01*
X135997833Y-167068615D01*
X135997835Y-167068616D01*
X136169973Y-167183635D01*
X136316365Y-167330027D01*
X136431385Y-167502167D01*
X136510611Y-167693436D01*
X136551000Y-167896484D01*
X136551000Y-168103516D01*
X136510611Y-168306564D01*
X136431385Y-168497833D01*
X136431384Y-168497835D01*
X136316365Y-168669973D01*
X136169973Y-168816365D01*
X135997835Y-168931384D01*
X135997834Y-168931385D01*
X135997833Y-168931385D01*
X135806564Y-169010611D01*
X135603516Y-169051000D01*
X135396484Y-169051000D01*
X135193436Y-169010611D01*
X135002167Y-168931385D01*
X135002166Y-168931385D01*
X135002165Y-168931384D01*
X134830027Y-168816365D01*
X134683635Y-168669973D01*
X134568616Y-168497835D01*
X134568615Y-168497833D01*
X134489389Y-168306564D01*
X134449000Y-168103516D01*
X134449000Y-167896484D01*
X134489389Y-167693436D01*
X134568615Y-167502167D01*
X134683635Y-167330027D01*
X134830027Y-167183635D01*
X135002165Y-167068616D01*
X135002167Y-167068615D01*
X135193436Y-166989389D01*
X135396484Y-166949000D01*
X135603516Y-166949000D01*
X135806564Y-166989389D01*
X135806564Y-166989389D01*
G37*
G36*
X116306564Y-166989389D02*
G01*
X116497833Y-167068615D01*
X116497835Y-167068616D01*
X116669973Y-167183635D01*
X116816365Y-167330027D01*
X116931385Y-167502167D01*
X117010611Y-167693436D01*
X117051000Y-167896484D01*
X117051000Y-168103516D01*
X117010611Y-168306564D01*
X116931385Y-168497833D01*
X116931384Y-168497835D01*
X116816365Y-168669973D01*
X116669973Y-168816365D01*
X116497835Y-168931384D01*
X116497834Y-168931385D01*
X116497833Y-168931385D01*
X116306564Y-169010611D01*
X116103516Y-169051000D01*
X115896484Y-169051000D01*
X115693436Y-169010611D01*
X115502167Y-168931385D01*
X115502166Y-168931385D01*
X115502165Y-168931384D01*
X115330027Y-168816365D01*
X115183635Y-168669973D01*
X115068616Y-168497835D01*
X115068615Y-168497833D01*
X114989389Y-168306564D01*
X114949000Y-168103516D01*
X114949000Y-167896484D01*
X114989389Y-167693436D01*
X115068615Y-167502167D01*
X115183635Y-167330027D01*
X115330027Y-167183635D01*
X115502165Y-167068616D01*
X115502167Y-167068615D01*
X115693436Y-166989389D01*
X115896484Y-166949000D01*
X116103516Y-166949000D01*
X116306564Y-166989389D01*
X116306564Y-166989389D01*
G37*
G36*
X122806564Y-166989389D02*
G01*
X122997833Y-167068615D01*
X122997835Y-167068616D01*
X123169973Y-167183635D01*
X123316365Y-167330027D01*
X123431385Y-167502167D01*
X123510611Y-167693436D01*
X123551000Y-167896484D01*
X123551000Y-168103516D01*
X123510611Y-168306564D01*
X123431385Y-168497833D01*
X123431384Y-168497835D01*
X123316365Y-168669973D01*
X123169973Y-168816365D01*
X122997835Y-168931384D01*
X122997834Y-168931385D01*
X122997833Y-168931385D01*
X122806564Y-169010611D01*
X122603516Y-169051000D01*
X122396484Y-169051000D01*
X122193436Y-169010611D01*
X122002167Y-168931385D01*
X122002166Y-168931385D01*
X122002165Y-168931384D01*
X121830027Y-168816365D01*
X121683635Y-168669973D01*
X121568616Y-168497835D01*
X121568615Y-168497833D01*
X121489389Y-168306564D01*
X121449000Y-168103516D01*
X121449000Y-167896484D01*
X121489389Y-167693436D01*
X121568615Y-167502167D01*
X121683635Y-167330027D01*
X121830027Y-167183635D01*
X122002165Y-167068616D01*
X122002167Y-167068615D01*
X122193436Y-166989389D01*
X122396484Y-166949000D01*
X122603516Y-166949000D01*
X122806564Y-166989389D01*
X122806564Y-166989389D01*
G37*
G36*
X129306564Y-166989389D02*
G01*
X129497833Y-167068615D01*
X129497835Y-167068616D01*
X129669973Y-167183635D01*
X129816365Y-167330027D01*
X129931385Y-167502167D01*
X130010611Y-167693436D01*
X130051000Y-167896484D01*
X130051000Y-168103516D01*
X130010611Y-168306564D01*
X129931385Y-168497833D01*
X129931384Y-168497835D01*
X129816365Y-168669973D01*
X129669973Y-168816365D01*
X129497835Y-168931384D01*
X129497834Y-168931385D01*
X129497833Y-168931385D01*
X129306564Y-169010611D01*
X129103516Y-169051000D01*
X128896484Y-169051000D01*
X128693436Y-169010611D01*
X128502167Y-168931385D01*
X128502166Y-168931385D01*
X128502165Y-168931384D01*
X128330027Y-168816365D01*
X128183635Y-168669973D01*
X128068616Y-168497835D01*
X128068615Y-168497833D01*
X127989389Y-168306564D01*
X127949000Y-168103516D01*
X127949000Y-167896484D01*
X127989389Y-167693436D01*
X128068615Y-167502167D01*
X128183635Y-167330027D01*
X128330027Y-167183635D01*
X128502165Y-167068616D01*
X128502167Y-167068615D01*
X128693436Y-166989389D01*
X128896484Y-166949000D01*
X129103516Y-166949000D01*
X129306564Y-166989389D01*
X129306564Y-166989389D01*
G37*
G36*
X142306564Y-166989389D02*
G01*
X142497833Y-167068615D01*
X142497835Y-167068616D01*
X142669973Y-167183635D01*
X142816365Y-167330027D01*
X142931385Y-167502167D01*
X143010611Y-167693436D01*
X143051000Y-167896484D01*
X143051000Y-168103516D01*
X143010611Y-168306564D01*
X142931385Y-168497833D01*
X142931384Y-168497835D01*
X142816365Y-168669973D01*
X142669973Y-168816365D01*
X142497835Y-168931384D01*
X142497834Y-168931385D01*
X142497833Y-168931385D01*
X142306564Y-169010611D01*
X142103516Y-169051000D01*
X141896484Y-169051000D01*
X141693436Y-169010611D01*
X141502167Y-168931385D01*
X141502166Y-168931385D01*
X141502165Y-168931384D01*
X141330027Y-168816365D01*
X141183635Y-168669973D01*
X141068616Y-168497835D01*
X141068615Y-168497833D01*
X140989389Y-168306564D01*
X140949000Y-168103516D01*
X140949000Y-167896484D01*
X140989389Y-167693436D01*
X141068615Y-167502167D01*
X141183635Y-167330027D01*
X141330027Y-167183635D01*
X141502165Y-167068616D01*
X141502167Y-167068615D01*
X141693436Y-166989389D01*
X141896484Y-166949000D01*
X142103516Y-166949000D01*
X142306564Y-166989389D01*
X142306564Y-166989389D01*
G37*
G36*
X148806564Y-166989389D02*
G01*
X148997833Y-167068615D01*
X148997835Y-167068616D01*
X149169973Y-167183635D01*
X149316365Y-167330027D01*
X149431385Y-167502167D01*
X149510611Y-167693436D01*
X149551000Y-167896484D01*
X149551000Y-168103516D01*
X149510611Y-168306564D01*
X149431385Y-168497833D01*
X149431384Y-168497835D01*
X149316365Y-168669973D01*
X149169973Y-168816365D01*
X148997835Y-168931384D01*
X148997834Y-168931385D01*
X148997833Y-168931385D01*
X148806564Y-169010611D01*
X148603516Y-169051000D01*
X148396484Y-169051000D01*
X148193436Y-169010611D01*
X148002167Y-168931385D01*
X148002166Y-168931385D01*
X148002165Y-168931384D01*
X147830027Y-168816365D01*
X147683635Y-168669973D01*
X147568616Y-168497835D01*
X147568615Y-168497833D01*
X147489389Y-168306564D01*
X147449000Y-168103516D01*
X147449000Y-167896484D01*
X147489389Y-167693436D01*
X147568615Y-167502167D01*
X147683635Y-167330027D01*
X147830027Y-167183635D01*
X148002165Y-167068616D01*
X148002167Y-167068615D01*
X148193436Y-166989389D01*
X148396484Y-166949000D01*
X148603516Y-166949000D01*
X148806564Y-166989389D01*
X148806564Y-166989389D01*
G37*
G36*
X155306564Y-166989389D02*
G01*
X155497833Y-167068615D01*
X155497835Y-167068616D01*
X155669973Y-167183635D01*
X155816365Y-167330027D01*
X155931385Y-167502167D01*
X156010611Y-167693436D01*
X156051000Y-167896484D01*
X156051000Y-168103516D01*
X156010611Y-168306564D01*
X155931385Y-168497833D01*
X155931384Y-168497835D01*
X155816365Y-168669973D01*
X155669973Y-168816365D01*
X155497835Y-168931384D01*
X155497834Y-168931385D01*
X155497833Y-168931385D01*
X155306564Y-169010611D01*
X155103516Y-169051000D01*
X154896484Y-169051000D01*
X154693436Y-169010611D01*
X154502167Y-168931385D01*
X154502166Y-168931385D01*
X154502165Y-168931384D01*
X154330027Y-168816365D01*
X154183635Y-168669973D01*
X154068616Y-168497835D01*
X154068615Y-168497833D01*
X153989389Y-168306564D01*
X153949000Y-168103516D01*
X153949000Y-167896484D01*
X153989389Y-167693436D01*
X154068615Y-167502167D01*
X154183635Y-167330027D01*
X154330027Y-167183635D01*
X154502165Y-167068616D01*
X154502167Y-167068615D01*
X154693436Y-166989389D01*
X154896484Y-166949000D01*
X155103516Y-166949000D01*
X155306564Y-166989389D01*
X155306564Y-166989389D01*
G37*
G36*
X161806564Y-166989389D02*
G01*
X161997833Y-167068615D01*
X161997835Y-167068616D01*
X162169973Y-167183635D01*
X162316365Y-167330027D01*
X162431385Y-167502167D01*
X162510611Y-167693436D01*
X162551000Y-167896484D01*
X162551000Y-168103516D01*
X162510611Y-168306564D01*
X162431385Y-168497833D01*
X162431384Y-168497835D01*
X162316365Y-168669973D01*
X162169973Y-168816365D01*
X161997835Y-168931384D01*
X161997834Y-168931385D01*
X161997833Y-168931385D01*
X161806564Y-169010611D01*
X161603516Y-169051000D01*
X161396484Y-169051000D01*
X161193436Y-169010611D01*
X161002167Y-168931385D01*
X161002166Y-168931385D01*
X161002165Y-168931384D01*
X160830027Y-168816365D01*
X160683635Y-168669973D01*
X160568616Y-168497835D01*
X160568615Y-168497833D01*
X160489389Y-168306564D01*
X160449000Y-168103516D01*
X160449000Y-167896484D01*
X160489389Y-167693436D01*
X160568615Y-167502167D01*
X160683635Y-167330027D01*
X160830027Y-167183635D01*
X161002165Y-167068616D01*
X161002167Y-167068615D01*
X161193436Y-166989389D01*
X161396484Y-166949000D01*
X161603516Y-166949000D01*
X161806564Y-166989389D01*
X161806564Y-166989389D01*
G37*
G36*
X169306564Y-166989389D02*
G01*
X169497833Y-167068615D01*
X169497835Y-167068616D01*
X169669973Y-167183635D01*
X169816365Y-167330027D01*
X169931385Y-167502167D01*
X170010611Y-167693436D01*
X170051000Y-167896484D01*
X170051000Y-168103516D01*
X170010611Y-168306564D01*
X169931385Y-168497833D01*
X169931384Y-168497835D01*
X169816365Y-168669973D01*
X169669973Y-168816365D01*
X169497835Y-168931384D01*
X169497834Y-168931385D01*
X169497833Y-168931385D01*
X169306564Y-169010611D01*
X169103516Y-169051000D01*
X168896484Y-169051000D01*
X168693436Y-169010611D01*
X168502167Y-168931385D01*
X168502166Y-168931385D01*
X168502165Y-168931384D01*
X168330027Y-168816365D01*
X168183635Y-168669973D01*
X168068616Y-168497835D01*
X168068615Y-168497833D01*
X167989389Y-168306564D01*
X167949000Y-168103516D01*
X167949000Y-167896484D01*
X167989389Y-167693436D01*
X168068615Y-167502167D01*
X168183635Y-167330027D01*
X168330027Y-167183635D01*
X168502165Y-167068616D01*
X168502167Y-167068615D01*
X168693436Y-166989389D01*
X168896484Y-166949000D01*
X169103516Y-166949000D01*
X169306564Y-166989389D01*
X169306564Y-166989389D01*
G37*
G36*
X175806564Y-166989389D02*
G01*
X175997833Y-167068615D01*
X175997835Y-167068616D01*
X176169973Y-167183635D01*
X176316365Y-167330027D01*
X176431385Y-167502167D01*
X176510611Y-167693436D01*
X176551000Y-167896484D01*
X176551000Y-168103516D01*
X176510611Y-168306564D01*
X176431385Y-168497833D01*
X176431384Y-168497835D01*
X176316365Y-168669973D01*
X176169973Y-168816365D01*
X175997835Y-168931384D01*
X175997834Y-168931385D01*
X175997833Y-168931385D01*
X175806564Y-169010611D01*
X175603516Y-169051000D01*
X175396484Y-169051000D01*
X175193436Y-169010611D01*
X175002167Y-168931385D01*
X175002166Y-168931385D01*
X175002165Y-168931384D01*
X174830027Y-168816365D01*
X174683635Y-168669973D01*
X174568616Y-168497835D01*
X174568615Y-168497833D01*
X174489389Y-168306564D01*
X174449000Y-168103516D01*
X174449000Y-167896484D01*
X174489389Y-167693436D01*
X174568615Y-167502167D01*
X174683635Y-167330027D01*
X174830027Y-167183635D01*
X175002165Y-167068616D01*
X175002167Y-167068615D01*
X175193436Y-166989389D01*
X175396484Y-166949000D01*
X175603516Y-166949000D01*
X175806564Y-166989389D01*
X175806564Y-166989389D01*
G37*
G36*
X200306564Y-166989389D02*
G01*
X200497833Y-167068615D01*
X200497835Y-167068616D01*
X200669973Y-167183635D01*
X200816365Y-167330027D01*
X200931385Y-167502167D01*
X201010611Y-167693436D01*
X201051000Y-167896484D01*
X201051000Y-168103516D01*
X201010611Y-168306564D01*
X200931385Y-168497833D01*
X200931384Y-168497835D01*
X200816365Y-168669973D01*
X200669973Y-168816365D01*
X200497835Y-168931384D01*
X200497834Y-168931385D01*
X200497833Y-168931385D01*
X200306564Y-169010611D01*
X200103516Y-169051000D01*
X199896484Y-169051000D01*
X199693436Y-169010611D01*
X199502167Y-168931385D01*
X199502166Y-168931385D01*
X199502165Y-168931384D01*
X199330027Y-168816365D01*
X199183635Y-168669973D01*
X199068616Y-168497835D01*
X199068615Y-168497833D01*
X198989389Y-168306564D01*
X198949000Y-168103516D01*
X198949000Y-167896484D01*
X198989389Y-167693436D01*
X199068615Y-167502167D01*
X199183635Y-167330027D01*
X199330027Y-167183635D01*
X199502165Y-167068616D01*
X199502167Y-167068615D01*
X199693436Y-166989389D01*
X199896484Y-166949000D01*
X200103516Y-166949000D01*
X200306564Y-166989389D01*
X200306564Y-166989389D01*
G37*
G36*
X182306564Y-166989389D02*
G01*
X182497833Y-167068615D01*
X182497835Y-167068616D01*
X182669973Y-167183635D01*
X182816365Y-167330027D01*
X182931385Y-167502167D01*
X183010611Y-167693436D01*
X183051000Y-167896484D01*
X183051000Y-168103516D01*
X183010611Y-168306564D01*
X182931385Y-168497833D01*
X182931384Y-168497835D01*
X182816365Y-168669973D01*
X182669973Y-168816365D01*
X182497835Y-168931384D01*
X182497834Y-168931385D01*
X182497833Y-168931385D01*
X182306564Y-169010611D01*
X182103516Y-169051000D01*
X181896484Y-169051000D01*
X181693436Y-169010611D01*
X181502167Y-168931385D01*
X181502166Y-168931385D01*
X181502165Y-168931384D01*
X181330027Y-168816365D01*
X181183635Y-168669973D01*
X181068616Y-168497835D01*
X181068615Y-168497833D01*
X180989389Y-168306564D01*
X180949000Y-168103516D01*
X180949000Y-167896484D01*
X180989389Y-167693436D01*
X181068615Y-167502167D01*
X181183635Y-167330027D01*
X181330027Y-167183635D01*
X181502165Y-167068616D01*
X181502167Y-167068615D01*
X181693436Y-166989389D01*
X181896484Y-166949000D01*
X182103516Y-166949000D01*
X182306564Y-166989389D01*
X182306564Y-166989389D01*
G37*
G36*
X188806564Y-166989389D02*
G01*
X188997833Y-167068615D01*
X188997835Y-167068616D01*
X189169973Y-167183635D01*
X189316365Y-167330027D01*
X189431385Y-167502167D01*
X189510611Y-167693436D01*
X189551000Y-167896484D01*
X189551000Y-168103516D01*
X189510611Y-168306564D01*
X189431385Y-168497833D01*
X189431384Y-168497835D01*
X189316365Y-168669973D01*
X189169973Y-168816365D01*
X188997835Y-168931384D01*
X188997834Y-168931385D01*
X188997833Y-168931385D01*
X188806564Y-169010611D01*
X188603516Y-169051000D01*
X188396484Y-169051000D01*
X188193436Y-169010611D01*
X188002167Y-168931385D01*
X188002166Y-168931385D01*
X188002165Y-168931384D01*
X187830027Y-168816365D01*
X187683635Y-168669973D01*
X187568616Y-168497835D01*
X187568615Y-168497833D01*
X187489389Y-168306564D01*
X187449000Y-168103516D01*
X187449000Y-167896484D01*
X187489389Y-167693436D01*
X187568615Y-167502167D01*
X187683635Y-167330027D01*
X187830027Y-167183635D01*
X188002165Y-167068616D01*
X188002167Y-167068615D01*
X188193436Y-166989389D01*
X188396484Y-166949000D01*
X188603516Y-166949000D01*
X188806564Y-166989389D01*
X188806564Y-166989389D01*
G37*
G36*
X206806564Y-166989389D02*
G01*
X206997833Y-167068615D01*
X206997835Y-167068616D01*
X207169973Y-167183635D01*
X207316365Y-167330027D01*
X207431385Y-167502167D01*
X207510611Y-167693436D01*
X207551000Y-167896484D01*
X207551000Y-168103516D01*
X207510611Y-168306564D01*
X207431385Y-168497833D01*
X207431384Y-168497835D01*
X207316365Y-168669973D01*
X207169973Y-168816365D01*
X206997835Y-168931384D01*
X206997834Y-168931385D01*
X206997833Y-168931385D01*
X206806564Y-169010611D01*
X206603516Y-169051000D01*
X206396484Y-169051000D01*
X206193436Y-169010611D01*
X206002167Y-168931385D01*
X206002166Y-168931385D01*
X206002165Y-168931384D01*
X205830027Y-168816365D01*
X205683635Y-168669973D01*
X205568616Y-168497835D01*
X205568615Y-168497833D01*
X205489389Y-168306564D01*
X205449000Y-168103516D01*
X205449000Y-167896484D01*
X205489389Y-167693436D01*
X205568615Y-167502167D01*
X205683635Y-167330027D01*
X205830027Y-167183635D01*
X206002165Y-167068616D01*
X206002167Y-167068615D01*
X206193436Y-166989389D01*
X206396484Y-166949000D01*
X206603516Y-166949000D01*
X206806564Y-166989389D01*
X206806564Y-166989389D01*
G37*
G36*
X210110443Y-161885519D02*
G01*
X210176627Y-161892037D01*
X210346466Y-161943557D01*
X210502991Y-162027222D01*
X210538729Y-162056552D01*
X210640186Y-162139814D01*
X210723448Y-162241271D01*
X210752778Y-162277009D01*
X210836443Y-162433534D01*
X210887963Y-162603373D01*
X210905359Y-162780000D01*
X210887963Y-162956627D01*
X210836443Y-163126466D01*
X210752778Y-163282991D01*
X210723448Y-163318729D01*
X210640186Y-163420186D01*
X210538729Y-163503448D01*
X210502991Y-163532778D01*
X210346466Y-163616443D01*
X210176627Y-163667963D01*
X210110443Y-163674481D01*
X210044260Y-163681000D01*
X209955740Y-163681000D01*
X209889557Y-163674481D01*
X209823373Y-163667963D01*
X209653534Y-163616443D01*
X209497009Y-163532778D01*
X209461271Y-163503448D01*
X209359814Y-163420186D01*
X209276552Y-163318729D01*
X209247222Y-163282991D01*
X209163557Y-163126466D01*
X209112037Y-162956627D01*
X209094641Y-162780000D01*
X209112037Y-162603373D01*
X209163557Y-162433534D01*
X209247222Y-162277009D01*
X209276552Y-162241271D01*
X209359814Y-162139814D01*
X209461271Y-162056552D01*
X209497009Y-162027222D01*
X209653534Y-161943557D01*
X209823373Y-161892037D01*
X209889557Y-161885519D01*
X209955740Y-161879000D01*
X210044260Y-161879000D01*
X210110443Y-161885519D01*
X210110443Y-161885519D01*
G37*
G36*
X196760443Y-161885519D02*
G01*
X196826627Y-161892037D01*
X196996466Y-161943557D01*
X197152991Y-162027222D01*
X197188729Y-162056552D01*
X197290186Y-162139814D01*
X197373448Y-162241271D01*
X197402778Y-162277009D01*
X197486443Y-162433534D01*
X197537963Y-162603373D01*
X197555359Y-162780000D01*
X197537963Y-162956627D01*
X197486443Y-163126466D01*
X197402778Y-163282991D01*
X197373448Y-163318729D01*
X197290186Y-163420186D01*
X197188729Y-163503448D01*
X197152991Y-163532778D01*
X196996466Y-163616443D01*
X196826627Y-163667963D01*
X196760443Y-163674481D01*
X196694260Y-163681000D01*
X196605740Y-163681000D01*
X196539557Y-163674481D01*
X196473373Y-163667963D01*
X196303534Y-163616443D01*
X196147009Y-163532778D01*
X196111271Y-163503448D01*
X196009814Y-163420186D01*
X195926552Y-163318729D01*
X195897222Y-163282991D01*
X195813557Y-163126466D01*
X195762037Y-162956627D01*
X195744641Y-162780000D01*
X195762037Y-162603373D01*
X195813557Y-162433534D01*
X195897222Y-162277009D01*
X195926552Y-162241271D01*
X196009814Y-162139814D01*
X196111271Y-162056552D01*
X196147009Y-162027222D01*
X196303534Y-161943557D01*
X196473373Y-161892037D01*
X196539557Y-161885519D01*
X196605740Y-161879000D01*
X196694260Y-161879000D01*
X196760443Y-161885519D01*
X196760443Y-161885519D01*
G37*
G36*
X196760443Y-159345519D02*
G01*
X196826627Y-159352037D01*
X196996466Y-159403557D01*
X197152991Y-159487222D01*
X197188729Y-159516552D01*
X197290186Y-159599814D01*
X197373448Y-159701271D01*
X197402778Y-159737009D01*
X197486443Y-159893534D01*
X197537963Y-160063373D01*
X197555359Y-160240000D01*
X197537963Y-160416627D01*
X197486443Y-160586466D01*
X197402778Y-160742991D01*
X197373448Y-160778729D01*
X197290186Y-160880186D01*
X197188729Y-160963448D01*
X197152991Y-160992778D01*
X196996466Y-161076443D01*
X196826627Y-161127963D01*
X196760442Y-161134482D01*
X196694260Y-161141000D01*
X196605740Y-161141000D01*
X196539558Y-161134482D01*
X196473373Y-161127963D01*
X196303534Y-161076443D01*
X196147009Y-160992778D01*
X196111271Y-160963448D01*
X196009814Y-160880186D01*
X195926552Y-160778729D01*
X195897222Y-160742991D01*
X195813557Y-160586466D01*
X195762037Y-160416627D01*
X195744641Y-160240000D01*
X195762037Y-160063373D01*
X195813557Y-159893534D01*
X195897222Y-159737009D01*
X195926552Y-159701271D01*
X196009814Y-159599814D01*
X196111271Y-159516552D01*
X196147009Y-159487222D01*
X196303534Y-159403557D01*
X196473373Y-159352037D01*
X196539557Y-159345519D01*
X196605740Y-159339000D01*
X196694260Y-159339000D01*
X196760443Y-159345519D01*
X196760443Y-159345519D01*
G37*
G36*
X210110443Y-159345519D02*
G01*
X210176627Y-159352037D01*
X210346466Y-159403557D01*
X210502991Y-159487222D01*
X210538729Y-159516552D01*
X210640186Y-159599814D01*
X210723448Y-159701271D01*
X210752778Y-159737009D01*
X210836443Y-159893534D01*
X210887963Y-160063373D01*
X210905359Y-160240000D01*
X210887963Y-160416627D01*
X210836443Y-160586466D01*
X210752778Y-160742991D01*
X210723448Y-160778729D01*
X210640186Y-160880186D01*
X210538729Y-160963448D01*
X210502991Y-160992778D01*
X210346466Y-161076443D01*
X210176627Y-161127963D01*
X210110442Y-161134482D01*
X210044260Y-161141000D01*
X209955740Y-161141000D01*
X209889558Y-161134482D01*
X209823373Y-161127963D01*
X209653534Y-161076443D01*
X209497009Y-160992778D01*
X209461271Y-160963448D01*
X209359814Y-160880186D01*
X209276552Y-160778729D01*
X209247222Y-160742991D01*
X209163557Y-160586466D01*
X209112037Y-160416627D01*
X209094641Y-160240000D01*
X209112037Y-160063373D01*
X209163557Y-159893534D01*
X209247222Y-159737009D01*
X209276552Y-159701271D01*
X209359814Y-159599814D01*
X209461271Y-159516552D01*
X209497009Y-159487222D01*
X209653534Y-159403557D01*
X209823373Y-159352037D01*
X209889557Y-159345519D01*
X209955740Y-159339000D01*
X210044260Y-159339000D01*
X210110443Y-159345519D01*
X210110443Y-159345519D01*
G37*
G36*
X210110442Y-156805518D02*
G01*
X210176627Y-156812037D01*
X210346466Y-156863557D01*
X210502991Y-156947222D01*
X210538729Y-156976552D01*
X210640186Y-157059814D01*
X210723448Y-157161271D01*
X210752778Y-157197009D01*
X210836443Y-157353534D01*
X210887963Y-157523373D01*
X210905359Y-157700000D01*
X210887963Y-157876627D01*
X210836443Y-158046466D01*
X210752778Y-158202991D01*
X210723448Y-158238729D01*
X210640186Y-158340186D01*
X210538729Y-158423448D01*
X210502991Y-158452778D01*
X210346466Y-158536443D01*
X210176627Y-158587963D01*
X210110443Y-158594481D01*
X210044260Y-158601000D01*
X209955740Y-158601000D01*
X209889557Y-158594481D01*
X209823373Y-158587963D01*
X209653534Y-158536443D01*
X209497009Y-158452778D01*
X209461271Y-158423448D01*
X209359814Y-158340186D01*
X209276552Y-158238729D01*
X209247222Y-158202991D01*
X209163557Y-158046466D01*
X209112037Y-157876627D01*
X209094641Y-157700000D01*
X209112037Y-157523373D01*
X209163557Y-157353534D01*
X209247222Y-157197009D01*
X209276552Y-157161271D01*
X209359814Y-157059814D01*
X209461271Y-156976552D01*
X209497009Y-156947222D01*
X209653534Y-156863557D01*
X209823373Y-156812037D01*
X209889558Y-156805518D01*
X209955740Y-156799000D01*
X210044260Y-156799000D01*
X210110442Y-156805518D01*
X210110442Y-156805518D01*
G37*
G36*
X196760442Y-156805518D02*
G01*
X196826627Y-156812037D01*
X196996466Y-156863557D01*
X197152991Y-156947222D01*
X197188729Y-156976552D01*
X197290186Y-157059814D01*
X197373448Y-157161271D01*
X197402778Y-157197009D01*
X197486443Y-157353534D01*
X197537963Y-157523373D01*
X197555359Y-157700000D01*
X197537963Y-157876627D01*
X197486443Y-158046466D01*
X197402778Y-158202991D01*
X197373448Y-158238729D01*
X197290186Y-158340186D01*
X197188729Y-158423448D01*
X197152991Y-158452778D01*
X196996466Y-158536443D01*
X196826627Y-158587963D01*
X196760443Y-158594481D01*
X196694260Y-158601000D01*
X196605740Y-158601000D01*
X196539557Y-158594481D01*
X196473373Y-158587963D01*
X196303534Y-158536443D01*
X196147009Y-158452778D01*
X196111271Y-158423448D01*
X196009814Y-158340186D01*
X195926552Y-158238729D01*
X195897222Y-158202991D01*
X195813557Y-158046466D01*
X195762037Y-157876627D01*
X195744641Y-157700000D01*
X195762037Y-157523373D01*
X195813557Y-157353534D01*
X195897222Y-157197009D01*
X195926552Y-157161271D01*
X196009814Y-157059814D01*
X196111271Y-156976552D01*
X196147009Y-156947222D01*
X196303534Y-156863557D01*
X196473373Y-156812037D01*
X196539558Y-156805518D01*
X196605740Y-156799000D01*
X196694260Y-156799000D01*
X196760442Y-156805518D01*
X196760442Y-156805518D01*
G37*
G36*
X210110442Y-154265518D02*
G01*
X210176627Y-154272037D01*
X210346466Y-154323557D01*
X210502991Y-154407222D01*
X210538729Y-154436552D01*
X210640186Y-154519814D01*
X210723448Y-154621271D01*
X210752778Y-154657009D01*
X210836443Y-154813534D01*
X210887963Y-154983373D01*
X210905359Y-155160000D01*
X210887963Y-155336627D01*
X210836443Y-155506466D01*
X210752778Y-155662991D01*
X210723448Y-155698729D01*
X210640186Y-155800186D01*
X210538729Y-155883448D01*
X210502991Y-155912778D01*
X210346466Y-155996443D01*
X210176627Y-156047963D01*
X210110443Y-156054481D01*
X210044260Y-156061000D01*
X209955740Y-156061000D01*
X209889557Y-156054481D01*
X209823373Y-156047963D01*
X209653534Y-155996443D01*
X209497009Y-155912778D01*
X209461271Y-155883448D01*
X209359814Y-155800186D01*
X209276552Y-155698729D01*
X209247222Y-155662991D01*
X209163557Y-155506466D01*
X209112037Y-155336627D01*
X209094641Y-155160000D01*
X209112037Y-154983373D01*
X209163557Y-154813534D01*
X209247222Y-154657009D01*
X209276552Y-154621271D01*
X209359814Y-154519814D01*
X209461271Y-154436552D01*
X209497009Y-154407222D01*
X209653534Y-154323557D01*
X209823373Y-154272037D01*
X209889558Y-154265518D01*
X209955740Y-154259000D01*
X210044260Y-154259000D01*
X210110442Y-154265518D01*
X210110442Y-154265518D01*
G37*
G36*
X196760442Y-154265518D02*
G01*
X196826627Y-154272037D01*
X196996466Y-154323557D01*
X197152991Y-154407222D01*
X197188729Y-154436552D01*
X197290186Y-154519814D01*
X197373448Y-154621271D01*
X197402778Y-154657009D01*
X197486443Y-154813534D01*
X197537963Y-154983373D01*
X197555359Y-155160000D01*
X197537963Y-155336627D01*
X197486443Y-155506466D01*
X197402778Y-155662991D01*
X197373448Y-155698729D01*
X197290186Y-155800186D01*
X197188729Y-155883448D01*
X197152991Y-155912778D01*
X196996466Y-155996443D01*
X196826627Y-156047963D01*
X196760443Y-156054481D01*
X196694260Y-156061000D01*
X196605740Y-156061000D01*
X196539557Y-156054481D01*
X196473373Y-156047963D01*
X196303534Y-155996443D01*
X196147009Y-155912778D01*
X196111271Y-155883448D01*
X196009814Y-155800186D01*
X195926552Y-155698729D01*
X195897222Y-155662991D01*
X195813557Y-155506466D01*
X195762037Y-155336627D01*
X195744641Y-155160000D01*
X195762037Y-154983373D01*
X195813557Y-154813534D01*
X195897222Y-154657009D01*
X195926552Y-154621271D01*
X196009814Y-154519814D01*
X196111271Y-154436552D01*
X196147009Y-154407222D01*
X196303534Y-154323557D01*
X196473373Y-154272037D01*
X196539558Y-154265518D01*
X196605740Y-154259000D01*
X196694260Y-154259000D01*
X196760442Y-154265518D01*
X196760442Y-154265518D01*
G37*
G36*
X210110442Y-151725518D02*
G01*
X210176627Y-151732037D01*
X210346466Y-151783557D01*
X210502991Y-151867222D01*
X210538729Y-151896552D01*
X210640186Y-151979814D01*
X210723448Y-152081271D01*
X210752778Y-152117009D01*
X210836443Y-152273534D01*
X210887963Y-152443373D01*
X210905359Y-152620000D01*
X210887963Y-152796627D01*
X210836443Y-152966466D01*
X210752778Y-153122991D01*
X210723448Y-153158729D01*
X210640186Y-153260186D01*
X210538729Y-153343448D01*
X210502991Y-153372778D01*
X210346466Y-153456443D01*
X210176627Y-153507963D01*
X210110442Y-153514482D01*
X210044260Y-153521000D01*
X209955740Y-153521000D01*
X209889558Y-153514482D01*
X209823373Y-153507963D01*
X209653534Y-153456443D01*
X209497009Y-153372778D01*
X209461271Y-153343448D01*
X209359814Y-153260186D01*
X209276552Y-153158729D01*
X209247222Y-153122991D01*
X209163557Y-152966466D01*
X209112037Y-152796627D01*
X209094641Y-152620000D01*
X209112037Y-152443373D01*
X209163557Y-152273534D01*
X209247222Y-152117009D01*
X209276552Y-152081271D01*
X209359814Y-151979814D01*
X209461271Y-151896552D01*
X209497009Y-151867222D01*
X209653534Y-151783557D01*
X209823373Y-151732037D01*
X209889558Y-151725518D01*
X209955740Y-151719000D01*
X210044260Y-151719000D01*
X210110442Y-151725518D01*
X210110442Y-151725518D01*
G37*
G36*
X196760442Y-151725518D02*
G01*
X196826627Y-151732037D01*
X196996466Y-151783557D01*
X197152991Y-151867222D01*
X197188729Y-151896552D01*
X197290186Y-151979814D01*
X197373448Y-152081271D01*
X197402778Y-152117009D01*
X197486443Y-152273534D01*
X197537963Y-152443373D01*
X197555359Y-152620000D01*
X197537963Y-152796627D01*
X197486443Y-152966466D01*
X197402778Y-153122991D01*
X197373448Y-153158729D01*
X197290186Y-153260186D01*
X197188729Y-153343448D01*
X197152991Y-153372778D01*
X196996466Y-153456443D01*
X196826627Y-153507963D01*
X196760442Y-153514482D01*
X196694260Y-153521000D01*
X196605740Y-153521000D01*
X196539558Y-153514482D01*
X196473373Y-153507963D01*
X196303534Y-153456443D01*
X196147009Y-153372778D01*
X196111271Y-153343448D01*
X196009814Y-153260186D01*
X195926552Y-153158729D01*
X195897222Y-153122991D01*
X195813557Y-152966466D01*
X195762037Y-152796627D01*
X195744641Y-152620000D01*
X195762037Y-152443373D01*
X195813557Y-152273534D01*
X195897222Y-152117009D01*
X195926552Y-152081271D01*
X196009814Y-151979814D01*
X196111271Y-151896552D01*
X196147009Y-151867222D01*
X196303534Y-151783557D01*
X196473373Y-151732037D01*
X196539558Y-151725518D01*
X196605740Y-151719000D01*
X196694260Y-151719000D01*
X196760442Y-151725518D01*
X196760442Y-151725518D01*
G37*
G36*
X196760443Y-149185519D02*
G01*
X196826627Y-149192037D01*
X196996466Y-149243557D01*
X197152991Y-149327222D01*
X197188729Y-149356552D01*
X197290186Y-149439814D01*
X197373448Y-149541271D01*
X197402778Y-149577009D01*
X197486443Y-149733534D01*
X197537963Y-149903373D01*
X197555359Y-150080000D01*
X197537963Y-150256627D01*
X197486443Y-150426466D01*
X197402778Y-150582991D01*
X197373448Y-150618729D01*
X197290186Y-150720186D01*
X197188729Y-150803448D01*
X197152991Y-150832778D01*
X196996466Y-150916443D01*
X196826627Y-150967963D01*
X196760442Y-150974482D01*
X196694260Y-150981000D01*
X196605740Y-150981000D01*
X196539558Y-150974482D01*
X196473373Y-150967963D01*
X196303534Y-150916443D01*
X196147009Y-150832778D01*
X196111271Y-150803448D01*
X196009814Y-150720186D01*
X195926552Y-150618729D01*
X195897222Y-150582991D01*
X195813557Y-150426466D01*
X195762037Y-150256627D01*
X195744641Y-150080000D01*
X195762037Y-149903373D01*
X195813557Y-149733534D01*
X195897222Y-149577009D01*
X195926552Y-149541271D01*
X196009814Y-149439814D01*
X196111271Y-149356552D01*
X196147009Y-149327222D01*
X196303534Y-149243557D01*
X196473373Y-149192037D01*
X196539557Y-149185519D01*
X196605740Y-149179000D01*
X196694260Y-149179000D01*
X196760443Y-149185519D01*
X196760443Y-149185519D01*
G37*
G36*
X210110443Y-149185519D02*
G01*
X210176627Y-149192037D01*
X210346466Y-149243557D01*
X210502991Y-149327222D01*
X210538729Y-149356552D01*
X210640186Y-149439814D01*
X210723448Y-149541271D01*
X210752778Y-149577009D01*
X210836443Y-149733534D01*
X210887963Y-149903373D01*
X210905359Y-150080000D01*
X210887963Y-150256627D01*
X210836443Y-150426466D01*
X210752778Y-150582991D01*
X210723448Y-150618729D01*
X210640186Y-150720186D01*
X210538729Y-150803448D01*
X210502991Y-150832778D01*
X210346466Y-150916443D01*
X210176627Y-150967963D01*
X210110442Y-150974482D01*
X210044260Y-150981000D01*
X209955740Y-150981000D01*
X209889558Y-150974482D01*
X209823373Y-150967963D01*
X209653534Y-150916443D01*
X209497009Y-150832778D01*
X209461271Y-150803448D01*
X209359814Y-150720186D01*
X209276552Y-150618729D01*
X209247222Y-150582991D01*
X209163557Y-150426466D01*
X209112037Y-150256627D01*
X209094641Y-150080000D01*
X209112037Y-149903373D01*
X209163557Y-149733534D01*
X209247222Y-149577009D01*
X209276552Y-149541271D01*
X209359814Y-149439814D01*
X209461271Y-149356552D01*
X209497009Y-149327222D01*
X209653534Y-149243557D01*
X209823373Y-149192037D01*
X209889557Y-149185519D01*
X209955740Y-149179000D01*
X210044260Y-149179000D01*
X210110443Y-149185519D01*
X210110443Y-149185519D01*
G37*
G36*
X196760443Y-146645519D02*
G01*
X196826627Y-146652037D01*
X196996466Y-146703557D01*
X197152991Y-146787222D01*
X197188729Y-146816552D01*
X197290186Y-146899814D01*
X197373448Y-147001271D01*
X197402778Y-147037009D01*
X197486443Y-147193534D01*
X197537963Y-147363373D01*
X197555359Y-147540000D01*
X197537963Y-147716627D01*
X197486443Y-147886466D01*
X197402778Y-148042991D01*
X197373448Y-148078729D01*
X197290186Y-148180186D01*
X197188729Y-148263448D01*
X197152991Y-148292778D01*
X196996466Y-148376443D01*
X196826627Y-148427963D01*
X196760443Y-148434481D01*
X196694260Y-148441000D01*
X196605740Y-148441000D01*
X196539557Y-148434481D01*
X196473373Y-148427963D01*
X196303534Y-148376443D01*
X196147009Y-148292778D01*
X196111271Y-148263448D01*
X196009814Y-148180186D01*
X195926552Y-148078729D01*
X195897222Y-148042991D01*
X195813557Y-147886466D01*
X195762037Y-147716627D01*
X195744641Y-147540000D01*
X195762037Y-147363373D01*
X195813557Y-147193534D01*
X195897222Y-147037009D01*
X195926552Y-147001271D01*
X196009814Y-146899814D01*
X196111271Y-146816552D01*
X196147009Y-146787222D01*
X196303534Y-146703557D01*
X196473373Y-146652037D01*
X196539557Y-146645519D01*
X196605740Y-146639000D01*
X196694260Y-146639000D01*
X196760443Y-146645519D01*
X196760443Y-146645519D01*
G37*
G36*
X210110443Y-146645519D02*
G01*
X210176627Y-146652037D01*
X210346466Y-146703557D01*
X210502991Y-146787222D01*
X210538729Y-146816552D01*
X210640186Y-146899814D01*
X210723448Y-147001271D01*
X210752778Y-147037009D01*
X210836443Y-147193534D01*
X210887963Y-147363373D01*
X210905359Y-147540000D01*
X210887963Y-147716627D01*
X210836443Y-147886466D01*
X210752778Y-148042991D01*
X210723448Y-148078729D01*
X210640186Y-148180186D01*
X210538729Y-148263448D01*
X210502991Y-148292778D01*
X210346466Y-148376443D01*
X210176627Y-148427963D01*
X210110443Y-148434481D01*
X210044260Y-148441000D01*
X209955740Y-148441000D01*
X209889557Y-148434481D01*
X209823373Y-148427963D01*
X209653534Y-148376443D01*
X209497009Y-148292778D01*
X209461271Y-148263448D01*
X209359814Y-148180186D01*
X209276552Y-148078729D01*
X209247222Y-148042991D01*
X209163557Y-147886466D01*
X209112037Y-147716627D01*
X209094641Y-147540000D01*
X209112037Y-147363373D01*
X209163557Y-147193534D01*
X209247222Y-147037009D01*
X209276552Y-147001271D01*
X209359814Y-146899814D01*
X209461271Y-146816552D01*
X209497009Y-146787222D01*
X209653534Y-146703557D01*
X209823373Y-146652037D01*
X209889557Y-146645519D01*
X209955740Y-146639000D01*
X210044260Y-146639000D01*
X210110443Y-146645519D01*
X210110443Y-146645519D01*
G37*
G36*
X210901000Y-145901000D02*
G01*
X209099000Y-145901000D01*
X209099000Y-144099000D01*
X210901000Y-144099000D01*
X210901000Y-145901000D01*
X210901000Y-145901000D01*
G37*
G36*
X197551000Y-145901000D02*
G01*
X195749000Y-145901000D01*
X195749000Y-144099000D01*
X197551000Y-144099000D01*
X197551000Y-145901000D01*
X197551000Y-145901000D01*
G37*
G36*
X179110443Y-143185519D02*
G01*
X179176627Y-143192037D01*
X179346466Y-143243557D01*
X179502991Y-143327222D01*
X179538729Y-143356552D01*
X179640186Y-143439814D01*
X179723448Y-143541271D01*
X179752778Y-143577009D01*
X179836443Y-143733534D01*
X179887963Y-143903373D01*
X179905359Y-144080000D01*
X179887963Y-144256627D01*
X179836443Y-144426466D01*
X179752778Y-144582991D01*
X179723448Y-144618729D01*
X179640186Y-144720186D01*
X179538729Y-144803448D01*
X179502991Y-144832778D01*
X179346466Y-144916443D01*
X179176627Y-144967963D01*
X179110442Y-144974482D01*
X179044260Y-144981000D01*
X178955740Y-144981000D01*
X178889558Y-144974482D01*
X178823373Y-144967963D01*
X178653534Y-144916443D01*
X178497009Y-144832778D01*
X178461271Y-144803448D01*
X178359814Y-144720186D01*
X178276552Y-144618729D01*
X178247222Y-144582991D01*
X178163557Y-144426466D01*
X178112037Y-144256627D01*
X178094641Y-144080000D01*
X178112037Y-143903373D01*
X178163557Y-143733534D01*
X178247222Y-143577009D01*
X178276552Y-143541271D01*
X178359814Y-143439814D01*
X178461271Y-143356552D01*
X178497009Y-143327222D01*
X178653534Y-143243557D01*
X178823373Y-143192037D01*
X178889557Y-143185519D01*
X178955740Y-143179000D01*
X179044260Y-143179000D01*
X179110443Y-143185519D01*
X179110443Y-143185519D01*
G37*
G36*
X145110442Y-142185518D02*
G01*
X145176627Y-142192037D01*
X145346466Y-142243557D01*
X145502991Y-142327222D01*
X145538729Y-142356552D01*
X145640186Y-142439814D01*
X145723448Y-142541271D01*
X145752778Y-142577009D01*
X145836443Y-142733534D01*
X145887963Y-142903373D01*
X145905359Y-143080000D01*
X145887963Y-143256627D01*
X145836443Y-143426466D01*
X145752778Y-143582991D01*
X145723448Y-143618729D01*
X145640186Y-143720186D01*
X145538729Y-143803448D01*
X145502991Y-143832778D01*
X145346466Y-143916443D01*
X145176627Y-143967963D01*
X145110443Y-143974481D01*
X145044260Y-143981000D01*
X144955740Y-143981000D01*
X144889557Y-143974481D01*
X144823373Y-143967963D01*
X144653534Y-143916443D01*
X144497009Y-143832778D01*
X144461271Y-143803448D01*
X144359814Y-143720186D01*
X144276552Y-143618729D01*
X144247222Y-143582991D01*
X144163557Y-143426466D01*
X144112037Y-143256627D01*
X144094641Y-143080000D01*
X144112037Y-142903373D01*
X144163557Y-142733534D01*
X144247222Y-142577009D01*
X144276552Y-142541271D01*
X144359814Y-142439814D01*
X144461271Y-142356552D01*
X144497009Y-142327222D01*
X144653534Y-142243557D01*
X144823373Y-142192037D01*
X144889558Y-142185518D01*
X144955740Y-142179000D01*
X145044260Y-142179000D01*
X145110442Y-142185518D01*
X145110442Y-142185518D01*
G37*
G36*
X179110442Y-140645518D02*
G01*
X179176627Y-140652037D01*
X179346466Y-140703557D01*
X179502991Y-140787222D01*
X179538729Y-140816552D01*
X179640186Y-140899814D01*
X179723448Y-141001271D01*
X179752778Y-141037009D01*
X179836443Y-141193534D01*
X179887963Y-141363373D01*
X179905359Y-141540000D01*
X179887963Y-141716627D01*
X179836443Y-141886466D01*
X179752778Y-142042991D01*
X179723448Y-142078729D01*
X179640186Y-142180186D01*
X179538729Y-142263448D01*
X179502991Y-142292778D01*
X179346466Y-142376443D01*
X179176627Y-142427963D01*
X179110442Y-142434482D01*
X179044260Y-142441000D01*
X178955740Y-142441000D01*
X178889558Y-142434482D01*
X178823373Y-142427963D01*
X178653534Y-142376443D01*
X178497009Y-142292778D01*
X178461271Y-142263448D01*
X178359814Y-142180186D01*
X178276552Y-142078729D01*
X178247222Y-142042991D01*
X178163557Y-141886466D01*
X178112037Y-141716627D01*
X178094641Y-141540000D01*
X178112037Y-141363373D01*
X178163557Y-141193534D01*
X178247222Y-141037009D01*
X178276552Y-141001271D01*
X178359814Y-140899814D01*
X178461271Y-140816552D01*
X178497009Y-140787222D01*
X178653534Y-140703557D01*
X178823373Y-140652037D01*
X178889558Y-140645518D01*
X178955740Y-140639000D01*
X179044260Y-140639000D01*
X179110442Y-140645518D01*
X179110442Y-140645518D01*
G37*
G36*
X145110442Y-139645518D02*
G01*
X145176627Y-139652037D01*
X145346466Y-139703557D01*
X145502991Y-139787222D01*
X145538729Y-139816552D01*
X145640186Y-139899814D01*
X145723448Y-140001271D01*
X145752778Y-140037009D01*
X145836443Y-140193534D01*
X145887963Y-140363373D01*
X145905359Y-140540000D01*
X145887963Y-140716627D01*
X145836443Y-140886466D01*
X145752778Y-141042991D01*
X145723448Y-141078729D01*
X145640186Y-141180186D01*
X145538729Y-141263448D01*
X145502991Y-141292778D01*
X145346466Y-141376443D01*
X145176627Y-141427963D01*
X145110442Y-141434482D01*
X145044260Y-141441000D01*
X144955740Y-141441000D01*
X144889558Y-141434482D01*
X144823373Y-141427963D01*
X144653534Y-141376443D01*
X144497009Y-141292778D01*
X144461271Y-141263448D01*
X144359814Y-141180186D01*
X144276552Y-141078729D01*
X144247222Y-141042991D01*
X144163557Y-140886466D01*
X144112037Y-140716627D01*
X144094641Y-140540000D01*
X144112037Y-140363373D01*
X144163557Y-140193534D01*
X144247222Y-140037009D01*
X144276552Y-140001271D01*
X144359814Y-139899814D01*
X144461271Y-139816552D01*
X144497009Y-139787222D01*
X144653534Y-139703557D01*
X144823373Y-139652037D01*
X144889558Y-139645518D01*
X144955740Y-139639000D01*
X145044260Y-139639000D01*
X145110442Y-139645518D01*
X145110442Y-139645518D01*
G37*
G36*
X179901000Y-139901000D02*
G01*
X178099000Y-139901000D01*
X178099000Y-138099000D01*
X179901000Y-138099000D01*
X179901000Y-139901000D01*
X179901000Y-139901000D01*
G37*
G36*
X210901000Y-138901000D02*
G01*
X209099000Y-138901000D01*
X209099000Y-137099000D01*
X210901000Y-137099000D01*
X210901000Y-138901000D01*
X210901000Y-138901000D01*
G37*
G36*
X145901000Y-138901000D02*
G01*
X144099000Y-138901000D01*
X144099000Y-137099000D01*
X145901000Y-137099000D01*
X145901000Y-138901000D01*
X145901000Y-138901000D01*
G37*
G36*
X196760442Y-136965518D02*
G01*
X196826627Y-136972037D01*
X196996466Y-137023557D01*
X197152991Y-137107222D01*
X197188729Y-137136552D01*
X197290186Y-137219814D01*
X197373448Y-137321271D01*
X197402778Y-137357009D01*
X197486443Y-137513534D01*
X197537963Y-137683373D01*
X197555359Y-137860000D01*
X197537963Y-138036627D01*
X197486443Y-138206466D01*
X197402778Y-138362991D01*
X197373448Y-138398729D01*
X197290186Y-138500186D01*
X197188729Y-138583448D01*
X197152991Y-138612778D01*
X196996466Y-138696443D01*
X196826627Y-138747963D01*
X196760442Y-138754482D01*
X196694260Y-138761000D01*
X196605740Y-138761000D01*
X196539558Y-138754482D01*
X196473373Y-138747963D01*
X196303534Y-138696443D01*
X196147009Y-138612778D01*
X196111271Y-138583448D01*
X196009814Y-138500186D01*
X195926552Y-138398729D01*
X195897222Y-138362991D01*
X195813557Y-138206466D01*
X195762037Y-138036627D01*
X195744641Y-137860000D01*
X195762037Y-137683373D01*
X195813557Y-137513534D01*
X195897222Y-137357009D01*
X195926552Y-137321271D01*
X196009814Y-137219814D01*
X196111271Y-137136552D01*
X196147009Y-137107222D01*
X196303534Y-137023557D01*
X196473373Y-136972037D01*
X196539558Y-136965518D01*
X196605740Y-136959000D01*
X196694260Y-136959000D01*
X196760442Y-136965518D01*
X196760442Y-136965518D01*
G37*
G36*
X210110442Y-134565518D02*
G01*
X210176627Y-134572037D01*
X210346466Y-134623557D01*
X210502991Y-134707222D01*
X210538729Y-134736552D01*
X210640186Y-134819814D01*
X210723448Y-134921271D01*
X210752778Y-134957009D01*
X210836443Y-135113534D01*
X210887963Y-135283373D01*
X210905359Y-135460000D01*
X210887963Y-135636627D01*
X210836443Y-135806466D01*
X210752778Y-135962991D01*
X210723448Y-135998729D01*
X210640186Y-136100186D01*
X210538729Y-136183448D01*
X210502991Y-136212778D01*
X210346466Y-136296443D01*
X210176627Y-136347963D01*
X210110442Y-136354482D01*
X210044260Y-136361000D01*
X209955740Y-136361000D01*
X209889558Y-136354482D01*
X209823373Y-136347963D01*
X209653534Y-136296443D01*
X209497009Y-136212778D01*
X209461271Y-136183448D01*
X209359814Y-136100186D01*
X209276552Y-135998729D01*
X209247222Y-135962991D01*
X209163557Y-135806466D01*
X209112037Y-135636627D01*
X209094641Y-135460000D01*
X209112037Y-135283373D01*
X209163557Y-135113534D01*
X209247222Y-134957009D01*
X209276552Y-134921271D01*
X209359814Y-134819814D01*
X209461271Y-134736552D01*
X209497009Y-134707222D01*
X209653534Y-134623557D01*
X209823373Y-134572037D01*
X209889558Y-134565518D01*
X209955740Y-134559000D01*
X210044260Y-134559000D01*
X210110442Y-134565518D01*
X210110442Y-134565518D01*
G37*
G36*
X196760442Y-134425518D02*
G01*
X196826627Y-134432037D01*
X196996466Y-134483557D01*
X197152991Y-134567222D01*
X197188729Y-134596552D01*
X197290186Y-134679814D01*
X197373448Y-134781271D01*
X197402778Y-134817009D01*
X197486443Y-134973534D01*
X197537963Y-135143373D01*
X197555359Y-135320000D01*
X197537963Y-135496627D01*
X197486443Y-135666466D01*
X197402778Y-135822991D01*
X197373448Y-135858729D01*
X197290186Y-135960186D01*
X197188729Y-136043448D01*
X197152991Y-136072778D01*
X196996466Y-136156443D01*
X196826627Y-136207963D01*
X196760443Y-136214481D01*
X196694260Y-136221000D01*
X196605740Y-136221000D01*
X196539557Y-136214481D01*
X196473373Y-136207963D01*
X196303534Y-136156443D01*
X196147009Y-136072778D01*
X196111271Y-136043448D01*
X196009814Y-135960186D01*
X195926552Y-135858729D01*
X195897222Y-135822991D01*
X195813557Y-135666466D01*
X195762037Y-135496627D01*
X195744641Y-135320000D01*
X195762037Y-135143373D01*
X195813557Y-134973534D01*
X195897222Y-134817009D01*
X195926552Y-134781271D01*
X196009814Y-134679814D01*
X196111271Y-134596552D01*
X196147009Y-134567222D01*
X196303534Y-134483557D01*
X196473373Y-134432037D01*
X196539558Y-134425518D01*
X196605740Y-134419000D01*
X196694260Y-134419000D01*
X196760442Y-134425518D01*
X196760442Y-134425518D01*
G37*
G36*
X210110442Y-132025518D02*
G01*
X210176627Y-132032037D01*
X210346466Y-132083557D01*
X210502991Y-132167222D01*
X210538729Y-132196552D01*
X210640186Y-132279814D01*
X210723448Y-132381271D01*
X210752778Y-132417009D01*
X210836443Y-132573534D01*
X210887963Y-132743373D01*
X210905359Y-132920000D01*
X210887963Y-133096627D01*
X210836443Y-133266466D01*
X210752778Y-133422991D01*
X210723448Y-133458729D01*
X210640186Y-133560186D01*
X210538729Y-133643448D01*
X210502991Y-133672778D01*
X210346466Y-133756443D01*
X210176627Y-133807963D01*
X210110442Y-133814482D01*
X210044260Y-133821000D01*
X209955740Y-133821000D01*
X209889558Y-133814482D01*
X209823373Y-133807963D01*
X209653534Y-133756443D01*
X209497009Y-133672778D01*
X209461271Y-133643448D01*
X209359814Y-133560186D01*
X209276552Y-133458729D01*
X209247222Y-133422991D01*
X209163557Y-133266466D01*
X209112037Y-133096627D01*
X209094641Y-132920000D01*
X209112037Y-132743373D01*
X209163557Y-132573534D01*
X209247222Y-132417009D01*
X209276552Y-132381271D01*
X209359814Y-132279814D01*
X209461271Y-132196552D01*
X209497009Y-132167222D01*
X209653534Y-132083557D01*
X209823373Y-132032037D01*
X209889558Y-132025518D01*
X209955740Y-132019000D01*
X210044260Y-132019000D01*
X210110442Y-132025518D01*
X210110442Y-132025518D01*
G37*
G36*
X196760442Y-131885518D02*
G01*
X196826627Y-131892037D01*
X196996466Y-131943557D01*
X197152991Y-132027222D01*
X197188729Y-132056552D01*
X197290186Y-132139814D01*
X197373448Y-132241271D01*
X197402778Y-132277009D01*
X197486443Y-132433534D01*
X197537963Y-132603373D01*
X197555359Y-132780000D01*
X197537963Y-132956627D01*
X197486443Y-133126466D01*
X197402778Y-133282991D01*
X197373448Y-133318729D01*
X197290186Y-133420186D01*
X197188729Y-133503448D01*
X197152991Y-133532778D01*
X196996466Y-133616443D01*
X196826627Y-133667963D01*
X196760442Y-133674482D01*
X196694260Y-133681000D01*
X196605740Y-133681000D01*
X196539558Y-133674482D01*
X196473373Y-133667963D01*
X196303534Y-133616443D01*
X196147009Y-133532778D01*
X196111271Y-133503448D01*
X196009814Y-133420186D01*
X195926552Y-133318729D01*
X195897222Y-133282991D01*
X195813557Y-133126466D01*
X195762037Y-132956627D01*
X195744641Y-132780000D01*
X195762037Y-132603373D01*
X195813557Y-132433534D01*
X195897222Y-132277009D01*
X195926552Y-132241271D01*
X196009814Y-132139814D01*
X196111271Y-132056552D01*
X196147009Y-132027222D01*
X196303534Y-131943557D01*
X196473373Y-131892037D01*
X196539558Y-131885518D01*
X196605740Y-131879000D01*
X196694260Y-131879000D01*
X196760442Y-131885518D01*
X196760442Y-131885518D01*
G37*
G36*
X210110443Y-129485519D02*
G01*
X210176627Y-129492037D01*
X210346466Y-129543557D01*
X210502991Y-129627222D01*
X210538729Y-129656552D01*
X210640186Y-129739814D01*
X210723448Y-129841271D01*
X210752778Y-129877009D01*
X210836443Y-130033534D01*
X210887963Y-130203373D01*
X210905359Y-130380000D01*
X210887963Y-130556627D01*
X210836443Y-130726466D01*
X210752778Y-130882991D01*
X210723448Y-130918729D01*
X210640186Y-131020186D01*
X210538729Y-131103448D01*
X210502991Y-131132778D01*
X210346466Y-131216443D01*
X210176627Y-131267963D01*
X210110442Y-131274482D01*
X210044260Y-131281000D01*
X209955740Y-131281000D01*
X209889558Y-131274482D01*
X209823373Y-131267963D01*
X209653534Y-131216443D01*
X209497009Y-131132778D01*
X209461271Y-131103448D01*
X209359814Y-131020186D01*
X209276552Y-130918729D01*
X209247222Y-130882991D01*
X209163557Y-130726466D01*
X209112037Y-130556627D01*
X209094641Y-130380000D01*
X209112037Y-130203373D01*
X209163557Y-130033534D01*
X209247222Y-129877009D01*
X209276552Y-129841271D01*
X209359814Y-129739814D01*
X209461271Y-129656552D01*
X209497009Y-129627222D01*
X209653534Y-129543557D01*
X209823373Y-129492037D01*
X209889557Y-129485519D01*
X209955740Y-129479000D01*
X210044260Y-129479000D01*
X210110443Y-129485519D01*
X210110443Y-129485519D01*
G37*
G36*
X196760442Y-129345518D02*
G01*
X196826627Y-129352037D01*
X196996466Y-129403557D01*
X197152991Y-129487222D01*
X197188729Y-129516552D01*
X197290186Y-129599814D01*
X197373448Y-129701271D01*
X197402778Y-129737009D01*
X197486443Y-129893534D01*
X197537963Y-130063373D01*
X197555359Y-130240000D01*
X197537963Y-130416627D01*
X197486443Y-130586466D01*
X197402778Y-130742991D01*
X197373448Y-130778729D01*
X197290186Y-130880186D01*
X197188729Y-130963448D01*
X197152991Y-130992778D01*
X196996466Y-131076443D01*
X196826627Y-131127963D01*
X196760442Y-131134482D01*
X196694260Y-131141000D01*
X196605740Y-131141000D01*
X196539558Y-131134482D01*
X196473373Y-131127963D01*
X196303534Y-131076443D01*
X196147009Y-130992778D01*
X196111271Y-130963448D01*
X196009814Y-130880186D01*
X195926552Y-130778729D01*
X195897222Y-130742991D01*
X195813557Y-130586466D01*
X195762037Y-130416627D01*
X195744641Y-130240000D01*
X195762037Y-130063373D01*
X195813557Y-129893534D01*
X195897222Y-129737009D01*
X195926552Y-129701271D01*
X196009814Y-129599814D01*
X196111271Y-129516552D01*
X196147009Y-129487222D01*
X196303534Y-129403557D01*
X196473373Y-129352037D01*
X196539558Y-129345518D01*
X196605740Y-129339000D01*
X196694260Y-129339000D01*
X196760442Y-129345518D01*
X196760442Y-129345518D01*
G37*
G36*
X210110443Y-126945519D02*
G01*
X210176627Y-126952037D01*
X210346466Y-127003557D01*
X210502991Y-127087222D01*
X210538729Y-127116552D01*
X210640186Y-127199814D01*
X210723448Y-127301271D01*
X210752778Y-127337009D01*
X210836443Y-127493534D01*
X210887963Y-127663373D01*
X210905359Y-127840000D01*
X210887963Y-128016627D01*
X210836443Y-128186466D01*
X210752778Y-128342991D01*
X210723448Y-128378729D01*
X210640186Y-128480186D01*
X210538729Y-128563448D01*
X210502991Y-128592778D01*
X210346466Y-128676443D01*
X210176627Y-128727963D01*
X210110443Y-128734481D01*
X210044260Y-128741000D01*
X209955740Y-128741000D01*
X209889557Y-128734481D01*
X209823373Y-128727963D01*
X209653534Y-128676443D01*
X209497009Y-128592778D01*
X209461271Y-128563448D01*
X209359814Y-128480186D01*
X209276552Y-128378729D01*
X209247222Y-128342991D01*
X209163557Y-128186466D01*
X209112037Y-128016627D01*
X209094641Y-127840000D01*
X209112037Y-127663373D01*
X209163557Y-127493534D01*
X209247222Y-127337009D01*
X209276552Y-127301271D01*
X209359814Y-127199814D01*
X209461271Y-127116552D01*
X209497009Y-127087222D01*
X209653534Y-127003557D01*
X209823373Y-126952037D01*
X209889557Y-126945519D01*
X209955740Y-126939000D01*
X210044260Y-126939000D01*
X210110443Y-126945519D01*
X210110443Y-126945519D01*
G37*
G36*
X196760443Y-126805519D02*
G01*
X196826627Y-126812037D01*
X196996466Y-126863557D01*
X197152991Y-126947222D01*
X197188729Y-126976552D01*
X197290186Y-127059814D01*
X197373448Y-127161271D01*
X197402778Y-127197009D01*
X197486443Y-127353534D01*
X197537963Y-127523373D01*
X197555359Y-127700000D01*
X197537963Y-127876627D01*
X197486443Y-128046466D01*
X197402778Y-128202991D01*
X197373448Y-128238729D01*
X197290186Y-128340186D01*
X197188729Y-128423448D01*
X197152991Y-128452778D01*
X196996466Y-128536443D01*
X196826627Y-128587963D01*
X196760442Y-128594482D01*
X196694260Y-128601000D01*
X196605740Y-128601000D01*
X196539558Y-128594482D01*
X196473373Y-128587963D01*
X196303534Y-128536443D01*
X196147009Y-128452778D01*
X196111271Y-128423448D01*
X196009814Y-128340186D01*
X195926552Y-128238729D01*
X195897222Y-128202991D01*
X195813557Y-128046466D01*
X195762037Y-127876627D01*
X195744641Y-127700000D01*
X195762037Y-127523373D01*
X195813557Y-127353534D01*
X195897222Y-127197009D01*
X195926552Y-127161271D01*
X196009814Y-127059814D01*
X196111271Y-126976552D01*
X196147009Y-126947222D01*
X196303534Y-126863557D01*
X196473373Y-126812037D01*
X196539557Y-126805519D01*
X196605740Y-126799000D01*
X196694260Y-126799000D01*
X196760443Y-126805519D01*
X196760443Y-126805519D01*
G37*
G36*
X210110443Y-124405519D02*
G01*
X210176627Y-124412037D01*
X210346466Y-124463557D01*
X210502991Y-124547222D01*
X210538729Y-124576552D01*
X210640186Y-124659814D01*
X210723448Y-124761271D01*
X210752778Y-124797009D01*
X210836443Y-124953534D01*
X210887963Y-125123373D01*
X210905359Y-125300000D01*
X210887963Y-125476627D01*
X210836443Y-125646466D01*
X210752778Y-125802991D01*
X210723448Y-125838729D01*
X210640186Y-125940186D01*
X210538729Y-126023448D01*
X210502991Y-126052778D01*
X210346466Y-126136443D01*
X210176627Y-126187963D01*
X210110443Y-126194481D01*
X210044260Y-126201000D01*
X209955740Y-126201000D01*
X209889557Y-126194481D01*
X209823373Y-126187963D01*
X209653534Y-126136443D01*
X209497009Y-126052778D01*
X209461271Y-126023448D01*
X209359814Y-125940186D01*
X209276552Y-125838729D01*
X209247222Y-125802991D01*
X209163557Y-125646466D01*
X209112037Y-125476627D01*
X209094641Y-125300000D01*
X209112037Y-125123373D01*
X209163557Y-124953534D01*
X209247222Y-124797009D01*
X209276552Y-124761271D01*
X209359814Y-124659814D01*
X209461271Y-124576552D01*
X209497009Y-124547222D01*
X209653534Y-124463557D01*
X209823373Y-124412037D01*
X209889557Y-124405519D01*
X209955740Y-124399000D01*
X210044260Y-124399000D01*
X210110443Y-124405519D01*
X210110443Y-124405519D01*
G37*
G36*
X196760443Y-124265519D02*
G01*
X196826627Y-124272037D01*
X196996466Y-124323557D01*
X197152991Y-124407222D01*
X197188729Y-124436552D01*
X197290186Y-124519814D01*
X197373448Y-124621271D01*
X197402778Y-124657009D01*
X197486443Y-124813534D01*
X197537963Y-124983373D01*
X197555359Y-125160000D01*
X197537963Y-125336627D01*
X197486443Y-125506466D01*
X197402778Y-125662991D01*
X197373448Y-125698729D01*
X197290186Y-125800186D01*
X197188729Y-125883448D01*
X197152991Y-125912778D01*
X196996466Y-125996443D01*
X196826627Y-126047963D01*
X196760443Y-126054481D01*
X196694260Y-126061000D01*
X196605740Y-126061000D01*
X196539557Y-126054481D01*
X196473373Y-126047963D01*
X196303534Y-125996443D01*
X196147009Y-125912778D01*
X196111271Y-125883448D01*
X196009814Y-125800186D01*
X195926552Y-125698729D01*
X195897222Y-125662991D01*
X195813557Y-125506466D01*
X195762037Y-125336627D01*
X195744641Y-125160000D01*
X195762037Y-124983373D01*
X195813557Y-124813534D01*
X195897222Y-124657009D01*
X195926552Y-124621271D01*
X196009814Y-124519814D01*
X196111271Y-124436552D01*
X196147009Y-124407222D01*
X196303534Y-124323557D01*
X196473373Y-124272037D01*
X196539557Y-124265519D01*
X196605740Y-124259000D01*
X196694260Y-124259000D01*
X196760443Y-124265519D01*
X196760443Y-124265519D01*
G37*
G36*
X210110443Y-121865519D02*
G01*
X210176627Y-121872037D01*
X210346466Y-121923557D01*
X210502991Y-122007222D01*
X210538729Y-122036552D01*
X210640186Y-122119814D01*
X210723448Y-122221271D01*
X210752778Y-122257009D01*
X210836443Y-122413534D01*
X210887963Y-122583373D01*
X210905359Y-122760000D01*
X210887963Y-122936627D01*
X210836443Y-123106466D01*
X210752778Y-123262991D01*
X210723448Y-123298729D01*
X210640186Y-123400186D01*
X210538729Y-123483448D01*
X210502991Y-123512778D01*
X210346466Y-123596443D01*
X210176627Y-123647963D01*
X210110443Y-123654481D01*
X210044260Y-123661000D01*
X209955740Y-123661000D01*
X209889557Y-123654481D01*
X209823373Y-123647963D01*
X209653534Y-123596443D01*
X209497009Y-123512778D01*
X209461271Y-123483448D01*
X209359814Y-123400186D01*
X209276552Y-123298729D01*
X209247222Y-123262991D01*
X209163557Y-123106466D01*
X209112037Y-122936627D01*
X209094641Y-122760000D01*
X209112037Y-122583373D01*
X209163557Y-122413534D01*
X209247222Y-122257009D01*
X209276552Y-122221271D01*
X209359814Y-122119814D01*
X209461271Y-122036552D01*
X209497009Y-122007222D01*
X209653534Y-121923557D01*
X209823373Y-121872037D01*
X209889557Y-121865519D01*
X209955740Y-121859000D01*
X210044260Y-121859000D01*
X210110443Y-121865519D01*
X210110443Y-121865519D01*
G37*
G36*
X196760443Y-121725519D02*
G01*
X196826627Y-121732037D01*
X196996466Y-121783557D01*
X197152991Y-121867222D01*
X197188729Y-121896552D01*
X197290186Y-121979814D01*
X197373448Y-122081271D01*
X197402778Y-122117009D01*
X197486443Y-122273534D01*
X197537963Y-122443373D01*
X197555359Y-122620000D01*
X197537963Y-122796627D01*
X197486443Y-122966466D01*
X197402778Y-123122991D01*
X197373448Y-123158729D01*
X197290186Y-123260186D01*
X197188729Y-123343448D01*
X197152991Y-123372778D01*
X196996466Y-123456443D01*
X196826627Y-123507963D01*
X196760443Y-123514481D01*
X196694260Y-123521000D01*
X196605740Y-123521000D01*
X196539557Y-123514481D01*
X196473373Y-123507963D01*
X196303534Y-123456443D01*
X196147009Y-123372778D01*
X196111271Y-123343448D01*
X196009814Y-123260186D01*
X195926552Y-123158729D01*
X195897222Y-123122991D01*
X195813557Y-122966466D01*
X195762037Y-122796627D01*
X195744641Y-122620000D01*
X195762037Y-122443373D01*
X195813557Y-122273534D01*
X195897222Y-122117009D01*
X195926552Y-122081271D01*
X196009814Y-121979814D01*
X196111271Y-121896552D01*
X196147009Y-121867222D01*
X196303534Y-121783557D01*
X196473373Y-121732037D01*
X196539557Y-121725519D01*
X196605740Y-121719000D01*
X196694260Y-121719000D01*
X196760443Y-121725519D01*
X196760443Y-121725519D01*
G37*
G36*
X210110442Y-119325518D02*
G01*
X210176627Y-119332037D01*
X210346466Y-119383557D01*
X210502991Y-119467222D01*
X210538729Y-119496552D01*
X210640186Y-119579814D01*
X210723448Y-119681271D01*
X210752778Y-119717009D01*
X210836443Y-119873534D01*
X210887963Y-120043373D01*
X210905359Y-120220000D01*
X210887963Y-120396627D01*
X210836443Y-120566466D01*
X210752778Y-120722991D01*
X210723448Y-120758729D01*
X210640186Y-120860186D01*
X210538729Y-120943448D01*
X210502991Y-120972778D01*
X210346466Y-121056443D01*
X210176627Y-121107963D01*
X210110442Y-121114482D01*
X210044260Y-121121000D01*
X209955740Y-121121000D01*
X209889558Y-121114482D01*
X209823373Y-121107963D01*
X209653534Y-121056443D01*
X209497009Y-120972778D01*
X209461271Y-120943448D01*
X209359814Y-120860186D01*
X209276552Y-120758729D01*
X209247222Y-120722991D01*
X209163557Y-120566466D01*
X209112037Y-120396627D01*
X209094641Y-120220000D01*
X209112037Y-120043373D01*
X209163557Y-119873534D01*
X209247222Y-119717009D01*
X209276552Y-119681271D01*
X209359814Y-119579814D01*
X209461271Y-119496552D01*
X209497009Y-119467222D01*
X209653534Y-119383557D01*
X209823373Y-119332037D01*
X209889558Y-119325518D01*
X209955740Y-119319000D01*
X210044260Y-119319000D01*
X210110442Y-119325518D01*
X210110442Y-119325518D01*
G37*
G36*
X196760443Y-119185519D02*
G01*
X196826627Y-119192037D01*
X196996466Y-119243557D01*
X197152991Y-119327222D01*
X197188729Y-119356552D01*
X197290186Y-119439814D01*
X197373448Y-119541271D01*
X197402778Y-119577009D01*
X197486443Y-119733534D01*
X197537963Y-119903373D01*
X197555359Y-120080000D01*
X197537963Y-120256627D01*
X197486443Y-120426466D01*
X197402778Y-120582991D01*
X197373448Y-120618729D01*
X197290186Y-120720186D01*
X197188729Y-120803448D01*
X197152991Y-120832778D01*
X196996466Y-120916443D01*
X196826627Y-120967963D01*
X196760443Y-120974481D01*
X196694260Y-120981000D01*
X196605740Y-120981000D01*
X196539557Y-120974481D01*
X196473373Y-120967963D01*
X196303534Y-120916443D01*
X196147009Y-120832778D01*
X196111271Y-120803448D01*
X196009814Y-120720186D01*
X195926552Y-120618729D01*
X195897222Y-120582991D01*
X195813557Y-120426466D01*
X195762037Y-120256627D01*
X195744641Y-120080000D01*
X195762037Y-119903373D01*
X195813557Y-119733534D01*
X195897222Y-119577009D01*
X195926552Y-119541271D01*
X196009814Y-119439814D01*
X196111271Y-119356552D01*
X196147009Y-119327222D01*
X196303534Y-119243557D01*
X196473373Y-119192037D01*
X196539557Y-119185519D01*
X196605740Y-119179000D01*
X196694260Y-119179000D01*
X196760443Y-119185519D01*
X196760443Y-119185519D01*
G37*
G36*
X210110443Y-116785519D02*
G01*
X210176627Y-116792037D01*
X210346466Y-116843557D01*
X210502991Y-116927222D01*
X210538729Y-116956552D01*
X210640186Y-117039814D01*
X210723448Y-117141271D01*
X210752778Y-117177009D01*
X210836443Y-117333534D01*
X210887963Y-117503373D01*
X210905359Y-117680000D01*
X210887963Y-117856627D01*
X210836443Y-118026466D01*
X210752778Y-118182991D01*
X210723448Y-118218729D01*
X210640186Y-118320186D01*
X210538729Y-118403448D01*
X210502991Y-118432778D01*
X210346466Y-118516443D01*
X210176627Y-118567963D01*
X210110443Y-118574481D01*
X210044260Y-118581000D01*
X209955740Y-118581000D01*
X209889557Y-118574481D01*
X209823373Y-118567963D01*
X209653534Y-118516443D01*
X209497009Y-118432778D01*
X209461271Y-118403448D01*
X209359814Y-118320186D01*
X209276552Y-118218729D01*
X209247222Y-118182991D01*
X209163557Y-118026466D01*
X209112037Y-117856627D01*
X209094641Y-117680000D01*
X209112037Y-117503373D01*
X209163557Y-117333534D01*
X209247222Y-117177009D01*
X209276552Y-117141271D01*
X209359814Y-117039814D01*
X209461271Y-116956552D01*
X209497009Y-116927222D01*
X209653534Y-116843557D01*
X209823373Y-116792037D01*
X209889557Y-116785519D01*
X209955740Y-116779000D01*
X210044260Y-116779000D01*
X210110443Y-116785519D01*
X210110443Y-116785519D01*
G37*
G36*
X196760442Y-116645518D02*
G01*
X196826627Y-116652037D01*
X196996466Y-116703557D01*
X197152991Y-116787222D01*
X197188729Y-116816552D01*
X197290186Y-116899814D01*
X197373448Y-117001271D01*
X197402778Y-117037009D01*
X197486443Y-117193534D01*
X197537963Y-117363373D01*
X197555359Y-117540000D01*
X197537963Y-117716627D01*
X197486443Y-117886466D01*
X197402778Y-118042991D01*
X197373448Y-118078729D01*
X197290186Y-118180186D01*
X197188729Y-118263448D01*
X197152991Y-118292778D01*
X196996466Y-118376443D01*
X196826627Y-118427963D01*
X196760442Y-118434482D01*
X196694260Y-118441000D01*
X196605740Y-118441000D01*
X196539558Y-118434482D01*
X196473373Y-118427963D01*
X196303534Y-118376443D01*
X196147009Y-118292778D01*
X196111271Y-118263448D01*
X196009814Y-118180186D01*
X195926552Y-118078729D01*
X195897222Y-118042991D01*
X195813557Y-117886466D01*
X195762037Y-117716627D01*
X195744641Y-117540000D01*
X195762037Y-117363373D01*
X195813557Y-117193534D01*
X195897222Y-117037009D01*
X195926552Y-117001271D01*
X196009814Y-116899814D01*
X196111271Y-116816552D01*
X196147009Y-116787222D01*
X196303534Y-116703557D01*
X196473373Y-116652037D01*
X196539558Y-116645518D01*
X196605740Y-116639000D01*
X196694260Y-116639000D01*
X196760442Y-116645518D01*
X196760442Y-116645518D01*
G37*
G36*
X210110442Y-114245518D02*
G01*
X210176627Y-114252037D01*
X210346466Y-114303557D01*
X210502991Y-114387222D01*
X210538729Y-114416552D01*
X210640186Y-114499814D01*
X210723448Y-114601271D01*
X210752778Y-114637009D01*
X210836443Y-114793534D01*
X210887963Y-114963373D01*
X210905359Y-115140000D01*
X210887963Y-115316627D01*
X210836443Y-115486466D01*
X210752778Y-115642991D01*
X210723448Y-115678729D01*
X210640186Y-115780186D01*
X210538729Y-115863448D01*
X210502991Y-115892778D01*
X210346466Y-115976443D01*
X210176627Y-116027963D01*
X210110443Y-116034481D01*
X210044260Y-116041000D01*
X209955740Y-116041000D01*
X209889557Y-116034481D01*
X209823373Y-116027963D01*
X209653534Y-115976443D01*
X209497009Y-115892778D01*
X209461271Y-115863448D01*
X209359814Y-115780186D01*
X209276552Y-115678729D01*
X209247222Y-115642991D01*
X209163557Y-115486466D01*
X209112037Y-115316627D01*
X209094641Y-115140000D01*
X209112037Y-114963373D01*
X209163557Y-114793534D01*
X209247222Y-114637009D01*
X209276552Y-114601271D01*
X209359814Y-114499814D01*
X209461271Y-114416552D01*
X209497009Y-114387222D01*
X209653534Y-114303557D01*
X209823373Y-114252037D01*
X209889558Y-114245518D01*
X209955740Y-114239000D01*
X210044260Y-114239000D01*
X210110442Y-114245518D01*
X210110442Y-114245518D01*
G37*
G36*
X197551000Y-115901000D02*
G01*
X195749000Y-115901000D01*
X195749000Y-114099000D01*
X197551000Y-114099000D01*
X197551000Y-115901000D01*
X197551000Y-115901000D01*
G37*
G36*
X181690442Y-109605518D02*
G01*
X181756627Y-109612037D01*
X181926466Y-109663557D01*
X182082991Y-109747222D01*
X182118729Y-109776552D01*
X182220186Y-109859814D01*
X182303448Y-109961271D01*
X182332778Y-109997009D01*
X182416443Y-110153534D01*
X182467963Y-110323373D01*
X182485359Y-110500000D01*
X182467963Y-110676627D01*
X182416443Y-110846466D01*
X182332778Y-111002991D01*
X182303448Y-111038729D01*
X182220186Y-111140186D01*
X182118729Y-111223448D01*
X182082991Y-111252778D01*
X181926466Y-111336443D01*
X181756627Y-111387963D01*
X181690443Y-111394481D01*
X181624260Y-111401000D01*
X181535740Y-111401000D01*
X181469557Y-111394481D01*
X181403373Y-111387963D01*
X181233534Y-111336443D01*
X181077009Y-111252778D01*
X181041271Y-111223448D01*
X180939814Y-111140186D01*
X180856552Y-111038729D01*
X180827222Y-111002991D01*
X180743557Y-110846466D01*
X180692037Y-110676627D01*
X180674641Y-110500000D01*
X180692037Y-110323373D01*
X180743557Y-110153534D01*
X180827222Y-109997009D01*
X180856552Y-109961271D01*
X180939814Y-109859814D01*
X181041271Y-109776552D01*
X181077009Y-109747222D01*
X181233534Y-109663557D01*
X181403373Y-109612037D01*
X181469558Y-109605518D01*
X181535740Y-109599000D01*
X181624260Y-109599000D01*
X181690442Y-109605518D01*
X181690442Y-109605518D01*
G37*
G36*
X179150442Y-109605518D02*
G01*
X179216627Y-109612037D01*
X179386466Y-109663557D01*
X179542991Y-109747222D01*
X179578729Y-109776552D01*
X179680186Y-109859814D01*
X179763448Y-109961271D01*
X179792778Y-109997009D01*
X179876443Y-110153534D01*
X179927963Y-110323373D01*
X179945359Y-110500000D01*
X179927963Y-110676627D01*
X179876443Y-110846466D01*
X179792778Y-111002991D01*
X179763448Y-111038729D01*
X179680186Y-111140186D01*
X179578729Y-111223448D01*
X179542991Y-111252778D01*
X179386466Y-111336443D01*
X179216627Y-111387963D01*
X179150443Y-111394481D01*
X179084260Y-111401000D01*
X178995740Y-111401000D01*
X178929557Y-111394481D01*
X178863373Y-111387963D01*
X178693534Y-111336443D01*
X178537009Y-111252778D01*
X178501271Y-111223448D01*
X178399814Y-111140186D01*
X178316552Y-111038729D01*
X178287222Y-111002991D01*
X178203557Y-110846466D01*
X178152037Y-110676627D01*
X178134641Y-110500000D01*
X178152037Y-110323373D01*
X178203557Y-110153534D01*
X178287222Y-109997009D01*
X178316552Y-109961271D01*
X178399814Y-109859814D01*
X178501271Y-109776552D01*
X178537009Y-109747222D01*
X178693534Y-109663557D01*
X178863373Y-109612037D01*
X178929558Y-109605518D01*
X178995740Y-109599000D01*
X179084260Y-109599000D01*
X179150442Y-109605518D01*
X179150442Y-109605518D01*
G37*
G36*
X177401000Y-111401000D02*
G01*
X175599000Y-111401000D01*
X175599000Y-109599000D01*
X177401000Y-109599000D01*
X177401000Y-111401000D01*
X177401000Y-111401000D01*
G37*
G36*
X197110442Y-108185518D02*
G01*
X197176627Y-108192037D01*
X197346466Y-108243557D01*
X197502991Y-108327222D01*
X197535050Y-108353532D01*
X197640186Y-108439814D01*
X197723448Y-108541271D01*
X197752778Y-108577009D01*
X197836443Y-108733534D01*
X197887963Y-108903373D01*
X197905359Y-109080000D01*
X197887963Y-109256627D01*
X197836443Y-109426466D01*
X197752778Y-109582991D01*
X197737998Y-109601000D01*
X197640186Y-109720186D01*
X197538729Y-109803448D01*
X197502991Y-109832778D01*
X197346466Y-109916443D01*
X197176627Y-109967963D01*
X197110442Y-109974482D01*
X197044260Y-109981000D01*
X196955740Y-109981000D01*
X196889558Y-109974482D01*
X196823373Y-109967963D01*
X196653534Y-109916443D01*
X196497009Y-109832778D01*
X196461271Y-109803448D01*
X196359814Y-109720186D01*
X196262002Y-109601000D01*
X196247222Y-109582991D01*
X196163557Y-109426466D01*
X196112037Y-109256627D01*
X196094641Y-109080000D01*
X196112037Y-108903373D01*
X196163557Y-108733534D01*
X196247222Y-108577009D01*
X196276552Y-108541271D01*
X196359814Y-108439814D01*
X196464950Y-108353532D01*
X196497009Y-108327222D01*
X196653534Y-108243557D01*
X196823373Y-108192037D01*
X196889558Y-108185518D01*
X196955740Y-108179000D01*
X197044260Y-108179000D01*
X197110442Y-108185518D01*
X197110442Y-108185518D01*
G37*
G36*
X208901000Y-109901000D02*
G01*
X207099000Y-109901000D01*
X207099000Y-108099000D01*
X208901000Y-108099000D01*
X208901000Y-109901000D01*
X208901000Y-109901000D01*
G37*
G36*
X145110443Y-107805519D02*
G01*
X145176627Y-107812037D01*
X145346466Y-107863557D01*
X145502991Y-107947222D01*
X145538729Y-107976552D01*
X145640186Y-108059814D01*
X145723448Y-108161271D01*
X145752778Y-108197009D01*
X145836443Y-108353534D01*
X145887963Y-108523373D01*
X145905359Y-108700000D01*
X145887963Y-108876627D01*
X145836443Y-109046466D01*
X145752778Y-109202991D01*
X145723448Y-109238729D01*
X145640186Y-109340186D01*
X145538729Y-109423448D01*
X145502991Y-109452778D01*
X145346466Y-109536443D01*
X145176627Y-109587963D01*
X145110442Y-109594482D01*
X145044260Y-109601000D01*
X144955740Y-109601000D01*
X144889558Y-109594482D01*
X144823373Y-109587963D01*
X144653534Y-109536443D01*
X144497009Y-109452778D01*
X144461271Y-109423448D01*
X144359814Y-109340186D01*
X144276552Y-109238729D01*
X144247222Y-109202991D01*
X144163557Y-109046466D01*
X144112037Y-108876627D01*
X144094641Y-108700000D01*
X144112037Y-108523373D01*
X144163557Y-108353534D01*
X144247222Y-108197009D01*
X144276552Y-108161271D01*
X144359814Y-108059814D01*
X144461271Y-107976552D01*
X144497009Y-107947222D01*
X144653534Y-107863557D01*
X144823373Y-107812037D01*
X144889557Y-107805519D01*
X144955740Y-107799000D01*
X145044260Y-107799000D01*
X145110443Y-107805519D01*
X145110443Y-107805519D01*
G37*
G36*
X133110443Y-107805519D02*
G01*
X133176627Y-107812037D01*
X133346466Y-107863557D01*
X133502991Y-107947222D01*
X133538729Y-107976552D01*
X133640186Y-108059814D01*
X133723448Y-108161271D01*
X133752778Y-108197009D01*
X133836443Y-108353534D01*
X133887963Y-108523373D01*
X133905359Y-108700000D01*
X133887963Y-108876627D01*
X133836443Y-109046466D01*
X133752778Y-109202991D01*
X133723448Y-109238729D01*
X133640186Y-109340186D01*
X133538729Y-109423448D01*
X133502991Y-109452778D01*
X133346466Y-109536443D01*
X133176627Y-109587963D01*
X133110442Y-109594482D01*
X133044260Y-109601000D01*
X132955740Y-109601000D01*
X132889558Y-109594482D01*
X132823373Y-109587963D01*
X132653534Y-109536443D01*
X132497009Y-109452778D01*
X132461271Y-109423448D01*
X132359814Y-109340186D01*
X132276552Y-109238729D01*
X132247222Y-109202991D01*
X132163557Y-109046466D01*
X132112037Y-108876627D01*
X132094641Y-108700000D01*
X132112037Y-108523373D01*
X132163557Y-108353534D01*
X132247222Y-108197009D01*
X132276552Y-108161271D01*
X132359814Y-108059814D01*
X132461271Y-107976552D01*
X132497009Y-107947222D01*
X132653534Y-107863557D01*
X132823373Y-107812037D01*
X132889557Y-107805519D01*
X132955740Y-107799000D01*
X133044260Y-107799000D01*
X133110443Y-107805519D01*
X133110443Y-107805519D01*
G37*
G36*
X197110442Y-105645518D02*
G01*
X197176627Y-105652037D01*
X197346466Y-105703557D01*
X197502991Y-105787222D01*
X197535050Y-105813532D01*
X197640186Y-105899814D01*
X197723448Y-106001271D01*
X197752778Y-106037009D01*
X197836443Y-106193534D01*
X197887963Y-106363373D01*
X197905359Y-106540000D01*
X197887963Y-106716627D01*
X197836443Y-106886466D01*
X197752778Y-107042991D01*
X197737998Y-107061000D01*
X197640186Y-107180186D01*
X197538729Y-107263448D01*
X197502991Y-107292778D01*
X197346466Y-107376443D01*
X197176627Y-107427963D01*
X197110443Y-107434481D01*
X197044260Y-107441000D01*
X196955740Y-107441000D01*
X196889557Y-107434481D01*
X196823373Y-107427963D01*
X196653534Y-107376443D01*
X196497009Y-107292778D01*
X196461271Y-107263448D01*
X196359814Y-107180186D01*
X196262002Y-107061000D01*
X196247222Y-107042991D01*
X196163557Y-106886466D01*
X196112037Y-106716627D01*
X196094641Y-106540000D01*
X196112037Y-106363373D01*
X196163557Y-106193534D01*
X196247222Y-106037009D01*
X196276552Y-106001271D01*
X196359814Y-105899814D01*
X196464950Y-105813532D01*
X196497009Y-105787222D01*
X196653534Y-105703557D01*
X196823373Y-105652037D01*
X196889557Y-105645519D01*
X196955740Y-105639000D01*
X197044260Y-105639000D01*
X197110442Y-105645518D01*
X197110442Y-105645518D01*
G37*
G36*
X208110442Y-105565518D02*
G01*
X208176627Y-105572037D01*
X208346466Y-105623557D01*
X208502991Y-105707222D01*
X208538729Y-105736552D01*
X208640186Y-105819814D01*
X208705839Y-105899814D01*
X208752778Y-105957009D01*
X208836443Y-106113534D01*
X208887963Y-106283373D01*
X208905359Y-106460000D01*
X208887963Y-106636627D01*
X208836443Y-106806466D01*
X208752778Y-106962991D01*
X208725325Y-106996442D01*
X208640186Y-107100186D01*
X208542705Y-107180185D01*
X208502991Y-107212778D01*
X208346466Y-107296443D01*
X208176627Y-107347963D01*
X208110442Y-107354482D01*
X208044260Y-107361000D01*
X207955740Y-107361000D01*
X207889558Y-107354482D01*
X207823373Y-107347963D01*
X207653534Y-107296443D01*
X207497009Y-107212778D01*
X207457295Y-107180185D01*
X207359814Y-107100186D01*
X207274675Y-106996442D01*
X207247222Y-106962991D01*
X207163557Y-106806466D01*
X207112037Y-106636627D01*
X207094641Y-106460000D01*
X207112037Y-106283373D01*
X207163557Y-106113534D01*
X207247222Y-105957009D01*
X207294161Y-105899814D01*
X207359814Y-105819814D01*
X207461271Y-105736552D01*
X207497009Y-105707222D01*
X207653534Y-105623557D01*
X207823373Y-105572037D01*
X207889558Y-105565518D01*
X207955740Y-105559000D01*
X208044260Y-105559000D01*
X208110442Y-105565518D01*
X208110442Y-105565518D01*
G37*
G36*
X133110443Y-105265519D02*
G01*
X133176627Y-105272037D01*
X133346466Y-105323557D01*
X133502991Y-105407222D01*
X133538729Y-105436552D01*
X133640186Y-105519814D01*
X133723448Y-105621271D01*
X133752778Y-105657009D01*
X133836443Y-105813534D01*
X133887963Y-105983373D01*
X133905359Y-106160000D01*
X133887963Y-106336627D01*
X133836443Y-106506466D01*
X133752778Y-106662991D01*
X133723448Y-106698729D01*
X133640186Y-106800186D01*
X133538729Y-106883448D01*
X133502991Y-106912778D01*
X133346466Y-106996443D01*
X133176627Y-107047963D01*
X133110442Y-107054482D01*
X133044260Y-107061000D01*
X132955740Y-107061000D01*
X132889558Y-107054482D01*
X132823373Y-107047963D01*
X132653534Y-106996443D01*
X132497009Y-106912778D01*
X132461271Y-106883448D01*
X132359814Y-106800186D01*
X132276552Y-106698729D01*
X132247222Y-106662991D01*
X132163557Y-106506466D01*
X132112037Y-106336627D01*
X132094641Y-106160000D01*
X132112037Y-105983373D01*
X132163557Y-105813534D01*
X132247222Y-105657009D01*
X132276552Y-105621271D01*
X132359814Y-105519814D01*
X132461271Y-105436552D01*
X132497009Y-105407222D01*
X132653534Y-105323557D01*
X132823373Y-105272037D01*
X132889557Y-105265519D01*
X132955740Y-105259000D01*
X133044260Y-105259000D01*
X133110443Y-105265519D01*
X133110443Y-105265519D01*
G37*
G36*
X145110443Y-105265519D02*
G01*
X145176627Y-105272037D01*
X145346466Y-105323557D01*
X145502991Y-105407222D01*
X145538729Y-105436552D01*
X145640186Y-105519814D01*
X145723448Y-105621271D01*
X145752778Y-105657009D01*
X145836443Y-105813534D01*
X145887963Y-105983373D01*
X145905359Y-106160000D01*
X145887963Y-106336627D01*
X145836443Y-106506466D01*
X145752778Y-106662991D01*
X145723448Y-106698729D01*
X145640186Y-106800186D01*
X145538729Y-106883448D01*
X145502991Y-106912778D01*
X145346466Y-106996443D01*
X145176627Y-107047963D01*
X145110442Y-107054482D01*
X145044260Y-107061000D01*
X144955740Y-107061000D01*
X144889558Y-107054482D01*
X144823373Y-107047963D01*
X144653534Y-106996443D01*
X144497009Y-106912778D01*
X144461271Y-106883448D01*
X144359814Y-106800186D01*
X144276552Y-106698729D01*
X144247222Y-106662991D01*
X144163557Y-106506466D01*
X144112037Y-106336627D01*
X144094641Y-106160000D01*
X144112037Y-105983373D01*
X144163557Y-105813534D01*
X144247222Y-105657009D01*
X144276552Y-105621271D01*
X144359814Y-105519814D01*
X144461271Y-105436552D01*
X144497009Y-105407222D01*
X144653534Y-105323557D01*
X144823373Y-105272037D01*
X144889557Y-105265519D01*
X144955740Y-105259000D01*
X145044260Y-105259000D01*
X145110443Y-105265519D01*
X145110443Y-105265519D01*
G37*
G36*
X197901000Y-104901000D02*
G01*
X196099000Y-104901000D01*
X196099000Y-103099000D01*
X197901000Y-103099000D01*
X197901000Y-104901000D01*
X197901000Y-104901000D01*
G37*
G36*
X208087268Y-103023236D02*
G01*
X208176627Y-103032037D01*
X208346466Y-103083557D01*
X208502991Y-103167222D01*
X208538729Y-103196552D01*
X208640186Y-103279814D01*
X208723448Y-103381271D01*
X208752778Y-103417009D01*
X208836443Y-103573534D01*
X208887963Y-103743373D01*
X208905359Y-103920000D01*
X208887963Y-104096627D01*
X208836443Y-104266466D01*
X208752778Y-104422991D01*
X208725325Y-104456442D01*
X208640186Y-104560186D01*
X208538729Y-104643448D01*
X208502991Y-104672778D01*
X208346466Y-104756443D01*
X208176627Y-104807963D01*
X208110442Y-104814482D01*
X208044260Y-104821000D01*
X207955740Y-104821000D01*
X207889558Y-104814482D01*
X207823373Y-104807963D01*
X207653534Y-104756443D01*
X207497009Y-104672778D01*
X207461271Y-104643448D01*
X207359814Y-104560186D01*
X207274675Y-104456442D01*
X207247222Y-104422991D01*
X207163557Y-104266466D01*
X207112037Y-104096627D01*
X207094641Y-103920000D01*
X207112037Y-103743373D01*
X207163557Y-103573534D01*
X207247222Y-103417009D01*
X207276552Y-103381271D01*
X207359814Y-103279814D01*
X207461271Y-103196552D01*
X207497009Y-103167222D01*
X207653534Y-103083557D01*
X207823373Y-103032037D01*
X207912732Y-103023236D01*
X207955740Y-103019000D01*
X208044260Y-103019000D01*
X208087268Y-103023236D01*
X208087268Y-103023236D01*
G37*
G36*
X145110443Y-102725519D02*
G01*
X145176627Y-102732037D01*
X145346466Y-102783557D01*
X145502991Y-102867222D01*
X145524334Y-102884738D01*
X145640186Y-102979814D01*
X145723448Y-103081271D01*
X145752778Y-103117009D01*
X145836443Y-103273534D01*
X145887963Y-103443373D01*
X145905359Y-103620000D01*
X145887963Y-103796627D01*
X145836443Y-103966466D01*
X145752778Y-104122991D01*
X145726724Y-104154738D01*
X145640186Y-104260186D01*
X145538729Y-104343448D01*
X145502991Y-104372778D01*
X145346466Y-104456443D01*
X145176627Y-104507963D01*
X145110443Y-104514481D01*
X145044260Y-104521000D01*
X144955740Y-104521000D01*
X144889557Y-104514481D01*
X144823373Y-104507963D01*
X144653534Y-104456443D01*
X144497009Y-104372778D01*
X144461271Y-104343448D01*
X144359814Y-104260186D01*
X144273276Y-104154738D01*
X144247222Y-104122991D01*
X144163557Y-103966466D01*
X144112037Y-103796627D01*
X144094641Y-103620000D01*
X144112037Y-103443373D01*
X144163557Y-103273534D01*
X144247222Y-103117009D01*
X144276552Y-103081271D01*
X144359814Y-102979814D01*
X144475666Y-102884738D01*
X144497009Y-102867222D01*
X144653534Y-102783557D01*
X144823373Y-102732037D01*
X144889557Y-102725519D01*
X144955740Y-102719000D01*
X145044260Y-102719000D01*
X145110443Y-102725519D01*
X145110443Y-102725519D01*
G37*
G36*
X133110443Y-102725519D02*
G01*
X133176627Y-102732037D01*
X133346466Y-102783557D01*
X133502991Y-102867222D01*
X133524334Y-102884738D01*
X133640186Y-102979814D01*
X133723448Y-103081271D01*
X133752778Y-103117009D01*
X133836443Y-103273534D01*
X133887963Y-103443373D01*
X133905359Y-103620000D01*
X133887963Y-103796627D01*
X133836443Y-103966466D01*
X133752778Y-104122991D01*
X133726724Y-104154738D01*
X133640186Y-104260186D01*
X133538729Y-104343448D01*
X133502991Y-104372778D01*
X133346466Y-104456443D01*
X133176627Y-104507963D01*
X133110443Y-104514481D01*
X133044260Y-104521000D01*
X132955740Y-104521000D01*
X132889557Y-104514481D01*
X132823373Y-104507963D01*
X132653534Y-104456443D01*
X132497009Y-104372778D01*
X132461271Y-104343448D01*
X132359814Y-104260186D01*
X132273276Y-104154738D01*
X132247222Y-104122991D01*
X132163557Y-103966466D01*
X132112037Y-103796627D01*
X132094641Y-103620000D01*
X132112037Y-103443373D01*
X132163557Y-103273534D01*
X132247222Y-103117009D01*
X132276552Y-103081271D01*
X132359814Y-102979814D01*
X132475666Y-102884738D01*
X132497009Y-102867222D01*
X132653534Y-102783557D01*
X132823373Y-102732037D01*
X132889557Y-102725519D01*
X132955740Y-102719000D01*
X133044260Y-102719000D01*
X133110443Y-102725519D01*
X133110443Y-102725519D01*
G37*
G36*
X182409928Y-103596764D02*
G01*
X182431009Y-103603160D01*
X182450445Y-103613548D01*
X182467476Y-103627524D01*
X182481452Y-103644555D01*
X182491840Y-103663991D01*
X182498236Y-103685072D01*
X182501000Y-103713140D01*
X182501000Y-104176860D01*
X182498236Y-104204928D01*
X182491840Y-104226009D01*
X182481452Y-104245445D01*
X182467476Y-104262476D01*
X182450445Y-104276452D01*
X182431009Y-104286840D01*
X182409928Y-104293236D01*
X182381860Y-104296000D01*
X180568140Y-104296000D01*
X180540072Y-104293236D01*
X180518991Y-104286840D01*
X180499555Y-104276452D01*
X180482524Y-104262476D01*
X180468548Y-104245445D01*
X180458160Y-104226009D01*
X180451764Y-104204928D01*
X180449000Y-104176860D01*
X180449000Y-103713140D01*
X180451764Y-103685072D01*
X180458160Y-103663991D01*
X180468548Y-103644555D01*
X180482524Y-103627524D01*
X180499555Y-103613548D01*
X180518991Y-103603160D01*
X180540072Y-103596764D01*
X180568140Y-103594000D01*
X182381860Y-103594000D01*
X182409928Y-103596764D01*
X182409928Y-103596764D01*
G37*
G36*
X177459928Y-103596764D02*
G01*
X177481009Y-103603160D01*
X177500445Y-103613548D01*
X177517476Y-103627524D01*
X177531452Y-103644555D01*
X177541840Y-103663991D01*
X177548236Y-103685072D01*
X177551000Y-103713140D01*
X177551000Y-104176860D01*
X177548236Y-104204928D01*
X177541840Y-104226009D01*
X177531452Y-104245445D01*
X177517476Y-104262476D01*
X177500445Y-104276452D01*
X177481009Y-104286840D01*
X177459928Y-104293236D01*
X177431860Y-104296000D01*
X175618140Y-104296000D01*
X175590072Y-104293236D01*
X175568991Y-104286840D01*
X175549555Y-104276452D01*
X175532524Y-104262476D01*
X175518548Y-104245445D01*
X175508160Y-104226009D01*
X175501764Y-104204928D01*
X175499000Y-104176860D01*
X175499000Y-103713140D01*
X175501764Y-103685072D01*
X175508160Y-103663991D01*
X175518548Y-103644555D01*
X175532524Y-103627524D01*
X175549555Y-103613548D01*
X175568991Y-103603160D01*
X175590072Y-103596764D01*
X175618140Y-103594000D01*
X177431860Y-103594000D01*
X177459928Y-103596764D01*
X177459928Y-103596764D01*
G37*
G36*
X177459928Y-102326764D02*
G01*
X177481009Y-102333160D01*
X177500445Y-102343548D01*
X177517476Y-102357524D01*
X177531452Y-102374555D01*
X177541840Y-102393991D01*
X177548236Y-102415072D01*
X177551000Y-102443140D01*
X177551000Y-102906860D01*
X177548236Y-102934928D01*
X177541840Y-102956009D01*
X177531452Y-102975445D01*
X177517476Y-102992476D01*
X177500445Y-103006452D01*
X177481009Y-103016840D01*
X177459928Y-103023236D01*
X177431860Y-103026000D01*
X175618140Y-103026000D01*
X175590072Y-103023236D01*
X175568991Y-103016840D01*
X175549555Y-103006452D01*
X175532524Y-102992476D01*
X175518548Y-102975445D01*
X175508160Y-102956009D01*
X175501764Y-102934928D01*
X175499000Y-102906860D01*
X175499000Y-102443140D01*
X175501764Y-102415072D01*
X175508160Y-102393991D01*
X175518548Y-102374555D01*
X175532524Y-102357524D01*
X175549555Y-102343548D01*
X175568991Y-102333160D01*
X175590072Y-102326764D01*
X175618140Y-102324000D01*
X177431860Y-102324000D01*
X177459928Y-102326764D01*
X177459928Y-102326764D01*
G37*
G36*
X182409928Y-102326764D02*
G01*
X182431009Y-102333160D01*
X182450445Y-102343548D01*
X182467476Y-102357524D01*
X182481452Y-102374555D01*
X182491840Y-102393991D01*
X182498236Y-102415072D01*
X182501000Y-102443140D01*
X182501000Y-102906860D01*
X182498236Y-102934928D01*
X182491840Y-102956009D01*
X182481452Y-102975445D01*
X182467476Y-102992476D01*
X182450445Y-103006452D01*
X182431009Y-103016840D01*
X182409928Y-103023236D01*
X182381860Y-103026000D01*
X180568140Y-103026000D01*
X180540072Y-103023236D01*
X180518991Y-103016840D01*
X180499555Y-103006452D01*
X180482524Y-102992476D01*
X180468548Y-102975445D01*
X180458160Y-102956009D01*
X180451764Y-102934928D01*
X180449000Y-102906860D01*
X180449000Y-102443140D01*
X180451764Y-102415072D01*
X180458160Y-102393991D01*
X180468548Y-102374555D01*
X180482524Y-102357524D01*
X180499555Y-102343548D01*
X180518991Y-102333160D01*
X180540072Y-102326764D01*
X180568140Y-102324000D01*
X182381860Y-102324000D01*
X182409928Y-102326764D01*
X182409928Y-102326764D01*
G37*
G36*
X133110442Y-100185518D02*
G01*
X133176627Y-100192037D01*
X133346466Y-100243557D01*
X133502991Y-100327222D01*
X133524334Y-100344738D01*
X133640186Y-100439814D01*
X133723448Y-100541271D01*
X133752778Y-100577009D01*
X133836443Y-100733534D01*
X133887963Y-100903373D01*
X133905359Y-101080000D01*
X133887963Y-101256627D01*
X133836443Y-101426466D01*
X133752778Y-101582991D01*
X133726724Y-101614738D01*
X133640186Y-101720186D01*
X133538729Y-101803448D01*
X133502991Y-101832778D01*
X133346466Y-101916443D01*
X133176627Y-101967963D01*
X133110442Y-101974482D01*
X133044260Y-101981000D01*
X132955740Y-101981000D01*
X132889558Y-101974482D01*
X132823373Y-101967963D01*
X132653534Y-101916443D01*
X132497009Y-101832778D01*
X132461271Y-101803448D01*
X132359814Y-101720186D01*
X132273276Y-101614738D01*
X132247222Y-101582991D01*
X132163557Y-101426466D01*
X132112037Y-101256627D01*
X132094641Y-101080000D01*
X132112037Y-100903373D01*
X132163557Y-100733534D01*
X132247222Y-100577009D01*
X132276552Y-100541271D01*
X132359814Y-100439814D01*
X132475666Y-100344738D01*
X132497009Y-100327222D01*
X132653534Y-100243557D01*
X132823373Y-100192037D01*
X132889558Y-100185518D01*
X132955740Y-100179000D01*
X133044260Y-100179000D01*
X133110442Y-100185518D01*
X133110442Y-100185518D01*
G37*
G36*
X145110442Y-100185518D02*
G01*
X145176627Y-100192037D01*
X145346466Y-100243557D01*
X145502991Y-100327222D01*
X145524334Y-100344738D01*
X145640186Y-100439814D01*
X145723448Y-100541271D01*
X145752778Y-100577009D01*
X145836443Y-100733534D01*
X145887963Y-100903373D01*
X145905359Y-101080000D01*
X145887963Y-101256627D01*
X145836443Y-101426466D01*
X145752778Y-101582991D01*
X145726724Y-101614738D01*
X145640186Y-101720186D01*
X145538729Y-101803448D01*
X145502991Y-101832778D01*
X145346466Y-101916443D01*
X145176627Y-101967963D01*
X145110442Y-101974482D01*
X145044260Y-101981000D01*
X144955740Y-101981000D01*
X144889558Y-101974482D01*
X144823373Y-101967963D01*
X144653534Y-101916443D01*
X144497009Y-101832778D01*
X144461271Y-101803448D01*
X144359814Y-101720186D01*
X144273276Y-101614738D01*
X144247222Y-101582991D01*
X144163557Y-101426466D01*
X144112037Y-101256627D01*
X144094641Y-101080000D01*
X144112037Y-100903373D01*
X144163557Y-100733534D01*
X144247222Y-100577009D01*
X144276552Y-100541271D01*
X144359814Y-100439814D01*
X144475666Y-100344738D01*
X144497009Y-100327222D01*
X144653534Y-100243557D01*
X144823373Y-100192037D01*
X144889558Y-100185518D01*
X144955740Y-100179000D01*
X145044260Y-100179000D01*
X145110442Y-100185518D01*
X145110442Y-100185518D01*
G37*
G36*
X182409928Y-101056764D02*
G01*
X182431009Y-101063160D01*
X182450445Y-101073548D01*
X182467476Y-101087524D01*
X182481452Y-101104555D01*
X182491840Y-101123991D01*
X182498236Y-101145072D01*
X182501000Y-101173140D01*
X182501000Y-101636860D01*
X182498236Y-101664928D01*
X182491840Y-101686009D01*
X182481452Y-101705445D01*
X182467476Y-101722476D01*
X182450445Y-101736452D01*
X182431009Y-101746840D01*
X182409928Y-101753236D01*
X182381860Y-101756000D01*
X180568140Y-101756000D01*
X180540072Y-101753236D01*
X180518991Y-101746840D01*
X180499555Y-101736452D01*
X180482524Y-101722476D01*
X180468548Y-101705445D01*
X180458160Y-101686009D01*
X180451764Y-101664928D01*
X180449000Y-101636860D01*
X180449000Y-101173140D01*
X180451764Y-101145072D01*
X180458160Y-101123991D01*
X180468548Y-101104555D01*
X180482524Y-101087524D01*
X180499555Y-101073548D01*
X180518991Y-101063160D01*
X180540072Y-101056764D01*
X180568140Y-101054000D01*
X182381860Y-101054000D01*
X182409928Y-101056764D01*
X182409928Y-101056764D01*
G37*
G36*
X177459928Y-101056764D02*
G01*
X177481009Y-101063160D01*
X177500445Y-101073548D01*
X177517476Y-101087524D01*
X177531452Y-101104555D01*
X177541840Y-101123991D01*
X177548236Y-101145072D01*
X177551000Y-101173140D01*
X177551000Y-101636860D01*
X177548236Y-101664928D01*
X177541840Y-101686009D01*
X177531452Y-101705445D01*
X177517476Y-101722476D01*
X177500445Y-101736452D01*
X177481009Y-101746840D01*
X177459928Y-101753236D01*
X177431860Y-101756000D01*
X175618140Y-101756000D01*
X175590072Y-101753236D01*
X175568991Y-101746840D01*
X175549555Y-101736452D01*
X175532524Y-101722476D01*
X175518548Y-101705445D01*
X175508160Y-101686009D01*
X175501764Y-101664928D01*
X175499000Y-101636860D01*
X175499000Y-101173140D01*
X175501764Y-101145072D01*
X175508160Y-101123991D01*
X175518548Y-101104555D01*
X175532524Y-101087524D01*
X175549555Y-101073548D01*
X175568991Y-101063160D01*
X175590072Y-101056764D01*
X175618140Y-101054000D01*
X177431860Y-101054000D01*
X177459928Y-101056764D01*
X177459928Y-101056764D01*
G37*
G36*
X177459928Y-99786764D02*
G01*
X177481009Y-99793160D01*
X177500445Y-99803548D01*
X177517476Y-99817524D01*
X177531452Y-99834555D01*
X177541840Y-99853991D01*
X177548236Y-99875072D01*
X177551000Y-99903140D01*
X177551000Y-100366860D01*
X177548236Y-100394928D01*
X177541840Y-100416009D01*
X177531452Y-100435445D01*
X177517476Y-100452476D01*
X177500445Y-100466452D01*
X177481009Y-100476840D01*
X177459928Y-100483236D01*
X177431860Y-100486000D01*
X175618140Y-100486000D01*
X175590072Y-100483236D01*
X175568991Y-100476840D01*
X175549555Y-100466452D01*
X175532524Y-100452476D01*
X175518548Y-100435445D01*
X175508160Y-100416009D01*
X175501764Y-100394928D01*
X175499000Y-100366860D01*
X175499000Y-99903140D01*
X175501764Y-99875072D01*
X175508160Y-99853991D01*
X175518548Y-99834555D01*
X175532524Y-99817524D01*
X175549555Y-99803548D01*
X175568991Y-99793160D01*
X175590072Y-99786764D01*
X175618140Y-99784000D01*
X177431860Y-99784000D01*
X177459928Y-99786764D01*
X177459928Y-99786764D01*
G37*
G36*
X182409928Y-99786764D02*
G01*
X182431009Y-99793160D01*
X182450445Y-99803548D01*
X182467476Y-99817524D01*
X182481452Y-99834555D01*
X182491840Y-99853991D01*
X182498236Y-99875072D01*
X182501000Y-99903140D01*
X182501000Y-100366860D01*
X182498236Y-100394928D01*
X182491840Y-100416009D01*
X182481452Y-100435445D01*
X182467476Y-100452476D01*
X182450445Y-100466452D01*
X182431009Y-100476840D01*
X182409928Y-100483236D01*
X182381860Y-100486000D01*
X180568140Y-100486000D01*
X180540072Y-100483236D01*
X180518991Y-100476840D01*
X180499555Y-100466452D01*
X180482524Y-100452476D01*
X180468548Y-100435445D01*
X180458160Y-100416009D01*
X180451764Y-100394928D01*
X180449000Y-100366860D01*
X180449000Y-99903140D01*
X180451764Y-99875072D01*
X180458160Y-99853991D01*
X180468548Y-99834555D01*
X180482524Y-99817524D01*
X180499555Y-99803548D01*
X180518991Y-99793160D01*
X180540072Y-99786764D01*
X180568140Y-99784000D01*
X182381860Y-99784000D01*
X182409928Y-99786764D01*
X182409928Y-99786764D01*
G37*
G36*
X133110442Y-97645518D02*
G01*
X133176627Y-97652037D01*
X133346466Y-97703557D01*
X133346468Y-97703558D01*
X133424729Y-97745390D01*
X133502991Y-97787222D01*
X133524334Y-97804738D01*
X133640186Y-97899814D01*
X133723448Y-98001271D01*
X133752778Y-98037009D01*
X133836443Y-98193534D01*
X133887963Y-98363373D01*
X133905359Y-98540000D01*
X133887963Y-98716627D01*
X133836443Y-98886466D01*
X133752778Y-99042991D01*
X133726724Y-99074738D01*
X133640186Y-99180186D01*
X133538729Y-99263448D01*
X133502991Y-99292778D01*
X133346466Y-99376443D01*
X133176627Y-99427963D01*
X133110443Y-99434481D01*
X133044260Y-99441000D01*
X132955740Y-99441000D01*
X132889558Y-99434482D01*
X132823373Y-99427963D01*
X132653534Y-99376443D01*
X132497009Y-99292778D01*
X132461271Y-99263448D01*
X132359814Y-99180186D01*
X132273276Y-99074738D01*
X132247222Y-99042991D01*
X132163557Y-98886466D01*
X132112037Y-98716627D01*
X132094641Y-98540000D01*
X132112037Y-98363373D01*
X132163557Y-98193534D01*
X132247222Y-98037009D01*
X132276552Y-98001271D01*
X132359814Y-97899814D01*
X132475666Y-97804738D01*
X132497009Y-97787222D01*
X132575271Y-97745390D01*
X132653532Y-97703558D01*
X132653534Y-97703557D01*
X132823373Y-97652037D01*
X132889558Y-97645518D01*
X132955740Y-97639000D01*
X133044260Y-97639000D01*
X133110442Y-97645518D01*
X133110442Y-97645518D01*
G37*
G36*
X145110442Y-97645518D02*
G01*
X145176627Y-97652037D01*
X145346466Y-97703557D01*
X145346468Y-97703558D01*
X145424729Y-97745390D01*
X145502991Y-97787222D01*
X145524334Y-97804738D01*
X145640186Y-97899814D01*
X145723448Y-98001271D01*
X145752778Y-98037009D01*
X145836443Y-98193534D01*
X145887963Y-98363373D01*
X145905359Y-98540000D01*
X145887963Y-98716627D01*
X145836443Y-98886466D01*
X145752778Y-99042991D01*
X145726724Y-99074738D01*
X145640186Y-99180186D01*
X145538729Y-99263448D01*
X145502991Y-99292778D01*
X145346466Y-99376443D01*
X145176627Y-99427963D01*
X145110443Y-99434481D01*
X145044260Y-99441000D01*
X144955740Y-99441000D01*
X144889558Y-99434482D01*
X144823373Y-99427963D01*
X144653534Y-99376443D01*
X144497009Y-99292778D01*
X144461271Y-99263448D01*
X144359814Y-99180186D01*
X144273276Y-99074738D01*
X144247222Y-99042991D01*
X144163557Y-98886466D01*
X144112037Y-98716627D01*
X144094641Y-98540000D01*
X144112037Y-98363373D01*
X144163557Y-98193534D01*
X144247222Y-98037009D01*
X144276552Y-98001271D01*
X144359814Y-97899814D01*
X144475666Y-97804738D01*
X144497009Y-97787222D01*
X144575271Y-97745390D01*
X144653532Y-97703558D01*
X144653534Y-97703557D01*
X144823373Y-97652037D01*
X144889558Y-97645518D01*
X144955740Y-97639000D01*
X145044260Y-97639000D01*
X145110442Y-97645518D01*
X145110442Y-97645518D01*
G37*
G36*
X177459928Y-98516764D02*
G01*
X177481009Y-98523160D01*
X177500445Y-98533548D01*
X177517476Y-98547524D01*
X177531452Y-98564555D01*
X177541840Y-98583991D01*
X177548236Y-98605072D01*
X177551000Y-98633140D01*
X177551000Y-99096860D01*
X177548236Y-99124928D01*
X177541840Y-99146009D01*
X177531452Y-99165445D01*
X177517476Y-99182476D01*
X177500445Y-99196452D01*
X177481009Y-99206840D01*
X177459928Y-99213236D01*
X177431860Y-99216000D01*
X175618140Y-99216000D01*
X175590072Y-99213236D01*
X175568991Y-99206840D01*
X175549555Y-99196452D01*
X175532524Y-99182476D01*
X175518548Y-99165445D01*
X175508160Y-99146009D01*
X175501764Y-99124928D01*
X175499000Y-99096860D01*
X175499000Y-98633140D01*
X175501764Y-98605072D01*
X175508160Y-98583991D01*
X175518548Y-98564555D01*
X175532524Y-98547524D01*
X175549555Y-98533548D01*
X175568991Y-98523160D01*
X175590072Y-98516764D01*
X175618140Y-98514000D01*
X177431860Y-98514000D01*
X177459928Y-98516764D01*
X177459928Y-98516764D01*
G37*
G36*
X182409928Y-98516764D02*
G01*
X182431009Y-98523160D01*
X182450445Y-98533548D01*
X182467476Y-98547524D01*
X182481452Y-98564555D01*
X182491840Y-98583991D01*
X182498236Y-98605072D01*
X182501000Y-98633140D01*
X182501000Y-99096860D01*
X182498236Y-99124928D01*
X182491840Y-99146009D01*
X182481452Y-99165445D01*
X182467476Y-99182476D01*
X182450445Y-99196452D01*
X182431009Y-99206840D01*
X182409928Y-99213236D01*
X182381860Y-99216000D01*
X180568140Y-99216000D01*
X180540072Y-99213236D01*
X180518991Y-99206840D01*
X180499555Y-99196452D01*
X180482524Y-99182476D01*
X180468548Y-99165445D01*
X180458160Y-99146009D01*
X180451764Y-99124928D01*
X180449000Y-99096860D01*
X180449000Y-98633140D01*
X180451764Y-98605072D01*
X180458160Y-98583991D01*
X180468548Y-98564555D01*
X180482524Y-98547524D01*
X180499555Y-98533548D01*
X180518991Y-98523160D01*
X180540072Y-98516764D01*
X180568140Y-98514000D01*
X182381860Y-98514000D01*
X182409928Y-98516764D01*
X182409928Y-98516764D01*
G37*
G36*
X197110442Y-96185518D02*
G01*
X197176627Y-96192037D01*
X197346466Y-96243557D01*
X197502991Y-96327222D01*
X197538729Y-96356552D01*
X197640186Y-96439814D01*
X197718087Y-96534738D01*
X197752778Y-96577009D01*
X197836443Y-96733534D01*
X197887963Y-96903373D01*
X197905359Y-97080000D01*
X197887963Y-97256627D01*
X197836443Y-97426466D01*
X197752778Y-97582991D01*
X197723448Y-97618729D01*
X197640186Y-97720186D01*
X197558502Y-97787221D01*
X197502991Y-97832778D01*
X197502989Y-97832779D01*
X197346504Y-97916423D01*
X197346466Y-97916443D01*
X197176627Y-97967963D01*
X197110442Y-97974482D01*
X197044260Y-97981000D01*
X196955740Y-97981000D01*
X196889558Y-97974482D01*
X196823373Y-97967963D01*
X196653534Y-97916443D01*
X196653497Y-97916423D01*
X196497011Y-97832779D01*
X196497009Y-97832778D01*
X196441498Y-97787221D01*
X196359814Y-97720186D01*
X196276552Y-97618729D01*
X196247222Y-97582991D01*
X196163557Y-97426466D01*
X196112037Y-97256627D01*
X196094641Y-97080000D01*
X196112037Y-96903373D01*
X196163557Y-96733534D01*
X196247222Y-96577009D01*
X196281913Y-96534738D01*
X196359814Y-96439814D01*
X196461271Y-96356552D01*
X196497009Y-96327222D01*
X196653534Y-96243557D01*
X196823373Y-96192037D01*
X196889558Y-96185518D01*
X196955740Y-96179000D01*
X197044260Y-96179000D01*
X197110442Y-96185518D01*
X197110442Y-96185518D01*
G37*
G36*
X182409928Y-97246764D02*
G01*
X182431009Y-97253160D01*
X182450445Y-97263548D01*
X182467476Y-97277524D01*
X182481452Y-97294555D01*
X182491840Y-97313991D01*
X182498236Y-97335072D01*
X182501000Y-97363140D01*
X182501000Y-97826860D01*
X182498236Y-97854928D01*
X182491840Y-97876009D01*
X182481452Y-97895445D01*
X182467476Y-97912476D01*
X182450445Y-97926452D01*
X182431009Y-97936840D01*
X182409928Y-97943236D01*
X182381860Y-97946000D01*
X180568140Y-97946000D01*
X180540072Y-97943236D01*
X180518991Y-97936840D01*
X180499555Y-97926452D01*
X180482524Y-97912476D01*
X180468548Y-97895445D01*
X180458160Y-97876009D01*
X180451764Y-97854928D01*
X180449000Y-97826860D01*
X180449000Y-97363140D01*
X180451764Y-97335072D01*
X180458160Y-97313991D01*
X180468548Y-97294555D01*
X180482524Y-97277524D01*
X180499555Y-97263548D01*
X180518991Y-97253160D01*
X180540072Y-97246764D01*
X180568140Y-97244000D01*
X182381860Y-97244000D01*
X182409928Y-97246764D01*
X182409928Y-97246764D01*
G37*
G36*
X177459928Y-97246764D02*
G01*
X177481009Y-97253160D01*
X177500445Y-97263548D01*
X177517476Y-97277524D01*
X177531452Y-97294555D01*
X177541840Y-97313991D01*
X177548236Y-97335072D01*
X177551000Y-97363140D01*
X177551000Y-97826860D01*
X177548236Y-97854928D01*
X177541840Y-97876009D01*
X177531452Y-97895445D01*
X177517476Y-97912476D01*
X177500445Y-97926452D01*
X177481009Y-97936840D01*
X177459928Y-97943236D01*
X177431860Y-97946000D01*
X175618140Y-97946000D01*
X175590072Y-97943236D01*
X175568991Y-97936840D01*
X175549555Y-97926452D01*
X175532524Y-97912476D01*
X175518548Y-97895445D01*
X175508160Y-97876009D01*
X175501764Y-97854928D01*
X175499000Y-97826860D01*
X175499000Y-97363140D01*
X175501764Y-97335072D01*
X175508160Y-97313991D01*
X175518548Y-97294555D01*
X175532524Y-97277524D01*
X175549555Y-97263548D01*
X175568991Y-97253160D01*
X175590072Y-97246764D01*
X175618140Y-97244000D01*
X177431860Y-97244000D01*
X177459928Y-97246764D01*
X177459928Y-97246764D01*
G37*
G36*
X209901000Y-97901000D02*
G01*
X208099000Y-97901000D01*
X208099000Y-96099000D01*
X209901000Y-96099000D01*
X209901000Y-97901000D01*
X209901000Y-97901000D01*
G37*
G36*
X145901000Y-96901000D02*
G01*
X144099000Y-96901000D01*
X144099000Y-95099000D01*
X145901000Y-95099000D01*
X145901000Y-96901000D01*
X145901000Y-96901000D01*
G37*
G36*
X133901000Y-96901000D02*
G01*
X132099000Y-96901000D01*
X132099000Y-95099000D01*
X133901000Y-95099000D01*
X133901000Y-96901000D01*
X133901000Y-96901000D01*
G37*
G36*
X182409928Y-95976764D02*
G01*
X182431009Y-95983160D01*
X182450445Y-95993548D01*
X182467476Y-96007524D01*
X182481452Y-96024555D01*
X182491840Y-96043991D01*
X182498236Y-96065072D01*
X182501000Y-96093140D01*
X182501000Y-96556860D01*
X182498236Y-96584928D01*
X182491840Y-96606009D01*
X182481452Y-96625445D01*
X182467476Y-96642476D01*
X182450445Y-96656452D01*
X182431009Y-96666840D01*
X182409928Y-96673236D01*
X182381860Y-96676000D01*
X180568140Y-96676000D01*
X180540072Y-96673236D01*
X180518991Y-96666840D01*
X180499555Y-96656452D01*
X180482524Y-96642476D01*
X180468548Y-96625445D01*
X180458160Y-96606009D01*
X180451764Y-96584928D01*
X180449000Y-96556860D01*
X180449000Y-96093140D01*
X180451764Y-96065072D01*
X180458160Y-96043991D01*
X180468548Y-96024555D01*
X180482524Y-96007524D01*
X180499555Y-95993548D01*
X180518991Y-95983160D01*
X180540072Y-95976764D01*
X180568140Y-95974000D01*
X182381860Y-95974000D01*
X182409928Y-95976764D01*
X182409928Y-95976764D01*
G37*
G36*
X177459928Y-95976764D02*
G01*
X177481009Y-95983160D01*
X177500445Y-95993548D01*
X177517476Y-96007524D01*
X177531452Y-96024555D01*
X177541840Y-96043991D01*
X177548236Y-96065072D01*
X177551000Y-96093140D01*
X177551000Y-96556860D01*
X177548236Y-96584928D01*
X177541840Y-96606009D01*
X177531452Y-96625445D01*
X177517476Y-96642476D01*
X177500445Y-96656452D01*
X177481009Y-96666840D01*
X177459928Y-96673236D01*
X177431860Y-96676000D01*
X175618140Y-96676000D01*
X175590072Y-96673236D01*
X175568991Y-96666840D01*
X175549555Y-96656452D01*
X175532524Y-96642476D01*
X175518548Y-96625445D01*
X175508160Y-96606009D01*
X175501764Y-96584928D01*
X175499000Y-96556860D01*
X175499000Y-96093140D01*
X175501764Y-96065072D01*
X175508160Y-96043991D01*
X175518548Y-96024555D01*
X175532524Y-96007524D01*
X175549555Y-95993548D01*
X175568991Y-95983160D01*
X175590072Y-95976764D01*
X175618140Y-95974000D01*
X177431860Y-95974000D01*
X177459928Y-95976764D01*
X177459928Y-95976764D01*
G37*
G36*
X197110443Y-93645519D02*
G01*
X197176627Y-93652037D01*
X197346466Y-93703557D01*
X197502991Y-93787222D01*
X197538729Y-93816552D01*
X197640186Y-93899814D01*
X197723448Y-94001271D01*
X197752778Y-94037009D01*
X197836443Y-94193534D01*
X197887963Y-94363373D01*
X197905359Y-94540000D01*
X197887963Y-94716627D01*
X197836443Y-94886466D01*
X197752778Y-95042991D01*
X197723448Y-95078729D01*
X197640186Y-95180186D01*
X197538729Y-95263448D01*
X197502991Y-95292778D01*
X197502989Y-95292779D01*
X197346504Y-95376423D01*
X197346466Y-95376443D01*
X197176627Y-95427963D01*
X197110442Y-95434482D01*
X197044260Y-95441000D01*
X196955740Y-95441000D01*
X196889558Y-95434482D01*
X196823373Y-95427963D01*
X196653534Y-95376443D01*
X196653497Y-95376423D01*
X196497011Y-95292779D01*
X196497009Y-95292778D01*
X196461271Y-95263448D01*
X196359814Y-95180186D01*
X196276552Y-95078729D01*
X196247222Y-95042991D01*
X196163557Y-94886466D01*
X196112037Y-94716627D01*
X196094641Y-94540000D01*
X196112037Y-94363373D01*
X196163557Y-94193534D01*
X196247222Y-94037009D01*
X196276552Y-94001271D01*
X196359814Y-93899814D01*
X196461271Y-93816552D01*
X196497009Y-93787222D01*
X196653534Y-93703557D01*
X196823373Y-93652037D01*
X196889557Y-93645519D01*
X196955740Y-93639000D01*
X197044260Y-93639000D01*
X197110443Y-93645519D01*
X197110443Y-93645519D01*
G37*
G36*
X182409928Y-94706764D02*
G01*
X182431009Y-94713160D01*
X182450445Y-94723548D01*
X182467476Y-94737524D01*
X182481452Y-94754555D01*
X182491840Y-94773991D01*
X182498236Y-94795072D01*
X182501000Y-94823140D01*
X182501000Y-95286860D01*
X182498236Y-95314928D01*
X182491840Y-95336009D01*
X182481452Y-95355445D01*
X182467476Y-95372476D01*
X182450445Y-95386452D01*
X182431009Y-95396840D01*
X182409928Y-95403236D01*
X182381860Y-95406000D01*
X180568140Y-95406000D01*
X180540072Y-95403236D01*
X180518991Y-95396840D01*
X180499555Y-95386452D01*
X180482524Y-95372476D01*
X180468548Y-95355445D01*
X180458160Y-95336009D01*
X180451764Y-95314928D01*
X180449000Y-95286860D01*
X180449000Y-94823140D01*
X180451764Y-94795072D01*
X180458160Y-94773991D01*
X180468548Y-94754555D01*
X180482524Y-94737524D01*
X180499555Y-94723548D01*
X180518991Y-94713160D01*
X180540072Y-94706764D01*
X180568140Y-94704000D01*
X182381860Y-94704000D01*
X182409928Y-94706764D01*
X182409928Y-94706764D01*
G37*
G36*
X177459928Y-94706764D02*
G01*
X177481009Y-94713160D01*
X177500445Y-94723548D01*
X177517476Y-94737524D01*
X177531452Y-94754555D01*
X177541840Y-94773991D01*
X177548236Y-94795072D01*
X177551000Y-94823140D01*
X177551000Y-95286860D01*
X177548236Y-95314928D01*
X177541840Y-95336009D01*
X177531452Y-95355445D01*
X177517476Y-95372476D01*
X177500445Y-95386452D01*
X177481009Y-95396840D01*
X177459928Y-95403236D01*
X177431860Y-95406000D01*
X175618140Y-95406000D01*
X175590072Y-95403236D01*
X175568991Y-95396840D01*
X175549555Y-95386452D01*
X175532524Y-95372476D01*
X175518548Y-95355445D01*
X175508160Y-95336009D01*
X175501764Y-95314928D01*
X175499000Y-95286860D01*
X175499000Y-94823140D01*
X175501764Y-94795072D01*
X175508160Y-94773991D01*
X175518548Y-94754555D01*
X175532524Y-94737524D01*
X175549555Y-94723548D01*
X175568991Y-94713160D01*
X175590072Y-94706764D01*
X175618140Y-94704000D01*
X177431860Y-94704000D01*
X177459928Y-94706764D01*
X177459928Y-94706764D01*
G37*
G36*
X209110443Y-93565519D02*
G01*
X209176627Y-93572037D01*
X209346466Y-93623557D01*
X209502991Y-93707222D01*
X209538729Y-93736552D01*
X209640186Y-93819814D01*
X209705839Y-93899814D01*
X209752778Y-93957009D01*
X209836443Y-94113534D01*
X209887963Y-94283373D01*
X209905359Y-94460000D01*
X209887963Y-94636627D01*
X209839899Y-94795072D01*
X209836442Y-94806468D01*
X209815706Y-94845262D01*
X209752778Y-94962991D01*
X209723448Y-94998729D01*
X209640186Y-95100186D01*
X209542705Y-95180185D01*
X209502991Y-95212778D01*
X209346466Y-95296443D01*
X209176627Y-95347963D01*
X209110443Y-95354481D01*
X209044260Y-95361000D01*
X208955740Y-95361000D01*
X208889558Y-95354482D01*
X208823373Y-95347963D01*
X208653534Y-95296443D01*
X208497009Y-95212778D01*
X208457295Y-95180185D01*
X208359814Y-95100186D01*
X208276552Y-94998729D01*
X208247222Y-94962991D01*
X208184294Y-94845262D01*
X208163558Y-94806468D01*
X208160101Y-94795072D01*
X208112037Y-94636627D01*
X208094641Y-94460000D01*
X208112037Y-94283373D01*
X208163557Y-94113534D01*
X208247222Y-93957009D01*
X208294161Y-93899814D01*
X208359814Y-93819814D01*
X208461271Y-93736552D01*
X208497009Y-93707222D01*
X208653534Y-93623557D01*
X208823373Y-93572037D01*
X208889557Y-93565519D01*
X208955740Y-93559000D01*
X209044260Y-93559000D01*
X209110443Y-93565519D01*
X209110443Y-93565519D01*
G37*
G36*
X197110442Y-91105518D02*
G01*
X197176627Y-91112037D01*
X197346466Y-91163557D01*
X197502991Y-91247222D01*
X197538729Y-91276552D01*
X197640186Y-91359814D01*
X197723448Y-91461271D01*
X197752778Y-91497009D01*
X197836443Y-91653534D01*
X197887963Y-91823373D01*
X197905359Y-92000000D01*
X197887963Y-92176627D01*
X197836443Y-92346466D01*
X197752778Y-92502991D01*
X197723448Y-92538729D01*
X197640186Y-92640186D01*
X197538729Y-92723448D01*
X197502991Y-92752778D01*
X197346466Y-92836443D01*
X197176627Y-92887963D01*
X197110442Y-92894482D01*
X197044260Y-92901000D01*
X196955740Y-92901000D01*
X196889557Y-92894481D01*
X196823373Y-92887963D01*
X196653534Y-92836443D01*
X196497009Y-92752778D01*
X196461271Y-92723448D01*
X196359814Y-92640186D01*
X196276552Y-92538729D01*
X196247222Y-92502991D01*
X196163557Y-92346466D01*
X196112037Y-92176627D01*
X196094641Y-92000000D01*
X196112037Y-91823373D01*
X196163557Y-91653534D01*
X196247222Y-91497009D01*
X196276552Y-91461271D01*
X196359814Y-91359814D01*
X196461271Y-91276552D01*
X196497009Y-91247222D01*
X196653534Y-91163557D01*
X196823373Y-91112037D01*
X196889558Y-91105518D01*
X196955740Y-91099000D01*
X197044260Y-91099000D01*
X197110442Y-91105518D01*
X197110442Y-91105518D01*
G37*
G36*
X209110443Y-91025519D02*
G01*
X209176627Y-91032037D01*
X209346466Y-91083557D01*
X209502991Y-91167222D01*
X209538729Y-91196552D01*
X209640186Y-91279814D01*
X209705839Y-91359814D01*
X209752778Y-91417009D01*
X209836443Y-91573534D01*
X209887963Y-91743373D01*
X209905359Y-91920000D01*
X209887963Y-92096627D01*
X209836443Y-92266466D01*
X209752778Y-92422991D01*
X209723448Y-92458729D01*
X209640186Y-92560186D01*
X209542705Y-92640185D01*
X209502991Y-92672778D01*
X209346466Y-92756443D01*
X209176627Y-92807963D01*
X209110442Y-92814482D01*
X209044260Y-92821000D01*
X208955740Y-92821000D01*
X208889558Y-92814482D01*
X208823373Y-92807963D01*
X208653534Y-92756443D01*
X208497009Y-92672778D01*
X208457295Y-92640185D01*
X208359814Y-92560186D01*
X208276552Y-92458729D01*
X208247222Y-92422991D01*
X208163557Y-92266466D01*
X208112037Y-92096627D01*
X208094641Y-91920000D01*
X208112037Y-91743373D01*
X208163557Y-91573534D01*
X208247222Y-91417009D01*
X208294161Y-91359814D01*
X208359814Y-91279814D01*
X208461271Y-91196552D01*
X208497009Y-91167222D01*
X208653534Y-91083557D01*
X208823373Y-91032037D01*
X208889558Y-91025518D01*
X208955740Y-91019000D01*
X209044260Y-91019000D01*
X209110443Y-91025519D01*
X209110443Y-91025519D01*
G37*
G36*
X175150443Y-89105519D02*
G01*
X175216627Y-89112037D01*
X175386466Y-89163557D01*
X175542991Y-89247222D01*
X175578729Y-89276552D01*
X175680186Y-89359814D01*
X175763448Y-89461271D01*
X175792778Y-89497009D01*
X175876443Y-89653534D01*
X175927963Y-89823373D01*
X175945359Y-90000000D01*
X175927963Y-90176627D01*
X175876443Y-90346466D01*
X175792778Y-90502991D01*
X175763448Y-90538729D01*
X175680186Y-90640186D01*
X175578729Y-90723448D01*
X175542991Y-90752778D01*
X175386466Y-90836443D01*
X175216627Y-90887963D01*
X175150443Y-90894481D01*
X175084260Y-90901000D01*
X174995740Y-90901000D01*
X174929557Y-90894481D01*
X174863373Y-90887963D01*
X174693534Y-90836443D01*
X174537009Y-90752778D01*
X174501271Y-90723448D01*
X174399814Y-90640186D01*
X174316552Y-90538729D01*
X174287222Y-90502991D01*
X174203557Y-90346466D01*
X174152037Y-90176627D01*
X174134641Y-90000000D01*
X174152037Y-89823373D01*
X174203557Y-89653534D01*
X174287222Y-89497009D01*
X174316552Y-89461271D01*
X174399814Y-89359814D01*
X174501271Y-89276552D01*
X174537009Y-89247222D01*
X174693534Y-89163557D01*
X174863373Y-89112037D01*
X174929557Y-89105519D01*
X174995740Y-89099000D01*
X175084260Y-89099000D01*
X175150443Y-89105519D01*
X175150443Y-89105519D01*
G37*
G36*
X173401000Y-90901000D02*
G01*
X171599000Y-90901000D01*
X171599000Y-89099000D01*
X173401000Y-89099000D01*
X173401000Y-90901000D01*
X173401000Y-90901000D01*
G37*
G36*
X177690443Y-89105519D02*
G01*
X177756627Y-89112037D01*
X177926466Y-89163557D01*
X178082991Y-89247222D01*
X178118729Y-89276552D01*
X178220186Y-89359814D01*
X178303448Y-89461271D01*
X178332778Y-89497009D01*
X178416443Y-89653534D01*
X178467963Y-89823373D01*
X178485359Y-90000000D01*
X178467963Y-90176627D01*
X178416443Y-90346466D01*
X178332778Y-90502991D01*
X178303448Y-90538729D01*
X178220186Y-90640186D01*
X178118729Y-90723448D01*
X178082991Y-90752778D01*
X177926466Y-90836443D01*
X177756627Y-90887963D01*
X177690443Y-90894481D01*
X177624260Y-90901000D01*
X177535740Y-90901000D01*
X177469557Y-90894481D01*
X177403373Y-90887963D01*
X177233534Y-90836443D01*
X177077009Y-90752778D01*
X177041271Y-90723448D01*
X176939814Y-90640186D01*
X176856552Y-90538729D01*
X176827222Y-90502991D01*
X176743557Y-90346466D01*
X176692037Y-90176627D01*
X176674641Y-90000000D01*
X176692037Y-89823373D01*
X176743557Y-89653534D01*
X176827222Y-89497009D01*
X176856552Y-89461271D01*
X176939814Y-89359814D01*
X177041271Y-89276552D01*
X177077009Y-89247222D01*
X177233534Y-89163557D01*
X177403373Y-89112037D01*
X177469557Y-89105519D01*
X177535740Y-89099000D01*
X177624260Y-89099000D01*
X177690443Y-89105519D01*
X177690443Y-89105519D01*
G37*
G36*
X185310443Y-89105519D02*
G01*
X185376627Y-89112037D01*
X185546466Y-89163557D01*
X185702991Y-89247222D01*
X185738729Y-89276552D01*
X185840186Y-89359814D01*
X185923448Y-89461271D01*
X185952778Y-89497009D01*
X186036443Y-89653534D01*
X186087963Y-89823373D01*
X186105359Y-90000000D01*
X186087963Y-90176627D01*
X186036443Y-90346466D01*
X185952778Y-90502991D01*
X185923448Y-90538729D01*
X185840186Y-90640186D01*
X185738729Y-90723448D01*
X185702991Y-90752778D01*
X185546466Y-90836443D01*
X185376627Y-90887963D01*
X185310443Y-90894481D01*
X185244260Y-90901000D01*
X185155740Y-90901000D01*
X185089557Y-90894481D01*
X185023373Y-90887963D01*
X184853534Y-90836443D01*
X184697009Y-90752778D01*
X184661271Y-90723448D01*
X184559814Y-90640186D01*
X184476552Y-90538729D01*
X184447222Y-90502991D01*
X184363557Y-90346466D01*
X184312037Y-90176627D01*
X184294641Y-90000000D01*
X184312037Y-89823373D01*
X184363557Y-89653534D01*
X184447222Y-89497009D01*
X184476552Y-89461271D01*
X184559814Y-89359814D01*
X184661271Y-89276552D01*
X184697009Y-89247222D01*
X184853534Y-89163557D01*
X185023373Y-89112037D01*
X185089557Y-89105519D01*
X185155740Y-89099000D01*
X185244260Y-89099000D01*
X185310443Y-89105519D01*
X185310443Y-89105519D01*
G37*
G36*
X180230443Y-89105519D02*
G01*
X180296627Y-89112037D01*
X180466466Y-89163557D01*
X180622991Y-89247222D01*
X180658729Y-89276552D01*
X180760186Y-89359814D01*
X180843448Y-89461271D01*
X180872778Y-89497009D01*
X180956443Y-89653534D01*
X181007963Y-89823373D01*
X181025359Y-90000000D01*
X181007963Y-90176627D01*
X180956443Y-90346466D01*
X180872778Y-90502991D01*
X180843448Y-90538729D01*
X180760186Y-90640186D01*
X180658729Y-90723448D01*
X180622991Y-90752778D01*
X180466466Y-90836443D01*
X180296627Y-90887963D01*
X180230443Y-90894481D01*
X180164260Y-90901000D01*
X180075740Y-90901000D01*
X180009557Y-90894481D01*
X179943373Y-90887963D01*
X179773534Y-90836443D01*
X179617009Y-90752778D01*
X179581271Y-90723448D01*
X179479814Y-90640186D01*
X179396552Y-90538729D01*
X179367222Y-90502991D01*
X179283557Y-90346466D01*
X179232037Y-90176627D01*
X179214641Y-90000000D01*
X179232037Y-89823373D01*
X179283557Y-89653534D01*
X179367222Y-89497009D01*
X179396552Y-89461271D01*
X179479814Y-89359814D01*
X179581271Y-89276552D01*
X179617009Y-89247222D01*
X179773534Y-89163557D01*
X179943373Y-89112037D01*
X180009557Y-89105519D01*
X180075740Y-89099000D01*
X180164260Y-89099000D01*
X180230443Y-89105519D01*
X180230443Y-89105519D01*
G37*
G36*
X182770443Y-89105519D02*
G01*
X182836627Y-89112037D01*
X183006466Y-89163557D01*
X183162991Y-89247222D01*
X183198729Y-89276552D01*
X183300186Y-89359814D01*
X183383448Y-89461271D01*
X183412778Y-89497009D01*
X183496443Y-89653534D01*
X183547963Y-89823373D01*
X183565359Y-90000000D01*
X183547963Y-90176627D01*
X183496443Y-90346466D01*
X183412778Y-90502991D01*
X183383448Y-90538729D01*
X183300186Y-90640186D01*
X183198729Y-90723448D01*
X183162991Y-90752778D01*
X183006466Y-90836443D01*
X182836627Y-90887963D01*
X182770443Y-90894481D01*
X182704260Y-90901000D01*
X182615740Y-90901000D01*
X182549557Y-90894481D01*
X182483373Y-90887963D01*
X182313534Y-90836443D01*
X182157009Y-90752778D01*
X182121271Y-90723448D01*
X182019814Y-90640186D01*
X181936552Y-90538729D01*
X181907222Y-90502991D01*
X181823557Y-90346466D01*
X181772037Y-90176627D01*
X181754641Y-90000000D01*
X181772037Y-89823373D01*
X181823557Y-89653534D01*
X181907222Y-89497009D01*
X181936552Y-89461271D01*
X182019814Y-89359814D01*
X182121271Y-89276552D01*
X182157009Y-89247222D01*
X182313534Y-89163557D01*
X182483373Y-89112037D01*
X182549557Y-89105519D01*
X182615740Y-89099000D01*
X182704260Y-89099000D01*
X182770443Y-89105519D01*
X182770443Y-89105519D01*
G37*
G36*
X197901000Y-90361000D02*
G01*
X196099000Y-90361000D01*
X196099000Y-88559000D01*
X197901000Y-88559000D01*
X197901000Y-90361000D01*
X197901000Y-90361000D01*
G37*
G36*
X209110442Y-88485518D02*
G01*
X209176627Y-88492037D01*
X209346466Y-88543557D01*
X209502991Y-88627222D01*
X209538729Y-88656552D01*
X209640186Y-88739814D01*
X209723448Y-88841271D01*
X209752778Y-88877009D01*
X209836443Y-89033534D01*
X209887963Y-89203373D01*
X209905359Y-89380000D01*
X209887963Y-89556627D01*
X209836443Y-89726466D01*
X209752778Y-89882991D01*
X209723448Y-89918729D01*
X209640186Y-90020186D01*
X209538729Y-90103448D01*
X209502991Y-90132778D01*
X209346466Y-90216443D01*
X209176627Y-90267963D01*
X209110443Y-90274481D01*
X209044260Y-90281000D01*
X208955740Y-90281000D01*
X208889558Y-90274482D01*
X208823373Y-90267963D01*
X208653534Y-90216443D01*
X208497009Y-90132778D01*
X208461271Y-90103448D01*
X208359814Y-90020186D01*
X208276552Y-89918729D01*
X208247222Y-89882991D01*
X208163557Y-89726466D01*
X208112037Y-89556627D01*
X208094641Y-89380000D01*
X208112037Y-89203373D01*
X208163557Y-89033534D01*
X208247222Y-88877009D01*
X208276552Y-88841271D01*
X208359814Y-88739814D01*
X208461271Y-88656552D01*
X208497009Y-88627222D01*
X208653534Y-88543557D01*
X208823373Y-88492037D01*
X208889558Y-88485518D01*
X208955740Y-88479000D01*
X209044260Y-88479000D01*
X209110442Y-88485518D01*
X209110442Y-88485518D01*
G37*
G36*
X177690443Y-84105519D02*
G01*
X177756627Y-84112037D01*
X177926466Y-84163557D01*
X178082991Y-84247222D01*
X178118729Y-84276552D01*
X178220186Y-84359814D01*
X178303448Y-84461271D01*
X178332778Y-84497009D01*
X178416443Y-84653534D01*
X178467963Y-84823373D01*
X178485359Y-85000000D01*
X178467963Y-85176627D01*
X178416443Y-85346466D01*
X178332778Y-85502991D01*
X178303448Y-85538729D01*
X178220186Y-85640186D01*
X178118729Y-85723448D01*
X178082991Y-85752778D01*
X177926466Y-85836443D01*
X177756627Y-85887963D01*
X177690443Y-85894481D01*
X177624260Y-85901000D01*
X177535740Y-85901000D01*
X177469557Y-85894481D01*
X177403373Y-85887963D01*
X177233534Y-85836443D01*
X177077009Y-85752778D01*
X177041271Y-85723448D01*
X176939814Y-85640186D01*
X176856552Y-85538729D01*
X176827222Y-85502991D01*
X176743557Y-85346466D01*
X176692037Y-85176627D01*
X176674641Y-85000000D01*
X176692037Y-84823373D01*
X176743557Y-84653534D01*
X176827222Y-84497009D01*
X176856552Y-84461271D01*
X176939814Y-84359814D01*
X177041271Y-84276552D01*
X177077009Y-84247222D01*
X177233534Y-84163557D01*
X177403373Y-84112037D01*
X177469557Y-84105519D01*
X177535740Y-84099000D01*
X177624260Y-84099000D01*
X177690443Y-84105519D01*
X177690443Y-84105519D01*
G37*
G36*
X180230443Y-84105519D02*
G01*
X180296627Y-84112037D01*
X180466466Y-84163557D01*
X180622991Y-84247222D01*
X180658729Y-84276552D01*
X180760186Y-84359814D01*
X180843448Y-84461271D01*
X180872778Y-84497009D01*
X180956443Y-84653534D01*
X181007963Y-84823373D01*
X181025359Y-85000000D01*
X181007963Y-85176627D01*
X180956443Y-85346466D01*
X180872778Y-85502991D01*
X180843448Y-85538729D01*
X180760186Y-85640186D01*
X180658729Y-85723448D01*
X180622991Y-85752778D01*
X180466466Y-85836443D01*
X180296627Y-85887963D01*
X180230443Y-85894481D01*
X180164260Y-85901000D01*
X180075740Y-85901000D01*
X180009557Y-85894481D01*
X179943373Y-85887963D01*
X179773534Y-85836443D01*
X179617009Y-85752778D01*
X179581271Y-85723448D01*
X179479814Y-85640186D01*
X179396552Y-85538729D01*
X179367222Y-85502991D01*
X179283557Y-85346466D01*
X179232037Y-85176627D01*
X179214641Y-85000000D01*
X179232037Y-84823373D01*
X179283557Y-84653534D01*
X179367222Y-84497009D01*
X179396552Y-84461271D01*
X179479814Y-84359814D01*
X179581271Y-84276552D01*
X179617009Y-84247222D01*
X179773534Y-84163557D01*
X179943373Y-84112037D01*
X180009557Y-84105519D01*
X180075740Y-84099000D01*
X180164260Y-84099000D01*
X180230443Y-84105519D01*
X180230443Y-84105519D01*
G37*
G36*
X182770443Y-84105519D02*
G01*
X182836627Y-84112037D01*
X183006466Y-84163557D01*
X183162991Y-84247222D01*
X183198729Y-84276552D01*
X183300186Y-84359814D01*
X183383448Y-84461271D01*
X183412778Y-84497009D01*
X183496443Y-84653534D01*
X183547963Y-84823373D01*
X183565359Y-85000000D01*
X183547963Y-85176627D01*
X183496443Y-85346466D01*
X183412778Y-85502991D01*
X183383448Y-85538729D01*
X183300186Y-85640186D01*
X183198729Y-85723448D01*
X183162991Y-85752778D01*
X183006466Y-85836443D01*
X182836627Y-85887963D01*
X182770443Y-85894481D01*
X182704260Y-85901000D01*
X182615740Y-85901000D01*
X182549557Y-85894481D01*
X182483373Y-85887963D01*
X182313534Y-85836443D01*
X182157009Y-85752778D01*
X182121271Y-85723448D01*
X182019814Y-85640186D01*
X181936552Y-85538729D01*
X181907222Y-85502991D01*
X181823557Y-85346466D01*
X181772037Y-85176627D01*
X181754641Y-85000000D01*
X181772037Y-84823373D01*
X181823557Y-84653534D01*
X181907222Y-84497009D01*
X181936552Y-84461271D01*
X182019814Y-84359814D01*
X182121271Y-84276552D01*
X182157009Y-84247222D01*
X182313534Y-84163557D01*
X182483373Y-84112037D01*
X182549557Y-84105519D01*
X182615740Y-84099000D01*
X182704260Y-84099000D01*
X182770443Y-84105519D01*
X182770443Y-84105519D01*
G37*
G36*
X185310443Y-84105519D02*
G01*
X185376627Y-84112037D01*
X185546466Y-84163557D01*
X185702991Y-84247222D01*
X185738729Y-84276552D01*
X185840186Y-84359814D01*
X185923448Y-84461271D01*
X185952778Y-84497009D01*
X186036443Y-84653534D01*
X186087963Y-84823373D01*
X186105359Y-85000000D01*
X186087963Y-85176627D01*
X186036443Y-85346466D01*
X185952778Y-85502991D01*
X185923448Y-85538729D01*
X185840186Y-85640186D01*
X185738729Y-85723448D01*
X185702991Y-85752778D01*
X185546466Y-85836443D01*
X185376627Y-85887963D01*
X185310443Y-85894481D01*
X185244260Y-85901000D01*
X185155740Y-85901000D01*
X185089557Y-85894481D01*
X185023373Y-85887963D01*
X184853534Y-85836443D01*
X184697009Y-85752778D01*
X184661271Y-85723448D01*
X184559814Y-85640186D01*
X184476552Y-85538729D01*
X184447222Y-85502991D01*
X184363557Y-85346466D01*
X184312037Y-85176627D01*
X184294641Y-85000000D01*
X184312037Y-84823373D01*
X184363557Y-84653534D01*
X184447222Y-84497009D01*
X184476552Y-84461271D01*
X184559814Y-84359814D01*
X184661271Y-84276552D01*
X184697009Y-84247222D01*
X184853534Y-84163557D01*
X185023373Y-84112037D01*
X185089557Y-84105519D01*
X185155740Y-84099000D01*
X185244260Y-84099000D01*
X185310443Y-84105519D01*
X185310443Y-84105519D01*
G37*
G36*
X175150443Y-84105519D02*
G01*
X175216627Y-84112037D01*
X175386466Y-84163557D01*
X175542991Y-84247222D01*
X175578729Y-84276552D01*
X175680186Y-84359814D01*
X175763448Y-84461271D01*
X175792778Y-84497009D01*
X175876443Y-84653534D01*
X175927963Y-84823373D01*
X175945359Y-85000000D01*
X175927963Y-85176627D01*
X175876443Y-85346466D01*
X175792778Y-85502991D01*
X175763448Y-85538729D01*
X175680186Y-85640186D01*
X175578729Y-85723448D01*
X175542991Y-85752778D01*
X175386466Y-85836443D01*
X175216627Y-85887963D01*
X175150443Y-85894481D01*
X175084260Y-85901000D01*
X174995740Y-85901000D01*
X174929557Y-85894481D01*
X174863373Y-85887963D01*
X174693534Y-85836443D01*
X174537009Y-85752778D01*
X174501271Y-85723448D01*
X174399814Y-85640186D01*
X174316552Y-85538729D01*
X174287222Y-85502991D01*
X174203557Y-85346466D01*
X174152037Y-85176627D01*
X174134641Y-85000000D01*
X174152037Y-84823373D01*
X174203557Y-84653534D01*
X174287222Y-84497009D01*
X174316552Y-84461271D01*
X174399814Y-84359814D01*
X174501271Y-84276552D01*
X174537009Y-84247222D01*
X174693534Y-84163557D01*
X174863373Y-84112037D01*
X174929557Y-84105519D01*
X174995740Y-84099000D01*
X175084260Y-84099000D01*
X175150443Y-84105519D01*
X175150443Y-84105519D01*
G37*
G36*
X173401000Y-85901000D02*
G01*
X171599000Y-85901000D01*
X171599000Y-84099000D01*
X173401000Y-84099000D01*
X173401000Y-85901000D01*
X173401000Y-85901000D01*
G37*
G36*
X197110442Y-83185518D02*
G01*
X197176627Y-83192037D01*
X197346466Y-83243557D01*
X197502991Y-83327222D01*
X197538729Y-83356552D01*
X197640186Y-83439814D01*
X197723448Y-83541271D01*
X197752778Y-83577009D01*
X197836443Y-83733534D01*
X197887963Y-83903373D01*
X197905359Y-84080000D01*
X197887963Y-84256627D01*
X197836443Y-84426466D01*
X197752778Y-84582991D01*
X197723448Y-84618729D01*
X197640186Y-84720186D01*
X197538729Y-84803448D01*
X197502991Y-84832778D01*
X197346466Y-84916443D01*
X197176627Y-84967963D01*
X197110443Y-84974481D01*
X197044260Y-84981000D01*
X196955740Y-84981000D01*
X196889557Y-84974481D01*
X196823373Y-84967963D01*
X196653534Y-84916443D01*
X196497009Y-84832778D01*
X196461271Y-84803448D01*
X196359814Y-84720186D01*
X196276552Y-84618729D01*
X196247222Y-84582991D01*
X196163557Y-84426466D01*
X196112037Y-84256627D01*
X196094641Y-84080000D01*
X196112037Y-83903373D01*
X196163557Y-83733534D01*
X196247222Y-83577009D01*
X196276552Y-83541271D01*
X196359814Y-83439814D01*
X196461271Y-83356552D01*
X196497009Y-83327222D01*
X196653534Y-83243557D01*
X196823373Y-83192037D01*
X196889558Y-83185518D01*
X196955740Y-83179000D01*
X197044260Y-83179000D01*
X197110442Y-83185518D01*
X197110442Y-83185518D01*
G37*
G36*
X197110443Y-80645519D02*
G01*
X197176627Y-80652037D01*
X197346466Y-80703557D01*
X197502991Y-80787222D01*
X197538729Y-80816552D01*
X197640186Y-80899814D01*
X197723448Y-81001271D01*
X197752778Y-81037009D01*
X197836443Y-81193534D01*
X197887963Y-81363373D01*
X197905359Y-81540000D01*
X197887963Y-81716627D01*
X197836443Y-81886466D01*
X197752778Y-82042991D01*
X197723448Y-82078729D01*
X197640186Y-82180186D01*
X197538729Y-82263448D01*
X197502991Y-82292778D01*
X197346466Y-82376443D01*
X197176627Y-82427963D01*
X197110442Y-82434482D01*
X197044260Y-82441000D01*
X196955740Y-82441000D01*
X196889558Y-82434482D01*
X196823373Y-82427963D01*
X196653534Y-82376443D01*
X196497009Y-82292778D01*
X196461271Y-82263448D01*
X196359814Y-82180186D01*
X196276552Y-82078729D01*
X196247222Y-82042991D01*
X196163557Y-81886466D01*
X196112037Y-81716627D01*
X196094641Y-81540000D01*
X196112037Y-81363373D01*
X196163557Y-81193534D01*
X196247222Y-81037009D01*
X196276552Y-81001271D01*
X196359814Y-80899814D01*
X196461271Y-80816552D01*
X196497009Y-80787222D01*
X196653534Y-80703557D01*
X196823373Y-80652037D01*
X196889557Y-80645519D01*
X196955740Y-80639000D01*
X197044260Y-80639000D01*
X197110443Y-80645519D01*
X197110443Y-80645519D01*
G37*
G36*
X197901000Y-79901000D02*
G01*
X196099000Y-79901000D01*
X196099000Y-78099000D01*
X197901000Y-78099000D01*
X197901000Y-79901000D01*
X197901000Y-79901000D01*
G37*
M02*
