G04 #@! TF.GenerationSoftware,KiCad,Pcbnew,(5.1.2)-1*
G04 #@! TF.CreationDate,2019-06-28T17:44:25+01:00*
G04 #@! TF.ProjectId,Clock_7_Segment,436c6f63-6b5f-4375-9f53-65676d656e74,rev?*
G04 #@! TF.SameCoordinates,Original*
G04 #@! TF.FileFunction,Legend,Top*
G04 #@! TF.FilePolarity,Positive*
%FSLAX46Y46*%
G04 Gerber Fmt 4.6, Leading zero omitted, Abs format (unit mm)*
G04 Created by KiCad (PCBNEW (5.1.2)-1) date 2019-06-28 17:44:25*
%MOMM*%
%LPD*%
G04 APERTURE LIST*
%ADD10C,0.120000*%
%ADD11C,0.150000*%
G04 APERTURE END LIST*
D10*
X194000000Y-166000000D02*
X212000000Y-166000000D01*
X194000000Y-142000000D02*
X212000000Y-142000000D01*
X194000000Y-112000000D02*
X212000000Y-112000000D01*
X194000000Y-101000000D02*
X212000000Y-101000000D01*
X194000000Y-87000000D02*
X212000000Y-87000000D01*
X114000000Y-174000000D02*
X164000000Y-174000000D01*
X114000000Y-166000000D02*
X114000000Y-174000000D01*
X164000000Y-174000000D02*
X194000000Y-174000000D01*
X212000000Y-174000000D02*
X194000000Y-174000000D01*
X212000000Y-76000000D02*
X212000000Y-174000000D01*
X194000000Y-76000000D02*
X212000000Y-76000000D01*
X194000000Y-166000000D02*
X194000000Y-122000000D01*
X164000000Y-166000000D02*
X194000000Y-166000000D01*
X194000000Y-99000000D02*
X187000000Y-92000000D01*
X172000000Y-114000000D02*
X172000000Y-107000000D01*
X186000000Y-114000000D02*
X172000000Y-114000000D01*
X186000000Y-107000000D02*
X186000000Y-114000000D01*
X172000000Y-107000000D02*
X186000000Y-107000000D01*
X165000000Y-77000000D02*
X193000000Y-77000000D01*
X165000000Y-121000000D02*
X165000000Y-77000000D01*
X193000000Y-121000000D02*
X165000000Y-121000000D01*
X193000000Y-77000000D02*
X193000000Y-121000000D01*
X171000000Y-115000000D02*
X164000000Y-122000000D01*
X187000000Y-115000000D02*
X194000000Y-122000000D01*
X171000000Y-115000000D02*
X171000000Y-106000000D01*
X187000000Y-115000000D02*
X171000000Y-115000000D01*
X187000000Y-106000000D02*
X187000000Y-115000000D01*
X187000000Y-106000000D02*
X194000000Y-99000000D01*
X171000000Y-106000000D02*
X187000000Y-106000000D01*
X164000000Y-99000000D02*
X171000000Y-106000000D01*
X171000000Y-92000000D02*
X164000000Y-99000000D01*
X187000000Y-83000000D02*
X194000000Y-76000000D01*
X171000000Y-92000000D02*
X171000000Y-83000000D01*
X187000000Y-92000000D02*
X171000000Y-92000000D01*
X187000000Y-83000000D02*
X187000000Y-92000000D01*
X171000000Y-83000000D02*
X187000000Y-83000000D01*
X164000000Y-76000000D02*
X171000000Y-83000000D01*
X194000000Y-99000000D02*
X164000000Y-99000000D01*
X164000000Y-121000000D02*
X164000000Y-76000000D01*
X194000000Y-122000000D02*
X164000000Y-122000000D01*
X194000000Y-76000000D02*
X194000000Y-122000000D01*
X164000000Y-76000000D02*
X194000000Y-76000000D01*
X129000000Y-129000000D02*
X149000000Y-129000000D01*
X159000000Y-81000000D02*
X159000000Y-161000000D01*
X119000000Y-81000000D02*
X159000000Y-81000000D01*
X119000000Y-161000000D02*
X119000000Y-81000000D01*
X159000000Y-161000000D02*
X119000000Y-161000000D01*
X149000000Y-129000000D02*
X149000000Y-151000000D01*
X149000000Y-129000000D02*
X164000000Y-121000000D01*
X129000000Y-151000000D02*
X114000000Y-166000000D01*
X149000000Y-151000000D02*
X164000000Y-166000000D01*
X149000000Y-113000000D02*
X164000000Y-121000000D01*
X114000000Y-121000000D02*
X129000000Y-113000000D01*
X129000000Y-151000000D02*
X149000000Y-151000000D01*
X129000000Y-129000000D02*
X129000000Y-151000000D01*
X114000000Y-121000000D02*
X129000000Y-129000000D01*
X149000000Y-113000000D02*
X149000000Y-91000000D01*
X129000000Y-113000000D02*
X149000000Y-113000000D01*
X129000000Y-91000000D02*
X129000000Y-113000000D01*
X149000000Y-91000000D02*
X129000000Y-91000000D01*
X164000000Y-76000000D02*
X149000000Y-91000000D01*
X114000000Y-76000000D02*
X129000000Y-91000000D01*
X114000000Y-166000000D02*
X114000000Y-76000000D01*
X164000000Y-166000000D02*
X114000000Y-166000000D01*
X164000000Y-76000000D02*
X164000000Y-166000000D01*
X114000000Y-76000000D02*
X164000000Y-76000000D01*
X201000000Y-173500000D02*
X205500000Y-173500000D01*
X199750000Y-169500000D02*
X199750000Y-171000000D01*
X205500000Y-167000000D02*
X201000000Y-167000000D01*
X206750000Y-171000000D02*
X206750000Y-169500000D01*
X188750000Y-171000000D02*
X188750000Y-169500000D01*
X187500000Y-167000000D02*
X183000000Y-167000000D01*
X181750000Y-169500000D02*
X181750000Y-171000000D01*
X183000000Y-173500000D02*
X187500000Y-173500000D01*
X175750000Y-171000000D02*
X175750000Y-169500000D01*
X174500000Y-167000000D02*
X170000000Y-167000000D01*
X168750000Y-169500000D02*
X168750000Y-171000000D01*
X170000000Y-173500000D02*
X174500000Y-173500000D01*
X161750000Y-171000000D02*
X161750000Y-169500000D01*
X160500000Y-167000000D02*
X156000000Y-167000000D01*
X154750000Y-169500000D02*
X154750000Y-171000000D01*
X156000000Y-173500000D02*
X160500000Y-173500000D01*
X148750000Y-171000000D02*
X148750000Y-169500000D01*
X147500000Y-167000000D02*
X143000000Y-167000000D01*
X141750000Y-169500000D02*
X141750000Y-171000000D01*
X143000000Y-173500000D02*
X147500000Y-173500000D01*
X135750000Y-171000000D02*
X135750000Y-169500000D01*
X134500000Y-167000000D02*
X130000000Y-167000000D01*
X128750000Y-169500000D02*
X128750000Y-171000000D01*
X130000000Y-173500000D02*
X134500000Y-173500000D01*
X122750000Y-171000000D02*
X122750000Y-169500000D01*
X121500000Y-167000000D02*
X117000000Y-167000000D01*
X115750000Y-169500000D02*
X115750000Y-171000000D01*
X117000000Y-173500000D02*
X121500000Y-173500000D01*
X203200000Y-147940000D02*
X199750000Y-147940000D01*
X203200000Y-147940000D02*
X205150000Y-147940000D01*
X203200000Y-158060000D02*
X201250000Y-158060000D01*
X203200000Y-158060000D02*
X205150000Y-158060000D01*
X195320000Y-143670000D02*
X196650000Y-143670000D01*
X195320000Y-145000000D02*
X195320000Y-143670000D01*
X195320000Y-146270000D02*
X197980000Y-146270000D01*
X197980000Y-146270000D02*
X197980000Y-164110000D01*
X195320000Y-146270000D02*
X195320000Y-164110000D01*
X195320000Y-164110000D02*
X197980000Y-164110000D01*
X208670000Y-143670000D02*
X210000000Y-143670000D01*
X208670000Y-145000000D02*
X208670000Y-143670000D01*
X208670000Y-146270000D02*
X211330000Y-146270000D01*
X211330000Y-146270000D02*
X211330000Y-164110000D01*
X208670000Y-146270000D02*
X208670000Y-164110000D01*
X208670000Y-164110000D02*
X211330000Y-164110000D01*
D11*
X199700000Y-121550000D02*
X205675000Y-121550000D01*
X201225000Y-128450000D02*
X205675000Y-128450000D01*
D10*
X195320000Y-113670000D02*
X196650000Y-113670000D01*
X195320000Y-115000000D02*
X195320000Y-113670000D01*
X195320000Y-116270000D02*
X197980000Y-116270000D01*
X197980000Y-116270000D02*
X197980000Y-139190000D01*
X195320000Y-116270000D02*
X195320000Y-139190000D01*
X195320000Y-139190000D02*
X197980000Y-139190000D01*
X211330000Y-139330000D02*
X210000000Y-139330000D01*
X211330000Y-138000000D02*
X211330000Y-139330000D01*
X211330000Y-136730000D02*
X208670000Y-136730000D01*
X208670000Y-136730000D02*
X208670000Y-113810000D01*
X211330000Y-136730000D02*
X211330000Y-113810000D01*
X211330000Y-113810000D02*
X208670000Y-113810000D01*
X202300000Y-107160000D02*
X203700000Y-107160000D01*
X203700000Y-104840000D02*
X201800000Y-104840000D01*
X209330000Y-110330000D02*
X208000000Y-110330000D01*
X209330000Y-109000000D02*
X209330000Y-110330000D01*
X209330000Y-107730000D02*
X206670000Y-107730000D01*
X206670000Y-107730000D02*
X206670000Y-102590000D01*
X209330000Y-107730000D02*
X209330000Y-102590000D01*
X209330000Y-102590000D02*
X206670000Y-102590000D01*
X195670000Y-102670000D02*
X197000000Y-102670000D01*
X195670000Y-104000000D02*
X195670000Y-102670000D01*
X195670000Y-105270000D02*
X198330000Y-105270000D01*
X198330000Y-105270000D02*
X198330000Y-110410000D01*
X195670000Y-105270000D02*
X195670000Y-110410000D01*
X195670000Y-110410000D02*
X198330000Y-110410000D01*
X204586248Y-96560000D02*
X206450000Y-96560000D01*
X201413752Y-96560000D02*
X201050000Y-96560000D01*
X204586248Y-91440000D02*
X204950000Y-91440000D01*
X201413752Y-91440000D02*
X201050000Y-91440000D01*
X210330000Y-98330000D02*
X209000000Y-98330000D01*
X210330000Y-97000000D02*
X210330000Y-98330000D01*
X210330000Y-95730000D02*
X207670000Y-95730000D01*
X207670000Y-95730000D02*
X207670000Y-88050000D01*
X210330000Y-95730000D02*
X210330000Y-88050000D01*
X210330000Y-88050000D02*
X207670000Y-88050000D01*
X195670000Y-88130000D02*
X197000000Y-88130000D01*
X195670000Y-89460000D02*
X195670000Y-88130000D01*
X195670000Y-90730000D02*
X198330000Y-90730000D01*
X198330000Y-90730000D02*
X198330000Y-98410000D01*
X195670000Y-90730000D02*
X195670000Y-98410000D01*
X195670000Y-98410000D02*
X198330000Y-98410000D01*
X205760000Y-83580000D02*
X204300000Y-83580000D01*
X205760000Y-80420000D02*
X203600000Y-80420000D01*
X205760000Y-80420000D02*
X205760000Y-81350000D01*
X205760000Y-83580000D02*
X205760000Y-82650000D01*
X195670000Y-77670000D02*
X197000000Y-77670000D01*
X195670000Y-79000000D02*
X195670000Y-77670000D01*
X195670000Y-80270000D02*
X198330000Y-80270000D01*
X198330000Y-80270000D02*
X198330000Y-85410000D01*
X195670000Y-80270000D02*
X195670000Y-85410000D01*
X195670000Y-85410000D02*
X198330000Y-85410000D01*
X174261252Y-161290000D02*
X173738748Y-161290000D01*
X174261252Y-162710000D02*
X173738748Y-162710000D01*
X174261252Y-157290000D02*
X173738748Y-157290000D01*
X174261252Y-158710000D02*
X173738748Y-158710000D01*
X174261252Y-129290000D02*
X173738748Y-129290000D01*
X174261252Y-130710000D02*
X173738748Y-130710000D01*
X174261252Y-125290000D02*
X173738748Y-125290000D01*
X174261252Y-126710000D02*
X173738748Y-126710000D01*
X177670000Y-137670000D02*
X179000000Y-137670000D01*
X177670000Y-139000000D02*
X177670000Y-137670000D01*
X177670000Y-140270000D02*
X180330000Y-140270000D01*
X180330000Y-140270000D02*
X180330000Y-145410000D01*
X177670000Y-140270000D02*
X177670000Y-145410000D01*
X177670000Y-145410000D02*
X180330000Y-145410000D01*
X180860000Y-161040000D02*
X178000000Y-161040000D01*
X180860000Y-162960000D02*
X180860000Y-161040000D01*
X178000000Y-162960000D02*
X180860000Y-162960000D01*
X180860000Y-157040000D02*
X178000000Y-157040000D01*
X180860000Y-158960000D02*
X180860000Y-157040000D01*
X178000000Y-158960000D02*
X180860000Y-158960000D01*
X180860000Y-129040000D02*
X178000000Y-129040000D01*
X180860000Y-130960000D02*
X180860000Y-129040000D01*
X178000000Y-130960000D02*
X180860000Y-130960000D01*
X180860000Y-125040000D02*
X178000000Y-125040000D01*
X180860000Y-126960000D02*
X180860000Y-125040000D01*
X178000000Y-126960000D02*
X180860000Y-126960000D01*
X181710000Y-80261252D02*
X181710000Y-79738748D01*
X180290000Y-80261252D02*
X180290000Y-79738748D01*
X178210000Y-80261252D02*
X178210000Y-79738748D01*
X176790000Y-80261252D02*
X176790000Y-79738748D01*
X181210000Y-118761252D02*
X181210000Y-118238748D01*
X179790000Y-118761252D02*
X179790000Y-118238748D01*
X177710000Y-118761252D02*
X177710000Y-118238748D01*
X176290000Y-118761252D02*
X176290000Y-118238748D01*
X190238748Y-112710000D02*
X190761252Y-112710000D01*
X190238748Y-111290000D02*
X190761252Y-111290000D01*
X190238748Y-110210000D02*
X190761252Y-110210000D01*
X190238748Y-108790000D02*
X190761252Y-108790000D01*
X181710000Y-99261252D02*
X181710000Y-98738748D01*
X180290000Y-99261252D02*
X180290000Y-98738748D01*
X177210000Y-99261252D02*
X177210000Y-98738748D01*
X175790000Y-99261252D02*
X175790000Y-98738748D01*
X190238748Y-86710000D02*
X190761252Y-86710000D01*
X190238748Y-85290000D02*
X190761252Y-85290000D01*
X190238748Y-89210000D02*
X190761252Y-89210000D01*
X190238748Y-87790000D02*
X190761252Y-87790000D01*
X167238748Y-112710000D02*
X167761252Y-112710000D01*
X167238748Y-111290000D02*
X167761252Y-111290000D01*
X167238748Y-110210000D02*
X167761252Y-110210000D01*
X167238748Y-108790000D02*
X167761252Y-108790000D01*
X167761252Y-85290000D02*
X167238748Y-85290000D01*
X167761252Y-86710000D02*
X167238748Y-86710000D01*
X167761252Y-87790000D02*
X167238748Y-87790000D01*
X167761252Y-89210000D02*
X167238748Y-89210000D01*
X175170000Y-111830000D02*
X175170000Y-110500000D01*
X176500000Y-111830000D02*
X175170000Y-111830000D01*
X177770000Y-111830000D02*
X177770000Y-109170000D01*
X177770000Y-109170000D02*
X182910000Y-109170000D01*
X177770000Y-111830000D02*
X182910000Y-111830000D01*
X182910000Y-111830000D02*
X182910000Y-109170000D01*
X183540000Y-78140000D02*
X183540000Y-81000000D01*
X185460000Y-78140000D02*
X183540000Y-78140000D01*
X185460000Y-81000000D02*
X185460000Y-78140000D01*
X173040000Y-78140000D02*
X173040000Y-81000000D01*
X174960000Y-78140000D02*
X173040000Y-78140000D01*
X174960000Y-81000000D02*
X174960000Y-78140000D01*
X183040000Y-116640000D02*
X183040000Y-119500000D01*
X184960000Y-116640000D02*
X183040000Y-116640000D01*
X184960000Y-119500000D02*
X184960000Y-116640000D01*
X172540000Y-116665000D02*
X172540000Y-119525000D01*
X174460000Y-116665000D02*
X172540000Y-116665000D01*
X174460000Y-119525000D02*
X174460000Y-116665000D01*
X192360000Y-113540000D02*
X189500000Y-113540000D01*
X192360000Y-115460000D02*
X192360000Y-113540000D01*
X189500000Y-115460000D02*
X192360000Y-115460000D01*
X192335000Y-106040000D02*
X189475000Y-106040000D01*
X192335000Y-107960000D02*
X192335000Y-106040000D01*
X189475000Y-107960000D02*
X192335000Y-107960000D01*
X184540000Y-97140000D02*
X184540000Y-100000000D01*
X186460000Y-97140000D02*
X184540000Y-97140000D01*
X186460000Y-100000000D02*
X186460000Y-97140000D01*
X171540000Y-97140000D02*
X171540000Y-100000000D01*
X173460000Y-97140000D02*
X171540000Y-97140000D01*
X173460000Y-100000000D02*
X173460000Y-97140000D01*
X192360000Y-82540000D02*
X189500000Y-82540000D01*
X192360000Y-84460000D02*
X192360000Y-82540000D01*
X189500000Y-84460000D02*
X192360000Y-84460000D01*
X192360000Y-90040000D02*
X189500000Y-90040000D01*
X192360000Y-91960000D02*
X192360000Y-90040000D01*
X189500000Y-91960000D02*
X192360000Y-91960000D01*
X169360000Y-113540000D02*
X166500000Y-113540000D01*
X169360000Y-115460000D02*
X169360000Y-113540000D01*
X166500000Y-115460000D02*
X169360000Y-115460000D01*
X169360000Y-106040000D02*
X166500000Y-106040000D01*
X169360000Y-107960000D02*
X169360000Y-106040000D01*
X166500000Y-107960000D02*
X169360000Y-107960000D01*
X165640000Y-84460000D02*
X168500000Y-84460000D01*
X165640000Y-82540000D02*
X165640000Y-84460000D01*
X168500000Y-82540000D02*
X165640000Y-82540000D01*
X165640000Y-91960000D02*
X168500000Y-91960000D01*
X165640000Y-90040000D02*
X165640000Y-91960000D01*
X168500000Y-90040000D02*
X165640000Y-90040000D01*
X136000000Y-134940000D02*
X132550000Y-134940000D01*
X136000000Y-134940000D02*
X137950000Y-134940000D01*
X136000000Y-145060000D02*
X134050000Y-145060000D01*
X136000000Y-145060000D02*
X137950000Y-145060000D01*
X143710000Y-83261252D02*
X143710000Y-82738748D01*
X142290000Y-83261252D02*
X142290000Y-82738748D01*
X135710000Y-83261252D02*
X135710000Y-82738748D01*
X134290000Y-83261252D02*
X134290000Y-82738748D01*
X126710000Y-83261252D02*
X126710000Y-82738748D01*
X125290000Y-83261252D02*
X125290000Y-82738748D01*
X149290000Y-158738748D02*
X149290000Y-159261252D01*
X150710000Y-158738748D02*
X150710000Y-159261252D01*
X141290000Y-158738748D02*
X141290000Y-159261252D01*
X142710000Y-158738748D02*
X142710000Y-159261252D01*
X134290000Y-158738748D02*
X134290000Y-159261252D01*
X135710000Y-158738748D02*
X135710000Y-159261252D01*
X155738748Y-129710000D02*
X156261252Y-129710000D01*
X155738748Y-128290000D02*
X156261252Y-128290000D01*
X155738748Y-137710000D02*
X156261252Y-137710000D01*
X155738748Y-136290000D02*
X156261252Y-136290000D01*
X155738748Y-145710000D02*
X156261252Y-145710000D01*
X155738748Y-144290000D02*
X156261252Y-144290000D01*
X130290000Y-125713748D02*
X130290000Y-126236252D01*
X131710000Y-125713748D02*
X131710000Y-126236252D01*
X138290000Y-125738748D02*
X138290000Y-126261252D01*
X139710000Y-125738748D02*
X139710000Y-126261252D01*
X145290000Y-125738748D02*
X145290000Y-126261252D01*
X146710000Y-125738748D02*
X146710000Y-126261252D01*
X155738748Y-105710000D02*
X156261252Y-105710000D01*
X155738748Y-104290000D02*
X156261252Y-104290000D01*
X155738748Y-97710000D02*
X156261252Y-97710000D01*
X155738748Y-96290000D02*
X156261252Y-96290000D01*
X155763748Y-89710000D02*
X156286252Y-89710000D01*
X155763748Y-88290000D02*
X156286252Y-88290000D01*
X122261252Y-144290000D02*
X121738748Y-144290000D01*
X122261252Y-145710000D02*
X121738748Y-145710000D01*
X122261252Y-136290000D02*
X121738748Y-136290000D01*
X122261252Y-137710000D02*
X121738748Y-137710000D01*
X122261252Y-128290000D02*
X121738748Y-128290000D01*
X122261252Y-129710000D02*
X121738748Y-129710000D01*
X122261252Y-104290000D02*
X121738748Y-104290000D01*
X122261252Y-105710000D02*
X121738748Y-105710000D01*
X122236252Y-96290000D02*
X121713748Y-96290000D01*
X122236252Y-97710000D02*
X121713748Y-97710000D01*
X122261252Y-88290000D02*
X121738748Y-88290000D01*
X122261252Y-89710000D02*
X121738748Y-89710000D01*
X143670000Y-136670000D02*
X145000000Y-136670000D01*
X143670000Y-138000000D02*
X143670000Y-136670000D01*
X143670000Y-139270000D02*
X146330000Y-139270000D01*
X146330000Y-139270000D02*
X146330000Y-144410000D01*
X143670000Y-139270000D02*
X143670000Y-144410000D01*
X143670000Y-144410000D02*
X146330000Y-144410000D01*
X143670000Y-94670000D02*
X145000000Y-94670000D01*
X143670000Y-96000000D02*
X143670000Y-94670000D01*
X143670000Y-97270000D02*
X146330000Y-97270000D01*
X146330000Y-97270000D02*
X146330000Y-110030000D01*
X143670000Y-97270000D02*
X143670000Y-110030000D01*
X143670000Y-110030000D02*
X146330000Y-110030000D01*
X131670000Y-94670000D02*
X133000000Y-94670000D01*
X131670000Y-96000000D02*
X131670000Y-94670000D01*
X131670000Y-97270000D02*
X134330000Y-97270000D01*
X134330000Y-97270000D02*
X134330000Y-110030000D01*
X131670000Y-97270000D02*
X131670000Y-110030000D01*
X131670000Y-110030000D02*
X134330000Y-110030000D01*
X147960000Y-87860000D02*
X147960000Y-85000000D01*
X146040000Y-87860000D02*
X147960000Y-87860000D01*
X146040000Y-85000000D02*
X146040000Y-87860000D01*
X139960000Y-87835000D02*
X139960000Y-84975000D01*
X138040000Y-87835000D02*
X139960000Y-87835000D01*
X138040000Y-84975000D02*
X138040000Y-87835000D01*
X131960000Y-87860000D02*
X131960000Y-85000000D01*
X130040000Y-87860000D02*
X131960000Y-87860000D01*
X130040000Y-85000000D02*
X130040000Y-87860000D01*
X145040000Y-153140000D02*
X145040000Y-156000000D01*
X146960000Y-153140000D02*
X145040000Y-153140000D01*
X146960000Y-156000000D02*
X146960000Y-153140000D01*
X138040000Y-153140000D02*
X138040000Y-156000000D01*
X139960000Y-153140000D02*
X138040000Y-153140000D01*
X139960000Y-156000000D02*
X139960000Y-153140000D01*
X131040000Y-153140000D02*
X131040000Y-156000000D01*
X132960000Y-153140000D02*
X131040000Y-153140000D01*
X132960000Y-156000000D02*
X132960000Y-153140000D01*
X151140000Y-133960000D02*
X154000000Y-133960000D01*
X151140000Y-132040000D02*
X151140000Y-133960000D01*
X154000000Y-132040000D02*
X151140000Y-132040000D01*
X151140000Y-141960000D02*
X154000000Y-141960000D01*
X151140000Y-140040000D02*
X151140000Y-141960000D01*
X154000000Y-140040000D02*
X151140000Y-140040000D01*
X151140000Y-149960000D02*
X154000000Y-149960000D01*
X151140000Y-148040000D02*
X151140000Y-149960000D01*
X154000000Y-148040000D02*
X151140000Y-148040000D01*
X128040000Y-119140000D02*
X128040000Y-122000000D01*
X129960000Y-119140000D02*
X128040000Y-119140000D01*
X129960000Y-122000000D02*
X129960000Y-119140000D01*
X138040000Y-119140000D02*
X138040000Y-122000000D01*
X139960000Y-119140000D02*
X138040000Y-119140000D01*
X139960000Y-122000000D02*
X139960000Y-119140000D01*
X148040000Y-119115000D02*
X148040000Y-121975000D01*
X149960000Y-119115000D02*
X148040000Y-119115000D01*
X149960000Y-121975000D02*
X149960000Y-119115000D01*
X151165000Y-109960000D02*
X154025000Y-109960000D01*
X151165000Y-108040000D02*
X151165000Y-109960000D01*
X154025000Y-108040000D02*
X151165000Y-108040000D01*
X151165000Y-101960000D02*
X154025000Y-101960000D01*
X151165000Y-100040000D02*
X151165000Y-101960000D01*
X154025000Y-100040000D02*
X151165000Y-100040000D01*
X151140000Y-93960000D02*
X154000000Y-93960000D01*
X151140000Y-92040000D02*
X151140000Y-93960000D01*
X154000000Y-92040000D02*
X151140000Y-92040000D01*
X126835000Y-148040000D02*
X123975000Y-148040000D01*
X126835000Y-149960000D02*
X126835000Y-148040000D01*
X123975000Y-149960000D02*
X126835000Y-149960000D01*
X126835000Y-140040000D02*
X123975000Y-140040000D01*
X126835000Y-141960000D02*
X126835000Y-140040000D01*
X123975000Y-141960000D02*
X126835000Y-141960000D01*
X126835000Y-132040000D02*
X123975000Y-132040000D01*
X126835000Y-133960000D02*
X126835000Y-132040000D01*
X123975000Y-133960000D02*
X126835000Y-133960000D01*
X126860000Y-108040000D02*
X124000000Y-108040000D01*
X126860000Y-109960000D02*
X126860000Y-108040000D01*
X124000000Y-109960000D02*
X126860000Y-109960000D01*
X126860000Y-100040000D02*
X124000000Y-100040000D01*
X126860000Y-101960000D02*
X126860000Y-100040000D01*
X124000000Y-101960000D02*
X126860000Y-101960000D01*
X126860000Y-92040000D02*
X124000000Y-92040000D01*
X126860000Y-93960000D02*
X126860000Y-92040000D01*
X124000000Y-93960000D02*
X126860000Y-93960000D01*
D11*
X208666666Y-170404761D02*
X208809523Y-170452380D01*
X209047619Y-170452380D01*
X209142857Y-170404761D01*
X209190476Y-170357142D01*
X209238095Y-170261904D01*
X209238095Y-170166666D01*
X209190476Y-170071428D01*
X209142857Y-170023809D01*
X209047619Y-169976190D01*
X208857142Y-169928571D01*
X208761904Y-169880952D01*
X208714285Y-169833333D01*
X208666666Y-169738095D01*
X208666666Y-169642857D01*
X208714285Y-169547619D01*
X208761904Y-169500000D01*
X208857142Y-169452380D01*
X209095238Y-169452380D01*
X209238095Y-169500000D01*
X209571428Y-169452380D02*
X209809523Y-170452380D01*
X210000000Y-169738095D01*
X210190476Y-170452380D01*
X210428571Y-169452380D01*
X211238095Y-169452380D02*
X211047619Y-169452380D01*
X210952380Y-169500000D01*
X210904761Y-169547619D01*
X210809523Y-169690476D01*
X210761904Y-169880952D01*
X210761904Y-170261904D01*
X210809523Y-170357142D01*
X210857142Y-170404761D01*
X210952380Y-170452380D01*
X211142857Y-170452380D01*
X211238095Y-170404761D01*
X211285714Y-170357142D01*
X211333333Y-170261904D01*
X211333333Y-170023809D01*
X211285714Y-169928571D01*
X211238095Y-169880952D01*
X211142857Y-169833333D01*
X210952380Y-169833333D01*
X210857142Y-169880952D01*
X210809523Y-169928571D01*
X210761904Y-170023809D01*
X190666666Y-170404761D02*
X190809523Y-170452380D01*
X191047619Y-170452380D01*
X191142857Y-170404761D01*
X191190476Y-170357142D01*
X191238095Y-170261904D01*
X191238095Y-170166666D01*
X191190476Y-170071428D01*
X191142857Y-170023809D01*
X191047619Y-169976190D01*
X190857142Y-169928571D01*
X190761904Y-169880952D01*
X190714285Y-169833333D01*
X190666666Y-169738095D01*
X190666666Y-169642857D01*
X190714285Y-169547619D01*
X190761904Y-169500000D01*
X190857142Y-169452380D01*
X191095238Y-169452380D01*
X191238095Y-169500000D01*
X191571428Y-169452380D02*
X191809523Y-170452380D01*
X192000000Y-169738095D01*
X192190476Y-170452380D01*
X192428571Y-169452380D01*
X193238095Y-169452380D02*
X193047619Y-169452380D01*
X192952380Y-169500000D01*
X192904761Y-169547619D01*
X192809523Y-169690476D01*
X192761904Y-169880952D01*
X192761904Y-170261904D01*
X192809523Y-170357142D01*
X192857142Y-170404761D01*
X192952380Y-170452380D01*
X193142857Y-170452380D01*
X193238095Y-170404761D01*
X193285714Y-170357142D01*
X193333333Y-170261904D01*
X193333333Y-170023809D01*
X193285714Y-169928571D01*
X193238095Y-169880952D01*
X193142857Y-169833333D01*
X192952380Y-169833333D01*
X192857142Y-169880952D01*
X192809523Y-169928571D01*
X192761904Y-170023809D01*
X164666666Y-170404761D02*
X164809523Y-170452380D01*
X165047619Y-170452380D01*
X165142857Y-170404761D01*
X165190476Y-170357142D01*
X165238095Y-170261904D01*
X165238095Y-170166666D01*
X165190476Y-170071428D01*
X165142857Y-170023809D01*
X165047619Y-169976190D01*
X164857142Y-169928571D01*
X164761904Y-169880952D01*
X164714285Y-169833333D01*
X164666666Y-169738095D01*
X164666666Y-169642857D01*
X164714285Y-169547619D01*
X164761904Y-169500000D01*
X164857142Y-169452380D01*
X165095238Y-169452380D01*
X165238095Y-169500000D01*
X165571428Y-169452380D02*
X165809523Y-170452380D01*
X166000000Y-169738095D01*
X166190476Y-170452380D01*
X166428571Y-169452380D01*
X167285714Y-169452380D02*
X166809523Y-169452380D01*
X166761904Y-169928571D01*
X166809523Y-169880952D01*
X166904761Y-169833333D01*
X167142857Y-169833333D01*
X167238095Y-169880952D01*
X167285714Y-169928571D01*
X167333333Y-170023809D01*
X167333333Y-170261904D01*
X167285714Y-170357142D01*
X167238095Y-170404761D01*
X167142857Y-170452380D01*
X166904761Y-170452380D01*
X166809523Y-170404761D01*
X166761904Y-170357142D01*
X150666666Y-173404761D02*
X150809523Y-173452380D01*
X151047619Y-173452380D01*
X151142857Y-173404761D01*
X151190476Y-173357142D01*
X151238095Y-173261904D01*
X151238095Y-173166666D01*
X151190476Y-173071428D01*
X151142857Y-173023809D01*
X151047619Y-172976190D01*
X150857142Y-172928571D01*
X150761904Y-172880952D01*
X150714285Y-172833333D01*
X150666666Y-172738095D01*
X150666666Y-172642857D01*
X150714285Y-172547619D01*
X150761904Y-172500000D01*
X150857142Y-172452380D01*
X151095238Y-172452380D01*
X151238095Y-172500000D01*
X151571428Y-172452380D02*
X151809523Y-173452380D01*
X152000000Y-172738095D01*
X152190476Y-173452380D01*
X152428571Y-172452380D01*
X153238095Y-172785714D02*
X153238095Y-173452380D01*
X153000000Y-172404761D02*
X152761904Y-173119047D01*
X153380952Y-173119047D01*
X137666666Y-173404761D02*
X137809523Y-173452380D01*
X138047619Y-173452380D01*
X138142857Y-173404761D01*
X138190476Y-173357142D01*
X138238095Y-173261904D01*
X138238095Y-173166666D01*
X138190476Y-173071428D01*
X138142857Y-173023809D01*
X138047619Y-172976190D01*
X137857142Y-172928571D01*
X137761904Y-172880952D01*
X137714285Y-172833333D01*
X137666666Y-172738095D01*
X137666666Y-172642857D01*
X137714285Y-172547619D01*
X137761904Y-172500000D01*
X137857142Y-172452380D01*
X138095238Y-172452380D01*
X138238095Y-172500000D01*
X138571428Y-172452380D02*
X138809523Y-173452380D01*
X139000000Y-172738095D01*
X139190476Y-173452380D01*
X139428571Y-172452380D01*
X139714285Y-172452380D02*
X140333333Y-172452380D01*
X140000000Y-172833333D01*
X140142857Y-172833333D01*
X140238095Y-172880952D01*
X140285714Y-172928571D01*
X140333333Y-173023809D01*
X140333333Y-173261904D01*
X140285714Y-173357142D01*
X140238095Y-173404761D01*
X140142857Y-173452380D01*
X139857142Y-173452380D01*
X139761904Y-173404761D01*
X139714285Y-173357142D01*
X124666666Y-173404761D02*
X124809523Y-173452380D01*
X125047619Y-173452380D01*
X125142857Y-173404761D01*
X125190476Y-173357142D01*
X125238095Y-173261904D01*
X125238095Y-173166666D01*
X125190476Y-173071428D01*
X125142857Y-173023809D01*
X125047619Y-172976190D01*
X124857142Y-172928571D01*
X124761904Y-172880952D01*
X124714285Y-172833333D01*
X124666666Y-172738095D01*
X124666666Y-172642857D01*
X124714285Y-172547619D01*
X124761904Y-172500000D01*
X124857142Y-172452380D01*
X125095238Y-172452380D01*
X125238095Y-172500000D01*
X125571428Y-172452380D02*
X125809523Y-173452380D01*
X126000000Y-172738095D01*
X126190476Y-173452380D01*
X126428571Y-172452380D01*
X126761904Y-172547619D02*
X126809523Y-172500000D01*
X126904761Y-172452380D01*
X127142857Y-172452380D01*
X127238095Y-172500000D01*
X127285714Y-172547619D01*
X127333333Y-172642857D01*
X127333333Y-172738095D01*
X127285714Y-172880952D01*
X126714285Y-173452380D01*
X127333333Y-173452380D01*
X124666666Y-168404761D02*
X124809523Y-168452380D01*
X125047619Y-168452380D01*
X125142857Y-168404761D01*
X125190476Y-168357142D01*
X125238095Y-168261904D01*
X125238095Y-168166666D01*
X125190476Y-168071428D01*
X125142857Y-168023809D01*
X125047619Y-167976190D01*
X124857142Y-167928571D01*
X124761904Y-167880952D01*
X124714285Y-167833333D01*
X124666666Y-167738095D01*
X124666666Y-167642857D01*
X124714285Y-167547619D01*
X124761904Y-167500000D01*
X124857142Y-167452380D01*
X125095238Y-167452380D01*
X125238095Y-167500000D01*
X125571428Y-167452380D02*
X125809523Y-168452380D01*
X126000000Y-167738095D01*
X126190476Y-168452380D01*
X126428571Y-167452380D01*
X127333333Y-168452380D02*
X126761904Y-168452380D01*
X127047619Y-168452380D02*
X127047619Y-167452380D01*
X126952380Y-167595238D01*
X126857142Y-167690476D01*
X126761904Y-167738095D01*
X202438095Y-146552380D02*
X202438095Y-147361904D01*
X202485714Y-147457142D01*
X202533333Y-147504761D01*
X202628571Y-147552380D01*
X202819047Y-147552380D01*
X202914285Y-147504761D01*
X202961904Y-147457142D01*
X203009523Y-147361904D01*
X203009523Y-146552380D01*
X203914285Y-146552380D02*
X203723809Y-146552380D01*
X203628571Y-146600000D01*
X203580952Y-146647619D01*
X203485714Y-146790476D01*
X203438095Y-146980952D01*
X203438095Y-147361904D01*
X203485714Y-147457142D01*
X203533333Y-147504761D01*
X203628571Y-147552380D01*
X203819047Y-147552380D01*
X203914285Y-147504761D01*
X203961904Y-147457142D01*
X204009523Y-147361904D01*
X204009523Y-147123809D01*
X203961904Y-147028571D01*
X203914285Y-146980952D01*
X203819047Y-146933333D01*
X203628571Y-146933333D01*
X203533333Y-146980952D01*
X203485714Y-147028571D01*
X203438095Y-147123809D01*
X195840476Y-142122380D02*
X195840476Y-142836666D01*
X195792857Y-142979523D01*
X195697619Y-143074761D01*
X195554761Y-143122380D01*
X195459523Y-143122380D01*
X196840476Y-143122380D02*
X196269047Y-143122380D01*
X196554761Y-143122380D02*
X196554761Y-142122380D01*
X196459523Y-142265238D01*
X196364285Y-142360476D01*
X196269047Y-142408095D01*
X197697619Y-142122380D02*
X197507142Y-142122380D01*
X197411904Y-142170000D01*
X197364285Y-142217619D01*
X197269047Y-142360476D01*
X197221428Y-142550952D01*
X197221428Y-142931904D01*
X197269047Y-143027142D01*
X197316666Y-143074761D01*
X197411904Y-143122380D01*
X197602380Y-143122380D01*
X197697619Y-143074761D01*
X197745238Y-143027142D01*
X197792857Y-142931904D01*
X197792857Y-142693809D01*
X197745238Y-142598571D01*
X197697619Y-142550952D01*
X197602380Y-142503333D01*
X197411904Y-142503333D01*
X197316666Y-142550952D01*
X197269047Y-142598571D01*
X197221428Y-142693809D01*
X209190476Y-142122380D02*
X209190476Y-142836666D01*
X209142857Y-142979523D01*
X209047619Y-143074761D01*
X208904761Y-143122380D01*
X208809523Y-143122380D01*
X210190476Y-143122380D02*
X209619047Y-143122380D01*
X209904761Y-143122380D02*
X209904761Y-142122380D01*
X209809523Y-142265238D01*
X209714285Y-142360476D01*
X209619047Y-142408095D01*
X211095238Y-142122380D02*
X210619047Y-142122380D01*
X210571428Y-142598571D01*
X210619047Y-142550952D01*
X210714285Y-142503333D01*
X210952380Y-142503333D01*
X211047619Y-142550952D01*
X211095238Y-142598571D01*
X211142857Y-142693809D01*
X211142857Y-142931904D01*
X211095238Y-143027142D01*
X211047619Y-143074761D01*
X210952380Y-143122380D01*
X210714285Y-143122380D01*
X210619047Y-143074761D01*
X210571428Y-143027142D01*
X202688095Y-120152380D02*
X202688095Y-120961904D01*
X202735714Y-121057142D01*
X202783333Y-121104761D01*
X202878571Y-121152380D01*
X203069047Y-121152380D01*
X203164285Y-121104761D01*
X203211904Y-121057142D01*
X203259523Y-120961904D01*
X203259523Y-120152380D01*
X204211904Y-120152380D02*
X203735714Y-120152380D01*
X203688095Y-120628571D01*
X203735714Y-120580952D01*
X203830952Y-120533333D01*
X204069047Y-120533333D01*
X204164285Y-120580952D01*
X204211904Y-120628571D01*
X204259523Y-120723809D01*
X204259523Y-120961904D01*
X204211904Y-121057142D01*
X204164285Y-121104761D01*
X204069047Y-121152380D01*
X203830952Y-121152380D01*
X203735714Y-121104761D01*
X203688095Y-121057142D01*
X195840476Y-112122380D02*
X195840476Y-112836666D01*
X195792857Y-112979523D01*
X195697619Y-113074761D01*
X195554761Y-113122380D01*
X195459523Y-113122380D01*
X196840476Y-113122380D02*
X196269047Y-113122380D01*
X196554761Y-113122380D02*
X196554761Y-112122380D01*
X196459523Y-112265238D01*
X196364285Y-112360476D01*
X196269047Y-112408095D01*
X197697619Y-112455714D02*
X197697619Y-113122380D01*
X197459523Y-112074761D02*
X197221428Y-112789047D01*
X197840476Y-112789047D01*
X209190476Y-139782380D02*
X209190476Y-140496666D01*
X209142857Y-140639523D01*
X209047619Y-140734761D01*
X208904761Y-140782380D01*
X208809523Y-140782380D01*
X210190476Y-140782380D02*
X209619047Y-140782380D01*
X209904761Y-140782380D02*
X209904761Y-139782380D01*
X209809523Y-139925238D01*
X209714285Y-140020476D01*
X209619047Y-140068095D01*
X210523809Y-139782380D02*
X211142857Y-139782380D01*
X210809523Y-140163333D01*
X210952380Y-140163333D01*
X211047619Y-140210952D01*
X211095238Y-140258571D01*
X211142857Y-140353809D01*
X211142857Y-140591904D01*
X211095238Y-140687142D01*
X211047619Y-140734761D01*
X210952380Y-140782380D01*
X210666666Y-140782380D01*
X210571428Y-140734761D01*
X210523809Y-140687142D01*
X202238095Y-103452380D02*
X202238095Y-104261904D01*
X202285714Y-104357142D01*
X202333333Y-104404761D01*
X202428571Y-104452380D01*
X202619047Y-104452380D01*
X202714285Y-104404761D01*
X202761904Y-104357142D01*
X202809523Y-104261904D01*
X202809523Y-103452380D01*
X203714285Y-103785714D02*
X203714285Y-104452380D01*
X203476190Y-103404761D02*
X203238095Y-104119047D01*
X203857142Y-104119047D01*
X203190476Y-110452380D02*
X203190476Y-111166666D01*
X203142857Y-111309523D01*
X203047619Y-111404761D01*
X202904761Y-111452380D01*
X202809523Y-111452380D01*
X204190476Y-111452380D02*
X203619047Y-111452380D01*
X203904761Y-111452380D02*
X203904761Y-110452380D01*
X203809523Y-110595238D01*
X203714285Y-110690476D01*
X203619047Y-110738095D01*
X204571428Y-110547619D02*
X204619047Y-110500000D01*
X204714285Y-110452380D01*
X204952380Y-110452380D01*
X205047619Y-110500000D01*
X205095238Y-110547619D01*
X205142857Y-110642857D01*
X205142857Y-110738095D01*
X205095238Y-110880952D01*
X204523809Y-111452380D01*
X205142857Y-111452380D01*
X199190476Y-110452380D02*
X199190476Y-111166666D01*
X199142857Y-111309523D01*
X199047619Y-111404761D01*
X198904761Y-111452380D01*
X198809523Y-111452380D01*
X200190476Y-111452380D02*
X199619047Y-111452380D01*
X199904761Y-111452380D02*
X199904761Y-110452380D01*
X199809523Y-110595238D01*
X199714285Y-110690476D01*
X199619047Y-110738095D01*
X201142857Y-111452380D02*
X200571428Y-111452380D01*
X200857142Y-111452380D02*
X200857142Y-110452380D01*
X200761904Y-110595238D01*
X200666666Y-110690476D01*
X200571428Y-110738095D01*
X202238095Y-96852380D02*
X202238095Y-97661904D01*
X202285714Y-97757142D01*
X202333333Y-97804761D01*
X202428571Y-97852380D01*
X202619047Y-97852380D01*
X202714285Y-97804761D01*
X202761904Y-97757142D01*
X202809523Y-97661904D01*
X202809523Y-96852380D01*
X203190476Y-96852380D02*
X203809523Y-96852380D01*
X203476190Y-97233333D01*
X203619047Y-97233333D01*
X203714285Y-97280952D01*
X203761904Y-97328571D01*
X203809523Y-97423809D01*
X203809523Y-97661904D01*
X203761904Y-97757142D01*
X203714285Y-97804761D01*
X203619047Y-97852380D01*
X203333333Y-97852380D01*
X203238095Y-97804761D01*
X203190476Y-97757142D01*
X208190476Y-98782380D02*
X208190476Y-99496666D01*
X208142857Y-99639523D01*
X208047619Y-99734761D01*
X207904761Y-99782380D01*
X207809523Y-99782380D01*
X209190476Y-99782380D02*
X208619047Y-99782380D01*
X208904761Y-99782380D02*
X208904761Y-98782380D01*
X208809523Y-98925238D01*
X208714285Y-99020476D01*
X208619047Y-99068095D01*
X209809523Y-98782380D02*
X209904761Y-98782380D01*
X210000000Y-98830000D01*
X210047619Y-98877619D01*
X210095238Y-98972857D01*
X210142857Y-99163333D01*
X210142857Y-99401428D01*
X210095238Y-99591904D01*
X210047619Y-99687142D01*
X210000000Y-99734761D01*
X209904761Y-99782380D01*
X209809523Y-99782380D01*
X209714285Y-99734761D01*
X209666666Y-99687142D01*
X209619047Y-99591904D01*
X209571428Y-99401428D01*
X209571428Y-99163333D01*
X209619047Y-98972857D01*
X209666666Y-98877619D01*
X209714285Y-98830000D01*
X209809523Y-98782380D01*
X196666666Y-99452380D02*
X196666666Y-100166666D01*
X196619047Y-100309523D01*
X196523809Y-100404761D01*
X196380952Y-100452380D01*
X196285714Y-100452380D01*
X197190476Y-100452380D02*
X197380952Y-100452380D01*
X197476190Y-100404761D01*
X197523809Y-100357142D01*
X197619047Y-100214285D01*
X197666666Y-100023809D01*
X197666666Y-99642857D01*
X197619047Y-99547619D01*
X197571428Y-99500000D01*
X197476190Y-99452380D01*
X197285714Y-99452380D01*
X197190476Y-99500000D01*
X197142857Y-99547619D01*
X197095238Y-99642857D01*
X197095238Y-99880952D01*
X197142857Y-99976190D01*
X197190476Y-100023809D01*
X197285714Y-100071428D01*
X197476190Y-100071428D01*
X197571428Y-100023809D01*
X197619047Y-99976190D01*
X197666666Y-99880952D01*
X204904761Y-80047619D02*
X204809523Y-80000000D01*
X204714285Y-79904761D01*
X204571428Y-79761904D01*
X204476190Y-79714285D01*
X204380952Y-79714285D01*
X204428571Y-79952380D02*
X204333333Y-79904761D01*
X204238095Y-79809523D01*
X204190476Y-79619047D01*
X204190476Y-79285714D01*
X204238095Y-79095238D01*
X204333333Y-79000000D01*
X204428571Y-78952380D01*
X204619047Y-78952380D01*
X204714285Y-79000000D01*
X204809523Y-79095238D01*
X204857142Y-79285714D01*
X204857142Y-79619047D01*
X204809523Y-79809523D01*
X204714285Y-79904761D01*
X204619047Y-79952380D01*
X204428571Y-79952380D01*
X205809523Y-79952380D02*
X205238095Y-79952380D01*
X205523809Y-79952380D02*
X205523809Y-78952380D01*
X205428571Y-79095238D01*
X205333333Y-79190476D01*
X205238095Y-79238095D01*
X196666666Y-76122380D02*
X196666666Y-76836666D01*
X196619047Y-76979523D01*
X196523809Y-77074761D01*
X196380952Y-77122380D01*
X196285714Y-77122380D01*
X197285714Y-76550952D02*
X197190476Y-76503333D01*
X197142857Y-76455714D01*
X197095238Y-76360476D01*
X197095238Y-76312857D01*
X197142857Y-76217619D01*
X197190476Y-76170000D01*
X197285714Y-76122380D01*
X197476190Y-76122380D01*
X197571428Y-76170000D01*
X197619047Y-76217619D01*
X197666666Y-76312857D01*
X197666666Y-76360476D01*
X197619047Y-76455714D01*
X197571428Y-76503333D01*
X197476190Y-76550952D01*
X197285714Y-76550952D01*
X197190476Y-76598571D01*
X197142857Y-76646190D01*
X197095238Y-76741428D01*
X197095238Y-76931904D01*
X197142857Y-77027142D01*
X197190476Y-77074761D01*
X197285714Y-77122380D01*
X197476190Y-77122380D01*
X197571428Y-77074761D01*
X197619047Y-77027142D01*
X197666666Y-76931904D01*
X197666666Y-76741428D01*
X197619047Y-76646190D01*
X197571428Y-76598571D01*
X197476190Y-76550952D01*
X173357142Y-164102380D02*
X173023809Y-163626190D01*
X172785714Y-164102380D02*
X172785714Y-163102380D01*
X173166666Y-163102380D01*
X173261904Y-163150000D01*
X173309523Y-163197619D01*
X173357142Y-163292857D01*
X173357142Y-163435714D01*
X173309523Y-163530952D01*
X173261904Y-163578571D01*
X173166666Y-163626190D01*
X172785714Y-163626190D01*
X173690476Y-163102380D02*
X174309523Y-163102380D01*
X173976190Y-163483333D01*
X174119047Y-163483333D01*
X174214285Y-163530952D01*
X174261904Y-163578571D01*
X174309523Y-163673809D01*
X174309523Y-163911904D01*
X174261904Y-164007142D01*
X174214285Y-164054761D01*
X174119047Y-164102380D01*
X173833333Y-164102380D01*
X173738095Y-164054761D01*
X173690476Y-164007142D01*
X174785714Y-164102380D02*
X174976190Y-164102380D01*
X175071428Y-164054761D01*
X175119047Y-164007142D01*
X175214285Y-163864285D01*
X175261904Y-163673809D01*
X175261904Y-163292857D01*
X175214285Y-163197619D01*
X175166666Y-163150000D01*
X175071428Y-163102380D01*
X174880952Y-163102380D01*
X174785714Y-163150000D01*
X174738095Y-163197619D01*
X174690476Y-163292857D01*
X174690476Y-163530952D01*
X174738095Y-163626190D01*
X174785714Y-163673809D01*
X174880952Y-163721428D01*
X175071428Y-163721428D01*
X175166666Y-163673809D01*
X175214285Y-163626190D01*
X175261904Y-163530952D01*
X173357142Y-160102380D02*
X173023809Y-159626190D01*
X172785714Y-160102380D02*
X172785714Y-159102380D01*
X173166666Y-159102380D01*
X173261904Y-159150000D01*
X173309523Y-159197619D01*
X173357142Y-159292857D01*
X173357142Y-159435714D01*
X173309523Y-159530952D01*
X173261904Y-159578571D01*
X173166666Y-159626190D01*
X172785714Y-159626190D01*
X173690476Y-159102380D02*
X174309523Y-159102380D01*
X173976190Y-159483333D01*
X174119047Y-159483333D01*
X174214285Y-159530952D01*
X174261904Y-159578571D01*
X174309523Y-159673809D01*
X174309523Y-159911904D01*
X174261904Y-160007142D01*
X174214285Y-160054761D01*
X174119047Y-160102380D01*
X173833333Y-160102380D01*
X173738095Y-160054761D01*
X173690476Y-160007142D01*
X174880952Y-159530952D02*
X174785714Y-159483333D01*
X174738095Y-159435714D01*
X174690476Y-159340476D01*
X174690476Y-159292857D01*
X174738095Y-159197619D01*
X174785714Y-159150000D01*
X174880952Y-159102380D01*
X175071428Y-159102380D01*
X175166666Y-159150000D01*
X175214285Y-159197619D01*
X175261904Y-159292857D01*
X175261904Y-159340476D01*
X175214285Y-159435714D01*
X175166666Y-159483333D01*
X175071428Y-159530952D01*
X174880952Y-159530952D01*
X174785714Y-159578571D01*
X174738095Y-159626190D01*
X174690476Y-159721428D01*
X174690476Y-159911904D01*
X174738095Y-160007142D01*
X174785714Y-160054761D01*
X174880952Y-160102380D01*
X175071428Y-160102380D01*
X175166666Y-160054761D01*
X175214285Y-160007142D01*
X175261904Y-159911904D01*
X175261904Y-159721428D01*
X175214285Y-159626190D01*
X175166666Y-159578571D01*
X175071428Y-159530952D01*
X173357142Y-132102380D02*
X173023809Y-131626190D01*
X172785714Y-132102380D02*
X172785714Y-131102380D01*
X173166666Y-131102380D01*
X173261904Y-131150000D01*
X173309523Y-131197619D01*
X173357142Y-131292857D01*
X173357142Y-131435714D01*
X173309523Y-131530952D01*
X173261904Y-131578571D01*
X173166666Y-131626190D01*
X172785714Y-131626190D01*
X173690476Y-131102380D02*
X174309523Y-131102380D01*
X173976190Y-131483333D01*
X174119047Y-131483333D01*
X174214285Y-131530952D01*
X174261904Y-131578571D01*
X174309523Y-131673809D01*
X174309523Y-131911904D01*
X174261904Y-132007142D01*
X174214285Y-132054761D01*
X174119047Y-132102380D01*
X173833333Y-132102380D01*
X173738095Y-132054761D01*
X173690476Y-132007142D01*
X174642857Y-131102380D02*
X175309523Y-131102380D01*
X174880952Y-132102380D01*
X173357142Y-128102380D02*
X173023809Y-127626190D01*
X172785714Y-128102380D02*
X172785714Y-127102380D01*
X173166666Y-127102380D01*
X173261904Y-127150000D01*
X173309523Y-127197619D01*
X173357142Y-127292857D01*
X173357142Y-127435714D01*
X173309523Y-127530952D01*
X173261904Y-127578571D01*
X173166666Y-127626190D01*
X172785714Y-127626190D01*
X173690476Y-127102380D02*
X174309523Y-127102380D01*
X173976190Y-127483333D01*
X174119047Y-127483333D01*
X174214285Y-127530952D01*
X174261904Y-127578571D01*
X174309523Y-127673809D01*
X174309523Y-127911904D01*
X174261904Y-128007142D01*
X174214285Y-128054761D01*
X174119047Y-128102380D01*
X173833333Y-128102380D01*
X173738095Y-128054761D01*
X173690476Y-128007142D01*
X175166666Y-127102380D02*
X174976190Y-127102380D01*
X174880952Y-127150000D01*
X174833333Y-127197619D01*
X174738095Y-127340476D01*
X174690476Y-127530952D01*
X174690476Y-127911904D01*
X174738095Y-128007142D01*
X174785714Y-128054761D01*
X174880952Y-128102380D01*
X175071428Y-128102380D01*
X175166666Y-128054761D01*
X175214285Y-128007142D01*
X175261904Y-127911904D01*
X175261904Y-127673809D01*
X175214285Y-127578571D01*
X175166666Y-127530952D01*
X175071428Y-127483333D01*
X174880952Y-127483333D01*
X174785714Y-127530952D01*
X174738095Y-127578571D01*
X174690476Y-127673809D01*
X178666666Y-136122380D02*
X178666666Y-136836666D01*
X178619047Y-136979523D01*
X178523809Y-137074761D01*
X178380952Y-137122380D01*
X178285714Y-137122380D01*
X179047619Y-136122380D02*
X179714285Y-136122380D01*
X179285714Y-137122380D01*
X177785714Y-164102380D02*
X177785714Y-163102380D01*
X178023809Y-163102380D01*
X178166666Y-163150000D01*
X178261904Y-163245238D01*
X178309523Y-163340476D01*
X178357142Y-163530952D01*
X178357142Y-163673809D01*
X178309523Y-163864285D01*
X178261904Y-163959523D01*
X178166666Y-164054761D01*
X178023809Y-164102380D01*
X177785714Y-164102380D01*
X178690476Y-163102380D02*
X179309523Y-163102380D01*
X178976190Y-163483333D01*
X179119047Y-163483333D01*
X179214285Y-163530952D01*
X179261904Y-163578571D01*
X179309523Y-163673809D01*
X179309523Y-163911904D01*
X179261904Y-164007142D01*
X179214285Y-164054761D01*
X179119047Y-164102380D01*
X178833333Y-164102380D01*
X178738095Y-164054761D01*
X178690476Y-164007142D01*
X179785714Y-164102380D02*
X179976190Y-164102380D01*
X180071428Y-164054761D01*
X180119047Y-164007142D01*
X180214285Y-163864285D01*
X180261904Y-163673809D01*
X180261904Y-163292857D01*
X180214285Y-163197619D01*
X180166666Y-163150000D01*
X180071428Y-163102380D01*
X179880952Y-163102380D01*
X179785714Y-163150000D01*
X179738095Y-163197619D01*
X179690476Y-163292857D01*
X179690476Y-163530952D01*
X179738095Y-163626190D01*
X179785714Y-163673809D01*
X179880952Y-163721428D01*
X180071428Y-163721428D01*
X180166666Y-163673809D01*
X180214285Y-163626190D01*
X180261904Y-163530952D01*
X177785714Y-160102380D02*
X177785714Y-159102380D01*
X178023809Y-159102380D01*
X178166666Y-159150000D01*
X178261904Y-159245238D01*
X178309523Y-159340476D01*
X178357142Y-159530952D01*
X178357142Y-159673809D01*
X178309523Y-159864285D01*
X178261904Y-159959523D01*
X178166666Y-160054761D01*
X178023809Y-160102380D01*
X177785714Y-160102380D01*
X178690476Y-159102380D02*
X179309523Y-159102380D01*
X178976190Y-159483333D01*
X179119047Y-159483333D01*
X179214285Y-159530952D01*
X179261904Y-159578571D01*
X179309523Y-159673809D01*
X179309523Y-159911904D01*
X179261904Y-160007142D01*
X179214285Y-160054761D01*
X179119047Y-160102380D01*
X178833333Y-160102380D01*
X178738095Y-160054761D01*
X178690476Y-160007142D01*
X179880952Y-159530952D02*
X179785714Y-159483333D01*
X179738095Y-159435714D01*
X179690476Y-159340476D01*
X179690476Y-159292857D01*
X179738095Y-159197619D01*
X179785714Y-159150000D01*
X179880952Y-159102380D01*
X180071428Y-159102380D01*
X180166666Y-159150000D01*
X180214285Y-159197619D01*
X180261904Y-159292857D01*
X180261904Y-159340476D01*
X180214285Y-159435714D01*
X180166666Y-159483333D01*
X180071428Y-159530952D01*
X179880952Y-159530952D01*
X179785714Y-159578571D01*
X179738095Y-159626190D01*
X179690476Y-159721428D01*
X179690476Y-159911904D01*
X179738095Y-160007142D01*
X179785714Y-160054761D01*
X179880952Y-160102380D01*
X180071428Y-160102380D01*
X180166666Y-160054761D01*
X180214285Y-160007142D01*
X180261904Y-159911904D01*
X180261904Y-159721428D01*
X180214285Y-159626190D01*
X180166666Y-159578571D01*
X180071428Y-159530952D01*
X177785714Y-132102380D02*
X177785714Y-131102380D01*
X178023809Y-131102380D01*
X178166666Y-131150000D01*
X178261904Y-131245238D01*
X178309523Y-131340476D01*
X178357142Y-131530952D01*
X178357142Y-131673809D01*
X178309523Y-131864285D01*
X178261904Y-131959523D01*
X178166666Y-132054761D01*
X178023809Y-132102380D01*
X177785714Y-132102380D01*
X178690476Y-131102380D02*
X179309523Y-131102380D01*
X178976190Y-131483333D01*
X179119047Y-131483333D01*
X179214285Y-131530952D01*
X179261904Y-131578571D01*
X179309523Y-131673809D01*
X179309523Y-131911904D01*
X179261904Y-132007142D01*
X179214285Y-132054761D01*
X179119047Y-132102380D01*
X178833333Y-132102380D01*
X178738095Y-132054761D01*
X178690476Y-132007142D01*
X179642857Y-131102380D02*
X180309523Y-131102380D01*
X179880952Y-132102380D01*
X177785714Y-128102380D02*
X177785714Y-127102380D01*
X178023809Y-127102380D01*
X178166666Y-127150000D01*
X178261904Y-127245238D01*
X178309523Y-127340476D01*
X178357142Y-127530952D01*
X178357142Y-127673809D01*
X178309523Y-127864285D01*
X178261904Y-127959523D01*
X178166666Y-128054761D01*
X178023809Y-128102380D01*
X177785714Y-128102380D01*
X178690476Y-127102380D02*
X179309523Y-127102380D01*
X178976190Y-127483333D01*
X179119047Y-127483333D01*
X179214285Y-127530952D01*
X179261904Y-127578571D01*
X179309523Y-127673809D01*
X179309523Y-127911904D01*
X179261904Y-128007142D01*
X179214285Y-128054761D01*
X179119047Y-128102380D01*
X178833333Y-128102380D01*
X178738095Y-128054761D01*
X178690476Y-128007142D01*
X180166666Y-127102380D02*
X179976190Y-127102380D01*
X179880952Y-127150000D01*
X179833333Y-127197619D01*
X179738095Y-127340476D01*
X179690476Y-127530952D01*
X179690476Y-127911904D01*
X179738095Y-128007142D01*
X179785714Y-128054761D01*
X179880952Y-128102380D01*
X180071428Y-128102380D01*
X180166666Y-128054761D01*
X180214285Y-128007142D01*
X180261904Y-127911904D01*
X180261904Y-127673809D01*
X180214285Y-127578571D01*
X180166666Y-127530952D01*
X180071428Y-127483333D01*
X179880952Y-127483333D01*
X179785714Y-127530952D01*
X179738095Y-127578571D01*
X179690476Y-127673809D01*
X179802380Y-80642857D02*
X179326190Y-80976190D01*
X179802380Y-81214285D02*
X178802380Y-81214285D01*
X178802380Y-80833333D01*
X178850000Y-80738095D01*
X178897619Y-80690476D01*
X178992857Y-80642857D01*
X179135714Y-80642857D01*
X179230952Y-80690476D01*
X179278571Y-80738095D01*
X179326190Y-80833333D01*
X179326190Y-81214285D01*
X178802380Y-80309523D02*
X178802380Y-79690476D01*
X179183333Y-80023809D01*
X179183333Y-79880952D01*
X179230952Y-79785714D01*
X179278571Y-79738095D01*
X179373809Y-79690476D01*
X179611904Y-79690476D01*
X179707142Y-79738095D01*
X179754761Y-79785714D01*
X179802380Y-79880952D01*
X179802380Y-80166666D01*
X179754761Y-80261904D01*
X179707142Y-80309523D01*
X178802380Y-78785714D02*
X178802380Y-79261904D01*
X179278571Y-79309523D01*
X179230952Y-79261904D01*
X179183333Y-79166666D01*
X179183333Y-78928571D01*
X179230952Y-78833333D01*
X179278571Y-78785714D01*
X179373809Y-78738095D01*
X179611904Y-78738095D01*
X179707142Y-78785714D01*
X179754761Y-78833333D01*
X179802380Y-78928571D01*
X179802380Y-79166666D01*
X179754761Y-79261904D01*
X179707142Y-79309523D01*
X176302380Y-80642857D02*
X175826190Y-80976190D01*
X176302380Y-81214285D02*
X175302380Y-81214285D01*
X175302380Y-80833333D01*
X175350000Y-80738095D01*
X175397619Y-80690476D01*
X175492857Y-80642857D01*
X175635714Y-80642857D01*
X175730952Y-80690476D01*
X175778571Y-80738095D01*
X175826190Y-80833333D01*
X175826190Y-81214285D01*
X175302380Y-80309523D02*
X175302380Y-79690476D01*
X175683333Y-80023809D01*
X175683333Y-79880952D01*
X175730952Y-79785714D01*
X175778571Y-79738095D01*
X175873809Y-79690476D01*
X176111904Y-79690476D01*
X176207142Y-79738095D01*
X176254761Y-79785714D01*
X176302380Y-79880952D01*
X176302380Y-80166666D01*
X176254761Y-80261904D01*
X176207142Y-80309523D01*
X175635714Y-78833333D02*
X176302380Y-78833333D01*
X175254761Y-79071428D02*
X175969047Y-79309523D01*
X175969047Y-78690476D01*
X179302380Y-119142857D02*
X178826190Y-119476190D01*
X179302380Y-119714285D02*
X178302380Y-119714285D01*
X178302380Y-119333333D01*
X178350000Y-119238095D01*
X178397619Y-119190476D01*
X178492857Y-119142857D01*
X178635714Y-119142857D01*
X178730952Y-119190476D01*
X178778571Y-119238095D01*
X178826190Y-119333333D01*
X178826190Y-119714285D01*
X178302380Y-118809523D02*
X178302380Y-118190476D01*
X178683333Y-118523809D01*
X178683333Y-118380952D01*
X178730952Y-118285714D01*
X178778571Y-118238095D01*
X178873809Y-118190476D01*
X179111904Y-118190476D01*
X179207142Y-118238095D01*
X179254761Y-118285714D01*
X179302380Y-118380952D01*
X179302380Y-118666666D01*
X179254761Y-118761904D01*
X179207142Y-118809523D01*
X178302380Y-117857142D02*
X178302380Y-117238095D01*
X178683333Y-117571428D01*
X178683333Y-117428571D01*
X178730952Y-117333333D01*
X178778571Y-117285714D01*
X178873809Y-117238095D01*
X179111904Y-117238095D01*
X179207142Y-117285714D01*
X179254761Y-117333333D01*
X179302380Y-117428571D01*
X179302380Y-117714285D01*
X179254761Y-117809523D01*
X179207142Y-117857142D01*
X175802380Y-119142857D02*
X175326190Y-119476190D01*
X175802380Y-119714285D02*
X174802380Y-119714285D01*
X174802380Y-119333333D01*
X174850000Y-119238095D01*
X174897619Y-119190476D01*
X174992857Y-119142857D01*
X175135714Y-119142857D01*
X175230952Y-119190476D01*
X175278571Y-119238095D01*
X175326190Y-119333333D01*
X175326190Y-119714285D01*
X174802380Y-118809523D02*
X174802380Y-118190476D01*
X175183333Y-118523809D01*
X175183333Y-118380952D01*
X175230952Y-118285714D01*
X175278571Y-118238095D01*
X175373809Y-118190476D01*
X175611904Y-118190476D01*
X175707142Y-118238095D01*
X175754761Y-118285714D01*
X175802380Y-118380952D01*
X175802380Y-118666666D01*
X175754761Y-118761904D01*
X175707142Y-118809523D01*
X174897619Y-117809523D02*
X174850000Y-117761904D01*
X174802380Y-117666666D01*
X174802380Y-117428571D01*
X174850000Y-117333333D01*
X174897619Y-117285714D01*
X174992857Y-117238095D01*
X175088095Y-117238095D01*
X175230952Y-117285714D01*
X175802380Y-117857142D01*
X175802380Y-117238095D01*
X188452380Y-112642857D02*
X187976190Y-112976190D01*
X188452380Y-113214285D02*
X187452380Y-113214285D01*
X187452380Y-112833333D01*
X187500000Y-112738095D01*
X187547619Y-112690476D01*
X187642857Y-112642857D01*
X187785714Y-112642857D01*
X187880952Y-112690476D01*
X187928571Y-112738095D01*
X187976190Y-112833333D01*
X187976190Y-113214285D01*
X187452380Y-112309523D02*
X187452380Y-111690476D01*
X187833333Y-112023809D01*
X187833333Y-111880952D01*
X187880952Y-111785714D01*
X187928571Y-111738095D01*
X188023809Y-111690476D01*
X188261904Y-111690476D01*
X188357142Y-111738095D01*
X188404761Y-111785714D01*
X188452380Y-111880952D01*
X188452380Y-112166666D01*
X188404761Y-112261904D01*
X188357142Y-112309523D01*
X188452380Y-110738095D02*
X188452380Y-111309523D01*
X188452380Y-111023809D02*
X187452380Y-111023809D01*
X187595238Y-111119047D01*
X187690476Y-111214285D01*
X187738095Y-111309523D01*
X188452380Y-109642857D02*
X187976190Y-109976190D01*
X188452380Y-110214285D02*
X187452380Y-110214285D01*
X187452380Y-109833333D01*
X187500000Y-109738095D01*
X187547619Y-109690476D01*
X187642857Y-109642857D01*
X187785714Y-109642857D01*
X187880952Y-109690476D01*
X187928571Y-109738095D01*
X187976190Y-109833333D01*
X187976190Y-110214285D01*
X187452380Y-109309523D02*
X187452380Y-108690476D01*
X187833333Y-109023809D01*
X187833333Y-108880952D01*
X187880952Y-108785714D01*
X187928571Y-108738095D01*
X188023809Y-108690476D01*
X188261904Y-108690476D01*
X188357142Y-108738095D01*
X188404761Y-108785714D01*
X188452380Y-108880952D01*
X188452380Y-109166666D01*
X188404761Y-109261904D01*
X188357142Y-109309523D01*
X187452380Y-108071428D02*
X187452380Y-107976190D01*
X187500000Y-107880952D01*
X187547619Y-107833333D01*
X187642857Y-107785714D01*
X187833333Y-107738095D01*
X188071428Y-107738095D01*
X188261904Y-107785714D01*
X188357142Y-107833333D01*
X188404761Y-107880952D01*
X188452380Y-107976190D01*
X188452380Y-108071428D01*
X188404761Y-108166666D01*
X188357142Y-108214285D01*
X188261904Y-108261904D01*
X188071428Y-108309523D01*
X187833333Y-108309523D01*
X187642857Y-108261904D01*
X187547619Y-108214285D01*
X187500000Y-108166666D01*
X187452380Y-108071428D01*
X182952380Y-99642857D02*
X182476190Y-99976190D01*
X182952380Y-100214285D02*
X181952380Y-100214285D01*
X181952380Y-99833333D01*
X182000000Y-99738095D01*
X182047619Y-99690476D01*
X182142857Y-99642857D01*
X182285714Y-99642857D01*
X182380952Y-99690476D01*
X182428571Y-99738095D01*
X182476190Y-99833333D01*
X182476190Y-100214285D01*
X182047619Y-99261904D02*
X182000000Y-99214285D01*
X181952380Y-99119047D01*
X181952380Y-98880952D01*
X182000000Y-98785714D01*
X182047619Y-98738095D01*
X182142857Y-98690476D01*
X182238095Y-98690476D01*
X182380952Y-98738095D01*
X182952380Y-99309523D01*
X182952380Y-98690476D01*
X181952380Y-98071428D02*
X181952380Y-97976190D01*
X182000000Y-97880952D01*
X182047619Y-97833333D01*
X182142857Y-97785714D01*
X182333333Y-97738095D01*
X182571428Y-97738095D01*
X182761904Y-97785714D01*
X182857142Y-97833333D01*
X182904761Y-97880952D01*
X182952380Y-97976190D01*
X182952380Y-98071428D01*
X182904761Y-98166666D01*
X182857142Y-98214285D01*
X182761904Y-98261904D01*
X182571428Y-98309523D01*
X182333333Y-98309523D01*
X182142857Y-98261904D01*
X182047619Y-98214285D01*
X182000000Y-98166666D01*
X181952380Y-98071428D01*
X175302380Y-99642857D02*
X174826190Y-99976190D01*
X175302380Y-100214285D02*
X174302380Y-100214285D01*
X174302380Y-99833333D01*
X174350000Y-99738095D01*
X174397619Y-99690476D01*
X174492857Y-99642857D01*
X174635714Y-99642857D01*
X174730952Y-99690476D01*
X174778571Y-99738095D01*
X174826190Y-99833333D01*
X174826190Y-100214285D01*
X175302380Y-98690476D02*
X175302380Y-99261904D01*
X175302380Y-98976190D02*
X174302380Y-98976190D01*
X174445238Y-99071428D01*
X174540476Y-99166666D01*
X174588095Y-99261904D01*
X175302380Y-98214285D02*
X175302380Y-98023809D01*
X175254761Y-97928571D01*
X175207142Y-97880952D01*
X175064285Y-97785714D01*
X174873809Y-97738095D01*
X174492857Y-97738095D01*
X174397619Y-97785714D01*
X174350000Y-97833333D01*
X174302380Y-97928571D01*
X174302380Y-98119047D01*
X174350000Y-98214285D01*
X174397619Y-98261904D01*
X174492857Y-98309523D01*
X174730952Y-98309523D01*
X174826190Y-98261904D01*
X174873809Y-98214285D01*
X174921428Y-98119047D01*
X174921428Y-97928571D01*
X174873809Y-97833333D01*
X174826190Y-97785714D01*
X174730952Y-97738095D01*
X188452380Y-86142857D02*
X187976190Y-86476190D01*
X188452380Y-86714285D02*
X187452380Y-86714285D01*
X187452380Y-86333333D01*
X187500000Y-86238095D01*
X187547619Y-86190476D01*
X187642857Y-86142857D01*
X187785714Y-86142857D01*
X187880952Y-86190476D01*
X187928571Y-86238095D01*
X187976190Y-86333333D01*
X187976190Y-86714285D01*
X188452380Y-85190476D02*
X188452380Y-85761904D01*
X188452380Y-85476190D02*
X187452380Y-85476190D01*
X187595238Y-85571428D01*
X187690476Y-85666666D01*
X187738095Y-85761904D01*
X187880952Y-84619047D02*
X187833333Y-84714285D01*
X187785714Y-84761904D01*
X187690476Y-84809523D01*
X187642857Y-84809523D01*
X187547619Y-84761904D01*
X187500000Y-84714285D01*
X187452380Y-84619047D01*
X187452380Y-84428571D01*
X187500000Y-84333333D01*
X187547619Y-84285714D01*
X187642857Y-84238095D01*
X187690476Y-84238095D01*
X187785714Y-84285714D01*
X187833333Y-84333333D01*
X187880952Y-84428571D01*
X187880952Y-84619047D01*
X187928571Y-84714285D01*
X187976190Y-84761904D01*
X188071428Y-84809523D01*
X188261904Y-84809523D01*
X188357142Y-84761904D01*
X188404761Y-84714285D01*
X188452380Y-84619047D01*
X188452380Y-84428571D01*
X188404761Y-84333333D01*
X188357142Y-84285714D01*
X188261904Y-84238095D01*
X188071428Y-84238095D01*
X187976190Y-84285714D01*
X187928571Y-84333333D01*
X187880952Y-84428571D01*
X188452380Y-89642857D02*
X187976190Y-89976190D01*
X188452380Y-90214285D02*
X187452380Y-90214285D01*
X187452380Y-89833333D01*
X187500000Y-89738095D01*
X187547619Y-89690476D01*
X187642857Y-89642857D01*
X187785714Y-89642857D01*
X187880952Y-89690476D01*
X187928571Y-89738095D01*
X187976190Y-89833333D01*
X187976190Y-90214285D01*
X188452380Y-88690476D02*
X188452380Y-89261904D01*
X188452380Y-88976190D02*
X187452380Y-88976190D01*
X187595238Y-89071428D01*
X187690476Y-89166666D01*
X187738095Y-89261904D01*
X187452380Y-88357142D02*
X187452380Y-87690476D01*
X188452380Y-88119047D01*
X170452380Y-113142857D02*
X169976190Y-113476190D01*
X170452380Y-113714285D02*
X169452380Y-113714285D01*
X169452380Y-113333333D01*
X169500000Y-113238095D01*
X169547619Y-113190476D01*
X169642857Y-113142857D01*
X169785714Y-113142857D01*
X169880952Y-113190476D01*
X169928571Y-113238095D01*
X169976190Y-113333333D01*
X169976190Y-113714285D01*
X170452380Y-112190476D02*
X170452380Y-112761904D01*
X170452380Y-112476190D02*
X169452380Y-112476190D01*
X169595238Y-112571428D01*
X169690476Y-112666666D01*
X169738095Y-112761904D01*
X169452380Y-111333333D02*
X169452380Y-111523809D01*
X169500000Y-111619047D01*
X169547619Y-111666666D01*
X169690476Y-111761904D01*
X169880952Y-111809523D01*
X170261904Y-111809523D01*
X170357142Y-111761904D01*
X170404761Y-111714285D01*
X170452380Y-111619047D01*
X170452380Y-111428571D01*
X170404761Y-111333333D01*
X170357142Y-111285714D01*
X170261904Y-111238095D01*
X170023809Y-111238095D01*
X169928571Y-111285714D01*
X169880952Y-111333333D01*
X169833333Y-111428571D01*
X169833333Y-111619047D01*
X169880952Y-111714285D01*
X169928571Y-111761904D01*
X170023809Y-111809523D01*
X170452380Y-109642857D02*
X169976190Y-109976190D01*
X170452380Y-110214285D02*
X169452380Y-110214285D01*
X169452380Y-109833333D01*
X169500000Y-109738095D01*
X169547619Y-109690476D01*
X169642857Y-109642857D01*
X169785714Y-109642857D01*
X169880952Y-109690476D01*
X169928571Y-109738095D01*
X169976190Y-109833333D01*
X169976190Y-110214285D01*
X170452380Y-108690476D02*
X170452380Y-109261904D01*
X170452380Y-108976190D02*
X169452380Y-108976190D01*
X169595238Y-109071428D01*
X169690476Y-109166666D01*
X169738095Y-109261904D01*
X169452380Y-107785714D02*
X169452380Y-108261904D01*
X169928571Y-108309523D01*
X169880952Y-108261904D01*
X169833333Y-108166666D01*
X169833333Y-107928571D01*
X169880952Y-107833333D01*
X169928571Y-107785714D01*
X170023809Y-107738095D01*
X170261904Y-107738095D01*
X170357142Y-107785714D01*
X170404761Y-107833333D01*
X170452380Y-107928571D01*
X170452380Y-108166666D01*
X170404761Y-108261904D01*
X170357142Y-108309523D01*
X170452380Y-86642857D02*
X169976190Y-86976190D01*
X170452380Y-87214285D02*
X169452380Y-87214285D01*
X169452380Y-86833333D01*
X169500000Y-86738095D01*
X169547619Y-86690476D01*
X169642857Y-86642857D01*
X169785714Y-86642857D01*
X169880952Y-86690476D01*
X169928571Y-86738095D01*
X169976190Y-86833333D01*
X169976190Y-87214285D01*
X170452380Y-85690476D02*
X170452380Y-86261904D01*
X170452380Y-85976190D02*
X169452380Y-85976190D01*
X169595238Y-86071428D01*
X169690476Y-86166666D01*
X169738095Y-86261904D01*
X169785714Y-84833333D02*
X170452380Y-84833333D01*
X169404761Y-85071428D02*
X170119047Y-85309523D01*
X170119047Y-84690476D01*
X170452380Y-89642857D02*
X169976190Y-89976190D01*
X170452380Y-90214285D02*
X169452380Y-90214285D01*
X169452380Y-89833333D01*
X169500000Y-89738095D01*
X169547619Y-89690476D01*
X169642857Y-89642857D01*
X169785714Y-89642857D01*
X169880952Y-89690476D01*
X169928571Y-89738095D01*
X169976190Y-89833333D01*
X169976190Y-90214285D01*
X170452380Y-88690476D02*
X170452380Y-89261904D01*
X170452380Y-88976190D02*
X169452380Y-88976190D01*
X169595238Y-89071428D01*
X169690476Y-89166666D01*
X169738095Y-89261904D01*
X169452380Y-88357142D02*
X169452380Y-87738095D01*
X169833333Y-88071428D01*
X169833333Y-87928571D01*
X169880952Y-87833333D01*
X169928571Y-87785714D01*
X170023809Y-87738095D01*
X170261904Y-87738095D01*
X170357142Y-87785714D01*
X170404761Y-87833333D01*
X170452380Y-87928571D01*
X170452380Y-88214285D01*
X170404761Y-88309523D01*
X170357142Y-88357142D01*
X173622380Y-110833333D02*
X174336666Y-110833333D01*
X174479523Y-110880952D01*
X174574761Y-110976190D01*
X174622380Y-111119047D01*
X174622380Y-111214285D01*
X173622380Y-109928571D02*
X173622380Y-110119047D01*
X173670000Y-110214285D01*
X173717619Y-110261904D01*
X173860476Y-110357142D01*
X174050952Y-110404761D01*
X174431904Y-110404761D01*
X174527142Y-110357142D01*
X174574761Y-110309523D01*
X174622380Y-110214285D01*
X174622380Y-110023809D01*
X174574761Y-109928571D01*
X174527142Y-109880952D01*
X174431904Y-109833333D01*
X174193809Y-109833333D01*
X174098571Y-109880952D01*
X174050952Y-109928571D01*
X174003333Y-110023809D01*
X174003333Y-110214285D01*
X174050952Y-110309523D01*
X174098571Y-110357142D01*
X174193809Y-110404761D01*
X183452380Y-81214285D02*
X182452380Y-81214285D01*
X182452380Y-80976190D01*
X182500000Y-80833333D01*
X182595238Y-80738095D01*
X182690476Y-80690476D01*
X182880952Y-80642857D01*
X183023809Y-80642857D01*
X183214285Y-80690476D01*
X183309523Y-80738095D01*
X183404761Y-80833333D01*
X183452380Y-80976190D01*
X183452380Y-81214285D01*
X182452380Y-80309523D02*
X182452380Y-79690476D01*
X182833333Y-80023809D01*
X182833333Y-79880952D01*
X182880952Y-79785714D01*
X182928571Y-79738095D01*
X183023809Y-79690476D01*
X183261904Y-79690476D01*
X183357142Y-79738095D01*
X183404761Y-79785714D01*
X183452380Y-79880952D01*
X183452380Y-80166666D01*
X183404761Y-80261904D01*
X183357142Y-80309523D01*
X182452380Y-78785714D02*
X182452380Y-79261904D01*
X182928571Y-79309523D01*
X182880952Y-79261904D01*
X182833333Y-79166666D01*
X182833333Y-78928571D01*
X182880952Y-78833333D01*
X182928571Y-78785714D01*
X183023809Y-78738095D01*
X183261904Y-78738095D01*
X183357142Y-78785714D01*
X183404761Y-78833333D01*
X183452380Y-78928571D01*
X183452380Y-79166666D01*
X183404761Y-79261904D01*
X183357142Y-79309523D01*
X172452380Y-81214285D02*
X171452380Y-81214285D01*
X171452380Y-80976190D01*
X171500000Y-80833333D01*
X171595238Y-80738095D01*
X171690476Y-80690476D01*
X171880952Y-80642857D01*
X172023809Y-80642857D01*
X172214285Y-80690476D01*
X172309523Y-80738095D01*
X172404761Y-80833333D01*
X172452380Y-80976190D01*
X172452380Y-81214285D01*
X171452380Y-80309523D02*
X171452380Y-79690476D01*
X171833333Y-80023809D01*
X171833333Y-79880952D01*
X171880952Y-79785714D01*
X171928571Y-79738095D01*
X172023809Y-79690476D01*
X172261904Y-79690476D01*
X172357142Y-79738095D01*
X172404761Y-79785714D01*
X172452380Y-79880952D01*
X172452380Y-80166666D01*
X172404761Y-80261904D01*
X172357142Y-80309523D01*
X171785714Y-78833333D02*
X172452380Y-78833333D01*
X171404761Y-79071428D02*
X172119047Y-79309523D01*
X172119047Y-78690476D01*
X182952380Y-119714285D02*
X181952380Y-119714285D01*
X181952380Y-119476190D01*
X182000000Y-119333333D01*
X182095238Y-119238095D01*
X182190476Y-119190476D01*
X182380952Y-119142857D01*
X182523809Y-119142857D01*
X182714285Y-119190476D01*
X182809523Y-119238095D01*
X182904761Y-119333333D01*
X182952380Y-119476190D01*
X182952380Y-119714285D01*
X181952380Y-118809523D02*
X181952380Y-118190476D01*
X182333333Y-118523809D01*
X182333333Y-118380952D01*
X182380952Y-118285714D01*
X182428571Y-118238095D01*
X182523809Y-118190476D01*
X182761904Y-118190476D01*
X182857142Y-118238095D01*
X182904761Y-118285714D01*
X182952380Y-118380952D01*
X182952380Y-118666666D01*
X182904761Y-118761904D01*
X182857142Y-118809523D01*
X181952380Y-117857142D02*
X181952380Y-117238095D01*
X182333333Y-117571428D01*
X182333333Y-117428571D01*
X182380952Y-117333333D01*
X182428571Y-117285714D01*
X182523809Y-117238095D01*
X182761904Y-117238095D01*
X182857142Y-117285714D01*
X182904761Y-117333333D01*
X182952380Y-117428571D01*
X182952380Y-117714285D01*
X182904761Y-117809523D01*
X182857142Y-117857142D01*
X171952380Y-119714285D02*
X170952380Y-119714285D01*
X170952380Y-119476190D01*
X171000000Y-119333333D01*
X171095238Y-119238095D01*
X171190476Y-119190476D01*
X171380952Y-119142857D01*
X171523809Y-119142857D01*
X171714285Y-119190476D01*
X171809523Y-119238095D01*
X171904761Y-119333333D01*
X171952380Y-119476190D01*
X171952380Y-119714285D01*
X170952380Y-118809523D02*
X170952380Y-118190476D01*
X171333333Y-118523809D01*
X171333333Y-118380952D01*
X171380952Y-118285714D01*
X171428571Y-118238095D01*
X171523809Y-118190476D01*
X171761904Y-118190476D01*
X171857142Y-118238095D01*
X171904761Y-118285714D01*
X171952380Y-118380952D01*
X171952380Y-118666666D01*
X171904761Y-118761904D01*
X171857142Y-118809523D01*
X171047619Y-117809523D02*
X171000000Y-117761904D01*
X170952380Y-117666666D01*
X170952380Y-117428571D01*
X171000000Y-117333333D01*
X171047619Y-117285714D01*
X171142857Y-117238095D01*
X171238095Y-117238095D01*
X171380952Y-117285714D01*
X171952380Y-117857142D01*
X171952380Y-117238095D01*
X189785714Y-116952380D02*
X189785714Y-115952380D01*
X190023809Y-115952380D01*
X190166666Y-116000000D01*
X190261904Y-116095238D01*
X190309523Y-116190476D01*
X190357142Y-116380952D01*
X190357142Y-116523809D01*
X190309523Y-116714285D01*
X190261904Y-116809523D01*
X190166666Y-116904761D01*
X190023809Y-116952380D01*
X189785714Y-116952380D01*
X190690476Y-115952380D02*
X191309523Y-115952380D01*
X190976190Y-116333333D01*
X191119047Y-116333333D01*
X191214285Y-116380952D01*
X191261904Y-116428571D01*
X191309523Y-116523809D01*
X191309523Y-116761904D01*
X191261904Y-116857142D01*
X191214285Y-116904761D01*
X191119047Y-116952380D01*
X190833333Y-116952380D01*
X190738095Y-116904761D01*
X190690476Y-116857142D01*
X192261904Y-116952380D02*
X191690476Y-116952380D01*
X191976190Y-116952380D02*
X191976190Y-115952380D01*
X191880952Y-116095238D01*
X191785714Y-116190476D01*
X191690476Y-116238095D01*
X189785714Y-105452380D02*
X189785714Y-104452380D01*
X190023809Y-104452380D01*
X190166666Y-104500000D01*
X190261904Y-104595238D01*
X190309523Y-104690476D01*
X190357142Y-104880952D01*
X190357142Y-105023809D01*
X190309523Y-105214285D01*
X190261904Y-105309523D01*
X190166666Y-105404761D01*
X190023809Y-105452380D01*
X189785714Y-105452380D01*
X190690476Y-104452380D02*
X191309523Y-104452380D01*
X190976190Y-104833333D01*
X191119047Y-104833333D01*
X191214285Y-104880952D01*
X191261904Y-104928571D01*
X191309523Y-105023809D01*
X191309523Y-105261904D01*
X191261904Y-105357142D01*
X191214285Y-105404761D01*
X191119047Y-105452380D01*
X190833333Y-105452380D01*
X190738095Y-105404761D01*
X190690476Y-105357142D01*
X191928571Y-104452380D02*
X192023809Y-104452380D01*
X192119047Y-104500000D01*
X192166666Y-104547619D01*
X192214285Y-104642857D01*
X192261904Y-104833333D01*
X192261904Y-105071428D01*
X192214285Y-105261904D01*
X192166666Y-105357142D01*
X192119047Y-105404761D01*
X192023809Y-105452380D01*
X191928571Y-105452380D01*
X191833333Y-105404761D01*
X191785714Y-105357142D01*
X191738095Y-105261904D01*
X191690476Y-105071428D01*
X191690476Y-104833333D01*
X191738095Y-104642857D01*
X191785714Y-104547619D01*
X191833333Y-104500000D01*
X191928571Y-104452380D01*
X187602380Y-100214285D02*
X186602380Y-100214285D01*
X186602380Y-99976190D01*
X186650000Y-99833333D01*
X186745238Y-99738095D01*
X186840476Y-99690476D01*
X187030952Y-99642857D01*
X187173809Y-99642857D01*
X187364285Y-99690476D01*
X187459523Y-99738095D01*
X187554761Y-99833333D01*
X187602380Y-99976190D01*
X187602380Y-100214285D01*
X186697619Y-99261904D02*
X186650000Y-99214285D01*
X186602380Y-99119047D01*
X186602380Y-98880952D01*
X186650000Y-98785714D01*
X186697619Y-98738095D01*
X186792857Y-98690476D01*
X186888095Y-98690476D01*
X187030952Y-98738095D01*
X187602380Y-99309523D01*
X187602380Y-98690476D01*
X186602380Y-98071428D02*
X186602380Y-97976190D01*
X186650000Y-97880952D01*
X186697619Y-97833333D01*
X186792857Y-97785714D01*
X186983333Y-97738095D01*
X187221428Y-97738095D01*
X187411904Y-97785714D01*
X187507142Y-97833333D01*
X187554761Y-97880952D01*
X187602380Y-97976190D01*
X187602380Y-98071428D01*
X187554761Y-98166666D01*
X187507142Y-98214285D01*
X187411904Y-98261904D01*
X187221428Y-98309523D01*
X186983333Y-98309523D01*
X186792857Y-98261904D01*
X186697619Y-98214285D01*
X186650000Y-98166666D01*
X186602380Y-98071428D01*
X171452380Y-100214285D02*
X170452380Y-100214285D01*
X170452380Y-99976190D01*
X170500000Y-99833333D01*
X170595238Y-99738095D01*
X170690476Y-99690476D01*
X170880952Y-99642857D01*
X171023809Y-99642857D01*
X171214285Y-99690476D01*
X171309523Y-99738095D01*
X171404761Y-99833333D01*
X171452380Y-99976190D01*
X171452380Y-100214285D01*
X171452380Y-98690476D02*
X171452380Y-99261904D01*
X171452380Y-98976190D02*
X170452380Y-98976190D01*
X170595238Y-99071428D01*
X170690476Y-99166666D01*
X170738095Y-99261904D01*
X171452380Y-98214285D02*
X171452380Y-98023809D01*
X171404761Y-97928571D01*
X171357142Y-97880952D01*
X171214285Y-97785714D01*
X171023809Y-97738095D01*
X170642857Y-97738095D01*
X170547619Y-97785714D01*
X170500000Y-97833333D01*
X170452380Y-97928571D01*
X170452380Y-98119047D01*
X170500000Y-98214285D01*
X170547619Y-98261904D01*
X170642857Y-98309523D01*
X170880952Y-98309523D01*
X170976190Y-98261904D01*
X171023809Y-98214285D01*
X171071428Y-98119047D01*
X171071428Y-97928571D01*
X171023809Y-97833333D01*
X170976190Y-97785714D01*
X170880952Y-97738095D01*
X189785714Y-82452380D02*
X189785714Y-81452380D01*
X190023809Y-81452380D01*
X190166666Y-81500000D01*
X190261904Y-81595238D01*
X190309523Y-81690476D01*
X190357142Y-81880952D01*
X190357142Y-82023809D01*
X190309523Y-82214285D01*
X190261904Y-82309523D01*
X190166666Y-82404761D01*
X190023809Y-82452380D01*
X189785714Y-82452380D01*
X191309523Y-82452380D02*
X190738095Y-82452380D01*
X191023809Y-82452380D02*
X191023809Y-81452380D01*
X190928571Y-81595238D01*
X190833333Y-81690476D01*
X190738095Y-81738095D01*
X191880952Y-81880952D02*
X191785714Y-81833333D01*
X191738095Y-81785714D01*
X191690476Y-81690476D01*
X191690476Y-81642857D01*
X191738095Y-81547619D01*
X191785714Y-81500000D01*
X191880952Y-81452380D01*
X192071428Y-81452380D01*
X192166666Y-81500000D01*
X192214285Y-81547619D01*
X192261904Y-81642857D01*
X192261904Y-81690476D01*
X192214285Y-81785714D01*
X192166666Y-81833333D01*
X192071428Y-81880952D01*
X191880952Y-81880952D01*
X191785714Y-81928571D01*
X191738095Y-81976190D01*
X191690476Y-82071428D01*
X191690476Y-82261904D01*
X191738095Y-82357142D01*
X191785714Y-82404761D01*
X191880952Y-82452380D01*
X192071428Y-82452380D01*
X192166666Y-82404761D01*
X192214285Y-82357142D01*
X192261904Y-82261904D01*
X192261904Y-82071428D01*
X192214285Y-81976190D01*
X192166666Y-81928571D01*
X192071428Y-81880952D01*
X189785714Y-93452380D02*
X189785714Y-92452380D01*
X190023809Y-92452380D01*
X190166666Y-92500000D01*
X190261904Y-92595238D01*
X190309523Y-92690476D01*
X190357142Y-92880952D01*
X190357142Y-93023809D01*
X190309523Y-93214285D01*
X190261904Y-93309523D01*
X190166666Y-93404761D01*
X190023809Y-93452380D01*
X189785714Y-93452380D01*
X191309523Y-93452380D02*
X190738095Y-93452380D01*
X191023809Y-93452380D02*
X191023809Y-92452380D01*
X190928571Y-92595238D01*
X190833333Y-92690476D01*
X190738095Y-92738095D01*
X191642857Y-92452380D02*
X192309523Y-92452380D01*
X191880952Y-93452380D01*
X165785714Y-116952380D02*
X165785714Y-115952380D01*
X166023809Y-115952380D01*
X166166666Y-116000000D01*
X166261904Y-116095238D01*
X166309523Y-116190476D01*
X166357142Y-116380952D01*
X166357142Y-116523809D01*
X166309523Y-116714285D01*
X166261904Y-116809523D01*
X166166666Y-116904761D01*
X166023809Y-116952380D01*
X165785714Y-116952380D01*
X167309523Y-116952380D02*
X166738095Y-116952380D01*
X167023809Y-116952380D02*
X167023809Y-115952380D01*
X166928571Y-116095238D01*
X166833333Y-116190476D01*
X166738095Y-116238095D01*
X168166666Y-115952380D02*
X167976190Y-115952380D01*
X167880952Y-116000000D01*
X167833333Y-116047619D01*
X167738095Y-116190476D01*
X167690476Y-116380952D01*
X167690476Y-116761904D01*
X167738095Y-116857142D01*
X167785714Y-116904761D01*
X167880952Y-116952380D01*
X168071428Y-116952380D01*
X168166666Y-116904761D01*
X168214285Y-116857142D01*
X168261904Y-116761904D01*
X168261904Y-116523809D01*
X168214285Y-116428571D01*
X168166666Y-116380952D01*
X168071428Y-116333333D01*
X167880952Y-116333333D01*
X167785714Y-116380952D01*
X167738095Y-116428571D01*
X167690476Y-116523809D01*
X165785714Y-105452380D02*
X165785714Y-104452380D01*
X166023809Y-104452380D01*
X166166666Y-104500000D01*
X166261904Y-104595238D01*
X166309523Y-104690476D01*
X166357142Y-104880952D01*
X166357142Y-105023809D01*
X166309523Y-105214285D01*
X166261904Y-105309523D01*
X166166666Y-105404761D01*
X166023809Y-105452380D01*
X165785714Y-105452380D01*
X167309523Y-105452380D02*
X166738095Y-105452380D01*
X167023809Y-105452380D02*
X167023809Y-104452380D01*
X166928571Y-104595238D01*
X166833333Y-104690476D01*
X166738095Y-104738095D01*
X168214285Y-104452380D02*
X167738095Y-104452380D01*
X167690476Y-104928571D01*
X167738095Y-104880952D01*
X167833333Y-104833333D01*
X168071428Y-104833333D01*
X168166666Y-104880952D01*
X168214285Y-104928571D01*
X168261904Y-105023809D01*
X168261904Y-105261904D01*
X168214285Y-105357142D01*
X168166666Y-105404761D01*
X168071428Y-105452380D01*
X167833333Y-105452380D01*
X167738095Y-105404761D01*
X167690476Y-105357142D01*
X165785714Y-81952380D02*
X165785714Y-80952380D01*
X166023809Y-80952380D01*
X166166666Y-81000000D01*
X166261904Y-81095238D01*
X166309523Y-81190476D01*
X166357142Y-81380952D01*
X166357142Y-81523809D01*
X166309523Y-81714285D01*
X166261904Y-81809523D01*
X166166666Y-81904761D01*
X166023809Y-81952380D01*
X165785714Y-81952380D01*
X167309523Y-81952380D02*
X166738095Y-81952380D01*
X167023809Y-81952380D02*
X167023809Y-80952380D01*
X166928571Y-81095238D01*
X166833333Y-81190476D01*
X166738095Y-81238095D01*
X168166666Y-81285714D02*
X168166666Y-81952380D01*
X167928571Y-80904761D02*
X167690476Y-81619047D01*
X168309523Y-81619047D01*
X165785714Y-93452380D02*
X165785714Y-92452380D01*
X166023809Y-92452380D01*
X166166666Y-92500000D01*
X166261904Y-92595238D01*
X166309523Y-92690476D01*
X166357142Y-92880952D01*
X166357142Y-93023809D01*
X166309523Y-93214285D01*
X166261904Y-93309523D01*
X166166666Y-93404761D01*
X166023809Y-93452380D01*
X165785714Y-93452380D01*
X167309523Y-93452380D02*
X166738095Y-93452380D01*
X167023809Y-93452380D02*
X167023809Y-92452380D01*
X166928571Y-92595238D01*
X166833333Y-92690476D01*
X166738095Y-92738095D01*
X167642857Y-92452380D02*
X168261904Y-92452380D01*
X167928571Y-92833333D01*
X168071428Y-92833333D01*
X168166666Y-92880952D01*
X168214285Y-92928571D01*
X168261904Y-93023809D01*
X168261904Y-93261904D01*
X168214285Y-93357142D01*
X168166666Y-93404761D01*
X168071428Y-93452380D01*
X167785714Y-93452380D01*
X167690476Y-93404761D01*
X167642857Y-93357142D01*
X135238095Y-133552380D02*
X135238095Y-134361904D01*
X135285714Y-134457142D01*
X135333333Y-134504761D01*
X135428571Y-134552380D01*
X135619047Y-134552380D01*
X135714285Y-134504761D01*
X135761904Y-134457142D01*
X135809523Y-134361904D01*
X135809523Y-133552380D01*
X136809523Y-134552380D02*
X136238095Y-134552380D01*
X136523809Y-134552380D02*
X136523809Y-133552380D01*
X136428571Y-133695238D01*
X136333333Y-133790476D01*
X136238095Y-133838095D01*
X141802380Y-83642857D02*
X141326190Y-83976190D01*
X141802380Y-84214285D02*
X140802380Y-84214285D01*
X140802380Y-83833333D01*
X140850000Y-83738095D01*
X140897619Y-83690476D01*
X140992857Y-83642857D01*
X141135714Y-83642857D01*
X141230952Y-83690476D01*
X141278571Y-83738095D01*
X141326190Y-83833333D01*
X141326190Y-84214285D01*
X140897619Y-83261904D02*
X140850000Y-83214285D01*
X140802380Y-83119047D01*
X140802380Y-82880952D01*
X140850000Y-82785714D01*
X140897619Y-82738095D01*
X140992857Y-82690476D01*
X141088095Y-82690476D01*
X141230952Y-82738095D01*
X141802380Y-83309523D01*
X141802380Y-82690476D01*
X141802380Y-82214285D02*
X141802380Y-82023809D01*
X141754761Y-81928571D01*
X141707142Y-81880952D01*
X141564285Y-81785714D01*
X141373809Y-81738095D01*
X140992857Y-81738095D01*
X140897619Y-81785714D01*
X140850000Y-81833333D01*
X140802380Y-81928571D01*
X140802380Y-82119047D01*
X140850000Y-82214285D01*
X140897619Y-82261904D01*
X140992857Y-82309523D01*
X141230952Y-82309523D01*
X141326190Y-82261904D01*
X141373809Y-82214285D01*
X141421428Y-82119047D01*
X141421428Y-81928571D01*
X141373809Y-81833333D01*
X141326190Y-81785714D01*
X141230952Y-81738095D01*
X133802380Y-83642857D02*
X133326190Y-83976190D01*
X133802380Y-84214285D02*
X132802380Y-84214285D01*
X132802380Y-83833333D01*
X132850000Y-83738095D01*
X132897619Y-83690476D01*
X132992857Y-83642857D01*
X133135714Y-83642857D01*
X133230952Y-83690476D01*
X133278571Y-83738095D01*
X133326190Y-83833333D01*
X133326190Y-84214285D01*
X132897619Y-83261904D02*
X132850000Y-83214285D01*
X132802380Y-83119047D01*
X132802380Y-82880952D01*
X132850000Y-82785714D01*
X132897619Y-82738095D01*
X132992857Y-82690476D01*
X133088095Y-82690476D01*
X133230952Y-82738095D01*
X133802380Y-83309523D01*
X133802380Y-82690476D01*
X133230952Y-82119047D02*
X133183333Y-82214285D01*
X133135714Y-82261904D01*
X133040476Y-82309523D01*
X132992857Y-82309523D01*
X132897619Y-82261904D01*
X132850000Y-82214285D01*
X132802380Y-82119047D01*
X132802380Y-81928571D01*
X132850000Y-81833333D01*
X132897619Y-81785714D01*
X132992857Y-81738095D01*
X133040476Y-81738095D01*
X133135714Y-81785714D01*
X133183333Y-81833333D01*
X133230952Y-81928571D01*
X133230952Y-82119047D01*
X133278571Y-82214285D01*
X133326190Y-82261904D01*
X133421428Y-82309523D01*
X133611904Y-82309523D01*
X133707142Y-82261904D01*
X133754761Y-82214285D01*
X133802380Y-82119047D01*
X133802380Y-81928571D01*
X133754761Y-81833333D01*
X133707142Y-81785714D01*
X133611904Y-81738095D01*
X133421428Y-81738095D01*
X133326190Y-81785714D01*
X133278571Y-81833333D01*
X133230952Y-81928571D01*
X124802380Y-83642857D02*
X124326190Y-83976190D01*
X124802380Y-84214285D02*
X123802380Y-84214285D01*
X123802380Y-83833333D01*
X123850000Y-83738095D01*
X123897619Y-83690476D01*
X123992857Y-83642857D01*
X124135714Y-83642857D01*
X124230952Y-83690476D01*
X124278571Y-83738095D01*
X124326190Y-83833333D01*
X124326190Y-84214285D01*
X123897619Y-83261904D02*
X123850000Y-83214285D01*
X123802380Y-83119047D01*
X123802380Y-82880952D01*
X123850000Y-82785714D01*
X123897619Y-82738095D01*
X123992857Y-82690476D01*
X124088095Y-82690476D01*
X124230952Y-82738095D01*
X124802380Y-83309523D01*
X124802380Y-82690476D01*
X123802380Y-82357142D02*
X123802380Y-81690476D01*
X124802380Y-82119047D01*
X152102380Y-159642857D02*
X151626190Y-159976190D01*
X152102380Y-160214285D02*
X151102380Y-160214285D01*
X151102380Y-159833333D01*
X151150000Y-159738095D01*
X151197619Y-159690476D01*
X151292857Y-159642857D01*
X151435714Y-159642857D01*
X151530952Y-159690476D01*
X151578571Y-159738095D01*
X151626190Y-159833333D01*
X151626190Y-160214285D01*
X151197619Y-159261904D02*
X151150000Y-159214285D01*
X151102380Y-159119047D01*
X151102380Y-158880952D01*
X151150000Y-158785714D01*
X151197619Y-158738095D01*
X151292857Y-158690476D01*
X151388095Y-158690476D01*
X151530952Y-158738095D01*
X152102380Y-159309523D01*
X152102380Y-158690476D01*
X151102380Y-157833333D02*
X151102380Y-158023809D01*
X151150000Y-158119047D01*
X151197619Y-158166666D01*
X151340476Y-158261904D01*
X151530952Y-158309523D01*
X151911904Y-158309523D01*
X152007142Y-158261904D01*
X152054761Y-158214285D01*
X152102380Y-158119047D01*
X152102380Y-157928571D01*
X152054761Y-157833333D01*
X152007142Y-157785714D01*
X151911904Y-157738095D01*
X151673809Y-157738095D01*
X151578571Y-157785714D01*
X151530952Y-157833333D01*
X151483333Y-157928571D01*
X151483333Y-158119047D01*
X151530952Y-158214285D01*
X151578571Y-158261904D01*
X151673809Y-158309523D01*
X144102380Y-159642857D02*
X143626190Y-159976190D01*
X144102380Y-160214285D02*
X143102380Y-160214285D01*
X143102380Y-159833333D01*
X143150000Y-159738095D01*
X143197619Y-159690476D01*
X143292857Y-159642857D01*
X143435714Y-159642857D01*
X143530952Y-159690476D01*
X143578571Y-159738095D01*
X143626190Y-159833333D01*
X143626190Y-160214285D01*
X143197619Y-159261904D02*
X143150000Y-159214285D01*
X143102380Y-159119047D01*
X143102380Y-158880952D01*
X143150000Y-158785714D01*
X143197619Y-158738095D01*
X143292857Y-158690476D01*
X143388095Y-158690476D01*
X143530952Y-158738095D01*
X144102380Y-159309523D01*
X144102380Y-158690476D01*
X143102380Y-157785714D02*
X143102380Y-158261904D01*
X143578571Y-158309523D01*
X143530952Y-158261904D01*
X143483333Y-158166666D01*
X143483333Y-157928571D01*
X143530952Y-157833333D01*
X143578571Y-157785714D01*
X143673809Y-157738095D01*
X143911904Y-157738095D01*
X144007142Y-157785714D01*
X144054761Y-157833333D01*
X144102380Y-157928571D01*
X144102380Y-158166666D01*
X144054761Y-158261904D01*
X144007142Y-158309523D01*
X137102380Y-159642857D02*
X136626190Y-159976190D01*
X137102380Y-160214285D02*
X136102380Y-160214285D01*
X136102380Y-159833333D01*
X136150000Y-159738095D01*
X136197619Y-159690476D01*
X136292857Y-159642857D01*
X136435714Y-159642857D01*
X136530952Y-159690476D01*
X136578571Y-159738095D01*
X136626190Y-159833333D01*
X136626190Y-160214285D01*
X136197619Y-159261904D02*
X136150000Y-159214285D01*
X136102380Y-159119047D01*
X136102380Y-158880952D01*
X136150000Y-158785714D01*
X136197619Y-158738095D01*
X136292857Y-158690476D01*
X136388095Y-158690476D01*
X136530952Y-158738095D01*
X137102380Y-159309523D01*
X137102380Y-158690476D01*
X136435714Y-157833333D02*
X137102380Y-157833333D01*
X136054761Y-158071428D02*
X136769047Y-158309523D01*
X136769047Y-157690476D01*
X155357142Y-127802380D02*
X155023809Y-127326190D01*
X154785714Y-127802380D02*
X154785714Y-126802380D01*
X155166666Y-126802380D01*
X155261904Y-126850000D01*
X155309523Y-126897619D01*
X155357142Y-126992857D01*
X155357142Y-127135714D01*
X155309523Y-127230952D01*
X155261904Y-127278571D01*
X155166666Y-127326190D01*
X154785714Y-127326190D01*
X155738095Y-126897619D02*
X155785714Y-126850000D01*
X155880952Y-126802380D01*
X156119047Y-126802380D01*
X156214285Y-126850000D01*
X156261904Y-126897619D01*
X156309523Y-126992857D01*
X156309523Y-127088095D01*
X156261904Y-127230952D01*
X155690476Y-127802380D01*
X156309523Y-127802380D01*
X156642857Y-126802380D02*
X157261904Y-126802380D01*
X156928571Y-127183333D01*
X157071428Y-127183333D01*
X157166666Y-127230952D01*
X157214285Y-127278571D01*
X157261904Y-127373809D01*
X157261904Y-127611904D01*
X157214285Y-127707142D01*
X157166666Y-127754761D01*
X157071428Y-127802380D01*
X156785714Y-127802380D01*
X156690476Y-127754761D01*
X156642857Y-127707142D01*
X155357142Y-135802380D02*
X155023809Y-135326190D01*
X154785714Y-135802380D02*
X154785714Y-134802380D01*
X155166666Y-134802380D01*
X155261904Y-134850000D01*
X155309523Y-134897619D01*
X155357142Y-134992857D01*
X155357142Y-135135714D01*
X155309523Y-135230952D01*
X155261904Y-135278571D01*
X155166666Y-135326190D01*
X154785714Y-135326190D01*
X155738095Y-134897619D02*
X155785714Y-134850000D01*
X155880952Y-134802380D01*
X156119047Y-134802380D01*
X156214285Y-134850000D01*
X156261904Y-134897619D01*
X156309523Y-134992857D01*
X156309523Y-135088095D01*
X156261904Y-135230952D01*
X155690476Y-135802380D01*
X156309523Y-135802380D01*
X156690476Y-134897619D02*
X156738095Y-134850000D01*
X156833333Y-134802380D01*
X157071428Y-134802380D01*
X157166666Y-134850000D01*
X157214285Y-134897619D01*
X157261904Y-134992857D01*
X157261904Y-135088095D01*
X157214285Y-135230952D01*
X156642857Y-135802380D01*
X157261904Y-135802380D01*
X155357142Y-143802380D02*
X155023809Y-143326190D01*
X154785714Y-143802380D02*
X154785714Y-142802380D01*
X155166666Y-142802380D01*
X155261904Y-142850000D01*
X155309523Y-142897619D01*
X155357142Y-142992857D01*
X155357142Y-143135714D01*
X155309523Y-143230952D01*
X155261904Y-143278571D01*
X155166666Y-143326190D01*
X154785714Y-143326190D01*
X155738095Y-142897619D02*
X155785714Y-142850000D01*
X155880952Y-142802380D01*
X156119047Y-142802380D01*
X156214285Y-142850000D01*
X156261904Y-142897619D01*
X156309523Y-142992857D01*
X156309523Y-143088095D01*
X156261904Y-143230952D01*
X155690476Y-143802380D01*
X156309523Y-143802380D01*
X157261904Y-143802380D02*
X156690476Y-143802380D01*
X156976190Y-143802380D02*
X156976190Y-142802380D01*
X156880952Y-142945238D01*
X156785714Y-143040476D01*
X156690476Y-143088095D01*
X133102380Y-126617857D02*
X132626190Y-126951190D01*
X133102380Y-127189285D02*
X132102380Y-127189285D01*
X132102380Y-126808333D01*
X132150000Y-126713095D01*
X132197619Y-126665476D01*
X132292857Y-126617857D01*
X132435714Y-126617857D01*
X132530952Y-126665476D01*
X132578571Y-126713095D01*
X132626190Y-126808333D01*
X132626190Y-127189285D01*
X133102380Y-125665476D02*
X133102380Y-126236904D01*
X133102380Y-125951190D02*
X132102380Y-125951190D01*
X132245238Y-126046428D01*
X132340476Y-126141666D01*
X132388095Y-126236904D01*
X132197619Y-125284523D02*
X132150000Y-125236904D01*
X132102380Y-125141666D01*
X132102380Y-124903571D01*
X132150000Y-124808333D01*
X132197619Y-124760714D01*
X132292857Y-124713095D01*
X132388095Y-124713095D01*
X132530952Y-124760714D01*
X133102380Y-125332142D01*
X133102380Y-124713095D01*
X141102380Y-126642857D02*
X140626190Y-126976190D01*
X141102380Y-127214285D02*
X140102380Y-127214285D01*
X140102380Y-126833333D01*
X140150000Y-126738095D01*
X140197619Y-126690476D01*
X140292857Y-126642857D01*
X140435714Y-126642857D01*
X140530952Y-126690476D01*
X140578571Y-126738095D01*
X140626190Y-126833333D01*
X140626190Y-127214285D01*
X141102380Y-125690476D02*
X141102380Y-126261904D01*
X141102380Y-125976190D02*
X140102380Y-125976190D01*
X140245238Y-126071428D01*
X140340476Y-126166666D01*
X140388095Y-126261904D01*
X141102380Y-124738095D02*
X141102380Y-125309523D01*
X141102380Y-125023809D02*
X140102380Y-125023809D01*
X140245238Y-125119047D01*
X140340476Y-125214285D01*
X140388095Y-125309523D01*
X148102380Y-126642857D02*
X147626190Y-126976190D01*
X148102380Y-127214285D02*
X147102380Y-127214285D01*
X147102380Y-126833333D01*
X147150000Y-126738095D01*
X147197619Y-126690476D01*
X147292857Y-126642857D01*
X147435714Y-126642857D01*
X147530952Y-126690476D01*
X147578571Y-126738095D01*
X147626190Y-126833333D01*
X147626190Y-127214285D01*
X148102380Y-125690476D02*
X148102380Y-126261904D01*
X148102380Y-125976190D02*
X147102380Y-125976190D01*
X147245238Y-126071428D01*
X147340476Y-126166666D01*
X147388095Y-126261904D01*
X147102380Y-125071428D02*
X147102380Y-124976190D01*
X147150000Y-124880952D01*
X147197619Y-124833333D01*
X147292857Y-124785714D01*
X147483333Y-124738095D01*
X147721428Y-124738095D01*
X147911904Y-124785714D01*
X148007142Y-124833333D01*
X148054761Y-124880952D01*
X148102380Y-124976190D01*
X148102380Y-125071428D01*
X148054761Y-125166666D01*
X148007142Y-125214285D01*
X147911904Y-125261904D01*
X147721428Y-125309523D01*
X147483333Y-125309523D01*
X147292857Y-125261904D01*
X147197619Y-125214285D01*
X147150000Y-125166666D01*
X147102380Y-125071428D01*
X155833333Y-103802380D02*
X155500000Y-103326190D01*
X155261904Y-103802380D02*
X155261904Y-102802380D01*
X155642857Y-102802380D01*
X155738095Y-102850000D01*
X155785714Y-102897619D01*
X155833333Y-102992857D01*
X155833333Y-103135714D01*
X155785714Y-103230952D01*
X155738095Y-103278571D01*
X155642857Y-103326190D01*
X155261904Y-103326190D01*
X156309523Y-103802380D02*
X156500000Y-103802380D01*
X156595238Y-103754761D01*
X156642857Y-103707142D01*
X156738095Y-103564285D01*
X156785714Y-103373809D01*
X156785714Y-102992857D01*
X156738095Y-102897619D01*
X156690476Y-102850000D01*
X156595238Y-102802380D01*
X156404761Y-102802380D01*
X156309523Y-102850000D01*
X156261904Y-102897619D01*
X156214285Y-102992857D01*
X156214285Y-103230952D01*
X156261904Y-103326190D01*
X156309523Y-103373809D01*
X156404761Y-103421428D01*
X156595238Y-103421428D01*
X156690476Y-103373809D01*
X156738095Y-103326190D01*
X156785714Y-103230952D01*
X155833333Y-95802380D02*
X155500000Y-95326190D01*
X155261904Y-95802380D02*
X155261904Y-94802380D01*
X155642857Y-94802380D01*
X155738095Y-94850000D01*
X155785714Y-94897619D01*
X155833333Y-94992857D01*
X155833333Y-95135714D01*
X155785714Y-95230952D01*
X155738095Y-95278571D01*
X155642857Y-95326190D01*
X155261904Y-95326190D01*
X156404761Y-95230952D02*
X156309523Y-95183333D01*
X156261904Y-95135714D01*
X156214285Y-95040476D01*
X156214285Y-94992857D01*
X156261904Y-94897619D01*
X156309523Y-94850000D01*
X156404761Y-94802380D01*
X156595238Y-94802380D01*
X156690476Y-94850000D01*
X156738095Y-94897619D01*
X156785714Y-94992857D01*
X156785714Y-95040476D01*
X156738095Y-95135714D01*
X156690476Y-95183333D01*
X156595238Y-95230952D01*
X156404761Y-95230952D01*
X156309523Y-95278571D01*
X156261904Y-95326190D01*
X156214285Y-95421428D01*
X156214285Y-95611904D01*
X156261904Y-95707142D01*
X156309523Y-95754761D01*
X156404761Y-95802380D01*
X156595238Y-95802380D01*
X156690476Y-95754761D01*
X156738095Y-95707142D01*
X156785714Y-95611904D01*
X156785714Y-95421428D01*
X156738095Y-95326190D01*
X156690476Y-95278571D01*
X156595238Y-95230952D01*
X155858333Y-87802380D02*
X155525000Y-87326190D01*
X155286904Y-87802380D02*
X155286904Y-86802380D01*
X155667857Y-86802380D01*
X155763095Y-86850000D01*
X155810714Y-86897619D01*
X155858333Y-86992857D01*
X155858333Y-87135714D01*
X155810714Y-87230952D01*
X155763095Y-87278571D01*
X155667857Y-87326190D01*
X155286904Y-87326190D01*
X156191666Y-86802380D02*
X156858333Y-86802380D01*
X156429761Y-87802380D01*
X121833333Y-147102380D02*
X121500000Y-146626190D01*
X121261904Y-147102380D02*
X121261904Y-146102380D01*
X121642857Y-146102380D01*
X121738095Y-146150000D01*
X121785714Y-146197619D01*
X121833333Y-146292857D01*
X121833333Y-146435714D01*
X121785714Y-146530952D01*
X121738095Y-146578571D01*
X121642857Y-146626190D01*
X121261904Y-146626190D01*
X122690476Y-146102380D02*
X122500000Y-146102380D01*
X122404761Y-146150000D01*
X122357142Y-146197619D01*
X122261904Y-146340476D01*
X122214285Y-146530952D01*
X122214285Y-146911904D01*
X122261904Y-147007142D01*
X122309523Y-147054761D01*
X122404761Y-147102380D01*
X122595238Y-147102380D01*
X122690476Y-147054761D01*
X122738095Y-147007142D01*
X122785714Y-146911904D01*
X122785714Y-146673809D01*
X122738095Y-146578571D01*
X122690476Y-146530952D01*
X122595238Y-146483333D01*
X122404761Y-146483333D01*
X122309523Y-146530952D01*
X122261904Y-146578571D01*
X122214285Y-146673809D01*
X121833333Y-139102380D02*
X121500000Y-138626190D01*
X121261904Y-139102380D02*
X121261904Y-138102380D01*
X121642857Y-138102380D01*
X121738095Y-138150000D01*
X121785714Y-138197619D01*
X121833333Y-138292857D01*
X121833333Y-138435714D01*
X121785714Y-138530952D01*
X121738095Y-138578571D01*
X121642857Y-138626190D01*
X121261904Y-138626190D01*
X122738095Y-138102380D02*
X122261904Y-138102380D01*
X122214285Y-138578571D01*
X122261904Y-138530952D01*
X122357142Y-138483333D01*
X122595238Y-138483333D01*
X122690476Y-138530952D01*
X122738095Y-138578571D01*
X122785714Y-138673809D01*
X122785714Y-138911904D01*
X122738095Y-139007142D01*
X122690476Y-139054761D01*
X122595238Y-139102380D01*
X122357142Y-139102380D01*
X122261904Y-139054761D01*
X122214285Y-139007142D01*
X121833333Y-131102380D02*
X121500000Y-130626190D01*
X121261904Y-131102380D02*
X121261904Y-130102380D01*
X121642857Y-130102380D01*
X121738095Y-130150000D01*
X121785714Y-130197619D01*
X121833333Y-130292857D01*
X121833333Y-130435714D01*
X121785714Y-130530952D01*
X121738095Y-130578571D01*
X121642857Y-130626190D01*
X121261904Y-130626190D01*
X122690476Y-130435714D02*
X122690476Y-131102380D01*
X122452380Y-130054761D02*
X122214285Y-130769047D01*
X122833333Y-130769047D01*
X121833333Y-107102380D02*
X121500000Y-106626190D01*
X121261904Y-107102380D02*
X121261904Y-106102380D01*
X121642857Y-106102380D01*
X121738095Y-106150000D01*
X121785714Y-106197619D01*
X121833333Y-106292857D01*
X121833333Y-106435714D01*
X121785714Y-106530952D01*
X121738095Y-106578571D01*
X121642857Y-106626190D01*
X121261904Y-106626190D01*
X122166666Y-106102380D02*
X122785714Y-106102380D01*
X122452380Y-106483333D01*
X122595238Y-106483333D01*
X122690476Y-106530952D01*
X122738095Y-106578571D01*
X122785714Y-106673809D01*
X122785714Y-106911904D01*
X122738095Y-107007142D01*
X122690476Y-107054761D01*
X122595238Y-107102380D01*
X122309523Y-107102380D01*
X122214285Y-107054761D01*
X122166666Y-107007142D01*
X121808333Y-99102380D02*
X121475000Y-98626190D01*
X121236904Y-99102380D02*
X121236904Y-98102380D01*
X121617857Y-98102380D01*
X121713095Y-98150000D01*
X121760714Y-98197619D01*
X121808333Y-98292857D01*
X121808333Y-98435714D01*
X121760714Y-98530952D01*
X121713095Y-98578571D01*
X121617857Y-98626190D01*
X121236904Y-98626190D01*
X122189285Y-98197619D02*
X122236904Y-98150000D01*
X122332142Y-98102380D01*
X122570238Y-98102380D01*
X122665476Y-98150000D01*
X122713095Y-98197619D01*
X122760714Y-98292857D01*
X122760714Y-98388095D01*
X122713095Y-98530952D01*
X122141666Y-99102380D01*
X122760714Y-99102380D01*
X121833333Y-91102380D02*
X121500000Y-90626190D01*
X121261904Y-91102380D02*
X121261904Y-90102380D01*
X121642857Y-90102380D01*
X121738095Y-90150000D01*
X121785714Y-90197619D01*
X121833333Y-90292857D01*
X121833333Y-90435714D01*
X121785714Y-90530952D01*
X121738095Y-90578571D01*
X121642857Y-90626190D01*
X121261904Y-90626190D01*
X122785714Y-91102380D02*
X122214285Y-91102380D01*
X122500000Y-91102380D02*
X122500000Y-90102380D01*
X122404761Y-90245238D01*
X122309523Y-90340476D01*
X122214285Y-90388095D01*
X144666666Y-135122380D02*
X144666666Y-135836666D01*
X144619047Y-135979523D01*
X144523809Y-136074761D01*
X144380952Y-136122380D01*
X144285714Y-136122380D01*
X145619047Y-135122380D02*
X145142857Y-135122380D01*
X145095238Y-135598571D01*
X145142857Y-135550952D01*
X145238095Y-135503333D01*
X145476190Y-135503333D01*
X145571428Y-135550952D01*
X145619047Y-135598571D01*
X145666666Y-135693809D01*
X145666666Y-135931904D01*
X145619047Y-136027142D01*
X145571428Y-136074761D01*
X145476190Y-136122380D01*
X145238095Y-136122380D01*
X145142857Y-136074761D01*
X145095238Y-136027142D01*
X145666666Y-92452380D02*
X145666666Y-93166666D01*
X145619047Y-93309523D01*
X145523809Y-93404761D01*
X145380952Y-93452380D01*
X145285714Y-93452380D01*
X146095238Y-92547619D02*
X146142857Y-92500000D01*
X146238095Y-92452380D01*
X146476190Y-92452380D01*
X146571428Y-92500000D01*
X146619047Y-92547619D01*
X146666666Y-92642857D01*
X146666666Y-92738095D01*
X146619047Y-92880952D01*
X146047619Y-93452380D01*
X146666666Y-93452380D01*
X133666666Y-92452380D02*
X133666666Y-93166666D01*
X133619047Y-93309523D01*
X133523809Y-93404761D01*
X133380952Y-93452380D01*
X133285714Y-93452380D01*
X134666666Y-93452380D02*
X134095238Y-93452380D01*
X134380952Y-93452380D02*
X134380952Y-92452380D01*
X134285714Y-92595238D01*
X134190476Y-92690476D01*
X134095238Y-92738095D01*
X145802380Y-87214285D02*
X144802380Y-87214285D01*
X144802380Y-86976190D01*
X144850000Y-86833333D01*
X144945238Y-86738095D01*
X145040476Y-86690476D01*
X145230952Y-86642857D01*
X145373809Y-86642857D01*
X145564285Y-86690476D01*
X145659523Y-86738095D01*
X145754761Y-86833333D01*
X145802380Y-86976190D01*
X145802380Y-87214285D01*
X144897619Y-86261904D02*
X144850000Y-86214285D01*
X144802380Y-86119047D01*
X144802380Y-85880952D01*
X144850000Y-85785714D01*
X144897619Y-85738095D01*
X144992857Y-85690476D01*
X145088095Y-85690476D01*
X145230952Y-85738095D01*
X145802380Y-86309523D01*
X145802380Y-85690476D01*
X145802380Y-85214285D02*
X145802380Y-85023809D01*
X145754761Y-84928571D01*
X145707142Y-84880952D01*
X145564285Y-84785714D01*
X145373809Y-84738095D01*
X144992857Y-84738095D01*
X144897619Y-84785714D01*
X144850000Y-84833333D01*
X144802380Y-84928571D01*
X144802380Y-85119047D01*
X144850000Y-85214285D01*
X144897619Y-85261904D01*
X144992857Y-85309523D01*
X145230952Y-85309523D01*
X145326190Y-85261904D01*
X145373809Y-85214285D01*
X145421428Y-85119047D01*
X145421428Y-84928571D01*
X145373809Y-84833333D01*
X145326190Y-84785714D01*
X145230952Y-84738095D01*
X137802380Y-87189285D02*
X136802380Y-87189285D01*
X136802380Y-86951190D01*
X136850000Y-86808333D01*
X136945238Y-86713095D01*
X137040476Y-86665476D01*
X137230952Y-86617857D01*
X137373809Y-86617857D01*
X137564285Y-86665476D01*
X137659523Y-86713095D01*
X137754761Y-86808333D01*
X137802380Y-86951190D01*
X137802380Y-87189285D01*
X136897619Y-86236904D02*
X136850000Y-86189285D01*
X136802380Y-86094047D01*
X136802380Y-85855952D01*
X136850000Y-85760714D01*
X136897619Y-85713095D01*
X136992857Y-85665476D01*
X137088095Y-85665476D01*
X137230952Y-85713095D01*
X137802380Y-86284523D01*
X137802380Y-85665476D01*
X137230952Y-85094047D02*
X137183333Y-85189285D01*
X137135714Y-85236904D01*
X137040476Y-85284523D01*
X136992857Y-85284523D01*
X136897619Y-85236904D01*
X136850000Y-85189285D01*
X136802380Y-85094047D01*
X136802380Y-84903571D01*
X136850000Y-84808333D01*
X136897619Y-84760714D01*
X136992857Y-84713095D01*
X137040476Y-84713095D01*
X137135714Y-84760714D01*
X137183333Y-84808333D01*
X137230952Y-84903571D01*
X137230952Y-85094047D01*
X137278571Y-85189285D01*
X137326190Y-85236904D01*
X137421428Y-85284523D01*
X137611904Y-85284523D01*
X137707142Y-85236904D01*
X137754761Y-85189285D01*
X137802380Y-85094047D01*
X137802380Y-84903571D01*
X137754761Y-84808333D01*
X137707142Y-84760714D01*
X137611904Y-84713095D01*
X137421428Y-84713095D01*
X137326190Y-84760714D01*
X137278571Y-84808333D01*
X137230952Y-84903571D01*
X129802380Y-87214285D02*
X128802380Y-87214285D01*
X128802380Y-86976190D01*
X128850000Y-86833333D01*
X128945238Y-86738095D01*
X129040476Y-86690476D01*
X129230952Y-86642857D01*
X129373809Y-86642857D01*
X129564285Y-86690476D01*
X129659523Y-86738095D01*
X129754761Y-86833333D01*
X129802380Y-86976190D01*
X129802380Y-87214285D01*
X128897619Y-86261904D02*
X128850000Y-86214285D01*
X128802380Y-86119047D01*
X128802380Y-85880952D01*
X128850000Y-85785714D01*
X128897619Y-85738095D01*
X128992857Y-85690476D01*
X129088095Y-85690476D01*
X129230952Y-85738095D01*
X129802380Y-86309523D01*
X129802380Y-85690476D01*
X128802380Y-85357142D02*
X128802380Y-84690476D01*
X129802380Y-85119047D01*
X148102380Y-156214285D02*
X147102380Y-156214285D01*
X147102380Y-155976190D01*
X147150000Y-155833333D01*
X147245238Y-155738095D01*
X147340476Y-155690476D01*
X147530952Y-155642857D01*
X147673809Y-155642857D01*
X147864285Y-155690476D01*
X147959523Y-155738095D01*
X148054761Y-155833333D01*
X148102380Y-155976190D01*
X148102380Y-156214285D01*
X147197619Y-155261904D02*
X147150000Y-155214285D01*
X147102380Y-155119047D01*
X147102380Y-154880952D01*
X147150000Y-154785714D01*
X147197619Y-154738095D01*
X147292857Y-154690476D01*
X147388095Y-154690476D01*
X147530952Y-154738095D01*
X148102380Y-155309523D01*
X148102380Y-154690476D01*
X147102380Y-153833333D02*
X147102380Y-154023809D01*
X147150000Y-154119047D01*
X147197619Y-154166666D01*
X147340476Y-154261904D01*
X147530952Y-154309523D01*
X147911904Y-154309523D01*
X148007142Y-154261904D01*
X148054761Y-154214285D01*
X148102380Y-154119047D01*
X148102380Y-153928571D01*
X148054761Y-153833333D01*
X148007142Y-153785714D01*
X147911904Y-153738095D01*
X147673809Y-153738095D01*
X147578571Y-153785714D01*
X147530952Y-153833333D01*
X147483333Y-153928571D01*
X147483333Y-154119047D01*
X147530952Y-154214285D01*
X147578571Y-154261904D01*
X147673809Y-154309523D01*
X141102380Y-156214285D02*
X140102380Y-156214285D01*
X140102380Y-155976190D01*
X140150000Y-155833333D01*
X140245238Y-155738095D01*
X140340476Y-155690476D01*
X140530952Y-155642857D01*
X140673809Y-155642857D01*
X140864285Y-155690476D01*
X140959523Y-155738095D01*
X141054761Y-155833333D01*
X141102380Y-155976190D01*
X141102380Y-156214285D01*
X140197619Y-155261904D02*
X140150000Y-155214285D01*
X140102380Y-155119047D01*
X140102380Y-154880952D01*
X140150000Y-154785714D01*
X140197619Y-154738095D01*
X140292857Y-154690476D01*
X140388095Y-154690476D01*
X140530952Y-154738095D01*
X141102380Y-155309523D01*
X141102380Y-154690476D01*
X140102380Y-153785714D02*
X140102380Y-154261904D01*
X140578571Y-154309523D01*
X140530952Y-154261904D01*
X140483333Y-154166666D01*
X140483333Y-153928571D01*
X140530952Y-153833333D01*
X140578571Y-153785714D01*
X140673809Y-153738095D01*
X140911904Y-153738095D01*
X141007142Y-153785714D01*
X141054761Y-153833333D01*
X141102380Y-153928571D01*
X141102380Y-154166666D01*
X141054761Y-154261904D01*
X141007142Y-154309523D01*
X134102380Y-156214285D02*
X133102380Y-156214285D01*
X133102380Y-155976190D01*
X133150000Y-155833333D01*
X133245238Y-155738095D01*
X133340476Y-155690476D01*
X133530952Y-155642857D01*
X133673809Y-155642857D01*
X133864285Y-155690476D01*
X133959523Y-155738095D01*
X134054761Y-155833333D01*
X134102380Y-155976190D01*
X134102380Y-156214285D01*
X133197619Y-155261904D02*
X133150000Y-155214285D01*
X133102380Y-155119047D01*
X133102380Y-154880952D01*
X133150000Y-154785714D01*
X133197619Y-154738095D01*
X133292857Y-154690476D01*
X133388095Y-154690476D01*
X133530952Y-154738095D01*
X134102380Y-155309523D01*
X134102380Y-154690476D01*
X133435714Y-153833333D02*
X134102380Y-153833333D01*
X133054761Y-154071428D02*
X133769047Y-154309523D01*
X133769047Y-153690476D01*
X151785714Y-131802380D02*
X151785714Y-130802380D01*
X152023809Y-130802380D01*
X152166666Y-130850000D01*
X152261904Y-130945238D01*
X152309523Y-131040476D01*
X152357142Y-131230952D01*
X152357142Y-131373809D01*
X152309523Y-131564285D01*
X152261904Y-131659523D01*
X152166666Y-131754761D01*
X152023809Y-131802380D01*
X151785714Y-131802380D01*
X152738095Y-130897619D02*
X152785714Y-130850000D01*
X152880952Y-130802380D01*
X153119047Y-130802380D01*
X153214285Y-130850000D01*
X153261904Y-130897619D01*
X153309523Y-130992857D01*
X153309523Y-131088095D01*
X153261904Y-131230952D01*
X152690476Y-131802380D01*
X153309523Y-131802380D01*
X153642857Y-130802380D02*
X154261904Y-130802380D01*
X153928571Y-131183333D01*
X154071428Y-131183333D01*
X154166666Y-131230952D01*
X154214285Y-131278571D01*
X154261904Y-131373809D01*
X154261904Y-131611904D01*
X154214285Y-131707142D01*
X154166666Y-131754761D01*
X154071428Y-131802380D01*
X153785714Y-131802380D01*
X153690476Y-131754761D01*
X153642857Y-131707142D01*
X151785714Y-139802380D02*
X151785714Y-138802380D01*
X152023809Y-138802380D01*
X152166666Y-138850000D01*
X152261904Y-138945238D01*
X152309523Y-139040476D01*
X152357142Y-139230952D01*
X152357142Y-139373809D01*
X152309523Y-139564285D01*
X152261904Y-139659523D01*
X152166666Y-139754761D01*
X152023809Y-139802380D01*
X151785714Y-139802380D01*
X152738095Y-138897619D02*
X152785714Y-138850000D01*
X152880952Y-138802380D01*
X153119047Y-138802380D01*
X153214285Y-138850000D01*
X153261904Y-138897619D01*
X153309523Y-138992857D01*
X153309523Y-139088095D01*
X153261904Y-139230952D01*
X152690476Y-139802380D01*
X153309523Y-139802380D01*
X153690476Y-138897619D02*
X153738095Y-138850000D01*
X153833333Y-138802380D01*
X154071428Y-138802380D01*
X154166666Y-138850000D01*
X154214285Y-138897619D01*
X154261904Y-138992857D01*
X154261904Y-139088095D01*
X154214285Y-139230952D01*
X153642857Y-139802380D01*
X154261904Y-139802380D01*
X151785714Y-147802380D02*
X151785714Y-146802380D01*
X152023809Y-146802380D01*
X152166666Y-146850000D01*
X152261904Y-146945238D01*
X152309523Y-147040476D01*
X152357142Y-147230952D01*
X152357142Y-147373809D01*
X152309523Y-147564285D01*
X152261904Y-147659523D01*
X152166666Y-147754761D01*
X152023809Y-147802380D01*
X151785714Y-147802380D01*
X152738095Y-146897619D02*
X152785714Y-146850000D01*
X152880952Y-146802380D01*
X153119047Y-146802380D01*
X153214285Y-146850000D01*
X153261904Y-146897619D01*
X153309523Y-146992857D01*
X153309523Y-147088095D01*
X153261904Y-147230952D01*
X152690476Y-147802380D01*
X153309523Y-147802380D01*
X154261904Y-147802380D02*
X153690476Y-147802380D01*
X153976190Y-147802380D02*
X153976190Y-146802380D01*
X153880952Y-146945238D01*
X153785714Y-147040476D01*
X153690476Y-147088095D01*
X131102380Y-122214285D02*
X130102380Y-122214285D01*
X130102380Y-121976190D01*
X130150000Y-121833333D01*
X130245238Y-121738095D01*
X130340476Y-121690476D01*
X130530952Y-121642857D01*
X130673809Y-121642857D01*
X130864285Y-121690476D01*
X130959523Y-121738095D01*
X131054761Y-121833333D01*
X131102380Y-121976190D01*
X131102380Y-122214285D01*
X131102380Y-120690476D02*
X131102380Y-121261904D01*
X131102380Y-120976190D02*
X130102380Y-120976190D01*
X130245238Y-121071428D01*
X130340476Y-121166666D01*
X130388095Y-121261904D01*
X130197619Y-120309523D02*
X130150000Y-120261904D01*
X130102380Y-120166666D01*
X130102380Y-119928571D01*
X130150000Y-119833333D01*
X130197619Y-119785714D01*
X130292857Y-119738095D01*
X130388095Y-119738095D01*
X130530952Y-119785714D01*
X131102380Y-120357142D01*
X131102380Y-119738095D01*
X141102380Y-122214285D02*
X140102380Y-122214285D01*
X140102380Y-121976190D01*
X140150000Y-121833333D01*
X140245238Y-121738095D01*
X140340476Y-121690476D01*
X140530952Y-121642857D01*
X140673809Y-121642857D01*
X140864285Y-121690476D01*
X140959523Y-121738095D01*
X141054761Y-121833333D01*
X141102380Y-121976190D01*
X141102380Y-122214285D01*
X141102380Y-120690476D02*
X141102380Y-121261904D01*
X141102380Y-120976190D02*
X140102380Y-120976190D01*
X140245238Y-121071428D01*
X140340476Y-121166666D01*
X140388095Y-121261904D01*
X141102380Y-119738095D02*
X141102380Y-120309523D01*
X141102380Y-120023809D02*
X140102380Y-120023809D01*
X140245238Y-120119047D01*
X140340476Y-120214285D01*
X140388095Y-120309523D01*
X151102380Y-122189285D02*
X150102380Y-122189285D01*
X150102380Y-121951190D01*
X150150000Y-121808333D01*
X150245238Y-121713095D01*
X150340476Y-121665476D01*
X150530952Y-121617857D01*
X150673809Y-121617857D01*
X150864285Y-121665476D01*
X150959523Y-121713095D01*
X151054761Y-121808333D01*
X151102380Y-121951190D01*
X151102380Y-122189285D01*
X151102380Y-120665476D02*
X151102380Y-121236904D01*
X151102380Y-120951190D02*
X150102380Y-120951190D01*
X150245238Y-121046428D01*
X150340476Y-121141666D01*
X150388095Y-121236904D01*
X150102380Y-120046428D02*
X150102380Y-119951190D01*
X150150000Y-119855952D01*
X150197619Y-119808333D01*
X150292857Y-119760714D01*
X150483333Y-119713095D01*
X150721428Y-119713095D01*
X150911904Y-119760714D01*
X151007142Y-119808333D01*
X151054761Y-119855952D01*
X151102380Y-119951190D01*
X151102380Y-120046428D01*
X151054761Y-120141666D01*
X151007142Y-120189285D01*
X150911904Y-120236904D01*
X150721428Y-120284523D01*
X150483333Y-120284523D01*
X150292857Y-120236904D01*
X150197619Y-120189285D01*
X150150000Y-120141666D01*
X150102380Y-120046428D01*
X152286904Y-107802380D02*
X152286904Y-106802380D01*
X152525000Y-106802380D01*
X152667857Y-106850000D01*
X152763095Y-106945238D01*
X152810714Y-107040476D01*
X152858333Y-107230952D01*
X152858333Y-107373809D01*
X152810714Y-107564285D01*
X152763095Y-107659523D01*
X152667857Y-107754761D01*
X152525000Y-107802380D01*
X152286904Y-107802380D01*
X153334523Y-107802380D02*
X153525000Y-107802380D01*
X153620238Y-107754761D01*
X153667857Y-107707142D01*
X153763095Y-107564285D01*
X153810714Y-107373809D01*
X153810714Y-106992857D01*
X153763095Y-106897619D01*
X153715476Y-106850000D01*
X153620238Y-106802380D01*
X153429761Y-106802380D01*
X153334523Y-106850000D01*
X153286904Y-106897619D01*
X153239285Y-106992857D01*
X153239285Y-107230952D01*
X153286904Y-107326190D01*
X153334523Y-107373809D01*
X153429761Y-107421428D01*
X153620238Y-107421428D01*
X153715476Y-107373809D01*
X153763095Y-107326190D01*
X153810714Y-107230952D01*
X152286904Y-99802380D02*
X152286904Y-98802380D01*
X152525000Y-98802380D01*
X152667857Y-98850000D01*
X152763095Y-98945238D01*
X152810714Y-99040476D01*
X152858333Y-99230952D01*
X152858333Y-99373809D01*
X152810714Y-99564285D01*
X152763095Y-99659523D01*
X152667857Y-99754761D01*
X152525000Y-99802380D01*
X152286904Y-99802380D01*
X153429761Y-99230952D02*
X153334523Y-99183333D01*
X153286904Y-99135714D01*
X153239285Y-99040476D01*
X153239285Y-98992857D01*
X153286904Y-98897619D01*
X153334523Y-98850000D01*
X153429761Y-98802380D01*
X153620238Y-98802380D01*
X153715476Y-98850000D01*
X153763095Y-98897619D01*
X153810714Y-98992857D01*
X153810714Y-99040476D01*
X153763095Y-99135714D01*
X153715476Y-99183333D01*
X153620238Y-99230952D01*
X153429761Y-99230952D01*
X153334523Y-99278571D01*
X153286904Y-99326190D01*
X153239285Y-99421428D01*
X153239285Y-99611904D01*
X153286904Y-99707142D01*
X153334523Y-99754761D01*
X153429761Y-99802380D01*
X153620238Y-99802380D01*
X153715476Y-99754761D01*
X153763095Y-99707142D01*
X153810714Y-99611904D01*
X153810714Y-99421428D01*
X153763095Y-99326190D01*
X153715476Y-99278571D01*
X153620238Y-99230952D01*
X152261904Y-91802380D02*
X152261904Y-90802380D01*
X152500000Y-90802380D01*
X152642857Y-90850000D01*
X152738095Y-90945238D01*
X152785714Y-91040476D01*
X152833333Y-91230952D01*
X152833333Y-91373809D01*
X152785714Y-91564285D01*
X152738095Y-91659523D01*
X152642857Y-91754761D01*
X152500000Y-91802380D01*
X152261904Y-91802380D01*
X153166666Y-90802380D02*
X153833333Y-90802380D01*
X153404761Y-91802380D01*
X124236904Y-151102380D02*
X124236904Y-150102380D01*
X124475000Y-150102380D01*
X124617857Y-150150000D01*
X124713095Y-150245238D01*
X124760714Y-150340476D01*
X124808333Y-150530952D01*
X124808333Y-150673809D01*
X124760714Y-150864285D01*
X124713095Y-150959523D01*
X124617857Y-151054761D01*
X124475000Y-151102380D01*
X124236904Y-151102380D01*
X125665476Y-150102380D02*
X125475000Y-150102380D01*
X125379761Y-150150000D01*
X125332142Y-150197619D01*
X125236904Y-150340476D01*
X125189285Y-150530952D01*
X125189285Y-150911904D01*
X125236904Y-151007142D01*
X125284523Y-151054761D01*
X125379761Y-151102380D01*
X125570238Y-151102380D01*
X125665476Y-151054761D01*
X125713095Y-151007142D01*
X125760714Y-150911904D01*
X125760714Y-150673809D01*
X125713095Y-150578571D01*
X125665476Y-150530952D01*
X125570238Y-150483333D01*
X125379761Y-150483333D01*
X125284523Y-150530952D01*
X125236904Y-150578571D01*
X125189285Y-150673809D01*
X124236904Y-143102380D02*
X124236904Y-142102380D01*
X124475000Y-142102380D01*
X124617857Y-142150000D01*
X124713095Y-142245238D01*
X124760714Y-142340476D01*
X124808333Y-142530952D01*
X124808333Y-142673809D01*
X124760714Y-142864285D01*
X124713095Y-142959523D01*
X124617857Y-143054761D01*
X124475000Y-143102380D01*
X124236904Y-143102380D01*
X125713095Y-142102380D02*
X125236904Y-142102380D01*
X125189285Y-142578571D01*
X125236904Y-142530952D01*
X125332142Y-142483333D01*
X125570238Y-142483333D01*
X125665476Y-142530952D01*
X125713095Y-142578571D01*
X125760714Y-142673809D01*
X125760714Y-142911904D01*
X125713095Y-143007142D01*
X125665476Y-143054761D01*
X125570238Y-143102380D01*
X125332142Y-143102380D01*
X125236904Y-143054761D01*
X125189285Y-143007142D01*
X124236904Y-135102380D02*
X124236904Y-134102380D01*
X124475000Y-134102380D01*
X124617857Y-134150000D01*
X124713095Y-134245238D01*
X124760714Y-134340476D01*
X124808333Y-134530952D01*
X124808333Y-134673809D01*
X124760714Y-134864285D01*
X124713095Y-134959523D01*
X124617857Y-135054761D01*
X124475000Y-135102380D01*
X124236904Y-135102380D01*
X125665476Y-134435714D02*
X125665476Y-135102380D01*
X125427380Y-134054761D02*
X125189285Y-134769047D01*
X125808333Y-134769047D01*
X124261904Y-111102380D02*
X124261904Y-110102380D01*
X124500000Y-110102380D01*
X124642857Y-110150000D01*
X124738095Y-110245238D01*
X124785714Y-110340476D01*
X124833333Y-110530952D01*
X124833333Y-110673809D01*
X124785714Y-110864285D01*
X124738095Y-110959523D01*
X124642857Y-111054761D01*
X124500000Y-111102380D01*
X124261904Y-111102380D01*
X125166666Y-110102380D02*
X125785714Y-110102380D01*
X125452380Y-110483333D01*
X125595238Y-110483333D01*
X125690476Y-110530952D01*
X125738095Y-110578571D01*
X125785714Y-110673809D01*
X125785714Y-110911904D01*
X125738095Y-111007142D01*
X125690476Y-111054761D01*
X125595238Y-111102380D01*
X125309523Y-111102380D01*
X125214285Y-111054761D01*
X125166666Y-111007142D01*
X124261904Y-103102380D02*
X124261904Y-102102380D01*
X124500000Y-102102380D01*
X124642857Y-102150000D01*
X124738095Y-102245238D01*
X124785714Y-102340476D01*
X124833333Y-102530952D01*
X124833333Y-102673809D01*
X124785714Y-102864285D01*
X124738095Y-102959523D01*
X124642857Y-103054761D01*
X124500000Y-103102380D01*
X124261904Y-103102380D01*
X125214285Y-102197619D02*
X125261904Y-102150000D01*
X125357142Y-102102380D01*
X125595238Y-102102380D01*
X125690476Y-102150000D01*
X125738095Y-102197619D01*
X125785714Y-102292857D01*
X125785714Y-102388095D01*
X125738095Y-102530952D01*
X125166666Y-103102380D01*
X125785714Y-103102380D01*
X124261904Y-95102380D02*
X124261904Y-94102380D01*
X124500000Y-94102380D01*
X124642857Y-94150000D01*
X124738095Y-94245238D01*
X124785714Y-94340476D01*
X124833333Y-94530952D01*
X124833333Y-94673809D01*
X124785714Y-94864285D01*
X124738095Y-94959523D01*
X124642857Y-95054761D01*
X124500000Y-95102380D01*
X124261904Y-95102380D01*
X125785714Y-95102380D02*
X125214285Y-95102380D01*
X125500000Y-95102380D02*
X125500000Y-94102380D01*
X125404761Y-94245238D01*
X125309523Y-94340476D01*
X125214285Y-94388095D01*
M02*
