G04 #@! TF.GenerationSoftware,KiCad,Pcbnew,(5.1.2)-1*
G04 #@! TF.CreationDate,2019-06-28T17:44:25+01:00*
G04 #@! TF.ProjectId,Clock_7_Segment,436c6f63-6b5f-4375-9f53-65676d656e74,rev?*
G04 #@! TF.SameCoordinates,Original*
G04 #@! TF.FileFunction,Copper,L2,Bot*
G04 #@! TF.FilePolarity,Positive*
%FSLAX46Y46*%
G04 Gerber Fmt 4.6, Leading zero omitted, Abs format (unit mm)*
G04 Created by KiCad (PCBNEW (5.1.2)-1) date 2019-06-28 17:44:25*
%MOMM*%
%LPD*%
G04 APERTURE LIST*
%ADD10C,2.000000*%
%ADD11O,1.700000X1.700000*%
%ADD12R,1.700000X1.700000*%
%ADD13C,0.100000*%
%ADD14C,0.600000*%
%ADD15C,0.800000*%
%ADD16C,0.250000*%
%ADD17C,1.250000*%
%ADD18C,0.750000*%
%ADD19C,0.254000*%
G04 APERTURE END LIST*
D10*
X200000000Y-172500000D03*
X200000000Y-168000000D03*
X206500000Y-172500000D03*
X206500000Y-168000000D03*
X188500000Y-168000000D03*
X188500000Y-172500000D03*
X182000000Y-168000000D03*
X182000000Y-172500000D03*
X175500000Y-168000000D03*
X175500000Y-172500000D03*
X169000000Y-168000000D03*
X169000000Y-172500000D03*
X161500000Y-168000000D03*
X161500000Y-172500000D03*
X155000000Y-168000000D03*
X155000000Y-172500000D03*
X148500000Y-168000000D03*
X148500000Y-172500000D03*
X142000000Y-168000000D03*
X142000000Y-172500000D03*
X135500000Y-168000000D03*
X135500000Y-172500000D03*
X129000000Y-168000000D03*
X129000000Y-172500000D03*
X122500000Y-168000000D03*
X122500000Y-172500000D03*
X116000000Y-168000000D03*
X116000000Y-172500000D03*
D11*
X196650000Y-162780000D03*
X196650000Y-160240000D03*
X196650000Y-157700000D03*
X196650000Y-155160000D03*
X196650000Y-152620000D03*
X196650000Y-150080000D03*
X196650000Y-147540000D03*
D12*
X196650000Y-145000000D03*
D11*
X210000000Y-162780000D03*
X210000000Y-160240000D03*
X210000000Y-157700000D03*
X210000000Y-155160000D03*
X210000000Y-152620000D03*
X210000000Y-150080000D03*
X210000000Y-147540000D03*
D12*
X210000000Y-145000000D03*
D11*
X196650000Y-137860000D03*
X196650000Y-135320000D03*
X196650000Y-132780000D03*
X196650000Y-130240000D03*
X196650000Y-127700000D03*
X196650000Y-125160000D03*
X196650000Y-122620000D03*
X196650000Y-120080000D03*
X196650000Y-117540000D03*
D12*
X196650000Y-115000000D03*
D11*
X210000000Y-115140000D03*
X210000000Y-117680000D03*
X210000000Y-120220000D03*
X210000000Y-122760000D03*
X210000000Y-125300000D03*
X210000000Y-127840000D03*
X210000000Y-130380000D03*
X210000000Y-132920000D03*
X210000000Y-135460000D03*
D12*
X210000000Y-138000000D03*
D11*
X208000000Y-103920000D03*
X208000000Y-106460000D03*
D12*
X208000000Y-109000000D03*
D11*
X197000000Y-109080000D03*
X197000000Y-106540000D03*
D12*
X197000000Y-104000000D03*
D11*
X209000000Y-89380000D03*
X209000000Y-91920000D03*
X209000000Y-94460000D03*
D12*
X209000000Y-97000000D03*
D11*
X197000000Y-97080000D03*
X197000000Y-94540000D03*
X197000000Y-92000000D03*
D12*
X197000000Y-89460000D03*
D11*
X197000000Y-84080000D03*
X197000000Y-81540000D03*
D12*
X197000000Y-79000000D03*
D11*
X179000000Y-144080000D03*
X179000000Y-141540000D03*
D12*
X179000000Y-139000000D03*
D13*
G36*
X182314703Y-103645722D02*
G01*
X182329264Y-103647882D01*
X182343543Y-103651459D01*
X182357403Y-103656418D01*
X182370710Y-103662712D01*
X182383336Y-103670280D01*
X182395159Y-103679048D01*
X182406066Y-103688934D01*
X182415952Y-103699841D01*
X182424720Y-103711664D01*
X182432288Y-103724290D01*
X182438582Y-103737597D01*
X182443541Y-103751457D01*
X182447118Y-103765736D01*
X182449278Y-103780297D01*
X182450000Y-103795000D01*
X182450000Y-104095000D01*
X182449278Y-104109703D01*
X182447118Y-104124264D01*
X182443541Y-104138543D01*
X182438582Y-104152403D01*
X182432288Y-104165710D01*
X182424720Y-104178336D01*
X182415952Y-104190159D01*
X182406066Y-104201066D01*
X182395159Y-104210952D01*
X182383336Y-104219720D01*
X182370710Y-104227288D01*
X182357403Y-104233582D01*
X182343543Y-104238541D01*
X182329264Y-104242118D01*
X182314703Y-104244278D01*
X182300000Y-104245000D01*
X180650000Y-104245000D01*
X180635297Y-104244278D01*
X180620736Y-104242118D01*
X180606457Y-104238541D01*
X180592597Y-104233582D01*
X180579290Y-104227288D01*
X180566664Y-104219720D01*
X180554841Y-104210952D01*
X180543934Y-104201066D01*
X180534048Y-104190159D01*
X180525280Y-104178336D01*
X180517712Y-104165710D01*
X180511418Y-104152403D01*
X180506459Y-104138543D01*
X180502882Y-104124264D01*
X180500722Y-104109703D01*
X180500000Y-104095000D01*
X180500000Y-103795000D01*
X180500722Y-103780297D01*
X180502882Y-103765736D01*
X180506459Y-103751457D01*
X180511418Y-103737597D01*
X180517712Y-103724290D01*
X180525280Y-103711664D01*
X180534048Y-103699841D01*
X180543934Y-103688934D01*
X180554841Y-103679048D01*
X180566664Y-103670280D01*
X180579290Y-103662712D01*
X180592597Y-103656418D01*
X180606457Y-103651459D01*
X180620736Y-103647882D01*
X180635297Y-103645722D01*
X180650000Y-103645000D01*
X182300000Y-103645000D01*
X182314703Y-103645722D01*
X182314703Y-103645722D01*
G37*
D14*
X181475000Y-103945000D03*
D13*
G36*
X182314703Y-102375722D02*
G01*
X182329264Y-102377882D01*
X182343543Y-102381459D01*
X182357403Y-102386418D01*
X182370710Y-102392712D01*
X182383336Y-102400280D01*
X182395159Y-102409048D01*
X182406066Y-102418934D01*
X182415952Y-102429841D01*
X182424720Y-102441664D01*
X182432288Y-102454290D01*
X182438582Y-102467597D01*
X182443541Y-102481457D01*
X182447118Y-102495736D01*
X182449278Y-102510297D01*
X182450000Y-102525000D01*
X182450000Y-102825000D01*
X182449278Y-102839703D01*
X182447118Y-102854264D01*
X182443541Y-102868543D01*
X182438582Y-102882403D01*
X182432288Y-102895710D01*
X182424720Y-102908336D01*
X182415952Y-102920159D01*
X182406066Y-102931066D01*
X182395159Y-102940952D01*
X182383336Y-102949720D01*
X182370710Y-102957288D01*
X182357403Y-102963582D01*
X182343543Y-102968541D01*
X182329264Y-102972118D01*
X182314703Y-102974278D01*
X182300000Y-102975000D01*
X180650000Y-102975000D01*
X180635297Y-102974278D01*
X180620736Y-102972118D01*
X180606457Y-102968541D01*
X180592597Y-102963582D01*
X180579290Y-102957288D01*
X180566664Y-102949720D01*
X180554841Y-102940952D01*
X180543934Y-102931066D01*
X180534048Y-102920159D01*
X180525280Y-102908336D01*
X180517712Y-102895710D01*
X180511418Y-102882403D01*
X180506459Y-102868543D01*
X180502882Y-102854264D01*
X180500722Y-102839703D01*
X180500000Y-102825000D01*
X180500000Y-102525000D01*
X180500722Y-102510297D01*
X180502882Y-102495736D01*
X180506459Y-102481457D01*
X180511418Y-102467597D01*
X180517712Y-102454290D01*
X180525280Y-102441664D01*
X180534048Y-102429841D01*
X180543934Y-102418934D01*
X180554841Y-102409048D01*
X180566664Y-102400280D01*
X180579290Y-102392712D01*
X180592597Y-102386418D01*
X180606457Y-102381459D01*
X180620736Y-102377882D01*
X180635297Y-102375722D01*
X180650000Y-102375000D01*
X182300000Y-102375000D01*
X182314703Y-102375722D01*
X182314703Y-102375722D01*
G37*
D14*
X181475000Y-102675000D03*
D13*
G36*
X182314703Y-101105722D02*
G01*
X182329264Y-101107882D01*
X182343543Y-101111459D01*
X182357403Y-101116418D01*
X182370710Y-101122712D01*
X182383336Y-101130280D01*
X182395159Y-101139048D01*
X182406066Y-101148934D01*
X182415952Y-101159841D01*
X182424720Y-101171664D01*
X182432288Y-101184290D01*
X182438582Y-101197597D01*
X182443541Y-101211457D01*
X182447118Y-101225736D01*
X182449278Y-101240297D01*
X182450000Y-101255000D01*
X182450000Y-101555000D01*
X182449278Y-101569703D01*
X182447118Y-101584264D01*
X182443541Y-101598543D01*
X182438582Y-101612403D01*
X182432288Y-101625710D01*
X182424720Y-101638336D01*
X182415952Y-101650159D01*
X182406066Y-101661066D01*
X182395159Y-101670952D01*
X182383336Y-101679720D01*
X182370710Y-101687288D01*
X182357403Y-101693582D01*
X182343543Y-101698541D01*
X182329264Y-101702118D01*
X182314703Y-101704278D01*
X182300000Y-101705000D01*
X180650000Y-101705000D01*
X180635297Y-101704278D01*
X180620736Y-101702118D01*
X180606457Y-101698541D01*
X180592597Y-101693582D01*
X180579290Y-101687288D01*
X180566664Y-101679720D01*
X180554841Y-101670952D01*
X180543934Y-101661066D01*
X180534048Y-101650159D01*
X180525280Y-101638336D01*
X180517712Y-101625710D01*
X180511418Y-101612403D01*
X180506459Y-101598543D01*
X180502882Y-101584264D01*
X180500722Y-101569703D01*
X180500000Y-101555000D01*
X180500000Y-101255000D01*
X180500722Y-101240297D01*
X180502882Y-101225736D01*
X180506459Y-101211457D01*
X180511418Y-101197597D01*
X180517712Y-101184290D01*
X180525280Y-101171664D01*
X180534048Y-101159841D01*
X180543934Y-101148934D01*
X180554841Y-101139048D01*
X180566664Y-101130280D01*
X180579290Y-101122712D01*
X180592597Y-101116418D01*
X180606457Y-101111459D01*
X180620736Y-101107882D01*
X180635297Y-101105722D01*
X180650000Y-101105000D01*
X182300000Y-101105000D01*
X182314703Y-101105722D01*
X182314703Y-101105722D01*
G37*
D14*
X181475000Y-101405000D03*
D13*
G36*
X182314703Y-99835722D02*
G01*
X182329264Y-99837882D01*
X182343543Y-99841459D01*
X182357403Y-99846418D01*
X182370710Y-99852712D01*
X182383336Y-99860280D01*
X182395159Y-99869048D01*
X182406066Y-99878934D01*
X182415952Y-99889841D01*
X182424720Y-99901664D01*
X182432288Y-99914290D01*
X182438582Y-99927597D01*
X182443541Y-99941457D01*
X182447118Y-99955736D01*
X182449278Y-99970297D01*
X182450000Y-99985000D01*
X182450000Y-100285000D01*
X182449278Y-100299703D01*
X182447118Y-100314264D01*
X182443541Y-100328543D01*
X182438582Y-100342403D01*
X182432288Y-100355710D01*
X182424720Y-100368336D01*
X182415952Y-100380159D01*
X182406066Y-100391066D01*
X182395159Y-100400952D01*
X182383336Y-100409720D01*
X182370710Y-100417288D01*
X182357403Y-100423582D01*
X182343543Y-100428541D01*
X182329264Y-100432118D01*
X182314703Y-100434278D01*
X182300000Y-100435000D01*
X180650000Y-100435000D01*
X180635297Y-100434278D01*
X180620736Y-100432118D01*
X180606457Y-100428541D01*
X180592597Y-100423582D01*
X180579290Y-100417288D01*
X180566664Y-100409720D01*
X180554841Y-100400952D01*
X180543934Y-100391066D01*
X180534048Y-100380159D01*
X180525280Y-100368336D01*
X180517712Y-100355710D01*
X180511418Y-100342403D01*
X180506459Y-100328543D01*
X180502882Y-100314264D01*
X180500722Y-100299703D01*
X180500000Y-100285000D01*
X180500000Y-99985000D01*
X180500722Y-99970297D01*
X180502882Y-99955736D01*
X180506459Y-99941457D01*
X180511418Y-99927597D01*
X180517712Y-99914290D01*
X180525280Y-99901664D01*
X180534048Y-99889841D01*
X180543934Y-99878934D01*
X180554841Y-99869048D01*
X180566664Y-99860280D01*
X180579290Y-99852712D01*
X180592597Y-99846418D01*
X180606457Y-99841459D01*
X180620736Y-99837882D01*
X180635297Y-99835722D01*
X180650000Y-99835000D01*
X182300000Y-99835000D01*
X182314703Y-99835722D01*
X182314703Y-99835722D01*
G37*
D14*
X181475000Y-100135000D03*
D13*
G36*
X182314703Y-98565722D02*
G01*
X182329264Y-98567882D01*
X182343543Y-98571459D01*
X182357403Y-98576418D01*
X182370710Y-98582712D01*
X182383336Y-98590280D01*
X182395159Y-98599048D01*
X182406066Y-98608934D01*
X182415952Y-98619841D01*
X182424720Y-98631664D01*
X182432288Y-98644290D01*
X182438582Y-98657597D01*
X182443541Y-98671457D01*
X182447118Y-98685736D01*
X182449278Y-98700297D01*
X182450000Y-98715000D01*
X182450000Y-99015000D01*
X182449278Y-99029703D01*
X182447118Y-99044264D01*
X182443541Y-99058543D01*
X182438582Y-99072403D01*
X182432288Y-99085710D01*
X182424720Y-99098336D01*
X182415952Y-99110159D01*
X182406066Y-99121066D01*
X182395159Y-99130952D01*
X182383336Y-99139720D01*
X182370710Y-99147288D01*
X182357403Y-99153582D01*
X182343543Y-99158541D01*
X182329264Y-99162118D01*
X182314703Y-99164278D01*
X182300000Y-99165000D01*
X180650000Y-99165000D01*
X180635297Y-99164278D01*
X180620736Y-99162118D01*
X180606457Y-99158541D01*
X180592597Y-99153582D01*
X180579290Y-99147288D01*
X180566664Y-99139720D01*
X180554841Y-99130952D01*
X180543934Y-99121066D01*
X180534048Y-99110159D01*
X180525280Y-99098336D01*
X180517712Y-99085710D01*
X180511418Y-99072403D01*
X180506459Y-99058543D01*
X180502882Y-99044264D01*
X180500722Y-99029703D01*
X180500000Y-99015000D01*
X180500000Y-98715000D01*
X180500722Y-98700297D01*
X180502882Y-98685736D01*
X180506459Y-98671457D01*
X180511418Y-98657597D01*
X180517712Y-98644290D01*
X180525280Y-98631664D01*
X180534048Y-98619841D01*
X180543934Y-98608934D01*
X180554841Y-98599048D01*
X180566664Y-98590280D01*
X180579290Y-98582712D01*
X180592597Y-98576418D01*
X180606457Y-98571459D01*
X180620736Y-98567882D01*
X180635297Y-98565722D01*
X180650000Y-98565000D01*
X182300000Y-98565000D01*
X182314703Y-98565722D01*
X182314703Y-98565722D01*
G37*
D14*
X181475000Y-98865000D03*
D13*
G36*
X182314703Y-97295722D02*
G01*
X182329264Y-97297882D01*
X182343543Y-97301459D01*
X182357403Y-97306418D01*
X182370710Y-97312712D01*
X182383336Y-97320280D01*
X182395159Y-97329048D01*
X182406066Y-97338934D01*
X182415952Y-97349841D01*
X182424720Y-97361664D01*
X182432288Y-97374290D01*
X182438582Y-97387597D01*
X182443541Y-97401457D01*
X182447118Y-97415736D01*
X182449278Y-97430297D01*
X182450000Y-97445000D01*
X182450000Y-97745000D01*
X182449278Y-97759703D01*
X182447118Y-97774264D01*
X182443541Y-97788543D01*
X182438582Y-97802403D01*
X182432288Y-97815710D01*
X182424720Y-97828336D01*
X182415952Y-97840159D01*
X182406066Y-97851066D01*
X182395159Y-97860952D01*
X182383336Y-97869720D01*
X182370710Y-97877288D01*
X182357403Y-97883582D01*
X182343543Y-97888541D01*
X182329264Y-97892118D01*
X182314703Y-97894278D01*
X182300000Y-97895000D01*
X180650000Y-97895000D01*
X180635297Y-97894278D01*
X180620736Y-97892118D01*
X180606457Y-97888541D01*
X180592597Y-97883582D01*
X180579290Y-97877288D01*
X180566664Y-97869720D01*
X180554841Y-97860952D01*
X180543934Y-97851066D01*
X180534048Y-97840159D01*
X180525280Y-97828336D01*
X180517712Y-97815710D01*
X180511418Y-97802403D01*
X180506459Y-97788543D01*
X180502882Y-97774264D01*
X180500722Y-97759703D01*
X180500000Y-97745000D01*
X180500000Y-97445000D01*
X180500722Y-97430297D01*
X180502882Y-97415736D01*
X180506459Y-97401457D01*
X180511418Y-97387597D01*
X180517712Y-97374290D01*
X180525280Y-97361664D01*
X180534048Y-97349841D01*
X180543934Y-97338934D01*
X180554841Y-97329048D01*
X180566664Y-97320280D01*
X180579290Y-97312712D01*
X180592597Y-97306418D01*
X180606457Y-97301459D01*
X180620736Y-97297882D01*
X180635297Y-97295722D01*
X180650000Y-97295000D01*
X182300000Y-97295000D01*
X182314703Y-97295722D01*
X182314703Y-97295722D01*
G37*
D14*
X181475000Y-97595000D03*
D13*
G36*
X182314703Y-96025722D02*
G01*
X182329264Y-96027882D01*
X182343543Y-96031459D01*
X182357403Y-96036418D01*
X182370710Y-96042712D01*
X182383336Y-96050280D01*
X182395159Y-96059048D01*
X182406066Y-96068934D01*
X182415952Y-96079841D01*
X182424720Y-96091664D01*
X182432288Y-96104290D01*
X182438582Y-96117597D01*
X182443541Y-96131457D01*
X182447118Y-96145736D01*
X182449278Y-96160297D01*
X182450000Y-96175000D01*
X182450000Y-96475000D01*
X182449278Y-96489703D01*
X182447118Y-96504264D01*
X182443541Y-96518543D01*
X182438582Y-96532403D01*
X182432288Y-96545710D01*
X182424720Y-96558336D01*
X182415952Y-96570159D01*
X182406066Y-96581066D01*
X182395159Y-96590952D01*
X182383336Y-96599720D01*
X182370710Y-96607288D01*
X182357403Y-96613582D01*
X182343543Y-96618541D01*
X182329264Y-96622118D01*
X182314703Y-96624278D01*
X182300000Y-96625000D01*
X180650000Y-96625000D01*
X180635297Y-96624278D01*
X180620736Y-96622118D01*
X180606457Y-96618541D01*
X180592597Y-96613582D01*
X180579290Y-96607288D01*
X180566664Y-96599720D01*
X180554841Y-96590952D01*
X180543934Y-96581066D01*
X180534048Y-96570159D01*
X180525280Y-96558336D01*
X180517712Y-96545710D01*
X180511418Y-96532403D01*
X180506459Y-96518543D01*
X180502882Y-96504264D01*
X180500722Y-96489703D01*
X180500000Y-96475000D01*
X180500000Y-96175000D01*
X180500722Y-96160297D01*
X180502882Y-96145736D01*
X180506459Y-96131457D01*
X180511418Y-96117597D01*
X180517712Y-96104290D01*
X180525280Y-96091664D01*
X180534048Y-96079841D01*
X180543934Y-96068934D01*
X180554841Y-96059048D01*
X180566664Y-96050280D01*
X180579290Y-96042712D01*
X180592597Y-96036418D01*
X180606457Y-96031459D01*
X180620736Y-96027882D01*
X180635297Y-96025722D01*
X180650000Y-96025000D01*
X182300000Y-96025000D01*
X182314703Y-96025722D01*
X182314703Y-96025722D01*
G37*
D14*
X181475000Y-96325000D03*
D13*
G36*
X182314703Y-94755722D02*
G01*
X182329264Y-94757882D01*
X182343543Y-94761459D01*
X182357403Y-94766418D01*
X182370710Y-94772712D01*
X182383336Y-94780280D01*
X182395159Y-94789048D01*
X182406066Y-94798934D01*
X182415952Y-94809841D01*
X182424720Y-94821664D01*
X182432288Y-94834290D01*
X182438582Y-94847597D01*
X182443541Y-94861457D01*
X182447118Y-94875736D01*
X182449278Y-94890297D01*
X182450000Y-94905000D01*
X182450000Y-95205000D01*
X182449278Y-95219703D01*
X182447118Y-95234264D01*
X182443541Y-95248543D01*
X182438582Y-95262403D01*
X182432288Y-95275710D01*
X182424720Y-95288336D01*
X182415952Y-95300159D01*
X182406066Y-95311066D01*
X182395159Y-95320952D01*
X182383336Y-95329720D01*
X182370710Y-95337288D01*
X182357403Y-95343582D01*
X182343543Y-95348541D01*
X182329264Y-95352118D01*
X182314703Y-95354278D01*
X182300000Y-95355000D01*
X180650000Y-95355000D01*
X180635297Y-95354278D01*
X180620736Y-95352118D01*
X180606457Y-95348541D01*
X180592597Y-95343582D01*
X180579290Y-95337288D01*
X180566664Y-95329720D01*
X180554841Y-95320952D01*
X180543934Y-95311066D01*
X180534048Y-95300159D01*
X180525280Y-95288336D01*
X180517712Y-95275710D01*
X180511418Y-95262403D01*
X180506459Y-95248543D01*
X180502882Y-95234264D01*
X180500722Y-95219703D01*
X180500000Y-95205000D01*
X180500000Y-94905000D01*
X180500722Y-94890297D01*
X180502882Y-94875736D01*
X180506459Y-94861457D01*
X180511418Y-94847597D01*
X180517712Y-94834290D01*
X180525280Y-94821664D01*
X180534048Y-94809841D01*
X180543934Y-94798934D01*
X180554841Y-94789048D01*
X180566664Y-94780280D01*
X180579290Y-94772712D01*
X180592597Y-94766418D01*
X180606457Y-94761459D01*
X180620736Y-94757882D01*
X180635297Y-94755722D01*
X180650000Y-94755000D01*
X182300000Y-94755000D01*
X182314703Y-94755722D01*
X182314703Y-94755722D01*
G37*
D14*
X181475000Y-95055000D03*
D13*
G36*
X177364703Y-94755722D02*
G01*
X177379264Y-94757882D01*
X177393543Y-94761459D01*
X177407403Y-94766418D01*
X177420710Y-94772712D01*
X177433336Y-94780280D01*
X177445159Y-94789048D01*
X177456066Y-94798934D01*
X177465952Y-94809841D01*
X177474720Y-94821664D01*
X177482288Y-94834290D01*
X177488582Y-94847597D01*
X177493541Y-94861457D01*
X177497118Y-94875736D01*
X177499278Y-94890297D01*
X177500000Y-94905000D01*
X177500000Y-95205000D01*
X177499278Y-95219703D01*
X177497118Y-95234264D01*
X177493541Y-95248543D01*
X177488582Y-95262403D01*
X177482288Y-95275710D01*
X177474720Y-95288336D01*
X177465952Y-95300159D01*
X177456066Y-95311066D01*
X177445159Y-95320952D01*
X177433336Y-95329720D01*
X177420710Y-95337288D01*
X177407403Y-95343582D01*
X177393543Y-95348541D01*
X177379264Y-95352118D01*
X177364703Y-95354278D01*
X177350000Y-95355000D01*
X175700000Y-95355000D01*
X175685297Y-95354278D01*
X175670736Y-95352118D01*
X175656457Y-95348541D01*
X175642597Y-95343582D01*
X175629290Y-95337288D01*
X175616664Y-95329720D01*
X175604841Y-95320952D01*
X175593934Y-95311066D01*
X175584048Y-95300159D01*
X175575280Y-95288336D01*
X175567712Y-95275710D01*
X175561418Y-95262403D01*
X175556459Y-95248543D01*
X175552882Y-95234264D01*
X175550722Y-95219703D01*
X175550000Y-95205000D01*
X175550000Y-94905000D01*
X175550722Y-94890297D01*
X175552882Y-94875736D01*
X175556459Y-94861457D01*
X175561418Y-94847597D01*
X175567712Y-94834290D01*
X175575280Y-94821664D01*
X175584048Y-94809841D01*
X175593934Y-94798934D01*
X175604841Y-94789048D01*
X175616664Y-94780280D01*
X175629290Y-94772712D01*
X175642597Y-94766418D01*
X175656457Y-94761459D01*
X175670736Y-94757882D01*
X175685297Y-94755722D01*
X175700000Y-94755000D01*
X177350000Y-94755000D01*
X177364703Y-94755722D01*
X177364703Y-94755722D01*
G37*
D14*
X176525000Y-95055000D03*
D13*
G36*
X177364703Y-96025722D02*
G01*
X177379264Y-96027882D01*
X177393543Y-96031459D01*
X177407403Y-96036418D01*
X177420710Y-96042712D01*
X177433336Y-96050280D01*
X177445159Y-96059048D01*
X177456066Y-96068934D01*
X177465952Y-96079841D01*
X177474720Y-96091664D01*
X177482288Y-96104290D01*
X177488582Y-96117597D01*
X177493541Y-96131457D01*
X177497118Y-96145736D01*
X177499278Y-96160297D01*
X177500000Y-96175000D01*
X177500000Y-96475000D01*
X177499278Y-96489703D01*
X177497118Y-96504264D01*
X177493541Y-96518543D01*
X177488582Y-96532403D01*
X177482288Y-96545710D01*
X177474720Y-96558336D01*
X177465952Y-96570159D01*
X177456066Y-96581066D01*
X177445159Y-96590952D01*
X177433336Y-96599720D01*
X177420710Y-96607288D01*
X177407403Y-96613582D01*
X177393543Y-96618541D01*
X177379264Y-96622118D01*
X177364703Y-96624278D01*
X177350000Y-96625000D01*
X175700000Y-96625000D01*
X175685297Y-96624278D01*
X175670736Y-96622118D01*
X175656457Y-96618541D01*
X175642597Y-96613582D01*
X175629290Y-96607288D01*
X175616664Y-96599720D01*
X175604841Y-96590952D01*
X175593934Y-96581066D01*
X175584048Y-96570159D01*
X175575280Y-96558336D01*
X175567712Y-96545710D01*
X175561418Y-96532403D01*
X175556459Y-96518543D01*
X175552882Y-96504264D01*
X175550722Y-96489703D01*
X175550000Y-96475000D01*
X175550000Y-96175000D01*
X175550722Y-96160297D01*
X175552882Y-96145736D01*
X175556459Y-96131457D01*
X175561418Y-96117597D01*
X175567712Y-96104290D01*
X175575280Y-96091664D01*
X175584048Y-96079841D01*
X175593934Y-96068934D01*
X175604841Y-96059048D01*
X175616664Y-96050280D01*
X175629290Y-96042712D01*
X175642597Y-96036418D01*
X175656457Y-96031459D01*
X175670736Y-96027882D01*
X175685297Y-96025722D01*
X175700000Y-96025000D01*
X177350000Y-96025000D01*
X177364703Y-96025722D01*
X177364703Y-96025722D01*
G37*
D14*
X176525000Y-96325000D03*
D13*
G36*
X177364703Y-97295722D02*
G01*
X177379264Y-97297882D01*
X177393543Y-97301459D01*
X177407403Y-97306418D01*
X177420710Y-97312712D01*
X177433336Y-97320280D01*
X177445159Y-97329048D01*
X177456066Y-97338934D01*
X177465952Y-97349841D01*
X177474720Y-97361664D01*
X177482288Y-97374290D01*
X177488582Y-97387597D01*
X177493541Y-97401457D01*
X177497118Y-97415736D01*
X177499278Y-97430297D01*
X177500000Y-97445000D01*
X177500000Y-97745000D01*
X177499278Y-97759703D01*
X177497118Y-97774264D01*
X177493541Y-97788543D01*
X177488582Y-97802403D01*
X177482288Y-97815710D01*
X177474720Y-97828336D01*
X177465952Y-97840159D01*
X177456066Y-97851066D01*
X177445159Y-97860952D01*
X177433336Y-97869720D01*
X177420710Y-97877288D01*
X177407403Y-97883582D01*
X177393543Y-97888541D01*
X177379264Y-97892118D01*
X177364703Y-97894278D01*
X177350000Y-97895000D01*
X175700000Y-97895000D01*
X175685297Y-97894278D01*
X175670736Y-97892118D01*
X175656457Y-97888541D01*
X175642597Y-97883582D01*
X175629290Y-97877288D01*
X175616664Y-97869720D01*
X175604841Y-97860952D01*
X175593934Y-97851066D01*
X175584048Y-97840159D01*
X175575280Y-97828336D01*
X175567712Y-97815710D01*
X175561418Y-97802403D01*
X175556459Y-97788543D01*
X175552882Y-97774264D01*
X175550722Y-97759703D01*
X175550000Y-97745000D01*
X175550000Y-97445000D01*
X175550722Y-97430297D01*
X175552882Y-97415736D01*
X175556459Y-97401457D01*
X175561418Y-97387597D01*
X175567712Y-97374290D01*
X175575280Y-97361664D01*
X175584048Y-97349841D01*
X175593934Y-97338934D01*
X175604841Y-97329048D01*
X175616664Y-97320280D01*
X175629290Y-97312712D01*
X175642597Y-97306418D01*
X175656457Y-97301459D01*
X175670736Y-97297882D01*
X175685297Y-97295722D01*
X175700000Y-97295000D01*
X177350000Y-97295000D01*
X177364703Y-97295722D01*
X177364703Y-97295722D01*
G37*
D14*
X176525000Y-97595000D03*
D13*
G36*
X177364703Y-98565722D02*
G01*
X177379264Y-98567882D01*
X177393543Y-98571459D01*
X177407403Y-98576418D01*
X177420710Y-98582712D01*
X177433336Y-98590280D01*
X177445159Y-98599048D01*
X177456066Y-98608934D01*
X177465952Y-98619841D01*
X177474720Y-98631664D01*
X177482288Y-98644290D01*
X177488582Y-98657597D01*
X177493541Y-98671457D01*
X177497118Y-98685736D01*
X177499278Y-98700297D01*
X177500000Y-98715000D01*
X177500000Y-99015000D01*
X177499278Y-99029703D01*
X177497118Y-99044264D01*
X177493541Y-99058543D01*
X177488582Y-99072403D01*
X177482288Y-99085710D01*
X177474720Y-99098336D01*
X177465952Y-99110159D01*
X177456066Y-99121066D01*
X177445159Y-99130952D01*
X177433336Y-99139720D01*
X177420710Y-99147288D01*
X177407403Y-99153582D01*
X177393543Y-99158541D01*
X177379264Y-99162118D01*
X177364703Y-99164278D01*
X177350000Y-99165000D01*
X175700000Y-99165000D01*
X175685297Y-99164278D01*
X175670736Y-99162118D01*
X175656457Y-99158541D01*
X175642597Y-99153582D01*
X175629290Y-99147288D01*
X175616664Y-99139720D01*
X175604841Y-99130952D01*
X175593934Y-99121066D01*
X175584048Y-99110159D01*
X175575280Y-99098336D01*
X175567712Y-99085710D01*
X175561418Y-99072403D01*
X175556459Y-99058543D01*
X175552882Y-99044264D01*
X175550722Y-99029703D01*
X175550000Y-99015000D01*
X175550000Y-98715000D01*
X175550722Y-98700297D01*
X175552882Y-98685736D01*
X175556459Y-98671457D01*
X175561418Y-98657597D01*
X175567712Y-98644290D01*
X175575280Y-98631664D01*
X175584048Y-98619841D01*
X175593934Y-98608934D01*
X175604841Y-98599048D01*
X175616664Y-98590280D01*
X175629290Y-98582712D01*
X175642597Y-98576418D01*
X175656457Y-98571459D01*
X175670736Y-98567882D01*
X175685297Y-98565722D01*
X175700000Y-98565000D01*
X177350000Y-98565000D01*
X177364703Y-98565722D01*
X177364703Y-98565722D01*
G37*
D14*
X176525000Y-98865000D03*
D13*
G36*
X177364703Y-99835722D02*
G01*
X177379264Y-99837882D01*
X177393543Y-99841459D01*
X177407403Y-99846418D01*
X177420710Y-99852712D01*
X177433336Y-99860280D01*
X177445159Y-99869048D01*
X177456066Y-99878934D01*
X177465952Y-99889841D01*
X177474720Y-99901664D01*
X177482288Y-99914290D01*
X177488582Y-99927597D01*
X177493541Y-99941457D01*
X177497118Y-99955736D01*
X177499278Y-99970297D01*
X177500000Y-99985000D01*
X177500000Y-100285000D01*
X177499278Y-100299703D01*
X177497118Y-100314264D01*
X177493541Y-100328543D01*
X177488582Y-100342403D01*
X177482288Y-100355710D01*
X177474720Y-100368336D01*
X177465952Y-100380159D01*
X177456066Y-100391066D01*
X177445159Y-100400952D01*
X177433336Y-100409720D01*
X177420710Y-100417288D01*
X177407403Y-100423582D01*
X177393543Y-100428541D01*
X177379264Y-100432118D01*
X177364703Y-100434278D01*
X177350000Y-100435000D01*
X175700000Y-100435000D01*
X175685297Y-100434278D01*
X175670736Y-100432118D01*
X175656457Y-100428541D01*
X175642597Y-100423582D01*
X175629290Y-100417288D01*
X175616664Y-100409720D01*
X175604841Y-100400952D01*
X175593934Y-100391066D01*
X175584048Y-100380159D01*
X175575280Y-100368336D01*
X175567712Y-100355710D01*
X175561418Y-100342403D01*
X175556459Y-100328543D01*
X175552882Y-100314264D01*
X175550722Y-100299703D01*
X175550000Y-100285000D01*
X175550000Y-99985000D01*
X175550722Y-99970297D01*
X175552882Y-99955736D01*
X175556459Y-99941457D01*
X175561418Y-99927597D01*
X175567712Y-99914290D01*
X175575280Y-99901664D01*
X175584048Y-99889841D01*
X175593934Y-99878934D01*
X175604841Y-99869048D01*
X175616664Y-99860280D01*
X175629290Y-99852712D01*
X175642597Y-99846418D01*
X175656457Y-99841459D01*
X175670736Y-99837882D01*
X175685297Y-99835722D01*
X175700000Y-99835000D01*
X177350000Y-99835000D01*
X177364703Y-99835722D01*
X177364703Y-99835722D01*
G37*
D14*
X176525000Y-100135000D03*
D13*
G36*
X177364703Y-101105722D02*
G01*
X177379264Y-101107882D01*
X177393543Y-101111459D01*
X177407403Y-101116418D01*
X177420710Y-101122712D01*
X177433336Y-101130280D01*
X177445159Y-101139048D01*
X177456066Y-101148934D01*
X177465952Y-101159841D01*
X177474720Y-101171664D01*
X177482288Y-101184290D01*
X177488582Y-101197597D01*
X177493541Y-101211457D01*
X177497118Y-101225736D01*
X177499278Y-101240297D01*
X177500000Y-101255000D01*
X177500000Y-101555000D01*
X177499278Y-101569703D01*
X177497118Y-101584264D01*
X177493541Y-101598543D01*
X177488582Y-101612403D01*
X177482288Y-101625710D01*
X177474720Y-101638336D01*
X177465952Y-101650159D01*
X177456066Y-101661066D01*
X177445159Y-101670952D01*
X177433336Y-101679720D01*
X177420710Y-101687288D01*
X177407403Y-101693582D01*
X177393543Y-101698541D01*
X177379264Y-101702118D01*
X177364703Y-101704278D01*
X177350000Y-101705000D01*
X175700000Y-101705000D01*
X175685297Y-101704278D01*
X175670736Y-101702118D01*
X175656457Y-101698541D01*
X175642597Y-101693582D01*
X175629290Y-101687288D01*
X175616664Y-101679720D01*
X175604841Y-101670952D01*
X175593934Y-101661066D01*
X175584048Y-101650159D01*
X175575280Y-101638336D01*
X175567712Y-101625710D01*
X175561418Y-101612403D01*
X175556459Y-101598543D01*
X175552882Y-101584264D01*
X175550722Y-101569703D01*
X175550000Y-101555000D01*
X175550000Y-101255000D01*
X175550722Y-101240297D01*
X175552882Y-101225736D01*
X175556459Y-101211457D01*
X175561418Y-101197597D01*
X175567712Y-101184290D01*
X175575280Y-101171664D01*
X175584048Y-101159841D01*
X175593934Y-101148934D01*
X175604841Y-101139048D01*
X175616664Y-101130280D01*
X175629290Y-101122712D01*
X175642597Y-101116418D01*
X175656457Y-101111459D01*
X175670736Y-101107882D01*
X175685297Y-101105722D01*
X175700000Y-101105000D01*
X177350000Y-101105000D01*
X177364703Y-101105722D01*
X177364703Y-101105722D01*
G37*
D14*
X176525000Y-101405000D03*
D13*
G36*
X177364703Y-102375722D02*
G01*
X177379264Y-102377882D01*
X177393543Y-102381459D01*
X177407403Y-102386418D01*
X177420710Y-102392712D01*
X177433336Y-102400280D01*
X177445159Y-102409048D01*
X177456066Y-102418934D01*
X177465952Y-102429841D01*
X177474720Y-102441664D01*
X177482288Y-102454290D01*
X177488582Y-102467597D01*
X177493541Y-102481457D01*
X177497118Y-102495736D01*
X177499278Y-102510297D01*
X177500000Y-102525000D01*
X177500000Y-102825000D01*
X177499278Y-102839703D01*
X177497118Y-102854264D01*
X177493541Y-102868543D01*
X177488582Y-102882403D01*
X177482288Y-102895710D01*
X177474720Y-102908336D01*
X177465952Y-102920159D01*
X177456066Y-102931066D01*
X177445159Y-102940952D01*
X177433336Y-102949720D01*
X177420710Y-102957288D01*
X177407403Y-102963582D01*
X177393543Y-102968541D01*
X177379264Y-102972118D01*
X177364703Y-102974278D01*
X177350000Y-102975000D01*
X175700000Y-102975000D01*
X175685297Y-102974278D01*
X175670736Y-102972118D01*
X175656457Y-102968541D01*
X175642597Y-102963582D01*
X175629290Y-102957288D01*
X175616664Y-102949720D01*
X175604841Y-102940952D01*
X175593934Y-102931066D01*
X175584048Y-102920159D01*
X175575280Y-102908336D01*
X175567712Y-102895710D01*
X175561418Y-102882403D01*
X175556459Y-102868543D01*
X175552882Y-102854264D01*
X175550722Y-102839703D01*
X175550000Y-102825000D01*
X175550000Y-102525000D01*
X175550722Y-102510297D01*
X175552882Y-102495736D01*
X175556459Y-102481457D01*
X175561418Y-102467597D01*
X175567712Y-102454290D01*
X175575280Y-102441664D01*
X175584048Y-102429841D01*
X175593934Y-102418934D01*
X175604841Y-102409048D01*
X175616664Y-102400280D01*
X175629290Y-102392712D01*
X175642597Y-102386418D01*
X175656457Y-102381459D01*
X175670736Y-102377882D01*
X175685297Y-102375722D01*
X175700000Y-102375000D01*
X177350000Y-102375000D01*
X177364703Y-102375722D01*
X177364703Y-102375722D01*
G37*
D14*
X176525000Y-102675000D03*
D13*
G36*
X177364703Y-103645722D02*
G01*
X177379264Y-103647882D01*
X177393543Y-103651459D01*
X177407403Y-103656418D01*
X177420710Y-103662712D01*
X177433336Y-103670280D01*
X177445159Y-103679048D01*
X177456066Y-103688934D01*
X177465952Y-103699841D01*
X177474720Y-103711664D01*
X177482288Y-103724290D01*
X177488582Y-103737597D01*
X177493541Y-103751457D01*
X177497118Y-103765736D01*
X177499278Y-103780297D01*
X177500000Y-103795000D01*
X177500000Y-104095000D01*
X177499278Y-104109703D01*
X177497118Y-104124264D01*
X177493541Y-104138543D01*
X177488582Y-104152403D01*
X177482288Y-104165710D01*
X177474720Y-104178336D01*
X177465952Y-104190159D01*
X177456066Y-104201066D01*
X177445159Y-104210952D01*
X177433336Y-104219720D01*
X177420710Y-104227288D01*
X177407403Y-104233582D01*
X177393543Y-104238541D01*
X177379264Y-104242118D01*
X177364703Y-104244278D01*
X177350000Y-104245000D01*
X175700000Y-104245000D01*
X175685297Y-104244278D01*
X175670736Y-104242118D01*
X175656457Y-104238541D01*
X175642597Y-104233582D01*
X175629290Y-104227288D01*
X175616664Y-104219720D01*
X175604841Y-104210952D01*
X175593934Y-104201066D01*
X175584048Y-104190159D01*
X175575280Y-104178336D01*
X175567712Y-104165710D01*
X175561418Y-104152403D01*
X175556459Y-104138543D01*
X175552882Y-104124264D01*
X175550722Y-104109703D01*
X175550000Y-104095000D01*
X175550000Y-103795000D01*
X175550722Y-103780297D01*
X175552882Y-103765736D01*
X175556459Y-103751457D01*
X175561418Y-103737597D01*
X175567712Y-103724290D01*
X175575280Y-103711664D01*
X175584048Y-103699841D01*
X175593934Y-103688934D01*
X175604841Y-103679048D01*
X175616664Y-103670280D01*
X175629290Y-103662712D01*
X175642597Y-103656418D01*
X175656457Y-103651459D01*
X175670736Y-103647882D01*
X175685297Y-103645722D01*
X175700000Y-103645000D01*
X177350000Y-103645000D01*
X177364703Y-103645722D01*
X177364703Y-103645722D01*
G37*
D14*
X176525000Y-103945000D03*
D11*
X181580000Y-110500000D03*
X179040000Y-110500000D03*
D12*
X176500000Y-110500000D03*
D11*
X185200000Y-85000000D03*
X182660000Y-85000000D03*
X180120000Y-85000000D03*
X177580000Y-85000000D03*
X175040000Y-85000000D03*
D12*
X172500000Y-85000000D03*
D11*
X185200000Y-90000000D03*
X182660000Y-90000000D03*
X180120000Y-90000000D03*
X177580000Y-90000000D03*
X175040000Y-90000000D03*
D12*
X172500000Y-90000000D03*
D11*
X145000000Y-143080000D03*
X145000000Y-140540000D03*
D12*
X145000000Y-138000000D03*
D11*
X145000000Y-108700000D03*
X145000000Y-106160000D03*
X145000000Y-103620000D03*
X145000000Y-101080000D03*
X145000000Y-98540000D03*
D12*
X145000000Y-96000000D03*
D11*
X133000000Y-108700000D03*
X133000000Y-106160000D03*
X133000000Y-103620000D03*
X133000000Y-101080000D03*
X133000000Y-98540000D03*
D12*
X133000000Y-96000000D03*
D15*
X140900000Y-138100000D03*
X145300000Y-121500000D03*
X129900000Y-104400000D03*
X137600000Y-130900000D03*
X141975000Y-141300000D03*
X130400000Y-99000000D03*
X141000000Y-140200000D03*
X143600000Y-130800000D03*
X148100000Y-127400000D03*
X156600000Y-120600000D03*
X141800000Y-143300000D03*
X146500000Y-121400000D03*
X144200000Y-117900000D03*
X136100000Y-129500000D03*
X130500000Y-116000000D03*
X131100000Y-132300000D03*
X127400000Y-129600000D03*
X131200000Y-135700000D03*
X157000000Y-110500000D03*
X131200000Y-139400000D03*
X157200000Y-150700000D03*
X130600000Y-147900000D03*
X128100000Y-136000000D03*
X124900000Y-115600000D03*
X128300000Y-91800000D03*
X179000000Y-93000000D03*
X179000000Y-97000000D03*
X176000000Y-92000000D03*
X176000000Y-93725000D03*
X173500000Y-107000000D03*
X169000000Y-80500000D03*
X172500000Y-109500000D03*
X174500000Y-104000000D03*
X178500000Y-101000000D03*
X174000000Y-102000000D03*
X172500000Y-104500000D03*
X174500000Y-97000000D03*
D16*
X140900000Y-138100000D02*
X145300000Y-133700000D01*
X145300000Y-133700000D02*
X145300000Y-121500000D01*
X129900000Y-107339002D02*
X138300000Y-115739002D01*
X129900000Y-104400000D02*
X129900000Y-107339002D01*
X138300000Y-115739002D02*
X138300000Y-130200000D01*
X138300000Y-130200000D02*
X137600000Y-130900000D01*
X141575001Y-141699999D02*
X135499999Y-141699999D01*
X141975000Y-141300000D02*
X141575001Y-141699999D01*
X135499999Y-141699999D02*
X128400000Y-134600000D01*
X128400000Y-134600000D02*
X128400000Y-132600000D01*
X128400000Y-132600000D02*
X125600000Y-129800000D01*
X125600000Y-129800000D02*
X125600000Y-118700000D01*
X128100000Y-116200000D02*
X128100000Y-112700000D01*
X125600000Y-118700000D02*
X128100000Y-116200000D01*
X129174999Y-100225001D02*
X130400000Y-99000000D01*
X128100000Y-112700000D02*
X129174999Y-111625001D01*
X129174999Y-111625001D02*
X129174999Y-100225001D01*
X140174999Y-134225001D02*
X143600000Y-130800000D01*
X141000000Y-140200000D02*
X140174999Y-139374999D01*
X140174999Y-139374999D02*
X140174999Y-134225001D01*
X148100000Y-127400000D02*
X154900000Y-120600000D01*
X154900000Y-120600000D02*
X156600000Y-120600000D01*
X141800000Y-143300000D02*
X142700000Y-142400000D01*
X142700000Y-142400000D02*
X142700000Y-137500000D01*
X142700000Y-137500000D02*
X146500000Y-133700000D01*
X146500000Y-133700000D02*
X146500000Y-121400000D01*
X144200000Y-117900000D02*
X141800000Y-115500000D01*
X141800000Y-106820000D02*
X145000000Y-103620000D01*
X141800000Y-115500000D02*
X141800000Y-106820000D01*
X135534315Y-129500000D02*
X134500000Y-128465685D01*
X136100000Y-129500000D02*
X135534315Y-129500000D01*
X134500000Y-128465685D02*
X134500000Y-118700000D01*
X134500000Y-118700000D02*
X131800000Y-116000000D01*
X131800000Y-116000000D02*
X130500000Y-116000000D01*
X131100000Y-132300000D02*
X128400000Y-129600000D01*
X128400000Y-129600000D02*
X127400000Y-129600000D01*
X131200000Y-135700000D02*
X131200000Y-134200000D01*
X131200000Y-134200000D02*
X131200000Y-134100000D01*
X131200000Y-134100000D02*
X133500000Y-131800000D01*
X133500000Y-131800000D02*
X140500000Y-131800000D01*
X140500000Y-131800000D02*
X143800000Y-128500000D01*
X143800000Y-128500000D02*
X143800000Y-121100000D01*
X143800000Y-121100000D02*
X151800000Y-113100000D01*
X151800000Y-113100000D02*
X154400000Y-113100000D01*
X154400000Y-113100000D02*
X157000000Y-110500000D01*
X131200000Y-139400000D02*
X130600000Y-140000000D01*
X130600000Y-140000000D02*
X130600000Y-146500000D01*
X130600000Y-146500000D02*
X132500000Y-148400000D01*
X132500000Y-148400000D02*
X147900000Y-148400000D01*
X147900000Y-148400000D02*
X152100000Y-152600000D01*
X152100000Y-152600000D02*
X155300000Y-152600000D01*
X155300000Y-152600000D02*
X157200000Y-150700000D01*
X130600000Y-148465685D02*
X129965685Y-149100000D01*
X130600000Y-147900000D02*
X130600000Y-148465685D01*
X129965685Y-149100000D02*
X129000000Y-149100000D01*
X129000000Y-149100000D02*
X128100000Y-148200000D01*
X128100000Y-148200000D02*
X128100000Y-136000000D01*
X125299999Y-115200001D02*
X125299999Y-113100001D01*
X124900000Y-115600000D02*
X125299999Y-115200001D01*
X125299999Y-113100001D02*
X128400000Y-110000000D01*
X128400000Y-110000000D02*
X128400000Y-91900000D01*
X128400000Y-91900000D02*
X128300000Y-91800000D01*
D17*
X185200000Y-85000000D02*
X185200000Y-90000000D01*
D18*
X185200000Y-102800000D02*
X185200000Y-90000000D01*
X184055000Y-103945000D02*
X185200000Y-102800000D01*
X181455000Y-103945000D02*
X183445000Y-103945000D01*
X176500000Y-108900000D02*
X181455000Y-103945000D01*
X176500000Y-110500000D02*
X176500000Y-108900000D01*
X181475000Y-103945000D02*
X183445000Y-103945000D01*
X183445000Y-103945000D02*
X184055000Y-103945000D01*
D16*
X180120000Y-91202081D02*
X181417919Y-92500000D01*
X180120000Y-90000000D02*
X180120000Y-91202081D01*
X181417919Y-92500000D02*
X182500000Y-92500000D01*
X182500000Y-92500000D02*
X183500000Y-93500000D01*
X182550000Y-101405000D02*
X181475000Y-101405000D01*
X183500000Y-100455000D02*
X182550000Y-101405000D01*
X183500000Y-93500000D02*
X183500000Y-100455000D01*
D18*
X177580000Y-85000000D02*
X177580000Y-90000000D01*
D16*
X177580000Y-90000000D02*
X177580000Y-91580000D01*
X177580000Y-91580000D02*
X179000000Y-93000000D01*
X179595000Y-97595000D02*
X181475000Y-97595000D01*
X179000000Y-97000000D02*
X179595000Y-97595000D01*
X181475000Y-97595000D02*
X181475000Y-98865000D01*
D18*
X175040000Y-85000000D02*
X175040000Y-90000000D01*
D16*
X175040000Y-90000000D02*
X175040000Y-91040000D01*
X175040000Y-91040000D02*
X176000000Y-92000000D01*
X176000000Y-93725000D02*
X177225000Y-93725000D01*
X180400000Y-100135000D02*
X181475000Y-100135000D01*
X178274999Y-98009999D02*
X180400000Y-100135000D01*
X178274999Y-94774999D02*
X178274999Y-98009999D01*
X177225000Y-93725000D02*
X178274999Y-94774999D01*
D18*
X172500000Y-85000000D02*
X172500000Y-90000000D01*
D16*
X172500000Y-91100000D02*
X174400000Y-93000000D01*
X172500000Y-90000000D02*
X172500000Y-91100000D01*
X174400000Y-93000000D02*
X177500000Y-93000000D01*
X177500000Y-93000000D02*
X179000000Y-94500000D01*
X179000000Y-94500000D02*
X179000000Y-95500000D01*
X179825000Y-96325000D02*
X181475000Y-96325000D01*
X179000000Y-95500000D02*
X179825000Y-96325000D01*
X181475000Y-94655000D02*
X181475000Y-95055000D01*
X181475000Y-94401998D02*
X181475000Y-94655000D01*
X178755001Y-91681999D02*
X181475000Y-94401998D01*
X178755001Y-86364999D02*
X178755001Y-91681999D01*
X180120000Y-85000000D02*
X178755001Y-86364999D01*
X176154290Y-95954290D02*
X171045710Y-95954290D01*
X176525000Y-96325000D02*
X176154290Y-95954290D01*
X171045710Y-95954290D02*
X169500000Y-97500000D01*
X169500000Y-97500000D02*
X169500000Y-105000000D01*
X169500000Y-105000000D02*
X171500000Y-107000000D01*
X171500000Y-107000000D02*
X173500000Y-107000000D01*
X181484999Y-90564001D02*
X181484999Y-88515001D01*
X183950010Y-93029012D02*
X181484999Y-90564001D01*
X183950010Y-100641400D02*
X183950010Y-93029012D01*
X181475000Y-102675000D02*
X181916410Y-102675000D01*
X181916410Y-102675000D02*
X183950010Y-100641400D01*
X181484999Y-84625997D02*
X179859002Y-83000000D01*
X181484999Y-88515001D02*
X181484999Y-84625997D01*
X179859002Y-83000000D02*
X171500000Y-83000000D01*
X171500000Y-83000000D02*
X169000000Y-80500000D01*
X176525000Y-103945000D02*
X176525000Y-105475000D01*
X176525000Y-105475000D02*
X172500000Y-109500000D01*
X174500000Y-103625000D02*
X174500000Y-104000000D01*
X176525000Y-102675000D02*
X175450000Y-102675000D01*
X175450000Y-102675000D02*
X174500000Y-103625000D01*
X176525000Y-101405000D02*
X178095000Y-101405000D01*
X178095000Y-101405000D02*
X178500000Y-101000000D01*
X174000000Y-102000000D02*
X174500000Y-101500000D01*
X175450000Y-100135000D02*
X176525000Y-100135000D01*
X174500000Y-101085000D02*
X175450000Y-100135000D01*
X174500000Y-101500000D02*
X174500000Y-101085000D01*
X175691288Y-99235710D02*
X172500000Y-102426998D01*
X176525000Y-98865000D02*
X176154290Y-99235710D01*
X176154290Y-99235710D02*
X175691288Y-99235710D01*
X172500000Y-102426998D02*
X172500000Y-104500000D01*
X176525000Y-97595000D02*
X175095000Y-97595000D01*
X175095000Y-97595000D02*
X174500000Y-97000000D01*
D19*
G36*
X162873000Y-164873000D02*
G01*
X115127000Y-164873000D01*
X115127000Y-115498061D01*
X123865000Y-115498061D01*
X123865000Y-115701939D01*
X123904774Y-115901898D01*
X123982795Y-116090256D01*
X124096063Y-116259774D01*
X124240226Y-116403937D01*
X124409744Y-116517205D01*
X124598102Y-116595226D01*
X124798061Y-116635000D01*
X125001939Y-116635000D01*
X125201898Y-116595226D01*
X125390256Y-116517205D01*
X125559774Y-116403937D01*
X125703937Y-116259774D01*
X125817205Y-116090256D01*
X125895226Y-115901898D01*
X125935000Y-115701939D01*
X125935000Y-115624226D01*
X126005545Y-115492248D01*
X126049002Y-115348987D01*
X126059999Y-115237334D01*
X126059999Y-115237324D01*
X126063675Y-115200002D01*
X126059999Y-115162679D01*
X126059999Y-113414802D01*
X128414999Y-111059804D01*
X128414999Y-111310199D01*
X127588998Y-112136201D01*
X127560000Y-112159999D01*
X127536202Y-112188997D01*
X127536201Y-112188998D01*
X127465026Y-112275724D01*
X127394454Y-112407754D01*
X127377081Y-112465027D01*
X127355492Y-112536201D01*
X127350998Y-112551015D01*
X127336324Y-112700000D01*
X127340001Y-112737332D01*
X127340000Y-115885198D01*
X125088998Y-118136201D01*
X125060000Y-118159999D01*
X125036202Y-118188997D01*
X125036201Y-118188998D01*
X124965026Y-118275724D01*
X124894454Y-118407754D01*
X124850998Y-118551015D01*
X124836324Y-118700000D01*
X124840001Y-118737332D01*
X124840000Y-129762678D01*
X124836324Y-129800000D01*
X124840000Y-129837322D01*
X124840000Y-129837332D01*
X124850997Y-129948985D01*
X124865278Y-129996063D01*
X124894454Y-130092246D01*
X124965026Y-130224276D01*
X124994344Y-130260000D01*
X125059999Y-130340001D01*
X125089003Y-130363804D01*
X127640001Y-132914803D01*
X127640000Y-134562677D01*
X127636324Y-134600000D01*
X127640000Y-134637322D01*
X127640000Y-134637332D01*
X127650997Y-134748985D01*
X127684665Y-134859975D01*
X127694454Y-134892246D01*
X127762487Y-135019526D01*
X127609744Y-135082795D01*
X127440226Y-135196063D01*
X127296063Y-135340226D01*
X127182795Y-135509744D01*
X127104774Y-135698102D01*
X127065000Y-135898061D01*
X127065000Y-136101939D01*
X127104774Y-136301898D01*
X127182795Y-136490256D01*
X127296063Y-136659774D01*
X127340001Y-136703712D01*
X127340000Y-148162678D01*
X127336324Y-148200000D01*
X127340000Y-148237322D01*
X127340000Y-148237332D01*
X127350997Y-148348985D01*
X127386197Y-148465026D01*
X127394454Y-148492246D01*
X127465026Y-148624276D01*
X127504871Y-148672826D01*
X127559999Y-148740001D01*
X127589002Y-148763803D01*
X128436201Y-149611003D01*
X128459999Y-149640001D01*
X128575724Y-149734974D01*
X128707753Y-149805546D01*
X128851014Y-149849003D01*
X128962667Y-149860000D01*
X128962676Y-149860000D01*
X128999999Y-149863676D01*
X129037322Y-149860000D01*
X129928363Y-149860000D01*
X129965685Y-149863676D01*
X130003007Y-149860000D01*
X130003018Y-149860000D01*
X130114671Y-149849003D01*
X130257932Y-149805546D01*
X130389961Y-149734974D01*
X130505686Y-149640001D01*
X130529488Y-149610998D01*
X131111002Y-149029485D01*
X131140001Y-149005686D01*
X131174477Y-148963677D01*
X131234974Y-148889962D01*
X131305546Y-148757932D01*
X131310985Y-148740001D01*
X131348987Y-148614724D01*
X131403937Y-148559774D01*
X131476449Y-148451251D01*
X131936200Y-148911002D01*
X131959999Y-148940001D01*
X132075724Y-149034974D01*
X132207753Y-149105546D01*
X132351014Y-149149003D01*
X132462667Y-149160000D01*
X132462675Y-149160000D01*
X132500000Y-149163676D01*
X132537325Y-149160000D01*
X147585199Y-149160000D01*
X151536201Y-153111003D01*
X151559999Y-153140001D01*
X151588997Y-153163799D01*
X151675723Y-153234974D01*
X151807753Y-153305546D01*
X151951014Y-153349003D01*
X152062667Y-153360000D01*
X152062677Y-153360000D01*
X152100000Y-153363676D01*
X152137323Y-153360000D01*
X155262678Y-153360000D01*
X155300000Y-153363676D01*
X155337322Y-153360000D01*
X155337333Y-153360000D01*
X155448986Y-153349003D01*
X155592247Y-153305546D01*
X155724276Y-153234974D01*
X155840001Y-153140001D01*
X155863804Y-153110997D01*
X157239802Y-151735000D01*
X157301939Y-151735000D01*
X157501898Y-151695226D01*
X157690256Y-151617205D01*
X157859774Y-151503937D01*
X158003937Y-151359774D01*
X158117205Y-151190256D01*
X158195226Y-151001898D01*
X158235000Y-150801939D01*
X158235000Y-150598061D01*
X158195226Y-150398102D01*
X158117205Y-150209744D01*
X158003937Y-150040226D01*
X157859774Y-149896063D01*
X157690256Y-149782795D01*
X157501898Y-149704774D01*
X157301939Y-149665000D01*
X157098061Y-149665000D01*
X156898102Y-149704774D01*
X156709744Y-149782795D01*
X156540226Y-149896063D01*
X156396063Y-150040226D01*
X156282795Y-150209744D01*
X156204774Y-150398102D01*
X156165000Y-150598061D01*
X156165000Y-150660198D01*
X154985199Y-151840000D01*
X152414802Y-151840000D01*
X148463804Y-147889003D01*
X148440001Y-147859999D01*
X148324276Y-147765026D01*
X148192247Y-147694454D01*
X148048986Y-147650997D01*
X147937333Y-147640000D01*
X147937322Y-147640000D01*
X147900000Y-147636324D01*
X147862678Y-147640000D01*
X132814802Y-147640000D01*
X131360000Y-146185199D01*
X131360000Y-140423451D01*
X131501898Y-140395226D01*
X131690256Y-140317205D01*
X131859774Y-140203937D01*
X132003937Y-140059774D01*
X132117205Y-139890256D01*
X132195226Y-139701898D01*
X132233696Y-139508497D01*
X134936200Y-142211002D01*
X134959998Y-142240000D01*
X134988996Y-142263798D01*
X135075722Y-142334973D01*
X135165190Y-142382795D01*
X135207752Y-142405545D01*
X135351013Y-142449002D01*
X135462666Y-142459999D01*
X135462676Y-142459999D01*
X135499999Y-142463675D01*
X135537322Y-142459999D01*
X141194200Y-142459999D01*
X141140226Y-142496063D01*
X140996063Y-142640226D01*
X140882795Y-142809744D01*
X140804774Y-142998102D01*
X140765000Y-143198061D01*
X140765000Y-143401939D01*
X140804774Y-143601898D01*
X140882795Y-143790256D01*
X140996063Y-143959774D01*
X141140226Y-144103937D01*
X141309744Y-144217205D01*
X141498102Y-144295226D01*
X141698061Y-144335000D01*
X141901939Y-144335000D01*
X142101898Y-144295226D01*
X142290256Y-144217205D01*
X142459774Y-144103937D01*
X142603937Y-143959774D01*
X142717205Y-143790256D01*
X142795226Y-143601898D01*
X142835000Y-143401939D01*
X142835000Y-143339802D01*
X143094802Y-143080000D01*
X143507815Y-143080000D01*
X143536487Y-143371111D01*
X143621401Y-143651034D01*
X143759294Y-143909014D01*
X143944866Y-144135134D01*
X144170986Y-144320706D01*
X144428966Y-144458599D01*
X144708889Y-144543513D01*
X144927050Y-144565000D01*
X145072950Y-144565000D01*
X145291111Y-144543513D01*
X145571034Y-144458599D01*
X145829014Y-144320706D01*
X146055134Y-144135134D01*
X146240706Y-143909014D01*
X146378599Y-143651034D01*
X146463513Y-143371111D01*
X146492185Y-143080000D01*
X146463513Y-142788889D01*
X146378599Y-142508966D01*
X146240706Y-142250986D01*
X146055134Y-142024866D01*
X145829014Y-141839294D01*
X145764477Y-141804799D01*
X145881355Y-141735178D01*
X146097588Y-141540269D01*
X146271641Y-141306920D01*
X146396825Y-141044099D01*
X146441476Y-140896890D01*
X146320155Y-140667000D01*
X145127000Y-140667000D01*
X145127000Y-140687000D01*
X144873000Y-140687000D01*
X144873000Y-140667000D01*
X143679845Y-140667000D01*
X143558524Y-140896890D01*
X143603175Y-141044099D01*
X143728359Y-141306920D01*
X143902412Y-141540269D01*
X144118645Y-141735178D01*
X144235523Y-141804799D01*
X144170986Y-141839294D01*
X143944866Y-142024866D01*
X143759294Y-142250986D01*
X143621401Y-142508966D01*
X143536487Y-142788889D01*
X143507815Y-143080000D01*
X143094802Y-143080000D01*
X143211004Y-142963798D01*
X143240001Y-142940001D01*
X143334974Y-142824276D01*
X143405546Y-142692247D01*
X143449003Y-142548986D01*
X143460000Y-142437333D01*
X143460000Y-142437324D01*
X143463676Y-142400001D01*
X143460000Y-142362678D01*
X143460000Y-137814801D01*
X143511928Y-137762873D01*
X143511928Y-138850000D01*
X143524188Y-138974482D01*
X143560498Y-139094180D01*
X143619463Y-139204494D01*
X143698815Y-139301185D01*
X143795506Y-139380537D01*
X143905820Y-139439502D01*
X143986466Y-139463966D01*
X143902412Y-139539731D01*
X143728359Y-139773080D01*
X143603175Y-140035901D01*
X143558524Y-140183110D01*
X143679845Y-140413000D01*
X144873000Y-140413000D01*
X144873000Y-140393000D01*
X145127000Y-140393000D01*
X145127000Y-140413000D01*
X146320155Y-140413000D01*
X146441476Y-140183110D01*
X146396825Y-140035901D01*
X146271641Y-139773080D01*
X146097588Y-139539731D01*
X146013534Y-139463966D01*
X146094180Y-139439502D01*
X146204494Y-139380537D01*
X146301185Y-139301185D01*
X146380537Y-139204494D01*
X146439502Y-139094180D01*
X146475812Y-138974482D01*
X146488072Y-138850000D01*
X146488072Y-137150000D01*
X146475812Y-137025518D01*
X146439502Y-136905820D01*
X146380537Y-136795506D01*
X146301185Y-136698815D01*
X146204494Y-136619463D01*
X146094180Y-136560498D01*
X145974482Y-136524188D01*
X145850000Y-136511928D01*
X144762873Y-136511928D01*
X147011004Y-134263798D01*
X147040001Y-134240001D01*
X147134974Y-134124276D01*
X147205546Y-133992247D01*
X147249003Y-133848986D01*
X147260000Y-133737333D01*
X147260000Y-133737332D01*
X147263677Y-133700000D01*
X147260000Y-133662667D01*
X147260000Y-128005802D01*
X147296063Y-128059774D01*
X147440226Y-128203937D01*
X147609744Y-128317205D01*
X147798102Y-128395226D01*
X147998061Y-128435000D01*
X148201939Y-128435000D01*
X148401898Y-128395226D01*
X148590256Y-128317205D01*
X148759774Y-128203937D01*
X148903937Y-128059774D01*
X149017205Y-127890256D01*
X149095226Y-127701898D01*
X149135000Y-127501939D01*
X149135000Y-127439801D01*
X155214802Y-121360000D01*
X155896289Y-121360000D01*
X155940226Y-121403937D01*
X156109744Y-121517205D01*
X156298102Y-121595226D01*
X156498061Y-121635000D01*
X156701939Y-121635000D01*
X156901898Y-121595226D01*
X157090256Y-121517205D01*
X157259774Y-121403937D01*
X157403937Y-121259774D01*
X157517205Y-121090256D01*
X157595226Y-120901898D01*
X157635000Y-120701939D01*
X157635000Y-120498061D01*
X157595226Y-120298102D01*
X157517205Y-120109744D01*
X157403937Y-119940226D01*
X157259774Y-119796063D01*
X157090256Y-119682795D01*
X156901898Y-119604774D01*
X156701939Y-119565000D01*
X156498061Y-119565000D01*
X156298102Y-119604774D01*
X156109744Y-119682795D01*
X155940226Y-119796063D01*
X155896289Y-119840000D01*
X154937322Y-119840000D01*
X154899999Y-119836324D01*
X154862676Y-119840000D01*
X154862667Y-119840000D01*
X154751014Y-119850997D01*
X154607753Y-119894454D01*
X154475724Y-119965026D01*
X154359999Y-120059999D01*
X154336201Y-120088997D01*
X148060199Y-126365000D01*
X147998061Y-126365000D01*
X147798102Y-126404774D01*
X147609744Y-126482795D01*
X147440226Y-126596063D01*
X147296063Y-126740226D01*
X147260000Y-126794198D01*
X147260000Y-122103711D01*
X147303937Y-122059774D01*
X147417205Y-121890256D01*
X147495226Y-121701898D01*
X147535000Y-121501939D01*
X147535000Y-121298061D01*
X147495226Y-121098102D01*
X147417205Y-120909744D01*
X147303937Y-120740226D01*
X147159774Y-120596063D01*
X146990256Y-120482795D01*
X146801898Y-120404774D01*
X146601939Y-120365000D01*
X146398061Y-120365000D01*
X146198102Y-120404774D01*
X146009744Y-120482795D01*
X145840226Y-120596063D01*
X145828164Y-120608125D01*
X145790256Y-120582795D01*
X145601898Y-120504774D01*
X145491906Y-120482895D01*
X152114803Y-113860000D01*
X154362678Y-113860000D01*
X154400000Y-113863676D01*
X154437322Y-113860000D01*
X154437333Y-113860000D01*
X154548986Y-113849003D01*
X154692247Y-113805546D01*
X154824276Y-113734974D01*
X154940001Y-113640001D01*
X154963804Y-113610997D01*
X157039802Y-111535000D01*
X157101939Y-111535000D01*
X157301898Y-111495226D01*
X157490256Y-111417205D01*
X157659774Y-111303937D01*
X157803937Y-111159774D01*
X157917205Y-110990256D01*
X157995226Y-110801898D01*
X158035000Y-110601939D01*
X158035000Y-110398061D01*
X157995226Y-110198102D01*
X157917205Y-110009744D01*
X157803937Y-109840226D01*
X157659774Y-109696063D01*
X157490256Y-109582795D01*
X157301898Y-109504774D01*
X157101939Y-109465000D01*
X156898061Y-109465000D01*
X156698102Y-109504774D01*
X156509744Y-109582795D01*
X156340226Y-109696063D01*
X156196063Y-109840226D01*
X156082795Y-110009744D01*
X156004774Y-110198102D01*
X155965000Y-110398061D01*
X155965000Y-110460198D01*
X154085199Y-112340000D01*
X151837322Y-112340000D01*
X151799999Y-112336324D01*
X151762676Y-112340000D01*
X151762667Y-112340000D01*
X151651014Y-112350997D01*
X151507753Y-112394454D01*
X151375724Y-112465026D01*
X151375722Y-112465027D01*
X151375723Y-112465027D01*
X151288996Y-112536201D01*
X151288992Y-112536205D01*
X151259999Y-112559999D01*
X151236205Y-112588992D01*
X143288998Y-120536201D01*
X143260000Y-120559999D01*
X143236202Y-120588997D01*
X143236201Y-120588998D01*
X143165026Y-120675724D01*
X143094454Y-120807754D01*
X143050998Y-120951015D01*
X143036324Y-121100000D01*
X143040001Y-121137332D01*
X143040000Y-128185198D01*
X140185199Y-131040000D01*
X138627429Y-131040000D01*
X138635000Y-131001939D01*
X138635000Y-130939802D01*
X138811008Y-130763795D01*
X138840001Y-130740001D01*
X138863795Y-130711008D01*
X138863799Y-130711004D01*
X138934973Y-130624277D01*
X138948964Y-130598102D01*
X139005546Y-130492247D01*
X139049003Y-130348986D01*
X139060000Y-130237333D01*
X139060000Y-130237324D01*
X139063676Y-130200001D01*
X139060000Y-130162678D01*
X139060000Y-115776325D01*
X139063676Y-115739002D01*
X139060000Y-115701679D01*
X139060000Y-115701669D01*
X139049003Y-115590016D01*
X139005546Y-115446755D01*
X138999905Y-115436201D01*
X138934974Y-115314725D01*
X138863799Y-115227999D01*
X138840001Y-115199001D01*
X138811004Y-115175204D01*
X133664461Y-110028661D01*
X133829014Y-109940706D01*
X134055134Y-109755134D01*
X134240706Y-109529014D01*
X134378599Y-109271034D01*
X134463513Y-108991111D01*
X134492185Y-108700000D01*
X134463513Y-108408889D01*
X134378599Y-108128966D01*
X134240706Y-107870986D01*
X134055134Y-107644866D01*
X133829014Y-107459294D01*
X133764477Y-107424799D01*
X133881355Y-107355178D01*
X134097588Y-107160269D01*
X134271641Y-106926920D01*
X134322567Y-106820000D01*
X141036324Y-106820000D01*
X141040001Y-106857332D01*
X141040000Y-115462678D01*
X141036324Y-115500000D01*
X141040000Y-115537322D01*
X141040000Y-115537332D01*
X141050997Y-115648985D01*
X141081331Y-115748985D01*
X141094454Y-115792246D01*
X141165026Y-115924276D01*
X141185320Y-115949004D01*
X141259999Y-116040001D01*
X141289003Y-116063804D01*
X143165000Y-117939802D01*
X143165000Y-118001939D01*
X143204774Y-118201898D01*
X143282795Y-118390256D01*
X143396063Y-118559774D01*
X143540226Y-118703937D01*
X143709744Y-118817205D01*
X143898102Y-118895226D01*
X144098061Y-118935000D01*
X144301939Y-118935000D01*
X144501898Y-118895226D01*
X144690256Y-118817205D01*
X144859774Y-118703937D01*
X145003937Y-118559774D01*
X145117205Y-118390256D01*
X145195226Y-118201898D01*
X145235000Y-118001939D01*
X145235000Y-117798061D01*
X145195226Y-117598102D01*
X145117205Y-117409744D01*
X145003937Y-117240226D01*
X144859774Y-117096063D01*
X144690256Y-116982795D01*
X144501898Y-116904774D01*
X144301939Y-116865000D01*
X144239802Y-116865000D01*
X142560000Y-115185199D01*
X142560000Y-107134801D01*
X143515000Y-106179802D01*
X143515000Y-106287002D01*
X143679844Y-106287002D01*
X143558524Y-106516890D01*
X143603175Y-106664099D01*
X143728359Y-106926920D01*
X143902412Y-107160269D01*
X144118645Y-107355178D01*
X144235523Y-107424799D01*
X144170986Y-107459294D01*
X143944866Y-107644866D01*
X143759294Y-107870986D01*
X143621401Y-108128966D01*
X143536487Y-108408889D01*
X143507815Y-108700000D01*
X143536487Y-108991111D01*
X143621401Y-109271034D01*
X143759294Y-109529014D01*
X143944866Y-109755134D01*
X144170986Y-109940706D01*
X144428966Y-110078599D01*
X144708889Y-110163513D01*
X144927050Y-110185000D01*
X145072950Y-110185000D01*
X145291111Y-110163513D01*
X145571034Y-110078599D01*
X145829014Y-109940706D01*
X146055134Y-109755134D01*
X146240706Y-109529014D01*
X146378599Y-109271034D01*
X146463513Y-108991111D01*
X146492185Y-108700000D01*
X146463513Y-108408889D01*
X146378599Y-108128966D01*
X146240706Y-107870986D01*
X146055134Y-107644866D01*
X145829014Y-107459294D01*
X145764477Y-107424799D01*
X145881355Y-107355178D01*
X146097588Y-107160269D01*
X146271641Y-106926920D01*
X146396825Y-106664099D01*
X146441476Y-106516890D01*
X146320155Y-106287000D01*
X145127000Y-106287000D01*
X145127000Y-106307000D01*
X144873000Y-106307000D01*
X144873000Y-106287000D01*
X144853000Y-106287000D01*
X144853000Y-106033000D01*
X144873000Y-106033000D01*
X144873000Y-106013000D01*
X145127000Y-106013000D01*
X145127000Y-106033000D01*
X146320155Y-106033000D01*
X146441476Y-105803110D01*
X146396825Y-105655901D01*
X146271641Y-105393080D01*
X146097588Y-105159731D01*
X145881355Y-104964822D01*
X145764477Y-104895201D01*
X145829014Y-104860706D01*
X146055134Y-104675134D01*
X146240706Y-104449014D01*
X146378599Y-104191034D01*
X146463513Y-103911111D01*
X146492185Y-103620000D01*
X146463513Y-103328889D01*
X146378599Y-103048966D01*
X146240706Y-102790986D01*
X146055134Y-102564866D01*
X145829014Y-102379294D01*
X145774209Y-102350000D01*
X145829014Y-102320706D01*
X146055134Y-102135134D01*
X146240706Y-101909014D01*
X146378599Y-101651034D01*
X146463513Y-101371111D01*
X146492185Y-101080000D01*
X146463513Y-100788889D01*
X146378599Y-100508966D01*
X146240706Y-100250986D01*
X146055134Y-100024866D01*
X145829014Y-99839294D01*
X145774209Y-99810000D01*
X145829014Y-99780706D01*
X146055134Y-99595134D01*
X146240706Y-99369014D01*
X146378599Y-99111034D01*
X146463513Y-98831111D01*
X146492185Y-98540000D01*
X146463513Y-98248889D01*
X146378599Y-97968966D01*
X146240706Y-97710986D01*
X146055134Y-97484866D01*
X146025313Y-97460393D01*
X146094180Y-97439502D01*
X146204494Y-97380537D01*
X146301185Y-97301185D01*
X146380537Y-97204494D01*
X146439502Y-97094180D01*
X146475812Y-96974482D01*
X146488072Y-96850000D01*
X146488072Y-95150000D01*
X146475812Y-95025518D01*
X146439502Y-94905820D01*
X146380537Y-94795506D01*
X146301185Y-94698815D01*
X146204494Y-94619463D01*
X146094180Y-94560498D01*
X145974482Y-94524188D01*
X145850000Y-94511928D01*
X144150000Y-94511928D01*
X144025518Y-94524188D01*
X143905820Y-94560498D01*
X143795506Y-94619463D01*
X143698815Y-94698815D01*
X143619463Y-94795506D01*
X143560498Y-94905820D01*
X143524188Y-95025518D01*
X143511928Y-95150000D01*
X143511928Y-96850000D01*
X143524188Y-96974482D01*
X143560498Y-97094180D01*
X143619463Y-97204494D01*
X143698815Y-97301185D01*
X143795506Y-97380537D01*
X143905820Y-97439502D01*
X143974687Y-97460393D01*
X143944866Y-97484866D01*
X143759294Y-97710986D01*
X143621401Y-97968966D01*
X143536487Y-98248889D01*
X143507815Y-98540000D01*
X143536487Y-98831111D01*
X143621401Y-99111034D01*
X143759294Y-99369014D01*
X143944866Y-99595134D01*
X144170986Y-99780706D01*
X144225791Y-99810000D01*
X144170986Y-99839294D01*
X143944866Y-100024866D01*
X143759294Y-100250986D01*
X143621401Y-100508966D01*
X143536487Y-100788889D01*
X143507815Y-101080000D01*
X143536487Y-101371111D01*
X143621401Y-101651034D01*
X143759294Y-101909014D01*
X143944866Y-102135134D01*
X144170986Y-102320706D01*
X144225791Y-102350000D01*
X144170986Y-102379294D01*
X143944866Y-102564866D01*
X143759294Y-102790986D01*
X143621401Y-103048966D01*
X143536487Y-103328889D01*
X143507815Y-103620000D01*
X143536487Y-103911111D01*
X143559203Y-103985995D01*
X141288998Y-106256201D01*
X141260000Y-106279999D01*
X141236202Y-106308997D01*
X141236201Y-106308998D01*
X141165026Y-106395724D01*
X141094454Y-106527754D01*
X141050998Y-106671015D01*
X141036324Y-106820000D01*
X134322567Y-106820000D01*
X134396825Y-106664099D01*
X134441476Y-106516890D01*
X134320155Y-106287000D01*
X133127000Y-106287000D01*
X133127000Y-106307000D01*
X132873000Y-106307000D01*
X132873000Y-106287000D01*
X131679845Y-106287000D01*
X131558524Y-106516890D01*
X131603175Y-106664099D01*
X131728359Y-106926920D01*
X131902412Y-107160269D01*
X132118645Y-107355178D01*
X132235523Y-107424799D01*
X132170986Y-107459294D01*
X131944866Y-107644866D01*
X131759294Y-107870986D01*
X131671339Y-108035539D01*
X130660000Y-107024201D01*
X130660000Y-105103711D01*
X130703937Y-105059774D01*
X130817205Y-104890256D01*
X130895226Y-104701898D01*
X130935000Y-104501939D01*
X130935000Y-104298061D01*
X130895226Y-104098102D01*
X130817205Y-103909744D01*
X130703937Y-103740226D01*
X130559774Y-103596063D01*
X130390256Y-103482795D01*
X130201898Y-103404774D01*
X130001939Y-103365000D01*
X129934999Y-103365000D01*
X129934999Y-100539802D01*
X130439802Y-100035000D01*
X130501939Y-100035000D01*
X130701898Y-99995226D01*
X130890256Y-99917205D01*
X131059774Y-99803937D01*
X131203937Y-99659774D01*
X131317205Y-99490256D01*
X131395226Y-99301898D01*
X131435000Y-99101939D01*
X131435000Y-98898061D01*
X131395226Y-98698102D01*
X131329738Y-98540000D01*
X131507815Y-98540000D01*
X131536487Y-98831111D01*
X131621401Y-99111034D01*
X131759294Y-99369014D01*
X131944866Y-99595134D01*
X132170986Y-99780706D01*
X132225791Y-99810000D01*
X132170986Y-99839294D01*
X131944866Y-100024866D01*
X131759294Y-100250986D01*
X131621401Y-100508966D01*
X131536487Y-100788889D01*
X131507815Y-101080000D01*
X131536487Y-101371111D01*
X131621401Y-101651034D01*
X131759294Y-101909014D01*
X131944866Y-102135134D01*
X132170986Y-102320706D01*
X132225791Y-102350000D01*
X132170986Y-102379294D01*
X131944866Y-102564866D01*
X131759294Y-102790986D01*
X131621401Y-103048966D01*
X131536487Y-103328889D01*
X131507815Y-103620000D01*
X131536487Y-103911111D01*
X131621401Y-104191034D01*
X131759294Y-104449014D01*
X131944866Y-104675134D01*
X132170986Y-104860706D01*
X132235523Y-104895201D01*
X132118645Y-104964822D01*
X131902412Y-105159731D01*
X131728359Y-105393080D01*
X131603175Y-105655901D01*
X131558524Y-105803110D01*
X131679845Y-106033000D01*
X132873000Y-106033000D01*
X132873000Y-106013000D01*
X133127000Y-106013000D01*
X133127000Y-106033000D01*
X134320155Y-106033000D01*
X134441476Y-105803110D01*
X134396825Y-105655901D01*
X134271641Y-105393080D01*
X134097588Y-105159731D01*
X133881355Y-104964822D01*
X133764477Y-104895201D01*
X133829014Y-104860706D01*
X134055134Y-104675134D01*
X134240706Y-104449014D01*
X134378599Y-104191034D01*
X134463513Y-103911111D01*
X134492185Y-103620000D01*
X134463513Y-103328889D01*
X134378599Y-103048966D01*
X134240706Y-102790986D01*
X134055134Y-102564866D01*
X133829014Y-102379294D01*
X133774209Y-102350000D01*
X133829014Y-102320706D01*
X134055134Y-102135134D01*
X134240706Y-101909014D01*
X134378599Y-101651034D01*
X134463513Y-101371111D01*
X134492185Y-101080000D01*
X134463513Y-100788889D01*
X134378599Y-100508966D01*
X134240706Y-100250986D01*
X134055134Y-100024866D01*
X133829014Y-99839294D01*
X133774209Y-99810000D01*
X133829014Y-99780706D01*
X134055134Y-99595134D01*
X134240706Y-99369014D01*
X134378599Y-99111034D01*
X134463513Y-98831111D01*
X134492185Y-98540000D01*
X134463513Y-98248889D01*
X134378599Y-97968966D01*
X134240706Y-97710986D01*
X134055134Y-97484866D01*
X134025313Y-97460393D01*
X134094180Y-97439502D01*
X134204494Y-97380537D01*
X134301185Y-97301185D01*
X134380537Y-97204494D01*
X134439502Y-97094180D01*
X134475812Y-96974482D01*
X134488072Y-96850000D01*
X134488072Y-95150000D01*
X134475812Y-95025518D01*
X134439502Y-94905820D01*
X134380537Y-94795506D01*
X134301185Y-94698815D01*
X134204494Y-94619463D01*
X134094180Y-94560498D01*
X133974482Y-94524188D01*
X133850000Y-94511928D01*
X132150000Y-94511928D01*
X132025518Y-94524188D01*
X131905820Y-94560498D01*
X131795506Y-94619463D01*
X131698815Y-94698815D01*
X131619463Y-94795506D01*
X131560498Y-94905820D01*
X131524188Y-95025518D01*
X131511928Y-95150000D01*
X131511928Y-96850000D01*
X131524188Y-96974482D01*
X131560498Y-97094180D01*
X131619463Y-97204494D01*
X131698815Y-97301185D01*
X131795506Y-97380537D01*
X131905820Y-97439502D01*
X131974687Y-97460393D01*
X131944866Y-97484866D01*
X131759294Y-97710986D01*
X131621401Y-97968966D01*
X131536487Y-98248889D01*
X131507815Y-98540000D01*
X131329738Y-98540000D01*
X131317205Y-98509744D01*
X131203937Y-98340226D01*
X131059774Y-98196063D01*
X130890256Y-98082795D01*
X130701898Y-98004774D01*
X130501939Y-97965000D01*
X130298061Y-97965000D01*
X130098102Y-98004774D01*
X129909744Y-98082795D01*
X129740226Y-98196063D01*
X129596063Y-98340226D01*
X129482795Y-98509744D01*
X129404774Y-98698102D01*
X129365000Y-98898061D01*
X129365000Y-98960198D01*
X129160000Y-99165199D01*
X129160000Y-92375870D01*
X129217205Y-92290256D01*
X129295226Y-92101898D01*
X129335000Y-91901939D01*
X129335000Y-91698061D01*
X129295226Y-91498102D01*
X129217205Y-91309744D01*
X129103937Y-91140226D01*
X128959774Y-90996063D01*
X128790256Y-90882795D01*
X128601898Y-90804774D01*
X128401939Y-90765000D01*
X128198061Y-90765000D01*
X127998102Y-90804774D01*
X127809744Y-90882795D01*
X127640226Y-90996063D01*
X127496063Y-91140226D01*
X127382795Y-91309744D01*
X127304774Y-91498102D01*
X127265000Y-91698061D01*
X127265000Y-91901939D01*
X127304774Y-92101898D01*
X127382795Y-92290256D01*
X127496063Y-92459774D01*
X127640001Y-92603712D01*
X127640000Y-109685197D01*
X124788998Y-112536201D01*
X124759999Y-112560000D01*
X124736201Y-112588998D01*
X124736200Y-112588999D01*
X124665025Y-112675725D01*
X124594453Y-112807755D01*
X124581947Y-112848985D01*
X124550998Y-112951014D01*
X124550997Y-112951016D01*
X124536323Y-113100001D01*
X124540000Y-113137333D01*
X124539999Y-114628841D01*
X124409744Y-114682795D01*
X124240226Y-114796063D01*
X124096063Y-114940226D01*
X123982795Y-115109744D01*
X123904774Y-115298102D01*
X123865000Y-115498061D01*
X115127000Y-115498061D01*
X115127000Y-77127000D01*
X162873000Y-77127000D01*
X162873000Y-164873000D01*
X162873000Y-164873000D01*
G37*
X162873000Y-164873000D02*
X115127000Y-164873000D01*
X115127000Y-115498061D01*
X123865000Y-115498061D01*
X123865000Y-115701939D01*
X123904774Y-115901898D01*
X123982795Y-116090256D01*
X124096063Y-116259774D01*
X124240226Y-116403937D01*
X124409744Y-116517205D01*
X124598102Y-116595226D01*
X124798061Y-116635000D01*
X125001939Y-116635000D01*
X125201898Y-116595226D01*
X125390256Y-116517205D01*
X125559774Y-116403937D01*
X125703937Y-116259774D01*
X125817205Y-116090256D01*
X125895226Y-115901898D01*
X125935000Y-115701939D01*
X125935000Y-115624226D01*
X126005545Y-115492248D01*
X126049002Y-115348987D01*
X126059999Y-115237334D01*
X126059999Y-115237324D01*
X126063675Y-115200002D01*
X126059999Y-115162679D01*
X126059999Y-113414802D01*
X128414999Y-111059804D01*
X128414999Y-111310199D01*
X127588998Y-112136201D01*
X127560000Y-112159999D01*
X127536202Y-112188997D01*
X127536201Y-112188998D01*
X127465026Y-112275724D01*
X127394454Y-112407754D01*
X127377081Y-112465027D01*
X127355492Y-112536201D01*
X127350998Y-112551015D01*
X127336324Y-112700000D01*
X127340001Y-112737332D01*
X127340000Y-115885198D01*
X125088998Y-118136201D01*
X125060000Y-118159999D01*
X125036202Y-118188997D01*
X125036201Y-118188998D01*
X124965026Y-118275724D01*
X124894454Y-118407754D01*
X124850998Y-118551015D01*
X124836324Y-118700000D01*
X124840001Y-118737332D01*
X124840000Y-129762678D01*
X124836324Y-129800000D01*
X124840000Y-129837322D01*
X124840000Y-129837332D01*
X124850997Y-129948985D01*
X124865278Y-129996063D01*
X124894454Y-130092246D01*
X124965026Y-130224276D01*
X124994344Y-130260000D01*
X125059999Y-130340001D01*
X125089003Y-130363804D01*
X127640001Y-132914803D01*
X127640000Y-134562677D01*
X127636324Y-134600000D01*
X127640000Y-134637322D01*
X127640000Y-134637332D01*
X127650997Y-134748985D01*
X127684665Y-134859975D01*
X127694454Y-134892246D01*
X127762487Y-135019526D01*
X127609744Y-135082795D01*
X127440226Y-135196063D01*
X127296063Y-135340226D01*
X127182795Y-135509744D01*
X127104774Y-135698102D01*
X127065000Y-135898061D01*
X127065000Y-136101939D01*
X127104774Y-136301898D01*
X127182795Y-136490256D01*
X127296063Y-136659774D01*
X127340001Y-136703712D01*
X127340000Y-148162678D01*
X127336324Y-148200000D01*
X127340000Y-148237322D01*
X127340000Y-148237332D01*
X127350997Y-148348985D01*
X127386197Y-148465026D01*
X127394454Y-148492246D01*
X127465026Y-148624276D01*
X127504871Y-148672826D01*
X127559999Y-148740001D01*
X127589002Y-148763803D01*
X128436201Y-149611003D01*
X128459999Y-149640001D01*
X128575724Y-149734974D01*
X128707753Y-149805546D01*
X128851014Y-149849003D01*
X128962667Y-149860000D01*
X128962676Y-149860000D01*
X128999999Y-149863676D01*
X129037322Y-149860000D01*
X129928363Y-149860000D01*
X129965685Y-149863676D01*
X130003007Y-149860000D01*
X130003018Y-149860000D01*
X130114671Y-149849003D01*
X130257932Y-149805546D01*
X130389961Y-149734974D01*
X130505686Y-149640001D01*
X130529488Y-149610998D01*
X131111002Y-149029485D01*
X131140001Y-149005686D01*
X131174477Y-148963677D01*
X131234974Y-148889962D01*
X131305546Y-148757932D01*
X131310985Y-148740001D01*
X131348987Y-148614724D01*
X131403937Y-148559774D01*
X131476449Y-148451251D01*
X131936200Y-148911002D01*
X131959999Y-148940001D01*
X132075724Y-149034974D01*
X132207753Y-149105546D01*
X132351014Y-149149003D01*
X132462667Y-149160000D01*
X132462675Y-149160000D01*
X132500000Y-149163676D01*
X132537325Y-149160000D01*
X147585199Y-149160000D01*
X151536201Y-153111003D01*
X151559999Y-153140001D01*
X151588997Y-153163799D01*
X151675723Y-153234974D01*
X151807753Y-153305546D01*
X151951014Y-153349003D01*
X152062667Y-153360000D01*
X152062677Y-153360000D01*
X152100000Y-153363676D01*
X152137323Y-153360000D01*
X155262678Y-153360000D01*
X155300000Y-153363676D01*
X155337322Y-153360000D01*
X155337333Y-153360000D01*
X155448986Y-153349003D01*
X155592247Y-153305546D01*
X155724276Y-153234974D01*
X155840001Y-153140001D01*
X155863804Y-153110997D01*
X157239802Y-151735000D01*
X157301939Y-151735000D01*
X157501898Y-151695226D01*
X157690256Y-151617205D01*
X157859774Y-151503937D01*
X158003937Y-151359774D01*
X158117205Y-151190256D01*
X158195226Y-151001898D01*
X158235000Y-150801939D01*
X158235000Y-150598061D01*
X158195226Y-150398102D01*
X158117205Y-150209744D01*
X158003937Y-150040226D01*
X157859774Y-149896063D01*
X157690256Y-149782795D01*
X157501898Y-149704774D01*
X157301939Y-149665000D01*
X157098061Y-149665000D01*
X156898102Y-149704774D01*
X156709744Y-149782795D01*
X156540226Y-149896063D01*
X156396063Y-150040226D01*
X156282795Y-150209744D01*
X156204774Y-150398102D01*
X156165000Y-150598061D01*
X156165000Y-150660198D01*
X154985199Y-151840000D01*
X152414802Y-151840000D01*
X148463804Y-147889003D01*
X148440001Y-147859999D01*
X148324276Y-147765026D01*
X148192247Y-147694454D01*
X148048986Y-147650997D01*
X147937333Y-147640000D01*
X147937322Y-147640000D01*
X147900000Y-147636324D01*
X147862678Y-147640000D01*
X132814802Y-147640000D01*
X131360000Y-146185199D01*
X131360000Y-140423451D01*
X131501898Y-140395226D01*
X131690256Y-140317205D01*
X131859774Y-140203937D01*
X132003937Y-140059774D01*
X132117205Y-139890256D01*
X132195226Y-139701898D01*
X132233696Y-139508497D01*
X134936200Y-142211002D01*
X134959998Y-142240000D01*
X134988996Y-142263798D01*
X135075722Y-142334973D01*
X135165190Y-142382795D01*
X135207752Y-142405545D01*
X135351013Y-142449002D01*
X135462666Y-142459999D01*
X135462676Y-142459999D01*
X135499999Y-142463675D01*
X135537322Y-142459999D01*
X141194200Y-142459999D01*
X141140226Y-142496063D01*
X140996063Y-142640226D01*
X140882795Y-142809744D01*
X140804774Y-142998102D01*
X140765000Y-143198061D01*
X140765000Y-143401939D01*
X140804774Y-143601898D01*
X140882795Y-143790256D01*
X140996063Y-143959774D01*
X141140226Y-144103937D01*
X141309744Y-144217205D01*
X141498102Y-144295226D01*
X141698061Y-144335000D01*
X141901939Y-144335000D01*
X142101898Y-144295226D01*
X142290256Y-144217205D01*
X142459774Y-144103937D01*
X142603937Y-143959774D01*
X142717205Y-143790256D01*
X142795226Y-143601898D01*
X142835000Y-143401939D01*
X142835000Y-143339802D01*
X143094802Y-143080000D01*
X143507815Y-143080000D01*
X143536487Y-143371111D01*
X143621401Y-143651034D01*
X143759294Y-143909014D01*
X143944866Y-144135134D01*
X144170986Y-144320706D01*
X144428966Y-144458599D01*
X144708889Y-144543513D01*
X144927050Y-144565000D01*
X145072950Y-144565000D01*
X145291111Y-144543513D01*
X145571034Y-144458599D01*
X145829014Y-144320706D01*
X146055134Y-144135134D01*
X146240706Y-143909014D01*
X146378599Y-143651034D01*
X146463513Y-143371111D01*
X146492185Y-143080000D01*
X146463513Y-142788889D01*
X146378599Y-142508966D01*
X146240706Y-142250986D01*
X146055134Y-142024866D01*
X145829014Y-141839294D01*
X145764477Y-141804799D01*
X145881355Y-141735178D01*
X146097588Y-141540269D01*
X146271641Y-141306920D01*
X146396825Y-141044099D01*
X146441476Y-140896890D01*
X146320155Y-140667000D01*
X145127000Y-140667000D01*
X145127000Y-140687000D01*
X144873000Y-140687000D01*
X144873000Y-140667000D01*
X143679845Y-140667000D01*
X143558524Y-140896890D01*
X143603175Y-141044099D01*
X143728359Y-141306920D01*
X143902412Y-141540269D01*
X144118645Y-141735178D01*
X144235523Y-141804799D01*
X144170986Y-141839294D01*
X143944866Y-142024866D01*
X143759294Y-142250986D01*
X143621401Y-142508966D01*
X143536487Y-142788889D01*
X143507815Y-143080000D01*
X143094802Y-143080000D01*
X143211004Y-142963798D01*
X143240001Y-142940001D01*
X143334974Y-142824276D01*
X143405546Y-142692247D01*
X143449003Y-142548986D01*
X143460000Y-142437333D01*
X143460000Y-142437324D01*
X143463676Y-142400001D01*
X143460000Y-142362678D01*
X143460000Y-137814801D01*
X143511928Y-137762873D01*
X143511928Y-138850000D01*
X143524188Y-138974482D01*
X143560498Y-139094180D01*
X143619463Y-139204494D01*
X143698815Y-139301185D01*
X143795506Y-139380537D01*
X143905820Y-139439502D01*
X143986466Y-139463966D01*
X143902412Y-139539731D01*
X143728359Y-139773080D01*
X143603175Y-140035901D01*
X143558524Y-140183110D01*
X143679845Y-140413000D01*
X144873000Y-140413000D01*
X144873000Y-140393000D01*
X145127000Y-140393000D01*
X145127000Y-140413000D01*
X146320155Y-140413000D01*
X146441476Y-140183110D01*
X146396825Y-140035901D01*
X146271641Y-139773080D01*
X146097588Y-139539731D01*
X146013534Y-139463966D01*
X146094180Y-139439502D01*
X146204494Y-139380537D01*
X146301185Y-139301185D01*
X146380537Y-139204494D01*
X146439502Y-139094180D01*
X146475812Y-138974482D01*
X146488072Y-138850000D01*
X146488072Y-137150000D01*
X146475812Y-137025518D01*
X146439502Y-136905820D01*
X146380537Y-136795506D01*
X146301185Y-136698815D01*
X146204494Y-136619463D01*
X146094180Y-136560498D01*
X145974482Y-136524188D01*
X145850000Y-136511928D01*
X144762873Y-136511928D01*
X147011004Y-134263798D01*
X147040001Y-134240001D01*
X147134974Y-134124276D01*
X147205546Y-133992247D01*
X147249003Y-133848986D01*
X147260000Y-133737333D01*
X147260000Y-133737332D01*
X147263677Y-133700000D01*
X147260000Y-133662667D01*
X147260000Y-128005802D01*
X147296063Y-128059774D01*
X147440226Y-128203937D01*
X147609744Y-128317205D01*
X147798102Y-128395226D01*
X147998061Y-128435000D01*
X148201939Y-128435000D01*
X148401898Y-128395226D01*
X148590256Y-128317205D01*
X148759774Y-128203937D01*
X148903937Y-128059774D01*
X149017205Y-127890256D01*
X149095226Y-127701898D01*
X149135000Y-127501939D01*
X149135000Y-127439801D01*
X155214802Y-121360000D01*
X155896289Y-121360000D01*
X155940226Y-121403937D01*
X156109744Y-121517205D01*
X156298102Y-121595226D01*
X156498061Y-121635000D01*
X156701939Y-121635000D01*
X156901898Y-121595226D01*
X157090256Y-121517205D01*
X157259774Y-121403937D01*
X157403937Y-121259774D01*
X157517205Y-121090256D01*
X157595226Y-120901898D01*
X157635000Y-120701939D01*
X157635000Y-120498061D01*
X157595226Y-120298102D01*
X157517205Y-120109744D01*
X157403937Y-119940226D01*
X157259774Y-119796063D01*
X157090256Y-119682795D01*
X156901898Y-119604774D01*
X156701939Y-119565000D01*
X156498061Y-119565000D01*
X156298102Y-119604774D01*
X156109744Y-119682795D01*
X155940226Y-119796063D01*
X155896289Y-119840000D01*
X154937322Y-119840000D01*
X154899999Y-119836324D01*
X154862676Y-119840000D01*
X154862667Y-119840000D01*
X154751014Y-119850997D01*
X154607753Y-119894454D01*
X154475724Y-119965026D01*
X154359999Y-120059999D01*
X154336201Y-120088997D01*
X148060199Y-126365000D01*
X147998061Y-126365000D01*
X147798102Y-126404774D01*
X147609744Y-126482795D01*
X147440226Y-126596063D01*
X147296063Y-126740226D01*
X147260000Y-126794198D01*
X147260000Y-122103711D01*
X147303937Y-122059774D01*
X147417205Y-121890256D01*
X147495226Y-121701898D01*
X147535000Y-121501939D01*
X147535000Y-121298061D01*
X147495226Y-121098102D01*
X147417205Y-120909744D01*
X147303937Y-120740226D01*
X147159774Y-120596063D01*
X146990256Y-120482795D01*
X146801898Y-120404774D01*
X146601939Y-120365000D01*
X146398061Y-120365000D01*
X146198102Y-120404774D01*
X146009744Y-120482795D01*
X145840226Y-120596063D01*
X145828164Y-120608125D01*
X145790256Y-120582795D01*
X145601898Y-120504774D01*
X145491906Y-120482895D01*
X152114803Y-113860000D01*
X154362678Y-113860000D01*
X154400000Y-113863676D01*
X154437322Y-113860000D01*
X154437333Y-113860000D01*
X154548986Y-113849003D01*
X154692247Y-113805546D01*
X154824276Y-113734974D01*
X154940001Y-113640001D01*
X154963804Y-113610997D01*
X157039802Y-111535000D01*
X157101939Y-111535000D01*
X157301898Y-111495226D01*
X157490256Y-111417205D01*
X157659774Y-111303937D01*
X157803937Y-111159774D01*
X157917205Y-110990256D01*
X157995226Y-110801898D01*
X158035000Y-110601939D01*
X158035000Y-110398061D01*
X157995226Y-110198102D01*
X157917205Y-110009744D01*
X157803937Y-109840226D01*
X157659774Y-109696063D01*
X157490256Y-109582795D01*
X157301898Y-109504774D01*
X157101939Y-109465000D01*
X156898061Y-109465000D01*
X156698102Y-109504774D01*
X156509744Y-109582795D01*
X156340226Y-109696063D01*
X156196063Y-109840226D01*
X156082795Y-110009744D01*
X156004774Y-110198102D01*
X155965000Y-110398061D01*
X155965000Y-110460198D01*
X154085199Y-112340000D01*
X151837322Y-112340000D01*
X151799999Y-112336324D01*
X151762676Y-112340000D01*
X151762667Y-112340000D01*
X151651014Y-112350997D01*
X151507753Y-112394454D01*
X151375724Y-112465026D01*
X151375722Y-112465027D01*
X151375723Y-112465027D01*
X151288996Y-112536201D01*
X151288992Y-112536205D01*
X151259999Y-112559999D01*
X151236205Y-112588992D01*
X143288998Y-120536201D01*
X143260000Y-120559999D01*
X143236202Y-120588997D01*
X143236201Y-120588998D01*
X143165026Y-120675724D01*
X143094454Y-120807754D01*
X143050998Y-120951015D01*
X143036324Y-121100000D01*
X143040001Y-121137332D01*
X143040000Y-128185198D01*
X140185199Y-131040000D01*
X138627429Y-131040000D01*
X138635000Y-131001939D01*
X138635000Y-130939802D01*
X138811008Y-130763795D01*
X138840001Y-130740001D01*
X138863795Y-130711008D01*
X138863799Y-130711004D01*
X138934973Y-130624277D01*
X138948964Y-130598102D01*
X139005546Y-130492247D01*
X139049003Y-130348986D01*
X139060000Y-130237333D01*
X139060000Y-130237324D01*
X139063676Y-130200001D01*
X139060000Y-130162678D01*
X139060000Y-115776325D01*
X139063676Y-115739002D01*
X139060000Y-115701679D01*
X139060000Y-115701669D01*
X139049003Y-115590016D01*
X139005546Y-115446755D01*
X138999905Y-115436201D01*
X138934974Y-115314725D01*
X138863799Y-115227999D01*
X138840001Y-115199001D01*
X138811004Y-115175204D01*
X133664461Y-110028661D01*
X133829014Y-109940706D01*
X134055134Y-109755134D01*
X134240706Y-109529014D01*
X134378599Y-109271034D01*
X134463513Y-108991111D01*
X134492185Y-108700000D01*
X134463513Y-108408889D01*
X134378599Y-108128966D01*
X134240706Y-107870986D01*
X134055134Y-107644866D01*
X133829014Y-107459294D01*
X133764477Y-107424799D01*
X133881355Y-107355178D01*
X134097588Y-107160269D01*
X134271641Y-106926920D01*
X134322567Y-106820000D01*
X141036324Y-106820000D01*
X141040001Y-106857332D01*
X141040000Y-115462678D01*
X141036324Y-115500000D01*
X141040000Y-115537322D01*
X141040000Y-115537332D01*
X141050997Y-115648985D01*
X141081331Y-115748985D01*
X141094454Y-115792246D01*
X141165026Y-115924276D01*
X141185320Y-115949004D01*
X141259999Y-116040001D01*
X141289003Y-116063804D01*
X143165000Y-117939802D01*
X143165000Y-118001939D01*
X143204774Y-118201898D01*
X143282795Y-118390256D01*
X143396063Y-118559774D01*
X143540226Y-118703937D01*
X143709744Y-118817205D01*
X143898102Y-118895226D01*
X144098061Y-118935000D01*
X144301939Y-118935000D01*
X144501898Y-118895226D01*
X144690256Y-118817205D01*
X144859774Y-118703937D01*
X145003937Y-118559774D01*
X145117205Y-118390256D01*
X145195226Y-118201898D01*
X145235000Y-118001939D01*
X145235000Y-117798061D01*
X145195226Y-117598102D01*
X145117205Y-117409744D01*
X145003937Y-117240226D01*
X144859774Y-117096063D01*
X144690256Y-116982795D01*
X144501898Y-116904774D01*
X144301939Y-116865000D01*
X144239802Y-116865000D01*
X142560000Y-115185199D01*
X142560000Y-107134801D01*
X143515000Y-106179802D01*
X143515000Y-106287002D01*
X143679844Y-106287002D01*
X143558524Y-106516890D01*
X143603175Y-106664099D01*
X143728359Y-106926920D01*
X143902412Y-107160269D01*
X144118645Y-107355178D01*
X144235523Y-107424799D01*
X144170986Y-107459294D01*
X143944866Y-107644866D01*
X143759294Y-107870986D01*
X143621401Y-108128966D01*
X143536487Y-108408889D01*
X143507815Y-108700000D01*
X143536487Y-108991111D01*
X143621401Y-109271034D01*
X143759294Y-109529014D01*
X143944866Y-109755134D01*
X144170986Y-109940706D01*
X144428966Y-110078599D01*
X144708889Y-110163513D01*
X144927050Y-110185000D01*
X145072950Y-110185000D01*
X145291111Y-110163513D01*
X145571034Y-110078599D01*
X145829014Y-109940706D01*
X146055134Y-109755134D01*
X146240706Y-109529014D01*
X146378599Y-109271034D01*
X146463513Y-108991111D01*
X146492185Y-108700000D01*
X146463513Y-108408889D01*
X146378599Y-108128966D01*
X146240706Y-107870986D01*
X146055134Y-107644866D01*
X145829014Y-107459294D01*
X145764477Y-107424799D01*
X145881355Y-107355178D01*
X146097588Y-107160269D01*
X146271641Y-106926920D01*
X146396825Y-106664099D01*
X146441476Y-106516890D01*
X146320155Y-106287000D01*
X145127000Y-106287000D01*
X145127000Y-106307000D01*
X144873000Y-106307000D01*
X144873000Y-106287000D01*
X144853000Y-106287000D01*
X144853000Y-106033000D01*
X144873000Y-106033000D01*
X144873000Y-106013000D01*
X145127000Y-106013000D01*
X145127000Y-106033000D01*
X146320155Y-106033000D01*
X146441476Y-105803110D01*
X146396825Y-105655901D01*
X146271641Y-105393080D01*
X146097588Y-105159731D01*
X145881355Y-104964822D01*
X145764477Y-104895201D01*
X145829014Y-104860706D01*
X146055134Y-104675134D01*
X146240706Y-104449014D01*
X146378599Y-104191034D01*
X146463513Y-103911111D01*
X146492185Y-103620000D01*
X146463513Y-103328889D01*
X146378599Y-103048966D01*
X146240706Y-102790986D01*
X146055134Y-102564866D01*
X145829014Y-102379294D01*
X145774209Y-102350000D01*
X145829014Y-102320706D01*
X146055134Y-102135134D01*
X146240706Y-101909014D01*
X146378599Y-101651034D01*
X146463513Y-101371111D01*
X146492185Y-101080000D01*
X146463513Y-100788889D01*
X146378599Y-100508966D01*
X146240706Y-100250986D01*
X146055134Y-100024866D01*
X145829014Y-99839294D01*
X145774209Y-99810000D01*
X145829014Y-99780706D01*
X146055134Y-99595134D01*
X146240706Y-99369014D01*
X146378599Y-99111034D01*
X146463513Y-98831111D01*
X146492185Y-98540000D01*
X146463513Y-98248889D01*
X146378599Y-97968966D01*
X146240706Y-97710986D01*
X146055134Y-97484866D01*
X146025313Y-97460393D01*
X146094180Y-97439502D01*
X146204494Y-97380537D01*
X146301185Y-97301185D01*
X146380537Y-97204494D01*
X146439502Y-97094180D01*
X146475812Y-96974482D01*
X146488072Y-96850000D01*
X146488072Y-95150000D01*
X146475812Y-95025518D01*
X146439502Y-94905820D01*
X146380537Y-94795506D01*
X146301185Y-94698815D01*
X146204494Y-94619463D01*
X146094180Y-94560498D01*
X145974482Y-94524188D01*
X145850000Y-94511928D01*
X144150000Y-94511928D01*
X144025518Y-94524188D01*
X143905820Y-94560498D01*
X143795506Y-94619463D01*
X143698815Y-94698815D01*
X143619463Y-94795506D01*
X143560498Y-94905820D01*
X143524188Y-95025518D01*
X143511928Y-95150000D01*
X143511928Y-96850000D01*
X143524188Y-96974482D01*
X143560498Y-97094180D01*
X143619463Y-97204494D01*
X143698815Y-97301185D01*
X143795506Y-97380537D01*
X143905820Y-97439502D01*
X143974687Y-97460393D01*
X143944866Y-97484866D01*
X143759294Y-97710986D01*
X143621401Y-97968966D01*
X143536487Y-98248889D01*
X143507815Y-98540000D01*
X143536487Y-98831111D01*
X143621401Y-99111034D01*
X143759294Y-99369014D01*
X143944866Y-99595134D01*
X144170986Y-99780706D01*
X144225791Y-99810000D01*
X144170986Y-99839294D01*
X143944866Y-100024866D01*
X143759294Y-100250986D01*
X143621401Y-100508966D01*
X143536487Y-100788889D01*
X143507815Y-101080000D01*
X143536487Y-101371111D01*
X143621401Y-101651034D01*
X143759294Y-101909014D01*
X143944866Y-102135134D01*
X144170986Y-102320706D01*
X144225791Y-102350000D01*
X144170986Y-102379294D01*
X143944866Y-102564866D01*
X143759294Y-102790986D01*
X143621401Y-103048966D01*
X143536487Y-103328889D01*
X143507815Y-103620000D01*
X143536487Y-103911111D01*
X143559203Y-103985995D01*
X141288998Y-106256201D01*
X141260000Y-106279999D01*
X141236202Y-106308997D01*
X141236201Y-106308998D01*
X141165026Y-106395724D01*
X141094454Y-106527754D01*
X141050998Y-106671015D01*
X141036324Y-106820000D01*
X134322567Y-106820000D01*
X134396825Y-106664099D01*
X134441476Y-106516890D01*
X134320155Y-106287000D01*
X133127000Y-106287000D01*
X133127000Y-106307000D01*
X132873000Y-106307000D01*
X132873000Y-106287000D01*
X131679845Y-106287000D01*
X131558524Y-106516890D01*
X131603175Y-106664099D01*
X131728359Y-106926920D01*
X131902412Y-107160269D01*
X132118645Y-107355178D01*
X132235523Y-107424799D01*
X132170986Y-107459294D01*
X131944866Y-107644866D01*
X131759294Y-107870986D01*
X131671339Y-108035539D01*
X130660000Y-107024201D01*
X130660000Y-105103711D01*
X130703937Y-105059774D01*
X130817205Y-104890256D01*
X130895226Y-104701898D01*
X130935000Y-104501939D01*
X130935000Y-104298061D01*
X130895226Y-104098102D01*
X130817205Y-103909744D01*
X130703937Y-103740226D01*
X130559774Y-103596063D01*
X130390256Y-103482795D01*
X130201898Y-103404774D01*
X130001939Y-103365000D01*
X129934999Y-103365000D01*
X129934999Y-100539802D01*
X130439802Y-100035000D01*
X130501939Y-100035000D01*
X130701898Y-99995226D01*
X130890256Y-99917205D01*
X131059774Y-99803937D01*
X131203937Y-99659774D01*
X131317205Y-99490256D01*
X131395226Y-99301898D01*
X131435000Y-99101939D01*
X131435000Y-98898061D01*
X131395226Y-98698102D01*
X131329738Y-98540000D01*
X131507815Y-98540000D01*
X131536487Y-98831111D01*
X131621401Y-99111034D01*
X131759294Y-99369014D01*
X131944866Y-99595134D01*
X132170986Y-99780706D01*
X132225791Y-99810000D01*
X132170986Y-99839294D01*
X131944866Y-100024866D01*
X131759294Y-100250986D01*
X131621401Y-100508966D01*
X131536487Y-100788889D01*
X131507815Y-101080000D01*
X131536487Y-101371111D01*
X131621401Y-101651034D01*
X131759294Y-101909014D01*
X131944866Y-102135134D01*
X132170986Y-102320706D01*
X132225791Y-102350000D01*
X132170986Y-102379294D01*
X131944866Y-102564866D01*
X131759294Y-102790986D01*
X131621401Y-103048966D01*
X131536487Y-103328889D01*
X131507815Y-103620000D01*
X131536487Y-103911111D01*
X131621401Y-104191034D01*
X131759294Y-104449014D01*
X131944866Y-104675134D01*
X132170986Y-104860706D01*
X132235523Y-104895201D01*
X132118645Y-104964822D01*
X131902412Y-105159731D01*
X131728359Y-105393080D01*
X131603175Y-105655901D01*
X131558524Y-105803110D01*
X131679845Y-106033000D01*
X132873000Y-106033000D01*
X132873000Y-106013000D01*
X133127000Y-106013000D01*
X133127000Y-106033000D01*
X134320155Y-106033000D01*
X134441476Y-105803110D01*
X134396825Y-105655901D01*
X134271641Y-105393080D01*
X134097588Y-105159731D01*
X133881355Y-104964822D01*
X133764477Y-104895201D01*
X133829014Y-104860706D01*
X134055134Y-104675134D01*
X134240706Y-104449014D01*
X134378599Y-104191034D01*
X134463513Y-103911111D01*
X134492185Y-103620000D01*
X134463513Y-103328889D01*
X134378599Y-103048966D01*
X134240706Y-102790986D01*
X134055134Y-102564866D01*
X133829014Y-102379294D01*
X133774209Y-102350000D01*
X133829014Y-102320706D01*
X134055134Y-102135134D01*
X134240706Y-101909014D01*
X134378599Y-101651034D01*
X134463513Y-101371111D01*
X134492185Y-101080000D01*
X134463513Y-100788889D01*
X134378599Y-100508966D01*
X134240706Y-100250986D01*
X134055134Y-100024866D01*
X133829014Y-99839294D01*
X133774209Y-99810000D01*
X133829014Y-99780706D01*
X134055134Y-99595134D01*
X134240706Y-99369014D01*
X134378599Y-99111034D01*
X134463513Y-98831111D01*
X134492185Y-98540000D01*
X134463513Y-98248889D01*
X134378599Y-97968966D01*
X134240706Y-97710986D01*
X134055134Y-97484866D01*
X134025313Y-97460393D01*
X134094180Y-97439502D01*
X134204494Y-97380537D01*
X134301185Y-97301185D01*
X134380537Y-97204494D01*
X134439502Y-97094180D01*
X134475812Y-96974482D01*
X134488072Y-96850000D01*
X134488072Y-95150000D01*
X134475812Y-95025518D01*
X134439502Y-94905820D01*
X134380537Y-94795506D01*
X134301185Y-94698815D01*
X134204494Y-94619463D01*
X134094180Y-94560498D01*
X133974482Y-94524188D01*
X133850000Y-94511928D01*
X132150000Y-94511928D01*
X132025518Y-94524188D01*
X131905820Y-94560498D01*
X131795506Y-94619463D01*
X131698815Y-94698815D01*
X131619463Y-94795506D01*
X131560498Y-94905820D01*
X131524188Y-95025518D01*
X131511928Y-95150000D01*
X131511928Y-96850000D01*
X131524188Y-96974482D01*
X131560498Y-97094180D01*
X131619463Y-97204494D01*
X131698815Y-97301185D01*
X131795506Y-97380537D01*
X131905820Y-97439502D01*
X131974687Y-97460393D01*
X131944866Y-97484866D01*
X131759294Y-97710986D01*
X131621401Y-97968966D01*
X131536487Y-98248889D01*
X131507815Y-98540000D01*
X131329738Y-98540000D01*
X131317205Y-98509744D01*
X131203937Y-98340226D01*
X131059774Y-98196063D01*
X130890256Y-98082795D01*
X130701898Y-98004774D01*
X130501939Y-97965000D01*
X130298061Y-97965000D01*
X130098102Y-98004774D01*
X129909744Y-98082795D01*
X129740226Y-98196063D01*
X129596063Y-98340226D01*
X129482795Y-98509744D01*
X129404774Y-98698102D01*
X129365000Y-98898061D01*
X129365000Y-98960198D01*
X129160000Y-99165199D01*
X129160000Y-92375870D01*
X129217205Y-92290256D01*
X129295226Y-92101898D01*
X129335000Y-91901939D01*
X129335000Y-91698061D01*
X129295226Y-91498102D01*
X129217205Y-91309744D01*
X129103937Y-91140226D01*
X128959774Y-90996063D01*
X128790256Y-90882795D01*
X128601898Y-90804774D01*
X128401939Y-90765000D01*
X128198061Y-90765000D01*
X127998102Y-90804774D01*
X127809744Y-90882795D01*
X127640226Y-90996063D01*
X127496063Y-91140226D01*
X127382795Y-91309744D01*
X127304774Y-91498102D01*
X127265000Y-91698061D01*
X127265000Y-91901939D01*
X127304774Y-92101898D01*
X127382795Y-92290256D01*
X127496063Y-92459774D01*
X127640001Y-92603712D01*
X127640000Y-109685197D01*
X124788998Y-112536201D01*
X124759999Y-112560000D01*
X124736201Y-112588998D01*
X124736200Y-112588999D01*
X124665025Y-112675725D01*
X124594453Y-112807755D01*
X124581947Y-112848985D01*
X124550998Y-112951014D01*
X124550997Y-112951016D01*
X124536323Y-113100001D01*
X124540000Y-113137333D01*
X124539999Y-114628841D01*
X124409744Y-114682795D01*
X124240226Y-114796063D01*
X124096063Y-114940226D01*
X123982795Y-115109744D01*
X123904774Y-115298102D01*
X123865000Y-115498061D01*
X115127000Y-115498061D01*
X115127000Y-77127000D01*
X162873000Y-77127000D01*
X162873000Y-164873000D01*
G36*
X193373000Y-121373000D02*
G01*
X164627000Y-121373000D01*
X164627000Y-80398061D01*
X167965000Y-80398061D01*
X167965000Y-80601939D01*
X168004774Y-80801898D01*
X168082795Y-80990256D01*
X168196063Y-81159774D01*
X168340226Y-81303937D01*
X168509744Y-81417205D01*
X168698102Y-81495226D01*
X168898061Y-81535000D01*
X168960199Y-81535000D01*
X170936200Y-83511002D01*
X170959999Y-83540001D01*
X170988997Y-83563799D01*
X171075723Y-83634974D01*
X171195160Y-83698815D01*
X171197701Y-83700173D01*
X171119463Y-83795506D01*
X171060498Y-83905820D01*
X171024188Y-84025518D01*
X171011928Y-84150000D01*
X171011928Y-85850000D01*
X171024188Y-85974482D01*
X171060498Y-86094180D01*
X171119463Y-86204494D01*
X171198815Y-86301185D01*
X171295506Y-86380537D01*
X171405820Y-86439502D01*
X171490000Y-86465038D01*
X171490001Y-88534962D01*
X171405820Y-88560498D01*
X171295506Y-88619463D01*
X171198815Y-88698815D01*
X171119463Y-88795506D01*
X171060498Y-88905820D01*
X171024188Y-89025518D01*
X171011928Y-89150000D01*
X171011928Y-90850000D01*
X171024188Y-90974482D01*
X171060498Y-91094180D01*
X171119463Y-91204494D01*
X171198815Y-91301185D01*
X171295506Y-91380537D01*
X171405820Y-91439502D01*
X171525518Y-91475812D01*
X171650000Y-91488072D01*
X171845674Y-91488072D01*
X171865026Y-91524276D01*
X171886960Y-91551002D01*
X171960000Y-91640001D01*
X171988998Y-91663799D01*
X173836200Y-93511002D01*
X173859999Y-93540001D01*
X173975724Y-93634974D01*
X174107753Y-93705546D01*
X174251014Y-93749003D01*
X174362667Y-93760000D01*
X174362675Y-93760000D01*
X174400000Y-93763676D01*
X174437325Y-93760000D01*
X174965000Y-93760000D01*
X174965000Y-93826939D01*
X175004774Y-94026898D01*
X175082795Y-94215256D01*
X175126685Y-94280943D01*
X175098815Y-94303815D01*
X175019463Y-94400506D01*
X174960498Y-94510820D01*
X174924188Y-94630518D01*
X174911928Y-94755000D01*
X174915000Y-94769250D01*
X175073750Y-94928000D01*
X176398000Y-94928000D01*
X176398000Y-94908000D01*
X176652000Y-94908000D01*
X176652000Y-94928000D01*
X176672000Y-94928000D01*
X176672000Y-95182000D01*
X176652000Y-95182000D01*
X176652000Y-95202000D01*
X176398000Y-95202000D01*
X176398000Y-95182000D01*
X175073750Y-95182000D01*
X175061460Y-95194290D01*
X171083032Y-95194290D01*
X171045709Y-95190614D01*
X171008386Y-95194290D01*
X171008377Y-95194290D01*
X170896724Y-95205287D01*
X170753463Y-95248744D01*
X170621433Y-95319316D01*
X170571195Y-95360546D01*
X170505709Y-95414289D01*
X170481911Y-95443287D01*
X168989003Y-96936196D01*
X168959999Y-96959999D01*
X168904871Y-97027174D01*
X168865026Y-97075724D01*
X168860604Y-97083997D01*
X168794454Y-97207754D01*
X168750997Y-97351015D01*
X168740000Y-97462668D01*
X168740000Y-97462678D01*
X168736324Y-97500000D01*
X168740000Y-97537322D01*
X168740001Y-104962668D01*
X168736324Y-105000000D01*
X168740001Y-105037333D01*
X168750998Y-105148986D01*
X168761241Y-105182754D01*
X168794454Y-105292246D01*
X168865026Y-105424276D01*
X168906655Y-105475000D01*
X168960000Y-105540001D01*
X168988998Y-105563799D01*
X170936201Y-107511003D01*
X170959999Y-107540001D01*
X170988997Y-107563799D01*
X171075723Y-107634974D01*
X171207753Y-107705546D01*
X171351014Y-107749003D01*
X171462667Y-107760000D01*
X171462676Y-107760000D01*
X171499999Y-107763676D01*
X171537322Y-107760000D01*
X172796289Y-107760000D01*
X172840226Y-107803937D01*
X173008695Y-107916504D01*
X172460199Y-108465000D01*
X172398061Y-108465000D01*
X172198102Y-108504774D01*
X172009744Y-108582795D01*
X171840226Y-108696063D01*
X171696063Y-108840226D01*
X171582795Y-109009744D01*
X171504774Y-109198102D01*
X171465000Y-109398061D01*
X171465000Y-109601939D01*
X171504774Y-109801898D01*
X171582795Y-109990256D01*
X171696063Y-110159774D01*
X171840226Y-110303937D01*
X172009744Y-110417205D01*
X172198102Y-110495226D01*
X172398061Y-110535000D01*
X172601939Y-110535000D01*
X172801898Y-110495226D01*
X172990256Y-110417205D01*
X173159774Y-110303937D01*
X173303937Y-110159774D01*
X173417205Y-109990256D01*
X173495226Y-109801898D01*
X173535000Y-109601939D01*
X173535000Y-109539801D01*
X177036003Y-106038799D01*
X177065001Y-106015001D01*
X177159974Y-105899276D01*
X177230546Y-105767247D01*
X177274003Y-105623986D01*
X177285000Y-105512333D01*
X177288677Y-105475000D01*
X177285000Y-105437667D01*
X177285000Y-104883072D01*
X177350000Y-104883072D01*
X177503745Y-104867929D01*
X177651582Y-104823084D01*
X177787829Y-104750258D01*
X177907251Y-104652251D01*
X178005258Y-104532829D01*
X178078084Y-104396582D01*
X178122929Y-104248745D01*
X178138072Y-104095000D01*
X178138072Y-103795000D01*
X178122929Y-103641255D01*
X178078084Y-103493418D01*
X178005258Y-103357171D01*
X177966546Y-103310000D01*
X178005258Y-103262829D01*
X178078084Y-103126582D01*
X178122929Y-102978745D01*
X178138072Y-102825000D01*
X178138072Y-102525000D01*
X178122929Y-102371255D01*
X178078084Y-102223418D01*
X178046859Y-102165000D01*
X178057678Y-102165000D01*
X178095000Y-102168676D01*
X178132322Y-102165000D01*
X178132333Y-102165000D01*
X178243986Y-102154003D01*
X178387247Y-102110546D01*
X178519276Y-102039974D01*
X178525337Y-102035000D01*
X178601939Y-102035000D01*
X178801898Y-101995226D01*
X178990256Y-101917205D01*
X179159774Y-101803937D01*
X179303937Y-101659774D01*
X179417205Y-101490256D01*
X179495226Y-101301898D01*
X179535000Y-101101939D01*
X179535000Y-100898061D01*
X179495226Y-100698102D01*
X179417205Y-100509744D01*
X179303937Y-100340226D01*
X179159774Y-100196063D01*
X178990256Y-100082795D01*
X178801898Y-100004774D01*
X178601939Y-99965000D01*
X178398061Y-99965000D01*
X178198102Y-100004774D01*
X178138072Y-100029639D01*
X178138072Y-99985000D01*
X178122929Y-99831255D01*
X178078084Y-99683418D01*
X178005258Y-99547171D01*
X177966546Y-99500000D01*
X178005258Y-99452829D01*
X178078084Y-99316582D01*
X178122929Y-99168745D01*
X178138072Y-99015000D01*
X178138072Y-98947873D01*
X179836201Y-100646003D01*
X179859999Y-100675001D01*
X179975724Y-100769974D01*
X180015866Y-100791431D01*
X179994742Y-100817171D01*
X179921916Y-100953418D01*
X179877071Y-101101255D01*
X179861928Y-101255000D01*
X179861928Y-101555000D01*
X179877071Y-101708745D01*
X179921916Y-101856582D01*
X179994742Y-101992829D01*
X180033454Y-102040000D01*
X179994742Y-102087171D01*
X179921916Y-102223418D01*
X179877071Y-102371255D01*
X179861928Y-102525000D01*
X179861928Y-102825000D01*
X179877071Y-102978745D01*
X179921916Y-103126582D01*
X179994742Y-103262829D01*
X180033454Y-103310000D01*
X179994742Y-103357171D01*
X179921916Y-103493418D01*
X179877071Y-103641255D01*
X179861928Y-103795000D01*
X179861928Y-104095000D01*
X179863248Y-104108397D01*
X175820901Y-108150744D01*
X175782368Y-108182367D01*
X175750745Y-108220900D01*
X175750744Y-108220901D01*
X175656154Y-108336160D01*
X175562368Y-108511621D01*
X175504615Y-108702006D01*
X175485114Y-108900000D01*
X175490001Y-108949617D01*
X175490001Y-109034962D01*
X175405820Y-109060498D01*
X175295506Y-109119463D01*
X175198815Y-109198815D01*
X175119463Y-109295506D01*
X175060498Y-109405820D01*
X175024188Y-109525518D01*
X175011928Y-109650000D01*
X175011928Y-111350000D01*
X175024188Y-111474482D01*
X175060498Y-111594180D01*
X175119463Y-111704494D01*
X175198815Y-111801185D01*
X175295506Y-111880537D01*
X175405820Y-111939502D01*
X175525518Y-111975812D01*
X175650000Y-111988072D01*
X177350000Y-111988072D01*
X177474482Y-111975812D01*
X177594180Y-111939502D01*
X177704494Y-111880537D01*
X177801185Y-111801185D01*
X177880537Y-111704494D01*
X177939502Y-111594180D01*
X177963966Y-111513534D01*
X178039731Y-111597588D01*
X178273080Y-111771641D01*
X178535901Y-111896825D01*
X178683110Y-111941476D01*
X178913000Y-111820155D01*
X178913000Y-110627000D01*
X178893000Y-110627000D01*
X178893000Y-110373000D01*
X178913000Y-110373000D01*
X178913000Y-109179845D01*
X179167000Y-109179845D01*
X179167000Y-110373000D01*
X179187000Y-110373000D01*
X179187000Y-110627000D01*
X179167000Y-110627000D01*
X179167000Y-111820155D01*
X179396890Y-111941476D01*
X179544099Y-111896825D01*
X179806920Y-111771641D01*
X180040269Y-111597588D01*
X180235178Y-111381355D01*
X180304799Y-111264477D01*
X180339294Y-111329014D01*
X180524866Y-111555134D01*
X180750986Y-111740706D01*
X181008966Y-111878599D01*
X181288889Y-111963513D01*
X181507050Y-111985000D01*
X181652950Y-111985000D01*
X181871111Y-111963513D01*
X182151034Y-111878599D01*
X182409014Y-111740706D01*
X182635134Y-111555134D01*
X182820706Y-111329014D01*
X182958599Y-111071034D01*
X183043513Y-110791111D01*
X183072185Y-110500000D01*
X183043513Y-110208889D01*
X182958599Y-109928966D01*
X182820706Y-109670986D01*
X182635134Y-109444866D01*
X182409014Y-109259294D01*
X182151034Y-109121401D01*
X181871111Y-109036487D01*
X181652950Y-109015000D01*
X181507050Y-109015000D01*
X181288889Y-109036487D01*
X181008966Y-109121401D01*
X180750986Y-109259294D01*
X180524866Y-109444866D01*
X180339294Y-109670986D01*
X180304799Y-109735523D01*
X180235178Y-109618645D01*
X180040269Y-109402412D01*
X179806920Y-109228359D01*
X179544099Y-109103175D01*
X179396890Y-109058524D01*
X179167000Y-109179845D01*
X178913000Y-109179845D01*
X178683110Y-109058524D01*
X178535901Y-109103175D01*
X178273080Y-109228359D01*
X178039731Y-109402412D01*
X177963966Y-109486466D01*
X177939502Y-109405820D01*
X177880537Y-109295506D01*
X177801185Y-109198815D01*
X177706910Y-109121445D01*
X181873355Y-104955000D01*
X184005392Y-104955000D01*
X184055000Y-104959886D01*
X184252994Y-104940385D01*
X184329408Y-104917205D01*
X184443380Y-104882632D01*
X184618840Y-104788847D01*
X184772633Y-104662633D01*
X184804261Y-104624094D01*
X185879099Y-103549257D01*
X185917633Y-103517633D01*
X186043847Y-103363840D01*
X186137632Y-103188380D01*
X186164661Y-103099277D01*
X186195385Y-102997995D01*
X186214886Y-102800000D01*
X186210000Y-102750392D01*
X186210000Y-91092175D01*
X186255134Y-91055134D01*
X186440706Y-90829014D01*
X186578599Y-90571034D01*
X186663513Y-90291111D01*
X186692185Y-90000000D01*
X186663513Y-89708889D01*
X186578599Y-89428966D01*
X186460000Y-89207083D01*
X186460000Y-85792917D01*
X186578599Y-85571034D01*
X186663513Y-85291111D01*
X186692185Y-85000000D01*
X186663513Y-84708889D01*
X186578599Y-84428966D01*
X186440706Y-84170986D01*
X186255134Y-83944866D01*
X186029014Y-83759294D01*
X185771034Y-83621401D01*
X185491111Y-83536487D01*
X185272950Y-83515000D01*
X185127050Y-83515000D01*
X184908889Y-83536487D01*
X184628966Y-83621401D01*
X184370986Y-83759294D01*
X184144866Y-83944866D01*
X183959294Y-84170986D01*
X183924799Y-84235523D01*
X183855178Y-84118645D01*
X183660269Y-83902412D01*
X183426920Y-83728359D01*
X183164099Y-83603175D01*
X183016890Y-83558524D01*
X182787000Y-83679845D01*
X182787000Y-84873000D01*
X182807000Y-84873000D01*
X182807000Y-85127000D01*
X182787000Y-85127000D01*
X182787000Y-86320155D01*
X183016890Y-86441476D01*
X183164099Y-86396825D01*
X183426920Y-86271641D01*
X183660269Y-86097588D01*
X183855178Y-85881355D01*
X183924799Y-85764477D01*
X183940000Y-85792918D01*
X183940001Y-89207081D01*
X183924799Y-89235523D01*
X183855178Y-89118645D01*
X183660269Y-88902412D01*
X183426920Y-88728359D01*
X183164099Y-88603175D01*
X183016890Y-88558524D01*
X182787000Y-88679845D01*
X182787000Y-89873000D01*
X182807000Y-89873000D01*
X182807000Y-90127000D01*
X182787000Y-90127000D01*
X182787000Y-90147000D01*
X182533000Y-90147000D01*
X182533000Y-90127000D01*
X182513000Y-90127000D01*
X182513000Y-89873000D01*
X182533000Y-89873000D01*
X182533000Y-88679845D01*
X182303110Y-88558524D01*
X182244999Y-88576150D01*
X182244999Y-86423850D01*
X182303110Y-86441476D01*
X182533000Y-86320155D01*
X182533000Y-85127000D01*
X182513000Y-85127000D01*
X182513000Y-84873000D01*
X182533000Y-84873000D01*
X182533000Y-83679845D01*
X182303110Y-83558524D01*
X182155901Y-83603175D01*
X181893080Y-83728359D01*
X181760817Y-83827013D01*
X180422806Y-82489003D01*
X180399003Y-82459999D01*
X180283278Y-82365026D01*
X180151249Y-82294454D01*
X180007988Y-82250997D01*
X179896335Y-82240000D01*
X179896324Y-82240000D01*
X179859002Y-82236324D01*
X179821680Y-82240000D01*
X171814802Y-82240000D01*
X170035000Y-80460199D01*
X170035000Y-80398061D01*
X169995226Y-80198102D01*
X169917205Y-80009744D01*
X169803937Y-79840226D01*
X169659774Y-79696063D01*
X169490256Y-79582795D01*
X169301898Y-79504774D01*
X169101939Y-79465000D01*
X168898061Y-79465000D01*
X168698102Y-79504774D01*
X168509744Y-79582795D01*
X168340226Y-79696063D01*
X168196063Y-79840226D01*
X168082795Y-80009744D01*
X168004774Y-80198102D01*
X167965000Y-80398061D01*
X164627000Y-80398061D01*
X164627000Y-76627000D01*
X193373000Y-76627000D01*
X193373000Y-121373000D01*
X193373000Y-121373000D01*
G37*
X193373000Y-121373000D02*
X164627000Y-121373000D01*
X164627000Y-80398061D01*
X167965000Y-80398061D01*
X167965000Y-80601939D01*
X168004774Y-80801898D01*
X168082795Y-80990256D01*
X168196063Y-81159774D01*
X168340226Y-81303937D01*
X168509744Y-81417205D01*
X168698102Y-81495226D01*
X168898061Y-81535000D01*
X168960199Y-81535000D01*
X170936200Y-83511002D01*
X170959999Y-83540001D01*
X170988997Y-83563799D01*
X171075723Y-83634974D01*
X171195160Y-83698815D01*
X171197701Y-83700173D01*
X171119463Y-83795506D01*
X171060498Y-83905820D01*
X171024188Y-84025518D01*
X171011928Y-84150000D01*
X171011928Y-85850000D01*
X171024188Y-85974482D01*
X171060498Y-86094180D01*
X171119463Y-86204494D01*
X171198815Y-86301185D01*
X171295506Y-86380537D01*
X171405820Y-86439502D01*
X171490000Y-86465038D01*
X171490001Y-88534962D01*
X171405820Y-88560498D01*
X171295506Y-88619463D01*
X171198815Y-88698815D01*
X171119463Y-88795506D01*
X171060498Y-88905820D01*
X171024188Y-89025518D01*
X171011928Y-89150000D01*
X171011928Y-90850000D01*
X171024188Y-90974482D01*
X171060498Y-91094180D01*
X171119463Y-91204494D01*
X171198815Y-91301185D01*
X171295506Y-91380537D01*
X171405820Y-91439502D01*
X171525518Y-91475812D01*
X171650000Y-91488072D01*
X171845674Y-91488072D01*
X171865026Y-91524276D01*
X171886960Y-91551002D01*
X171960000Y-91640001D01*
X171988998Y-91663799D01*
X173836200Y-93511002D01*
X173859999Y-93540001D01*
X173975724Y-93634974D01*
X174107753Y-93705546D01*
X174251014Y-93749003D01*
X174362667Y-93760000D01*
X174362675Y-93760000D01*
X174400000Y-93763676D01*
X174437325Y-93760000D01*
X174965000Y-93760000D01*
X174965000Y-93826939D01*
X175004774Y-94026898D01*
X175082795Y-94215256D01*
X175126685Y-94280943D01*
X175098815Y-94303815D01*
X175019463Y-94400506D01*
X174960498Y-94510820D01*
X174924188Y-94630518D01*
X174911928Y-94755000D01*
X174915000Y-94769250D01*
X175073750Y-94928000D01*
X176398000Y-94928000D01*
X176398000Y-94908000D01*
X176652000Y-94908000D01*
X176652000Y-94928000D01*
X176672000Y-94928000D01*
X176672000Y-95182000D01*
X176652000Y-95182000D01*
X176652000Y-95202000D01*
X176398000Y-95202000D01*
X176398000Y-95182000D01*
X175073750Y-95182000D01*
X175061460Y-95194290D01*
X171083032Y-95194290D01*
X171045709Y-95190614D01*
X171008386Y-95194290D01*
X171008377Y-95194290D01*
X170896724Y-95205287D01*
X170753463Y-95248744D01*
X170621433Y-95319316D01*
X170571195Y-95360546D01*
X170505709Y-95414289D01*
X170481911Y-95443287D01*
X168989003Y-96936196D01*
X168959999Y-96959999D01*
X168904871Y-97027174D01*
X168865026Y-97075724D01*
X168860604Y-97083997D01*
X168794454Y-97207754D01*
X168750997Y-97351015D01*
X168740000Y-97462668D01*
X168740000Y-97462678D01*
X168736324Y-97500000D01*
X168740000Y-97537322D01*
X168740001Y-104962668D01*
X168736324Y-105000000D01*
X168740001Y-105037333D01*
X168750998Y-105148986D01*
X168761241Y-105182754D01*
X168794454Y-105292246D01*
X168865026Y-105424276D01*
X168906655Y-105475000D01*
X168960000Y-105540001D01*
X168988998Y-105563799D01*
X170936201Y-107511003D01*
X170959999Y-107540001D01*
X170988997Y-107563799D01*
X171075723Y-107634974D01*
X171207753Y-107705546D01*
X171351014Y-107749003D01*
X171462667Y-107760000D01*
X171462676Y-107760000D01*
X171499999Y-107763676D01*
X171537322Y-107760000D01*
X172796289Y-107760000D01*
X172840226Y-107803937D01*
X173008695Y-107916504D01*
X172460199Y-108465000D01*
X172398061Y-108465000D01*
X172198102Y-108504774D01*
X172009744Y-108582795D01*
X171840226Y-108696063D01*
X171696063Y-108840226D01*
X171582795Y-109009744D01*
X171504774Y-109198102D01*
X171465000Y-109398061D01*
X171465000Y-109601939D01*
X171504774Y-109801898D01*
X171582795Y-109990256D01*
X171696063Y-110159774D01*
X171840226Y-110303937D01*
X172009744Y-110417205D01*
X172198102Y-110495226D01*
X172398061Y-110535000D01*
X172601939Y-110535000D01*
X172801898Y-110495226D01*
X172990256Y-110417205D01*
X173159774Y-110303937D01*
X173303937Y-110159774D01*
X173417205Y-109990256D01*
X173495226Y-109801898D01*
X173535000Y-109601939D01*
X173535000Y-109539801D01*
X177036003Y-106038799D01*
X177065001Y-106015001D01*
X177159974Y-105899276D01*
X177230546Y-105767247D01*
X177274003Y-105623986D01*
X177285000Y-105512333D01*
X177288677Y-105475000D01*
X177285000Y-105437667D01*
X177285000Y-104883072D01*
X177350000Y-104883072D01*
X177503745Y-104867929D01*
X177651582Y-104823084D01*
X177787829Y-104750258D01*
X177907251Y-104652251D01*
X178005258Y-104532829D01*
X178078084Y-104396582D01*
X178122929Y-104248745D01*
X178138072Y-104095000D01*
X178138072Y-103795000D01*
X178122929Y-103641255D01*
X178078084Y-103493418D01*
X178005258Y-103357171D01*
X177966546Y-103310000D01*
X178005258Y-103262829D01*
X178078084Y-103126582D01*
X178122929Y-102978745D01*
X178138072Y-102825000D01*
X178138072Y-102525000D01*
X178122929Y-102371255D01*
X178078084Y-102223418D01*
X178046859Y-102165000D01*
X178057678Y-102165000D01*
X178095000Y-102168676D01*
X178132322Y-102165000D01*
X178132333Y-102165000D01*
X178243986Y-102154003D01*
X178387247Y-102110546D01*
X178519276Y-102039974D01*
X178525337Y-102035000D01*
X178601939Y-102035000D01*
X178801898Y-101995226D01*
X178990256Y-101917205D01*
X179159774Y-101803937D01*
X179303937Y-101659774D01*
X179417205Y-101490256D01*
X179495226Y-101301898D01*
X179535000Y-101101939D01*
X179535000Y-100898061D01*
X179495226Y-100698102D01*
X179417205Y-100509744D01*
X179303937Y-100340226D01*
X179159774Y-100196063D01*
X178990256Y-100082795D01*
X178801898Y-100004774D01*
X178601939Y-99965000D01*
X178398061Y-99965000D01*
X178198102Y-100004774D01*
X178138072Y-100029639D01*
X178138072Y-99985000D01*
X178122929Y-99831255D01*
X178078084Y-99683418D01*
X178005258Y-99547171D01*
X177966546Y-99500000D01*
X178005258Y-99452829D01*
X178078084Y-99316582D01*
X178122929Y-99168745D01*
X178138072Y-99015000D01*
X178138072Y-98947873D01*
X179836201Y-100646003D01*
X179859999Y-100675001D01*
X179975724Y-100769974D01*
X180015866Y-100791431D01*
X179994742Y-100817171D01*
X179921916Y-100953418D01*
X179877071Y-101101255D01*
X179861928Y-101255000D01*
X179861928Y-101555000D01*
X179877071Y-101708745D01*
X179921916Y-101856582D01*
X179994742Y-101992829D01*
X180033454Y-102040000D01*
X179994742Y-102087171D01*
X179921916Y-102223418D01*
X179877071Y-102371255D01*
X179861928Y-102525000D01*
X179861928Y-102825000D01*
X179877071Y-102978745D01*
X179921916Y-103126582D01*
X179994742Y-103262829D01*
X180033454Y-103310000D01*
X179994742Y-103357171D01*
X179921916Y-103493418D01*
X179877071Y-103641255D01*
X179861928Y-103795000D01*
X179861928Y-104095000D01*
X179863248Y-104108397D01*
X175820901Y-108150744D01*
X175782368Y-108182367D01*
X175750745Y-108220900D01*
X175750744Y-108220901D01*
X175656154Y-108336160D01*
X175562368Y-108511621D01*
X175504615Y-108702006D01*
X175485114Y-108900000D01*
X175490001Y-108949617D01*
X175490001Y-109034962D01*
X175405820Y-109060498D01*
X175295506Y-109119463D01*
X175198815Y-109198815D01*
X175119463Y-109295506D01*
X175060498Y-109405820D01*
X175024188Y-109525518D01*
X175011928Y-109650000D01*
X175011928Y-111350000D01*
X175024188Y-111474482D01*
X175060498Y-111594180D01*
X175119463Y-111704494D01*
X175198815Y-111801185D01*
X175295506Y-111880537D01*
X175405820Y-111939502D01*
X175525518Y-111975812D01*
X175650000Y-111988072D01*
X177350000Y-111988072D01*
X177474482Y-111975812D01*
X177594180Y-111939502D01*
X177704494Y-111880537D01*
X177801185Y-111801185D01*
X177880537Y-111704494D01*
X177939502Y-111594180D01*
X177963966Y-111513534D01*
X178039731Y-111597588D01*
X178273080Y-111771641D01*
X178535901Y-111896825D01*
X178683110Y-111941476D01*
X178913000Y-111820155D01*
X178913000Y-110627000D01*
X178893000Y-110627000D01*
X178893000Y-110373000D01*
X178913000Y-110373000D01*
X178913000Y-109179845D01*
X179167000Y-109179845D01*
X179167000Y-110373000D01*
X179187000Y-110373000D01*
X179187000Y-110627000D01*
X179167000Y-110627000D01*
X179167000Y-111820155D01*
X179396890Y-111941476D01*
X179544099Y-111896825D01*
X179806920Y-111771641D01*
X180040269Y-111597588D01*
X180235178Y-111381355D01*
X180304799Y-111264477D01*
X180339294Y-111329014D01*
X180524866Y-111555134D01*
X180750986Y-111740706D01*
X181008966Y-111878599D01*
X181288889Y-111963513D01*
X181507050Y-111985000D01*
X181652950Y-111985000D01*
X181871111Y-111963513D01*
X182151034Y-111878599D01*
X182409014Y-111740706D01*
X182635134Y-111555134D01*
X182820706Y-111329014D01*
X182958599Y-111071034D01*
X183043513Y-110791111D01*
X183072185Y-110500000D01*
X183043513Y-110208889D01*
X182958599Y-109928966D01*
X182820706Y-109670986D01*
X182635134Y-109444866D01*
X182409014Y-109259294D01*
X182151034Y-109121401D01*
X181871111Y-109036487D01*
X181652950Y-109015000D01*
X181507050Y-109015000D01*
X181288889Y-109036487D01*
X181008966Y-109121401D01*
X180750986Y-109259294D01*
X180524866Y-109444866D01*
X180339294Y-109670986D01*
X180304799Y-109735523D01*
X180235178Y-109618645D01*
X180040269Y-109402412D01*
X179806920Y-109228359D01*
X179544099Y-109103175D01*
X179396890Y-109058524D01*
X179167000Y-109179845D01*
X178913000Y-109179845D01*
X178683110Y-109058524D01*
X178535901Y-109103175D01*
X178273080Y-109228359D01*
X178039731Y-109402412D01*
X177963966Y-109486466D01*
X177939502Y-109405820D01*
X177880537Y-109295506D01*
X177801185Y-109198815D01*
X177706910Y-109121445D01*
X181873355Y-104955000D01*
X184005392Y-104955000D01*
X184055000Y-104959886D01*
X184252994Y-104940385D01*
X184329408Y-104917205D01*
X184443380Y-104882632D01*
X184618840Y-104788847D01*
X184772633Y-104662633D01*
X184804261Y-104624094D01*
X185879099Y-103549257D01*
X185917633Y-103517633D01*
X186043847Y-103363840D01*
X186137632Y-103188380D01*
X186164661Y-103099277D01*
X186195385Y-102997995D01*
X186214886Y-102800000D01*
X186210000Y-102750392D01*
X186210000Y-91092175D01*
X186255134Y-91055134D01*
X186440706Y-90829014D01*
X186578599Y-90571034D01*
X186663513Y-90291111D01*
X186692185Y-90000000D01*
X186663513Y-89708889D01*
X186578599Y-89428966D01*
X186460000Y-89207083D01*
X186460000Y-85792917D01*
X186578599Y-85571034D01*
X186663513Y-85291111D01*
X186692185Y-85000000D01*
X186663513Y-84708889D01*
X186578599Y-84428966D01*
X186440706Y-84170986D01*
X186255134Y-83944866D01*
X186029014Y-83759294D01*
X185771034Y-83621401D01*
X185491111Y-83536487D01*
X185272950Y-83515000D01*
X185127050Y-83515000D01*
X184908889Y-83536487D01*
X184628966Y-83621401D01*
X184370986Y-83759294D01*
X184144866Y-83944866D01*
X183959294Y-84170986D01*
X183924799Y-84235523D01*
X183855178Y-84118645D01*
X183660269Y-83902412D01*
X183426920Y-83728359D01*
X183164099Y-83603175D01*
X183016890Y-83558524D01*
X182787000Y-83679845D01*
X182787000Y-84873000D01*
X182807000Y-84873000D01*
X182807000Y-85127000D01*
X182787000Y-85127000D01*
X182787000Y-86320155D01*
X183016890Y-86441476D01*
X183164099Y-86396825D01*
X183426920Y-86271641D01*
X183660269Y-86097588D01*
X183855178Y-85881355D01*
X183924799Y-85764477D01*
X183940000Y-85792918D01*
X183940001Y-89207081D01*
X183924799Y-89235523D01*
X183855178Y-89118645D01*
X183660269Y-88902412D01*
X183426920Y-88728359D01*
X183164099Y-88603175D01*
X183016890Y-88558524D01*
X182787000Y-88679845D01*
X182787000Y-89873000D01*
X182807000Y-89873000D01*
X182807000Y-90127000D01*
X182787000Y-90127000D01*
X182787000Y-90147000D01*
X182533000Y-90147000D01*
X182533000Y-90127000D01*
X182513000Y-90127000D01*
X182513000Y-89873000D01*
X182533000Y-89873000D01*
X182533000Y-88679845D01*
X182303110Y-88558524D01*
X182244999Y-88576150D01*
X182244999Y-86423850D01*
X182303110Y-86441476D01*
X182533000Y-86320155D01*
X182533000Y-85127000D01*
X182513000Y-85127000D01*
X182513000Y-84873000D01*
X182533000Y-84873000D01*
X182533000Y-83679845D01*
X182303110Y-83558524D01*
X182155901Y-83603175D01*
X181893080Y-83728359D01*
X181760817Y-83827013D01*
X180422806Y-82489003D01*
X180399003Y-82459999D01*
X180283278Y-82365026D01*
X180151249Y-82294454D01*
X180007988Y-82250997D01*
X179896335Y-82240000D01*
X179896324Y-82240000D01*
X179859002Y-82236324D01*
X179821680Y-82240000D01*
X171814802Y-82240000D01*
X170035000Y-80460199D01*
X170035000Y-80398061D01*
X169995226Y-80198102D01*
X169917205Y-80009744D01*
X169803937Y-79840226D01*
X169659774Y-79696063D01*
X169490256Y-79582795D01*
X169301898Y-79504774D01*
X169101939Y-79465000D01*
X168898061Y-79465000D01*
X168698102Y-79504774D01*
X168509744Y-79582795D01*
X168340226Y-79696063D01*
X168196063Y-79840226D01*
X168082795Y-80009744D01*
X168004774Y-80198102D01*
X167965000Y-80398061D01*
X164627000Y-80398061D01*
X164627000Y-76627000D01*
X193373000Y-76627000D01*
X193373000Y-121373000D01*
M02*
