M48
; DRILL file {KiCad (5.1.2)-1} date 15-07-2019 20:08:26
; FORMAT={-:-/ absolute / inch / decimal}
; #@! TF.CreationDate,2019-07-15T20:08:26+01:00
; #@! TF.GenerationSoftware,Kicad,Pcbnew,(5.1.2)-1
FMAT,2
INCH
T1C0.0157
T2C0.0315
T3C0.0394
T4C0.0433
%
G90
G05
T1
X3.878Y-2.5591
X3.878Y-4.4488
X3.9567Y-2.2638
X3.9567Y-4.1535
X4.0354Y-3.3169
X4.0354Y-5.2067
X4.0659Y-2.7226
X4.0659Y-4.6124
X4.0659Y-2.5295
X4.0659Y-4.4193
X4.0945Y-2.9134
X4.0945Y-4.8031
X4.0955Y-2.1904
X4.0955Y-4.0801
X4.124Y-1.998
X4.124Y-2.0374
X4.124Y-2.1457
X4.124Y-2.5787
X4.124Y-3.8878
X4.124Y-3.9272
X4.124Y-4.0354
X4.124Y-4.4685
X4.1245Y-2.6575
X4.1245Y-4.5472
X4.1535Y-3.3957
X4.1535Y-5.2854
X4.2815Y-2.2441
X4.2815Y-4.1339
X4.2913Y-1.9488
X4.2913Y-3.3071
X4.2913Y-3.8386
X4.2913Y-5.1969
X4.311Y-2.628
X4.311Y-4.5177
X4.3307Y-2.4409
X4.3307Y-4.3307
X4.3701Y-3.5039
X4.3701Y-5.3937
X4.4882Y-3.5039
X4.4882Y-5.3937
X4.626Y-2.3425
X4.626Y-4.2323
X4.6457Y-3.5039
X4.6457Y-5.3937
X4.8031Y-2.3425
X4.8031Y-4.2323
X5.0Y-2.3228
X5.0Y-4.2126
X5.0004Y-2.283
X5.0004Y-4.1728
X5.1575Y-3.3071
X5.1575Y-5.1969
X5.1772Y-2.7559
X5.1772Y-4.6457
X5.2559Y-3.3563
X5.2559Y-5.2461
X5.2756Y-2.7559
X5.2756Y-4.6457
X5.4331Y-2.7953
X5.4331Y-4.685
X5.4528Y-2.4016
X5.4528Y-2.5591
X5.4528Y-4.2913
X5.4528Y-4.4488
X5.5118Y-2.2047
X5.5118Y-2.2835
X5.5118Y-4.0945
X5.5118Y-4.1732
X5.6299Y-2.2047
X5.6299Y-2.2835
X5.6299Y-4.0945
X5.6299Y-4.1732
X5.7087Y-1.9488
X5.7087Y-3.8386
X5.748Y-3.6417
X5.748Y-5.5315
X5.8177Y-1.9606
X5.8177Y-3.8504
X5.8465Y-3.6417
X5.8465Y-5.5315
X5.9449Y-3.2283
X5.9449Y-5.1181
X5.9646Y-3.6417
X5.9646Y-5.5315
X5.9843Y-2.3622
X5.9843Y-2.4803
X5.9843Y-4.252
X5.9843Y-4.3701
X6.0531Y-2.1752
X6.0531Y-4.065
X6.063Y-3.2283
X6.063Y-5.1181
X6.0827Y-3.6417
X6.0827Y-5.5315
X6.1024Y-2.7953
X6.1024Y-4.685
X6.1417Y-2.1752
X6.1417Y-4.065
X6.1811Y-3.2283
X6.1811Y-5.1181
X6.2303Y-2.7559
X6.2303Y-4.6457
X6.2894Y-2.3425
X6.2894Y-4.2323
X6.3189Y-2.7559
X6.3189Y-4.6457
X6.3976Y-2.3425
X6.3976Y-4.2323
X6.4961Y-2.5
X6.4961Y-4.3898
X6.5256Y-2.372
X6.5256Y-4.2618
X6.5945Y-2.372
X6.5945Y-4.2618
X6.8701Y-2.5
X6.8701Y-4.3898
X7.126Y-2.1654
X7.126Y-2.2441
X7.126Y-2.7559
X7.126Y-2.8346
X7.126Y-4.0551
X7.126Y-4.1339
X7.126Y-4.6457
X7.126Y-4.7244
X7.1358Y-2.3327
X7.1358Y-2.5787
X7.1358Y-4.2224
X7.1358Y-4.4685
X7.3031Y-1.9882
X7.3031Y-3.878
X7.313Y-2.6378
X7.313Y-4.5276
X7.313Y-2.687
X7.313Y-4.5768
X7.313Y-2.1457
X7.313Y-4.0354
X7.3327Y-2.7854
X7.3327Y-4.6752
X7.3486Y-2.2404
X7.3486Y-4.1301
X7.3819Y-2.2933
X7.3819Y-4.1831
X7.4016Y-3.002
X7.4016Y-4.8917
X7.4191Y-2.4825
X7.4191Y-4.3722
X7.5Y-2.9724
X7.5Y-3.1496
X7.5Y-3.3268
X7.5Y-4.8622
X7.5Y-5.0394
X7.5Y-5.2165
X7.5197Y-2.126
X7.5197Y-4.0157
T2
X4.7047Y-2.0378
X4.7047Y-2.6378
X4.8047Y-2.0378
X4.8047Y-2.6378
X4.9047Y-2.0378
X4.9047Y-2.6378
X5.0047Y-2.0378
X5.0047Y-2.6378
X5.1047Y-2.0378
X5.1047Y-2.6378
X5.2362Y-3.9276
X5.2362Y-4.5276
X5.3362Y-3.9276
X5.3362Y-4.5276
X5.4362Y-3.9276
X5.4362Y-4.5276
X5.5362Y-3.9276
X5.5362Y-4.5276
X5.6362Y-3.9276
X5.6362Y-4.5276
X6.2992Y-2.0378
X6.2992Y-2.6378
X6.3992Y-2.0378
X6.3992Y-2.6378
X6.4992Y-2.0378
X6.4992Y-2.6378
X6.5992Y-2.0378
X6.5992Y-2.6378
X6.6992Y-2.0378
X6.6992Y-2.6378
X5.7677Y-2.0378
X5.7677Y-2.6378
X5.8677Y-2.0378
X5.8677Y-2.6378
X5.9677Y-2.0378
X5.9677Y-2.6378
X6.0677Y-2.0378
X6.0677Y-2.6378
X6.1677Y-2.0378
X6.1677Y-2.6378
X6.2992Y-3.9276
X6.2992Y-4.5276
X6.3992Y-3.9276
X6.3992Y-4.5276
X6.4992Y-3.9276
X6.4992Y-4.5276
X6.5992Y-3.9276
X6.5992Y-4.5276
X6.6992Y-3.9276
X6.6992Y-4.5276
X4.7047Y-3.9276
X4.7047Y-4.5276
X4.8047Y-3.9276
X4.8047Y-4.5276
X4.9047Y-3.9276
X4.9047Y-4.5276
X5.0047Y-3.9276
X5.0047Y-4.5276
X5.1047Y-3.9276
X5.1047Y-4.5276
X5.2362Y-2.0378
X5.2362Y-2.6378
X5.3362Y-2.0378
X5.3362Y-2.6378
X5.4362Y-2.0378
X5.4362Y-2.6378
X5.5362Y-2.0378
X5.5362Y-2.6378
X5.6362Y-2.0378
X5.6362Y-2.6378
X5.7677Y-3.9276
X5.7677Y-4.5276
X5.8677Y-3.9276
X5.8677Y-4.5276
X5.9677Y-3.9276
X5.9677Y-4.5276
X6.0677Y-3.9276
X6.0677Y-4.5276
X6.1677Y-3.9276
X6.1677Y-4.5276
T3
X3.937Y-3.9846
X3.937Y-4.0846
X4.0551Y-3.0315
X4.1551Y-3.0315
X4.2551Y-3.0315
X4.3551Y-3.0315
X4.4551Y-3.0315
X4.5551Y-3.0315
X4.6551Y-3.0315
X4.7551Y-3.0315
X4.8551Y-3.0315
X4.9551Y-3.0315
X5.0551Y-3.0315
X5.1551Y-3.0315
X5.2551Y-3.0315
X5.3551Y-3.0315
X5.4551Y-3.0315
X4.0551Y-4.9213
X4.1551Y-4.9213
X4.2551Y-4.9213
X4.3551Y-4.9213
X4.4551Y-4.9213
X4.5551Y-4.9213
X4.6551Y-4.9213
X4.7551Y-4.9213
X4.8551Y-4.9213
X4.9551Y-4.9213
X5.0551Y-4.9213
X5.1551Y-4.9213
X5.2551Y-4.9213
X5.3551Y-4.9213
X5.4551Y-4.9213
X3.937Y-2.3409
X3.937Y-2.4409
X4.0551Y-3.622
X4.1551Y-3.622
X4.2551Y-3.622
X4.3551Y-3.622
X4.4551Y-3.622
X4.5551Y-3.622
X4.6551Y-3.622
X4.7551Y-3.622
X4.8551Y-3.622
X4.9551Y-3.622
X5.0551Y-3.622
X5.1551Y-3.622
X5.2551Y-3.622
X5.3551Y-3.622
X5.4551Y-3.622
X4.0551Y-5.5118
X4.1551Y-5.5118
X4.2551Y-5.5118
X4.3551Y-5.5118
X4.4551Y-5.5118
X4.5551Y-5.5118
X4.6551Y-5.5118
X4.7551Y-5.5118
X4.8551Y-5.5118
X4.9551Y-5.5118
X5.0551Y-5.5118
X5.1551Y-5.5118
X5.2551Y-5.5118
X5.3551Y-5.5118
X5.4551Y-5.5118
X3.937Y-2.0949
X3.937Y-2.1949
X3.937Y-4.2307
X3.937Y-4.3307
T4
X7.061Y-5.3386
X7.061Y-5.5157
X7.3169Y-5.3386
X7.3169Y-5.5157
X6.4764Y-5.3386
X6.4764Y-5.5157
X6.7323Y-5.3386
X6.7323Y-5.5157
X7.061Y-3.4488
X7.061Y-3.626
X7.3169Y-3.4488
X7.3169Y-3.626
X6.4764Y-3.4488
X6.4764Y-3.626
X6.7323Y-3.4488
X6.7323Y-3.626
T0
M30
