M48
; DRILL file {KiCad (5.1.2)-1} date 16-07-2019 10:57:12
; FORMAT={-:-/ absolute / metric / decimal}
; #@! TF.CreationDate,2019-07-16T10:57:12+01:00
; #@! TF.GenerationSoftware,Kicad,Pcbnew,(5.1.2)-1
FMAT,2
METRIC
T1C0.400
T2C0.800
T3C1.000
T4C1.100
%
G90
G05
T1
X98.5Y-65.0
X98.5Y-113.0
X100.5Y-57.5
X100.5Y-105.5
X102.5Y-84.25
X102.5Y-132.25
X103.275Y-69.154
X103.275Y-117.154
X103.275Y-64.25
X103.275Y-112.25
X104.0Y-74.0
X104.0Y-122.0
X104.025Y-55.635
X104.025Y-103.635
X104.75Y-50.75
X104.75Y-51.75
X104.75Y-54.5
X104.75Y-65.5
X104.75Y-98.75
X104.75Y-99.75
X104.75Y-102.5
X104.75Y-113.5
X104.763Y-67.5
X104.763Y-115.5
X105.5Y-86.25
X105.5Y-134.25
X108.75Y-57.0
X108.75Y-105.0
X109.0Y-49.5
X109.0Y-84.0
X109.0Y-97.5
X109.0Y-132.0
X109.5Y-66.75
X109.5Y-114.75
X110.0Y-62.0
X110.0Y-110.0
X111.0Y-89.0
X111.0Y-137.0
X114.0Y-89.0
X114.0Y-137.0
X117.5Y-59.5
X117.5Y-107.5
X118.0Y-89.0
X118.0Y-137.0
X122.0Y-59.5
X122.0Y-107.5
X127.0Y-59.0
X127.0Y-107.0
X127.01Y-57.989
X127.01Y-105.989
X131.0Y-84.0
X131.0Y-132.0
X131.5Y-70.0
X131.5Y-118.0
X133.5Y-85.25
X133.5Y-133.25
X134.0Y-70.0
X134.0Y-118.0
X138.0Y-71.0
X138.0Y-119.0
X138.5Y-61.0
X138.5Y-65.0
X138.5Y-109.0
X138.5Y-113.0
X140.0Y-56.0
X140.0Y-58.0
X140.0Y-104.0
X140.0Y-106.0
X143.0Y-56.0
X143.0Y-58.0
X143.0Y-104.0
X143.0Y-106.0
X145.0Y-49.5
X145.0Y-97.5
X146.0Y-92.5
X146.0Y-140.5
X147.77Y-50.0
X147.77Y-97.8
X148.5Y-92.5
X148.5Y-140.5
X151.0Y-82.0
X151.0Y-130.0
X151.5Y-92.5
X151.5Y-140.5
X152.0Y-60.0
X152.0Y-63.0
X152.0Y-108.0
X152.0Y-111.0
X153.75Y-55.25
X153.75Y-103.25
X154.0Y-82.0
X154.0Y-130.0
X154.5Y-92.5
X154.5Y-140.5
X155.0Y-71.0
X155.0Y-119.0
X156.0Y-55.25
X156.0Y-103.25
X157.0Y-82.0
X157.0Y-130.0
X158.25Y-70.0
X158.25Y-118.0
X159.75Y-59.5
X159.75Y-107.5
X160.5Y-70.0
X160.5Y-118.0
X162.5Y-59.5
X162.5Y-107.5
X165.0Y-63.5
X165.0Y-111.5
X165.75Y-60.25
X165.75Y-108.25
X167.5Y-60.25
X167.5Y-108.25
X174.5Y-63.5
X174.5Y-111.5
X181.0Y-55.0
X181.0Y-57.0
X181.0Y-70.0
X181.0Y-72.0
X181.0Y-103.0
X181.0Y-105.0
X181.0Y-118.0
X181.0Y-120.0
X181.25Y-59.25
X181.25Y-65.5
X181.25Y-107.25
X181.25Y-113.5
X185.5Y-50.5
X185.5Y-98.5
X185.75Y-67.0
X185.75Y-115.0
X185.75Y-68.25
X185.75Y-116.25
X185.75Y-54.5
X185.75Y-102.5
X186.25Y-70.75
X186.25Y-118.75
X186.655Y-56.905
X186.655Y-104.905
X187.5Y-58.25
X187.5Y-106.25
X188.0Y-76.25
X188.0Y-124.25
X188.445Y-63.055
X188.445Y-111.055
X190.5Y-75.5
X190.5Y-80.0
X190.5Y-84.5
X190.5Y-123.5
X190.5Y-128.0
X190.5Y-132.5
X191.0Y-54.0
X191.0Y-102.0
T2
X119.5Y-99.76
X119.5Y-115.0
X122.04Y-99.76
X122.04Y-115.0
X124.58Y-99.76
X124.58Y-115.0
X127.12Y-99.76
X127.12Y-115.0
X129.66Y-99.76
X129.66Y-115.0
X133.0Y-51.76
X133.0Y-67.0
X135.54Y-51.76
X135.54Y-67.0
X138.08Y-51.76
X138.08Y-67.0
X140.62Y-51.76
X140.62Y-67.0
X143.16Y-51.76
X143.16Y-67.0
X133.0Y-99.76
X133.0Y-115.0
X135.54Y-99.76
X135.54Y-115.0
X138.08Y-99.76
X138.08Y-115.0
X140.62Y-99.76
X140.62Y-115.0
X143.16Y-99.76
X143.16Y-115.0
X146.5Y-51.76
X146.5Y-67.0
X149.04Y-51.76
X149.04Y-67.0
X151.58Y-51.76
X151.58Y-67.0
X154.12Y-51.76
X154.12Y-67.0
X156.66Y-51.76
X156.66Y-67.0
X146.5Y-99.76
X146.5Y-115.0
X149.04Y-99.76
X149.04Y-115.0
X151.58Y-99.76
X151.58Y-115.0
X154.12Y-99.76
X154.12Y-115.0
X156.66Y-99.76
X156.66Y-115.0
X160.0Y-51.76
X160.0Y-67.0
X162.54Y-51.76
X162.54Y-67.0
X165.08Y-51.76
X165.08Y-67.0
X167.62Y-51.76
X167.62Y-67.0
X170.16Y-51.76
X170.16Y-67.0
X119.5Y-51.76
X119.5Y-67.0
X122.04Y-51.76
X122.04Y-67.0
X124.58Y-51.76
X124.58Y-67.0
X127.12Y-51.76
X127.12Y-67.0
X129.66Y-51.76
X129.66Y-67.0
X160.0Y-99.76
X160.0Y-115.0
X162.54Y-99.76
X162.54Y-115.0
X165.08Y-99.76
X165.08Y-115.0
X167.62Y-99.76
X167.62Y-115.0
X170.16Y-99.76
X170.16Y-115.0
T3
X103.0Y-125.0
X105.54Y-125.0
X108.08Y-125.0
X110.62Y-125.0
X113.16Y-125.0
X115.7Y-125.0
X118.24Y-125.0
X120.78Y-125.0
X123.32Y-125.0
X125.86Y-125.0
X128.4Y-125.0
X130.94Y-125.0
X133.48Y-125.0
X136.02Y-125.0
X138.56Y-125.0
X100.0Y-101.21
X100.0Y-103.75
X100.0Y-59.46
X100.0Y-62.0
X103.0Y-92.0
X105.54Y-92.0
X108.08Y-92.0
X110.62Y-92.0
X113.16Y-92.0
X115.7Y-92.0
X118.24Y-92.0
X120.78Y-92.0
X123.32Y-92.0
X125.86Y-92.0
X128.4Y-92.0
X130.94Y-92.0
X133.48Y-92.0
X136.02Y-92.0
X138.56Y-92.0
X103.0Y-140.0
X105.54Y-140.0
X108.08Y-140.0
X110.62Y-140.0
X113.16Y-140.0
X115.7Y-140.0
X118.24Y-140.0
X120.78Y-140.0
X123.32Y-140.0
X125.86Y-140.0
X128.4Y-140.0
X130.94Y-140.0
X133.48Y-140.0
X136.02Y-140.0
X138.56Y-140.0
X103.0Y-77.0
X105.54Y-77.0
X108.08Y-77.0
X110.62Y-77.0
X113.16Y-77.0
X115.7Y-77.0
X118.24Y-77.0
X120.78Y-77.0
X123.32Y-77.0
X125.86Y-77.0
X128.4Y-77.0
X130.94Y-77.0
X133.48Y-77.0
X136.02Y-77.0
X138.56Y-77.0
X100.0Y-53.21
X100.0Y-55.75
X100.0Y-107.46
X100.0Y-110.0
T4
X164.5Y-87.6
X164.5Y-92.1
X171.0Y-87.6
X171.0Y-92.1
X164.5Y-135.6
X164.5Y-140.1
X171.0Y-135.6
X171.0Y-140.1
X179.35Y-87.6
X179.35Y-92.1
X185.85Y-87.6
X185.85Y-92.1
X179.35Y-135.6
X179.35Y-140.1
X185.85Y-135.6
X185.85Y-140.1
T0
M30
